<svg id="EngrenageUP12" xmlns="http://www.w3.org/2000/svg" width="96.06" height="96.06" viewBox="0 0 96.06 96.06">
  <g id="Exclusion_2" data-name="Exclusion 2" transform="translate(0 0)" fill="#707070">
    <path d="M 51.80940628051758 94.05970764160156 L 44.02709197998047 94.05970764160156 C 42.26945114135742 94.05970764160156 40.83949279785156 92.62934875488281 40.83949279785156 90.87120819091797 L 40.83949279785156 90.76846313476563 L 40.82896423339844 90.66626739501953 L 40.14856338500977 84.06116485595703 L 40.00830841064453 82.69953918457031 L 38.68823623657227 82.33737945556641 C 35.76323699951172 81.53490447998047 32.94424819946289 80.35379028320313 30.3095645904541 78.82682037353516 L 29.13699340820313 78.14723205566406 L 28.07122230529785 78.98443603515625 L 22.84222221374512 83.09203338623047 L 22.74810791015625 83.16596221923828 L 22.66347885131836 83.25059509277344 C 22.0614070892334 83.8526611328125 21.2608642578125 84.18423461914063 20.40929222106934 84.18423461914063 C 19.55773544311523 84.18423461914063 18.75717926025391 83.8526611328125 18.15509223937988 83.25057983398438 L 12.65150737762451 77.74787902832031 C 11.40869331359863 76.50505065917969 11.40882110595703 74.48204803466797 12.65193557739258 73.23839569091797 L 12.72440719604492 73.1658935546875 L 12.78907871246338 73.08636474609375 L 17.01367950439453 67.89157867431641 L 17.87896347045898 66.82757568359375 L 17.19824981689453 65.63700866699219 C 15.69552135467529 63.00873565673828 14.53476428985596 60.19513702392578 13.74820709228516 57.27434921264648 L 13.39692115783691 55.96986389160156 L 12.05562114715576 55.80869293212891 L 5.427107334136963 55.01218032836914 L 5.308221340179443 54.99789428710938 L 5.188492774963379 54.99789428710938 C 3.430350065231323 54.99789428710938 2.000007152557373 53.56755065917969 2.000007152557373 51.80940628051758 L 2.000007152557373 44.02709197998047 C 2.000007152557373 42.26945114135742 3.430350065231323 40.83949279785156 5.188492774963379 40.83949279785156 L 5.29127836227417 40.83949279785156 L 5.393535614013672 40.82894897460938 L 12.03013610839844 40.14495086669922 L 13.39730739593506 40.00405120849609 L 13.75584983825684 38.67722320556641 C 14.60172176361084 35.5468635559082 15.87545013427734 32.54547882080078 17.54165077209473 29.75640678405762 L 18.23353576660156 28.59822082519531 L 17.41882133483887 27.52289199829102 L 13.41203594207764 22.23449325561523 L 13.33993530273438 22.13933563232422 L 13.25703525543213 22.05343627929688 C 12.03613567352295 20.78834915161133 12.07160758972168 18.76542091369629 13.33610725402832 17.54399299621582 L 18.9338493347168 12.13883590698242 C 19.53149223327637 11.56156444549561 20.31776428222656 11.24377822875977 21.14809226989746 11.24377822875977 C 22.0211353302002 11.24377822875977 22.835693359375 11.58943557739258 23.44169235229492 12.21707820892334 L 23.51314926147461 12.29110717773438 L 23.59183502197266 12.35739326477051 L 28.63274955749512 16.60450744628906 L 29.68633651733398 17.49217796325684 L 30.89122200012207 16.82413482666016 C 33.39085006713867 15.4382209777832 36.05334854125977 14.35730743408203 38.80479431152344 13.61142158508301 L 40.10629272460938 13.25859260559082 L 40.26720809936523 11.91975021362305 L 41.04751968383789 5.427149772644043 L 41.06180572509766 5.308249950408936 L 41.06180572509766 5.188492774963379 C 41.06180572509766 3.430350065231323 42.49214935302734 2.000007152557373 44.25029373168945 2.000007152557373 L 52.03260803222656 2.000007152557373 C 53.79024887084961 2.000007152557373 55.22020721435547 3.430350065231323 55.22020721435547 5.188492774963379 L 55.22020721435547 5.29127836227417 L 55.23075103759766 5.393535614013672 L 55.89675140380859 11.85553550720215 L 56.03803634643555 13.22644996643066 L 57.36942291259766 13.58257865905762 C 60.35172271728516 14.38027858734131 63.2235221862793 15.56886386871338 65.90503692626953 17.11533546447754 L 67.07621765136719 17.79077911376953 L 68.13950347900391 16.95570755004883 L 73.21732330322266 12.96779251098633 L 73.31153869628906 12.89380741119385 L 73.39623260498047 12.80910682678223 C 73.998291015625 12.20705032348633 74.79888153076172 11.87547874450684 75.65052032470703 11.87547874450684 C 76.5023193359375 11.87547874450684 77.30326080322266 12.2071647644043 77.90582275390625 12.80943584442139 L 83.40809631347656 18.31170654296875 C 84.65102386474609 19.55464935302734 84.65089416503906 21.57765007019043 83.40777587890625 22.8213062286377 L 83.33531951904297 22.89380645751953 L 83.27065277099609 22.97332191467285 L 79.20265197753906 27.97552108764648 L 78.33412170410156 29.04350662231445 L 79.02152252197266 30.23613548278809 C 80.57316589355469 32.92820739746094 81.76400756835938 35.81283569335938 82.56098175048828 38.80987930297852 L 82.90936279296875 40.11997985839844 L 84.25531768798828 40.28162002563477 L 90.63272094726563 41.04753494262695 L 90.75153350830078 41.06180572509766 L 90.87120819091797 41.06180572509766 C 92.62934875488281 41.06180572509766 94.05970764160156 42.49214935302734 94.05970764160156 44.25029373168945 L 94.05970764160156 52.03260803222656 C 94.05970764160156 53.79024887084961 92.62934875488281 55.22020721435547 90.87120819091797 55.22020721435547 L 90.76844787597656 55.22020721435547 L 90.66625213623047 55.23073577880859 L 84.23664855957031 55.89313507080078 L 82.8717041015625 56.03376388549805 L 82.51168060302734 57.35783386230469 C 81.64540863037109 60.54372024536133 80.33699035644531 63.5930061340332 78.62279510498047 66.42098236083984 L 77.91864776611328 67.58261871337891 L 78.7388916015625 68.66539001464844 L 82.64759063720703 73.82509613037109 L 82.71973419189453 73.92031860351563 L 82.80269622802734 74.00627899169922 C 84.02386474609375 75.27162170410156 83.98853302001953 77.29441070556641 82.72392272949219 78.51539611816406 L 77.12586212158203 83.92086791992188 C 76.52826690673828 84.49809265136719 75.7420654296875 84.81587982177734 74.91183471679688 84.81591796875 C 74.03894805908203 84.81597900390625 73.22422027587891 84.47020721435547 72.61770629882813 83.84230804443359 L 72.54633331298828 83.76842498779297 L 72.46778106689453 83.70223236083984 L 67.45838165283203 79.48213195800781 L 66.41122436523438 78.5999755859375 L 65.20999145507813 79.25706481933594 C 62.70062255859375 80.62973785400391 60.02910614013672 81.69566345214844 57.26968002319336 82.42524719238281 L 55.9572639465332 82.77224731445313 L 55.79520797729492 84.12006378173828 L 55.01219177246094 90.63246154785156 L 54.99789428710938 90.75140380859375 L 54.99789428710938 90.87120819091797 C 54.99789428710938 92.62934875488281 53.56755065917969 94.05970764160156 51.80940628051758 94.05970764160156 Z M 48.14100646972656 30.42609214782715 C 38.45584869384766 30.42609214782715 30.57640647888184 38.30553436279297 30.57640647888184 47.99069213867188 C 30.57640647888184 57.67584991455078 38.45584869384766 65.55529022216797 48.14100646972656 65.55529022216797 C 57.82616424560547 65.55529022216797 65.70560455322266 57.67584991455078 65.70560455322266 47.99069213867188 C 65.70560455322266 38.30553436279297 57.82616424560547 30.42609214782715 48.14100646972656 30.42609214782715 Z" stroke="none"/>
    <path d="M 51.80939865112305 92.05970001220703 C 52.4647331237793 92.05970001220703 52.99789810180664 91.52653503417969 52.99789810180664 90.87120056152344 L 52.99789810180664 90.63159942626953 L 53.0265007019043 90.39369964599609 L 53.80951690673828 83.88130187988281 L 54.13363265991211 81.1856689453125 L 56.75848388671875 80.49168395996094 C 59.36181640625 79.80338287353516 61.88238143920898 78.79765319824219 64.25018310546875 77.50243377685547 L 66.65263366699219 76.18826293945313 L 68.74693298339844 77.95256805419922 L 73.75633239746094 82.17265319824219 L 73.91346740722656 82.30501556396484 L 74.05619812011719 82.45279693603516 C 74.28896331787109 82.69376373291016 74.57679748535156 82.81593322753906 74.91175079345703 82.81591796875 C 75.22531890869141 82.81590270996094 75.51036834716797 82.70063018798828 75.73660278320313 82.48210144042969 L 81.33473205566406 77.07658386230469 C 81.80615234375 76.62141418457031 81.81909942626953 75.86713409423828 81.36358642578125 75.39514923095703 L 81.19766998291016 75.22321319580078 L 81.05338287353516 75.03276824951172 L 77.14468383789063 69.87308502197266 L 75.50418090820313 67.70753479003906 L 76.91246795654297 65.38424682617188 C 78.52991485595703 62.71590042114258 79.76445007324219 59.8388671875 80.58174896240234 56.83306503295898 L 81.30180358886719 54.18489837646484 L 84.03168487548828 53.90366744995117 L 90.46128082275391 53.24126815795898 L 90.66570281982422 53.22019958496094 L 90.87120056152344 53.22019958496094 C 91.52653503417969 53.22019958496094 92.05970001220703 52.68745040893555 92.05970001220703 52.03260040283203 L 92.05970001220703 44.25030136108398 C 92.05970001220703 43.59496688842773 91.52653503417969 43.06180191040039 90.87120056152344 43.06180191040039 L 90.63186645507813 43.06180191040039 L 90.39424896240234 43.03326797485352 L 84.01685333251953 42.26736831665039 L 81.32489776611328 41.94406509399414 L 80.62813568115234 39.32384872436523 C 79.87628173828125 36.4964485168457 78.75274658203125 33.77489852905273 77.28873443603516 31.23483276367188 L 75.91394805908203 28.84958267211914 L 77.65098571777344 26.71364974975586 L 81.71898651123047 21.71145057678223 L 81.84833526611328 21.55240058898926 L 81.99326324462891 21.40740013122559 C 82.45691680908203 20.94355010986328 82.45718383789063 20.18923377990723 81.99388122558594 19.72593307495117 L 76.49193572998047 14.22398376464844 C 76.26058197021484 13.99273300170898 75.97750091552734 13.87548351287842 75.65052032470703 13.87548351287842 C 75.32389831542969 13.87548351287842 75.04125213623047 13.99251651763916 74.81044769287109 14.22333335876465 L 74.64103698730469 14.39273357391357 L 74.45259857177734 14.54071712493896 L 69.37478637695313 18.52861595153809 L 67.24821472167969 20.19873428344727 L 64.90585327148438 18.84785079956055 C 62.37571716308594 17.3886833190918 59.66621780395508 16.26723289489746 56.85263442993164 15.51466655731201 L 54.18986511230469 14.80243301391602 L 53.90728378295898 12.06058311462402 L 53.24128341674805 5.598583221435547 L 53.22019958496094 5.394083499908447 L 53.22019958496094 5.188499927520752 C 53.22019958496094 4.533166885375977 52.68745040893555 4 52.03260040283203 4 L 44.25030136108398 4 C 43.59496688842773 4 43.06180191040039 4.533166885375977 43.06180191040039 5.188499927520752 L 43.06180191040039 5.427999973297119 L 43.03321838378906 5.665800094604492 L 42.2529182434082 12.15839958190918 L 41.93109893798828 14.83609962463379 L 39.32808303833008 15.54174995422363 C 36.73208236694336 16.2455005645752 34.21979904174805 17.26544952392578 31.86100006103516 18.57328414916992 L 29.45126724243164 19.90934944152832 L 27.34410095214844 18.13400077819824 L 22.30319976806641 13.88689994812012 L 22.14581680297852 13.75431632995605 L 22.00288391113281 13.60626697540283 C 21.77065086364746 13.36573314666748 21.48306655883789 13.24378299713135 21.14809989929199 13.24378299713135 C 20.83444976806641 13.24378299713135 20.54935073852539 13.35904979705811 20.32309913635254 13.57760047912598 L 14.72561645507813 18.98250007629395 C 14.25395011901855 19.43810081481934 14.24073314666748 20.19266700744629 14.6961498260498 20.66456604003906 L 14.86196708679199 20.83638381958008 L 15.00616645812988 21.0267162322998 L 19.0129508972168 26.31511688232422 L 20.64240074157715 28.46576690673828 L 19.25860023498535 30.78213310241699 C 17.68643379211426 33.41378402709961 16.48463249206543 36.2456169128418 15.68661689758301 39.19893264770508 L 14.96955013275146 41.85260009765625 L 12.23518371582031 42.13441848754883 L 5.598583221435547 42.81841659545898 L 5.394083499908447 42.83950042724609 L 5.188499927520752 42.83950042724609 C 4.533166885375977 42.83950042724609 4 43.37224960327148 4 44.027099609375 L 4 51.80939865112305 C 4 52.4647331237793 4.533166885375977 52.99789810180664 5.188499927520752 52.99789810180664 L 5.427966594696045 52.99789810180664 L 5.665716648101807 53.02646636962891 L 12.29421710968018 53.82296752929688 L 14.97681713104248 54.14531707763672 L 15.67940044403076 56.75426483154297 C 16.42148399353027 59.50991821289063 17.51664924621582 62.16450119018555 18.93448257446289 64.644287109375 L 20.29591751098633 67.02543640136719 L 18.56533241271973 69.15345001220703 L 14.34073352813721 74.34825134277344 L 14.21138286590576 74.50730133056641 L 14.06645011901855 74.65229797363281 C 13.6028003692627 75.11616516113281 13.60251712799072 75.87046813964844 14.06560039520264 76.33353424072266 L 19.56933403015137 81.83636474609375 C 19.80014991760254 82.06719970703125 20.08275032043457 82.18423461914063 20.40929985046387 82.18423461914063 C 20.73584938049316 82.18423461914063 21.0184497833252 82.06719970703125 21.2492504119873 81.83640289306641 L 21.41851615905762 81.66713714599609 L 21.60675048828125 81.51926422119141 L 26.83575057983398 77.41166687011719 L 28.96730041503906 75.73725128173828 L 31.31245040893555 77.096435546875 C 33.79846572875977 78.53724670410156 36.45806503295898 79.65163421630859 39.21738433837891 80.40863037109375 L 41.85751724243164 81.1329345703125 L 42.1380500793457 83.85621643066406 L 42.81845092773438 90.46131896972656 L 42.83950042724609 90.66571807861328 L 42.83950042724609 90.87120056152344 C 42.83950042724609 91.52653503417969 43.37224960327148 92.05970001220703 44.027099609375 92.05970001220703 L 51.80939865112305 92.05970001220703 M 48.14099884033203 28.42609977722168 C 58.92895126342773 28.42609977722168 67.70559692382813 37.20275115966797 67.70559692382813 47.99069976806641 C 67.70559692382813 58.77864837646484 58.92895126342773 67.5552978515625 48.14099884033203 67.5552978515625 C 37.35305023193359 67.5552978515625 28.57640075683594 58.77864837646484 28.57640075683594 47.99069976806641 C 28.57640075683594 37.20275115966797 37.35305023193359 28.42609977722168 48.14099884033203 28.42609977722168 M 51.80939865112305 96.05970001220703 L 44.027099609375 96.05970001220703 C 41.16664886474609 96.05970001220703 38.83950042724609 93.73214721679688 38.83950042724609 90.87120056152344 L 38.15909957885742 84.26609802246094 C 35.06791687011719 83.41805267333984 32.08928298950195 82.16989898681641 29.30669975280762 80.55719757080078 L 24.07769966125488 84.66480255126953 C 23.0979175567627 85.64459991455078 21.79508399963379 86.18423461914063 20.40929985046387 86.18423461914063 C 19.02351760864258 86.18423461914063 17.72071647644043 85.64461517333984 16.74090003967285 84.66480255126953 L 11.23740005493164 79.16220092773438 C 9.214850425720215 77.1396484375 9.214850425720215 73.84795379638672 11.23740005493164 71.82450103759766 L 15.46199989318848 66.62969970703125 C 13.87415027618408 63.8525505065918 12.64781665802002 60.87955093383789 11.81700038909912 57.79439926147461 L 5.188499927520752 56.99789810180664 C 2.327600002288818 56.99789810180664 6.103512362187757e-09 54.67034912109375 6.103512362187757e-09 51.80939865112305 L 6.103512362187757e-09 44.027099609375 C 6.103512362187757e-09 41.16664886474609 2.327566623687744 38.83950042724609 5.188499927520752 38.83950042724609 L 11.82509994506836 38.15549850463867 C 12.71889972686768 34.84775161743164 14.06483364105225 31.67654991149902 15.82470035552979 28.73069953918457 L 11.81791687011719 23.44230079650879 C 9.83156681060791 21.38408279418945 9.889266967773438 18.09276580810547 11.94659996032715 16.10549926757813 L 17.54459953308105 10.70009994506836 C 18.5168342590332 9.760983467102051 19.79658317565918 9.243782997131348 21.14809989929199 9.243782997131348 C 22.56868362426758 9.243782997131348 23.89419937133789 9.806366920471191 24.88050079345703 10.82789993286133 L 29.92140007019043 15.07499980926514 C 32.56238174438477 13.61071681976318 35.3754997253418 12.4688835144043 38.28150177001953 11.6810998916626 L 39.06180191040039 5.188499927520752 C 39.06180191040039 2.327600002288818 41.38935089111328 6.103512362187757e-09 44.25030136108398 6.103512362187757e-09 L 52.03260040283203 6.103512362187757e-09 C 54.89305114746094 6.103512362187757e-09 57.22019958496094 2.327566623687744 57.22019958496094 5.188499927520752 L 57.88619995117188 11.65050029754639 C 61.03775024414063 12.4934663772583 64.07208251953125 13.74946689605713 66.90419769287109 15.38280010223389 L 71.98201751708984 11.39490032196045 C 72.96179962158203 10.41511631011963 74.26466369628906 9.875483512878418 75.65052032470703 9.875483512878418 C 77.03636932373047 9.875483512878418 78.33944702148438 10.41508293151855 79.31971740722656 11.39490032196045 L 84.82231903076172 16.89749908447266 C 86.84486389160156 18.92006683349609 86.84486389160156 22.21175003051758 84.82231903076172 24.23520088195801 L 80.75431823730469 29.23740005493164 C 82.39383697509766 32.08198165893555 83.65194702148438 35.13008499145508 84.49379730224609 38.2958984375 L 90.87120056152344 39.06180191040039 C 93.73210144042969 39.06180191040039 96.05970001220703 41.38935089111328 96.05970001220703 44.25030136108398 L 96.05970001220703 52.03260040283203 C 96.05970001220703 54.89305114746094 93.73214721679688 57.22019958496094 90.87120056152344 57.22019958496094 L 84.44159698486328 57.88259887695313 C 83.52622985839844 61.24905014038086 82.14363098144531 64.47083282470703 80.33309936523438 67.45771789550781 L 84.24179840087891 72.61740112304688 C 86.22859954833984 74.67606353759766 86.1708984375 77.96738433837891 84.11309814453125 79.95420074462891 L 78.51509857177734 85.35959625244141 C 77.54293060302734 86.29865264892578 76.26329803466797 86.81584930419922 74.91194915771484 86.81591796875 C 73.49168395996094 86.81600189208984 72.166015625 86.25341796875 71.17919921875 85.23179626464844 L 66.1697998046875 81.01171875 C 63.51828384399414 82.46213531494141 60.69546508789063 83.58821868896484 57.78091812133789 84.35880279541016 L 56.99789810180664 90.87120056152344 C 56.99789810180664 93.73210144042969 54.67034912109375 96.05970001220703 51.80939865112305 96.05970001220703 Z M 48.14099884033203 32.42610168457031 C 39.55865097045898 32.42610168457031 32.57640075683594 39.40835189819336 32.57640075683594 47.99069976806641 C 32.57640075683594 56.57305145263672 39.55865097045898 63.55530166625977 48.14099884033203 63.55530166625977 C 56.72335052490234 63.55530166625977 63.70560073852539 56.57305145263672 63.70560073852539 47.99069976806641 C 63.70560073852539 39.40835189819336 56.72335052490234 32.42610168457031 48.14099884033203 32.42610168457031 Z" stroke="none" fill="#343434"/>
  </g>
</svg>
