<svg xmlns="http://www.w3.org/2000/svg" width="121.346" height="121.346" viewBox="0 0 121.346 121.346">
  <g id="EngrenageUPLEFT9" transform="translate(16.591) rotate(9)">
    <g id="Exclusion_2" data-name="Exclusion 2" transform="translate(0 0)" fill="#707070">
      <path d="M 57.20277404785156 104.0601119995117 L 48.61114501953125 104.0601119995117 C 46.5549430847168 104.0601119995117 44.88209915161133 102.3872680664063 44.88209915161133 100.3310699462891 L 44.88209915161133 100.2283020019531 L 44.87155914306641 100.1260833740234 L 44.12015914916992 92.83363342285156 L 43.97991561889648 91.47251129150391 L 42.66046905517578 91.11006927490234 C 39.41311264038086 90.21802520751953 36.28383636474609 88.90692901611328 33.35955810546875 87.21320343017578 L 32.18722152709961 86.53418731689453 L 31.12177467346191 87.37102508544922 L 25.34891319274902 91.90526580810547 L 25.2547435760498 91.97924041748047 L 25.17006683349609 92.06391143798828 C 24.4656982421875 92.768310546875 23.52935981750488 93.15623474121094 22.53352928161621 93.15623474121094 C 21.53794479370117 93.15623474121094 20.60208320617676 92.76845550537109 19.89835929870605 92.06431579589844 L 13.82220649719238 85.9881591796875 C 13.11765193939209 85.28401947021484 12.72986793518066 84.34815979003906 12.72986793518066 83.35257720947266 C 12.72986793518066 82.35675811767578 13.11779022216797 81.42041778564453 13.822190284729 80.71603393554688 L 13.89492893218994 80.64329528808594 L 13.95980644226074 80.56348419189453 L 18.62294387817383 74.8280029296875 L 19.4878978729248 73.76416015625 L 18.8074836730957 72.57380676269531 C 17.13849830627441 69.65403747558594 15.84979057312012 66.53076171875 14.97715950012207 63.29071426391602 L 14.62582111358643 61.98622131347656 L 13.28448295593262 61.82511520385742 L 5.966267585754395 60.94609832763672 L 5.847436904907227 60.93181991577148 L 5.727759838104248 60.93181991577148 C 3.67226767539978 60.93181991577148 2.000005960464478 59.25897598266602 2.000005960464478 57.20277404785156 L 2.000005960464478 48.61114501953125 C 2.000005960464478 46.5549430847168 3.67226767539978 44.88209915161133 5.727759838104248 44.88209915161133 L 5.830544471740723 44.88209915161133 L 5.932790756225586 44.87155914306641 L 13.26132869720459 44.11628341674805 L 14.62877559661865 43.97536087036133 L 14.98714447021484 42.6482048034668 C 15.92479038238525 39.17583847045898 17.33849906921387 35.84426879882813 19.18902206420898 32.74602127075195 L 19.88072967529297 31.58792877197266 L 19.06612968444824 30.51271438598633 L 14.64271354675293 24.67411422729492 L 14.57031345367432 24.57854461669922 L 14.48700618743896 24.49231338500977 C 13.79540634155273 23.77637481689453 13.42411327362061 22.83378982543945 13.44151401519775 21.83817481994629 C 13.45891380310059 20.84242057800293 13.86305236816406 19.91312980651855 14.57948303222656 19.22143745422363 L 20.75988388061523 13.25242137908936 C 21.45869827270508 12.57774448394775 22.37868309020996 12.20605182647705 23.35011291503906 12.20605182647705 C 24.37116050720215 12.20605182647705 25.32382202148438 12.61012935638428 26.03260612487793 13.34386730194092 L 26.1038990020752 13.41766738891602 L 26.18237495422363 13.48377513885498 L 31.7490062713623 18.17399024963379 L 32.80285263061523 19.06192970275879 L 34.00790023803711 18.3934211730957 C 36.77912902832031 16.85605239868164 39.73363494873047 15.65649795532227 42.78934478759766 14.82808303833008 L 44.09072875976563 14.47526741027832 L 44.25171279907227 13.13655948638916 L 45.11397552490234 5.966559886932373 L 45.1282844543457 5.847590446472168 L 45.1282844543457 5.727759838104248 C 45.1282844543457 3.67226767539978 46.80054473876953 2.000005960464478 48.85603713989258 2.000005960464478 L 57.44895935058594 2.000005960464478 C 59.50445175170898 2.000005960464478 61.17671203613281 3.67226767539978 61.17671203613281 5.727759838104248 L 61.17671203613281 5.830436706542969 L 61.18722152709961 5.932559967041016 L 61.92188262939453 13.06905174255371 L 62.06302261352539 14.44006729125977 L 63.39445114135742 14.79629802703857 C 66.70779418945313 15.68277549743652 69.89583587646484 17.00199127197266 72.87000274658203 18.71728324890137 L 74.04132843017578 19.392822265625 L 75.10465240478516 18.55755996704102 L 80.71125030517578 14.15348339080811 L 80.80538940429688 14.07954406738281 L 80.89003753662109 13.99489879608154 C 81.59377288818359 13.29114437103271 82.52977752685547 12.90355968475342 83.52558898925781 12.90355968475342 C 84.52165222167969 12.90355968475342 85.45814514160156 13.29128265380859 86.16255950927734 13.99529838562012 L 92.2379150390625 20.07065200805664 C 93.69178771972656 21.52454376220703 93.69178771972656 23.89019012451172 92.2379150390625 25.34408378601074 L 92.16520690917969 25.41680526733398 L 92.10032653808594 25.49657440185547 L 87.60988616943359 31.01940536499023 L 86.74183654785156 32.0870361328125 L 87.42861938476563 33.27937698364258 C 89.15123748779297 36.27000427246094 90.47299194335938 39.47172927856445 91.35716247558594 42.79563522338867 L 91.70555877685547 44.1053581237793 L 93.0511474609375 44.26718902587891 L 100.0922698974609 45.11397552490234 L 100.2112350463867 45.1282844543457 L 100.3310699462891 45.1282844543457 C 102.3872680664063 45.1282844543457 104.0601119995117 46.80054473876953 104.0601119995117 48.85603713989258 L 104.0601119995117 57.44895935058594 C 104.0601119995117 59.50445175170898 102.3872680664063 61.17671203613281 100.3310699462891 61.17671203613281 L 100.2282180786133 61.17671203613281 L 100.1259155273438 61.1872673034668 L 93.02679443359375 61.91934585571289 L 91.66201782226563 62.06008148193359 L 91.30202484130859 63.3840217590332 C 90.34072875976563 66.9193115234375 88.88822174072266 70.30374145507813 86.98487091064453 73.44328308105469 L 86.28053283691406 74.60506439208984 L 87.10102081298828 75.68795776367188 L 91.41744995117188 81.38478851318359 L 91.48965454101563 81.48009490966797 L 91.57270050048828 81.56611633300781 C 92.26455688476563 82.28271484375 92.63600921630859 83.22585296630859 92.61860656738281 84.22182464599609 C 92.60120391845703 85.21762084960938 92.19706726074219 86.14697265625 91.48062133789063 86.83869934082031 L 85.29909515380859 92.80752563476563 C 84.60051727294922 93.48237609863281 83.68125152587891 93.8538818359375 82.71034240722656 93.85392761230469 C 81.68942260742188 93.85395812988281 80.73679351806641 93.44962310791016 80.02793121337891 92.71537780761719 L 79.95640563964844 92.64129638671875 L 79.87765502929688 92.57495880126953 L 74.34708404541016 87.91569519042969 L 73.29998779296875 87.03356170654297 L 72.09877777099609 87.69055938720703 C 69.31330108642578 89.21406555175781 66.34768676757813 90.39710998535156 63.28426742553711 91.20687103271484 L 61.9715461730957 91.55385589599609 L 61.80963516235352 92.9019775390625 L 60.94608306884766 100.0925903320313 L 60.93181991577148 100.2114028930664 L 60.93181991577148 100.3310699462891 C 60.93181991577148 102.3872680664063 59.25897598266602 104.0601119995117 57.20277404785156 104.0601119995117 Z M 53.15314483642578 33.80233001708984 C 42.57403564453125 33.80233001708984 33.9672966003418 42.40848159790039 33.9672966003418 52.98686599731445 C 33.9672966003418 63.56526947021484 42.57403564453125 72.17144012451172 53.15314483642578 72.17144012451172 C 63.73152923583984 72.17144012451172 72.33768463134766 63.56526947021484 72.33768463134766 52.98686599731445 C 72.33768463134766 42.40848159790039 63.73152923583984 33.80233001708984 53.15314483642578 33.80233001708984 Z" stroke="none"/>
      <path d="M 57.20278549194336 102.0601043701172 C 58.15618515014648 102.0601043701172 58.93181991577148 101.2844696044922 58.93181991577148 100.3310699462891 L 58.93181991577148 100.0917358398438 L 58.96035385131836 99.85411834716797 L 59.82390213012695 92.66350555419922 L 60.14770126342773 89.96723175048828 L 62.77317047119141 89.27326965332031 C 65.68045043945313 88.50479888916016 68.49513244628906 87.38193511962891 71.13906860351563 85.93586730957031 L 73.54148864746094 84.62188720703125 L 75.63566589355469 86.38613891601563 L 81.16623687744141 91.04538726806641 L 81.32375335693359 91.17808532714844 L 81.46680450439453 91.32625579833984 C 81.80008697509766 91.67147064208984 82.23007202148438 91.85393524169922 82.71028900146484 91.85391998291016 C 83.16651916503906 91.85390472412109 83.58111572265625 91.68635559082031 83.90985107421875 91.36878204345703 L 90.09141540527344 85.39990234375 C 90.42833709716797 85.07461547851563 90.61073303222656 84.6551513671875 90.61891937255859 84.18685150146484 C 90.62710571289063 83.71828460693359 90.45938873291016 83.29241943359375 90.13388824462891 82.95528411865234 L 89.96778869628906 82.78323364257813 L 89.82334899902344 82.59262084960938 L 85.50691986083984 76.89576721191406 L 83.86593627929688 74.73000335693359 L 85.27462005615234 72.40643310546875 C 87.08119964599609 69.42652130126953 88.45978546142578 66.21438598632813 89.37208557128906 62.8592529296875 L 90.09207153320313 60.21136856079102 L 92.82161712646484 59.92988586425781 L 99.92075347900391 59.19780349731445 L 100.1253662109375 59.17670059204102 L 100.3310699462891 59.17670059204102 C 101.2844696044922 59.17670059204102 102.0601043701172 58.40163421630859 102.0601043701172 57.44895172119141 L 102.0601043701172 48.85603713989258 C 102.0601043701172 47.90335083007813 101.2844696044922 47.1282844543457 100.3310699462891 47.1282844543457 L 100.0914001464844 47.1282844543457 L 99.85345458984375 47.09967041015625 L 92.81233215332031 46.25286865234375 L 90.12118530273438 45.92921829223633 L 89.42438507080078 43.30976867675781 C 88.58523559570313 40.15522003173828 87.3306884765625 37.11635208129883 85.69557189941406 34.27761840820313 L 84.32198333740234 31.89293479919434 L 86.05810546875 29.7576847076416 L 90.54855346679688 24.2348690032959 L 90.67828369140625 24.07530212402344 L 90.82368469238281 23.92990303039551 C 91.49778747558594 23.25578498840332 91.49778747558594 22.1589527130127 90.82371520996094 21.4848690032959 L 84.74870300292969 15.40988540649414 C 84.41726684570313 15.07863521575928 83.99433898925781 14.90355205535889 83.52560424804688 14.90355205535889 C 83.05731964111328 14.90355205535889 82.63498687744141 15.078369140625 82.30425262451172 15.40910243988037 L 82.13497161865234 15.57840251922607 L 81.94670104980469 15.72628593444824 L 76.34010314941406 20.13035202026367 L 74.21345520019531 21.80086898803711 L 71.87081909179688 20.44980239868164 C 69.04792022705078 18.82175254821777 66.02215576171875 17.56966972351074 62.87753677368164 16.72833633422852 L 60.21466827392578 16.01590156555176 L 59.93240356445313 13.27386856079102 L 59.19773483276367 6.137368679046631 L 59.17670059204102 5.933102130889893 L 59.17670059204102 5.727752208709717 C 59.17670059204102 4.775068759918213 58.40163421630859 4.000002384185791 57.44895172119141 4.000002384185791 L 48.85603713989258 4.000002384185791 C 47.90335083007813 4.000002384185791 47.1282844543457 4.775068759918213 47.1282844543457 5.727752208709717 L 47.1282844543457 5.96740198135376 L 47.09967041015625 6.205352306365967 L 46.23740386962891 13.37535190582275 L 45.91542053222656 16.0527515411377 L 43.31266784667969 16.75838470458984 C 40.41255187988281 17.54463577270508 37.60840225219727 18.68315124511719 34.97811889648438 20.14231872558594 L 32.56803512573242 21.47931861877441 L 30.46033477783203 19.70346832275391 L 24.89370155334473 15.01326847076416 L 24.73675155639648 14.88103580474854 L 24.59415245056152 14.73341846466064 C 24.26088523864746 14.38841915130615 23.83070182800293 14.20605182647705 23.35011863708496 14.20605182647705 C 22.89313507080078 14.20605182647705 22.47770309448242 14.3739185333252 22.14926910400391 14.69101905822754 L 15.96861839294434 20.66028594970703 C 15.63175201416016 20.98550224304199 15.44938564300537 21.40486907958984 15.44120216369629 21.87310218811035 C 15.4330358505249 22.34113502502441 15.60048580169678 22.7663516998291 15.92546844482422 23.10278511047363 L 16.09206962585449 23.27523612976074 L 16.23685264587402 23.46635246276855 L 20.66026878356934 29.30493545532227 L 22.28946876525879 31.45535278320313 L 20.90606880187988 33.77155303955078 C 19.14961814880371 36.71233367919922 17.80781936645508 39.87430191040039 16.91796875 43.16962051391602 L 16.20121955871582 45.82388687133789 L 13.46635246276855 46.10573577880859 L 6.137818813323975 46.86101913452148 L 5.933335304260254 46.88210296630859 L 5.727752208709717 46.88210296630859 C 4.775068759918213 46.88210296630859 4.000002384185791 47.65775299072266 4.000002384185791 48.61115264892578 L 4.000002384185791 57.20278549194336 C 4.000002384185791 58.15618515014648 4.775068759918213 58.93181991577148 5.727752208709717 58.93181991577148 L 5.967118740081787 58.93181991577148 L 6.204768657684326 58.96036911010742 L 13.52300262451172 59.83938598632813 L 16.20568466186523 60.16160202026367 L 16.90835189819336 62.77058410644531 C 17.73655128479004 65.84563446044922 18.95970153808594 68.80998229980469 20.54381942749023 71.58126831054688 L 21.90468597412109 73.96196746826172 L 20.17478561401367 76.08968353271484 L 15.51163578033447 81.82517242431641 L 15.38185214996338 81.98478698730469 L 15.23638534545898 82.1302490234375 C 14.90501880645752 82.46161651611328 14.72986888885498 82.88428497314453 14.72986888885498 83.35258483886719 C 14.72986888885498 83.82041931152344 14.90473556518555 84.24246978759766 15.23641872406006 84.57393646240234 L 21.31298637390137 90.65052032470703 C 21.64365196228027 90.98136901855469 22.06570243835449 91.15625 22.53353500366211 91.15625 C 23.00180244445801 91.15625 23.42448616027832 90.98110198974609 23.75585174560547 90.64971923828125 L 23.92520141601563 90.48036956787109 L 24.11355209350586 90.33243560791016 L 29.88641929626465 85.79818725585938 L 32.01728439331055 84.12450408935547 L 34.36196899414063 85.48253631591797 C 37.13788604736328 87.09035491943359 40.10813522338867 88.33485412597656 43.19023513793945 89.18150329589844 L 45.82912063598633 89.90640258789063 L 46.109619140625 92.62863922119141 L 46.86103439331055 99.92108917236328 L 46.88210296630859 100.1255340576172 L 46.88210296630859 100.3310699462891 C 46.88210296630859 101.2844696044922 47.65775299072266 102.0601043701172 48.61115264892578 102.0601043701172 L 57.20278549194336 102.0601043701172 M 53.15313720703125 31.80231857299805 C 64.83433532714844 31.80231857299805 74.33768463134766 41.30566787719727 74.33768463134766 52.98686981201172 C 74.33768463134766 64.66808319091797 64.83433532714844 74.17143249511719 53.15313720703125 74.17143249511719 C 41.47123718261719 74.17143249511719 31.9673023223877 64.66808319091797 31.9673023223877 52.98686981201172 C 31.9673023223877 41.30566787719727 41.47123718261719 31.80231857299805 53.15313720703125 31.80231857299805 M 57.20278549194336 106.0601043701172 L 48.61115264892578 106.0601043701172 C 45.45215225219727 106.0601043701172 42.88210296630859 103.4900665283203 42.88210296630859 100.3310699462891 L 42.13068389892578 93.03861999511719 C 38.7174186706543 92.10100555419922 35.42876815795898 90.72293853759766 32.35717010498047 88.94387054443359 L 26.58430290222168 93.47811889648438 C 25.5022029876709 94.56023406982422 24.06356811523438 95.15625 22.53353500366211 95.15625 C 21.00350189208984 95.15625 19.56525230407715 94.56027221679688 18.48373603820801 93.47811889648438 L 12.40798568725586 87.40236663818359 C 11.32583522796631 86.32085418701172 10.72986888885498 84.88262176513672 10.72986888885498 83.35258483886719 C 10.72986888885498 81.82253265380859 11.32583522796631 80.38393402099609 12.40798568725586 79.30180358886719 L 17.07113456726074 73.56632232666016 C 15.31696891784668 70.49755096435547 13.9627685546875 67.21478271484375 13.04598522186279 63.81083679199219 L 5.727752208709717 62.93181991577148 C 2.569552183151245 62.93181991577148 2.18505851989903e-06 60.36178588867188 2.18505851989903e-06 57.20278549194336 L 2.18505851989903e-06 48.61115264892578 C 2.18505851989903e-06 45.45215225219727 2.569452285766602 42.88210296630859 5.727752208709717 42.88210296630859 L 13.0562858581543 42.1268196105957 C 14.04193592071533 38.47676849365234 15.52798557281494 34.9752197265625 17.47196960449219 31.72045135498047 L 13.04855251312256 25.88186836242676 C 11.98573589324951 24.78163528442383 11.4150857925415 23.33310127258301 11.441819190979 21.80321884155273 C 11.46853542327881 20.27328491210938 12.08951854705811 18.84536933898926 13.19033527374268 17.78258514404297 L 19.37046813964844 11.81381893157959 C 20.4443531036377 10.7770357131958 21.85768508911133 10.20605182647705 23.35011863708496 10.20605182647705 C 24.9184684753418 10.20605182647705 26.38198471069336 10.82691860198975 27.4710521697998 11.95430183410645 L 33.03768539428711 16.64450263977051 C 35.95060348510742 15.02855205535889 39.05600357055664 13.76801872253418 42.26601791381836 12.8977518081665 L 43.1282844543457 5.727752208709717 C 43.1282844543457 2.569552183151245 45.69775390625 2.18505851989903e-06 48.85603713989258 2.18505851989903e-06 L 57.44895172119141 2.18505851989903e-06 C 60.60725402832031 2.18505851989903e-06 63.17670059204102 2.569452285766602 63.17670059204102 5.727752208709717 L 63.91136932373047 12.8642520904541 C 67.39405059814453 13.79603576660156 70.74472045898438 15.182785987854 73.86920166015625 16.98476791381836 L 79.47579956054688 12.58070182800293 C 80.55726623535156 11.49921894073486 81.99555206298828 10.90355205535889 83.52560424804688 10.90355205535889 C 85.05563354492188 10.90355205535889 86.49425506591797 11.49916839599609 87.57637023925781 12.58070182800293 L 93.65213775634766 18.65643501281738 C 95.88580322265625 20.89013481140137 95.88580322265625 24.52460289001465 93.65213775634766 26.75830268859863 L 89.16168212890625 32.28112030029297 C 90.97212219238281 35.42421722412109 92.36101531982422 38.78936767578125 93.28995513916016 42.28148651123047 L 100.3310699462891 43.1282844543457 C 103.4900054931641 43.1282844543457 106.0601043701172 45.69775390625 106.0601043701172 48.85603713989258 L 106.0601043701172 57.44895172119141 C 106.0601043701172 60.60725402832031 103.4900665283203 63.17670059204102 100.3310699462891 63.17670059204102 L 93.23193359375 63.90878677368164 C 92.22148895263672 67.62490081787109 90.69463348388672 71.18196868896484 88.69512176513672 74.48011779785156 L 93.01155090332031 80.17697143554688 C 94.07437133789063 81.27778625488281 94.64503479003906 82.72673797607422 94.61830139160156 84.25673675537109 C 94.59156799316406 85.78676605224609 93.97056579589844 87.2147216796875 92.86976623535156 88.27753448486328 L 86.6883544921875 94.24628448486328 C 85.61521911621094 95.28293609619141 84.20249938964844 95.85386657714844 82.71041870117188 95.85391998291016 C 81.14192199707031 95.85396575927734 79.67826843261719 95.23270416259766 78.58906555175781 94.10449981689453 L 73.05850219726563 89.44525146484375 C 70.13066864013672 91.04660034179688 67.01356506347656 92.28980255126953 63.79536819458008 93.14044952392578 L 62.93181991577148 100.3310699462891 C 62.93181991577148 103.4900054931641 60.36178588867188 106.0601043701172 57.20278549194336 106.0601043701172 Z M 53.15313720703125 35.80231857299805 C 43.67683410644531 35.80231857299805 35.96730041503906 43.51126861572266 35.96730041503906 52.98686981201172 C 35.96730041503906 62.46246719360352 43.67683410644531 70.17143249511719 53.15313720703125 70.17143249511719 C 62.62873458862305 70.17143249511719 70.33768463134766 62.46246719360352 70.33768463134766 52.98686981201172 C 70.33768463134766 43.51126861572266 62.62873458862305 35.80231857299805 53.15313720703125 35.80231857299805 Z" stroke="none" fill="#343434"/>
    </g>
  </g>
</svg>
