<svg xmlns="http://www.w3.org/2000/svg" width="108.167" height="108.167" viewBox="0 0 108.167 108.167">
  <g id="EngrenageUPLEFT1" transform="matrix(0.788, 0.616, -0.616, 0.788, 47.443, 0)">
    <g id="Exclusion_2" data-name="Exclusion 2" transform="translate(0 0)" fill="#707070">
      <path d="M 41.56182861328125 75.06011199951172 L 35.31940460205078 75.06011199951172 C 34.12696838378906 75.06011199951172 33.15685272216797 74.08999633789063 33.15685272216797 72.89756011962891 L 33.15685272216797 72.79479217529297 L 33.14632415771484 72.69257354736328 L 32.60036849975586 67.39408874511719 L 32.46012115478516 66.03296661376953 L 31.14067649841309 65.67050933837891 C 28.82639312744141 65.03478240966797 26.59624099731445 64.10039520263672 24.51214599609375 62.89328765869141 L 23.33980560302734 62.21427536010742 L 22.27437019348145 63.05110931396484 L 18.07998085021973 66.34555816650391 L 17.98580551147461 66.41953277587891 L 17.901123046875 66.50421905517578 C 17.49263954162598 66.91271209716797 16.94965171813965 67.13767242431641 16.37219429016113 67.13767242431641 C 15.79495811462402 67.13767242431641 15.25235843658447 66.91284942626953 14.84436988830566 66.50461578369141 L 10.42948722839355 62.08974456787109 C 10.02084064483643 61.68132400512695 9.796005249023438 61.13872146606445 9.796005249023438 60.56150054931641 C 9.796005249023438 59.98403930664063 10.02098178863525 59.4410400390625 10.42947578430176 59.03254699707031 L 10.50221729278564 58.95981597900391 L 10.56709957122803 58.8800048828125 L 13.95519351959229 54.7127685546875 L 14.82013416290283 53.64892196655273 L 14.13972282409668 52.45856857299805 C 12.95031070709229 50.37778091430664 12.03189945220947 48.15194702148438 11.40999317169189 45.84291076660156 L 11.0586519241333 44.53842926025391 L 9.71732234954834 44.37731170654297 L 4.40012264251709 43.73865127563477 L 4.281299114227295 43.72438049316406 L 4.161616802215576 43.72438049316406 C 2.969699144363403 43.72438049316406 2.00000524520874 42.75426483154297 2.00000524520874 41.56182861328125 L 2.00000524520874 35.31940460205078 C 2.00000524520874 34.12696838378906 2.969699144363403 33.15685272216797 4.161616802215576 33.15685272216797 L 4.264405250549316 33.15685272216797 L 4.366652011871338 33.14631271362305 L 9.691346168518066 32.5975456237793 L 11.05878162384033 32.45661544799805 L 11.41714668273926 31.12948799133301 C 12.08535766601563 28.65495872497559 13.09286403656006 26.28071022033691 14.41166400909424 24.07268714904785 L 15.10336971282959 22.91458129882813 L 14.28876972198486 21.83937072753906 L 11.0748405456543 17.59722900390625 L 11.00244045257568 17.50167655944824 L 10.91914653778076 17.41545295715332 C 10.51815795898438 17.00034713745117 10.30288791656494 16.45381736755371 10.31298160552979 15.8765344619751 C 10.32306385040283 15.29909896850586 10.55740547180176 14.76022911071777 10.97285175323486 14.35914611816406 L 15.46340465545654 10.0221700668335 C 15.86859321594238 9.630970001220703 16.40213394165039 9.4154052734375 16.96549987792969 9.4154052734375 C 17.56627655029297 9.4154052734375 18.10422897338867 9.643558502197266 18.52118110656738 10.07519340515137 L 18.59248733520508 10.14900493621826 L 18.67096900939941 10.21512317657471 L 22.71552276611328 13.62288761138916 L 23.76936912536621 14.51081657409668 L 24.97440528869629 13.84231090545654 C 26.94938087463379 12.74668788909912 29.05492210388184 11.89181709289551 31.23255729675293 11.30144023895264 L 32.5339241027832 10.94862842559814 L 32.69492340087891 9.609922409057617 L 33.32141876220703 4.400416851043701 L 33.33572387695313 4.281440258026123 L 33.33572387695313 4.161616802215576 C 33.33572387695313 2.969699144363403 34.30541610717773 2.00000524520874 35.49733352661133 2.00000524520874 L 41.74069976806641 2.00000524520874 C 42.9326171875 2.00000524520874 43.90230941772461 2.969699144363403 43.90230941772461 4.161616802215576 L 43.90230941772461 4.26428747177124 L 43.9128303527832 4.366416931152344 L 44.44660568237305 9.551581382751465 L 44.58773422241211 10.92260551452637 L 45.91918182373047 11.27882862091064 C 48.2804069519043 11.91055774688721 50.5523681640625 12.85069942474365 52.67194747924805 14.07314586639404 L 53.84326553344727 14.74867534637451 L 54.90659332275391 13.91341686248779 L 58.98019409179688 10.71354675292969 L 59.07432174682617 10.63960552215576 L 59.15896987915039 10.55495834350586 C 59.5670051574707 10.14691066741943 60.10974502563477 9.92219352722168 60.68720626831055 9.92219352722168 C 61.26488876342773 9.92219352722168 61.80801773071289 10.14705181121826 62.21654510498047 10.55535793304443 L 66.63063049316406 14.96942901611328 C 67.03779602050781 15.37660503387451 67.26203918457031 15.91964054107666 67.26203918457031 16.49849891662598 C 67.26203918457031 17.07735824584961 67.03779602050781 17.62039375305176 66.63063049316406 18.0275707244873 L 66.55791473388672 18.10027503967285 L 66.4930419921875 18.18006324768066 L 63.23041534423828 22.19278144836426 L 62.36236953735352 23.26040458679199 L 63.04915618896484 24.45274543762207 C 64.27681732177734 26.58409881591797 65.21878051757813 28.86584091186523 65.84889984130859 31.23460578918457 L 66.19729614257813 32.54433441162109 L 67.54287719726563 32.70615768432617 L 72.65874481201172 33.32141876220703 L 72.77772521972656 33.33572387695313 L 72.89756011962891 33.33572387695313 C 74.08999633789063 33.33572387695313 75.06011199951172 34.30541610717773 75.06011199951172 35.49733352661133 L 75.06011199951172 41.74069976806641 C 75.06011199951172 42.9326171875 74.08999633789063 43.90230941772461 72.89756011962891 43.90230941772461 L 72.79470825195313 43.90230941772461 L 72.69240570068359 43.91286468505859 L 67.53439331054688 44.44477081298828 L 66.16961669921875 44.58551025390625 L 65.80961608886719 45.90943908691406 C 65.12455749511719 48.42885208129883 64.08941650390625 50.84075927734375 62.73297119140625 53.07818222045898 L 62.02862930297852 54.23997116088867 L 62.84912109375 55.3228645324707 L 65.98531341552734 59.46201705932617 L 66.05752563476563 59.55732345581055 L 66.14057159423828 59.64334487915039 C 66.54181671142578 60.05892181396484 66.75722503662109 60.60589981079102 66.74714660644531 61.18349838256836 C 66.73705291748047 61.76094818115234 66.50270080566406 62.29987716674805 66.08724975585938 62.70095825195313 L 61.59590911865234 67.03779602050781 C 61.19075775146484 67.42918395996094 60.65776824951172 67.64456939697266 60.09484100341797 67.64459228515625 C 59.49421691894531 67.64461517333984 58.9563102722168 67.41632080078125 58.53931045532227 66.98439025878906 L 58.46779251098633 66.91032409667969 L 58.38905334472656 66.84397888183594 L 54.37071228027344 63.45868682861328 L 53.32361602783203 62.57654571533203 L 52.12240600585938 63.23354721069336 C 50.13727569580078 64.31931304931641 48.0238037109375 65.16242980957031 45.8407096862793 65.73947906494141 L 44.52796936035156 66.08646392822266 L 44.3660774230957 67.43459320068359 L 43.73865127563477 72.65908813476563 L 43.72438049316406 72.77790069580078 L 43.72438049316406 72.89756011962891 C 43.72438049316406 74.08999633789063 42.75426483154297 75.06011199951172 41.56182861328125 75.06011199951172 Z M 38.61947631835938 24.01289939880371 C 30.6314754486084 24.01289939880371 24.13275718688965 30.51119422912598 24.13275718688965 38.49867630004883 C 24.13275718688965 46.48617172241211 30.6314754486084 52.98446273803711 38.61947631835938 52.98446273803711 C 46.60696792602539 52.98446273803711 53.10526275634766 46.48617172241211 53.10526275634766 38.49867630004883 C 53.10526275634766 30.51119422912598 46.60696792602539 24.01289939880371 38.61947631835938 24.01289939880371 Z" stroke="none"/>
      <path d="M 41.56182479858398 73.06010437011719 C 41.6484260559082 73.06010437011719 41.72438430786133 72.98414611816406 41.72438430786133 72.89756011962891 L 41.72438430786133 72.65822601318359 L 41.7529182434082 72.42060852050781 L 42.38034439086914 67.19612121582031 L 42.70415878295898 64.49985504150391 L 45.32962417602539 63.80587768554688 C 47.35663986206055 63.27009201049805 49.31916046142578 62.4871711730957 51.16266632080078 61.47886657714844 L 53.56510543823242 60.16485214233398 L 55.6592903137207 61.92913055419922 L 59.67763900756836 65.31442260742188 L 59.83513259887695 65.44710540771484 L 59.97817230224609 65.59525299072266 C 60.01557159423828 65.63399505615234 60.0406379699707 65.64459991455078 60.09471893310547 65.64459991455078 C 60.14194488525391 65.64459991455078 60.172119140625 65.63241577148438 60.2066650390625 65.59903717041016 L 64.69808197021484 61.26214599609375 C 64.73457336425781 61.2269172668457 64.74655914306641 61.19930648803711 64.74745178222656 61.14858627319336 C 64.74834442138672 61.09746551513672 64.73723602294922 61.06926727294922 64.70174407958984 61.03250503540039 L 64.53563690185547 60.86045074462891 L 64.39122772216797 60.66985321044922 L 61.25502395629883 56.53069305419922 L 59.6140251159668 54.36489105224609 L 61.02273178100586 52.04130554199219 C 62.28238677978516 49.96357345581055 63.24361038208008 47.72395706176758 63.87969207763672 45.38466644287109 L 64.59969329833984 42.73678588867188 L 67.3292236328125 42.45531845092773 L 72.48723602294922 41.92341232299805 L 72.69186401367188 41.90230560302734 L 72.89756011962891 41.90230560302734 C 72.98414611816406 41.90230560302734 73.06010437011719 41.82678604125977 73.06010437011719 41.74070739746094 L 73.06010437011719 35.49733352661133 C 73.06010437011719 35.41123962402344 72.98414611816406 35.33572006225586 72.89756011962891 35.33572006225586 L 72.65789031982422 35.33572006225586 L 72.41994476318359 35.30710601806641 L 67.3040771484375 34.69185256958008 L 64.61293029785156 34.36819839477539 L 63.91611862182617 31.74875831604004 C 63.33105087280273 29.54933166503906 62.45626449584961 27.43046569824219 61.31609344482422 25.45101165771484 L 59.9425048828125 23.06633186340332 L 61.67862701416016 20.93106460571289 L 64.94125366210938 16.9183464050293 L 65.07098388671875 16.75878524780273 L 65.21640014648438 16.61337280273438 C 65.27759552001953 16.55217170715332 65.27759552001953 16.44482612609863 65.21641540527344 16.38363838195801 L 60.80273056030273 11.96997261047363 C 60.76654434204102 11.93381214141846 60.73847961425781 11.92219924926758 60.68719863891602 11.92219924926758 C 60.63645172119141 11.92219924926758 60.60874557495117 11.93361186981201 60.57320022583008 11.96915912628174 L 60.40390396118164 12.13845252990723 L 60.21563720703125 12.28634548187256 L 56.14204025268555 15.4862117767334 L 54.01538467407227 17.15671920776367 L 51.67274475097656 15.8056526184082 C 49.7044792175293 14.67047882080078 47.59477233886719 13.79746532440186 45.40225219726563 13.21086597442627 L 42.73939895629883 12.49841213226318 L 42.45711898803711 9.756385803222656 L 41.92333221435547 4.571225643157959 L 41.90230560302734 4.366958618164063 L 41.90230560302734 4.161612033843994 C 41.90230560302734 4.07551908493042 41.82678604125977 3.999998807907104 41.74070739746094 3.999998807907104 L 35.49733352661133 3.999998807907104 C 35.41123962402344 3.999998807907104 35.33572006225586 4.07551908493042 35.33572006225586 4.161612033843994 L 35.33572006225586 4.401265621185303 L 35.30710601806641 4.639212131500244 L 34.68061065673828 9.848731994628906 L 34.35862731933594 12.52615928649902 L 31.75585174560547 13.23177242279053 C 29.73381233215332 13.77995872497559 27.77863883972168 14.57378578186035 25.94463920593262 15.59121227264404 L 23.53455924987793 16.92822647094727 L 21.42685127258301 15.15237236022949 L 17.38229179382324 11.7446117401123 L 17.22533226013184 11.61235904693604 L 17.08271980285645 11.46473217010498 C 17.04531860351563 11.42601203918457 17.02011871337891 11.41541194915771 16.96549224853516 11.41541194915771 C 16.91759872436523 11.41541194915771 16.88693237304688 11.42782592773438 16.85279846191406 11.46077251434326 L 12.36199855804443 15.7979850769043 C 12.32554531097412 15.83317184448242 12.31355857849121 15.86075878143311 12.31266593933105 15.91146564483643 C 12.31178569793701 15.96195888519287 12.32270526885986 15.98975849151611 12.35759925842285 16.02587890625 L 12.52419853210449 16.19834518432617 L 12.66899871826172 16.38947868347168 L 15.88291931152344 20.63163948059082 L 17.51210594177246 22.78205299377441 L 16.12870597839355 25.09825134277344 C 14.90395927429199 27.1487979888916 13.96838569641113 29.35342597961426 13.34798526763916 31.65089225769043 L 12.6312255859375 34.30516052246094 L 9.896371841430664 34.58701324462891 L 4.571678638458252 35.13577270507813 L 4.367185592651367 35.15685272216797 L 4.161612033843994 35.15685272216797 C 4.07551908493042 35.15685272216797 3.999998807907104 35.23281097412109 3.999998807907104 35.31939697265625 L 3.999998807907104 41.56182479858398 C 3.999998807907104 41.6484260559082 4.07551908493042 41.72438430786133 4.161612033843994 41.72438430786133 L 4.400972366333008 41.72438430786133 L 4.638625621795654 41.75293350219727 L 9.955839157104492 42.39158630371094 L 12.63851928710938 42.71379852294922 L 13.34119892120361 45.32279968261719 C 13.918625831604 47.46677398681641 14.7714786529541 49.53365325927734 15.87606525421143 51.4660530090332 L 17.23691940307617 53.84675979614258 L 15.50701236724854 55.97446441650391 L 12.11890506744385 60.14169311523438 L 11.98914527893066 60.30129241943359 L 11.8436918258667 60.44674682617188 C 11.80758571624756 60.48285293579102 11.79599857330322 60.5107307434082 11.79599857330322 60.56149291992188 C 11.79599857330322 60.61173248291016 11.80739879608154 60.63925170898438 11.84367847442627 60.67551803588867 L 16.25902557373047 65.09083557128906 C 16.29446601867676 65.12628936767578 16.32195854187012 65.13768005371094 16.37218475341797 65.13768005371094 C 16.42293167114258 65.13768005371094 16.4508113861084 65.12609100341797 16.48687934875488 65.09002685546875 L 16.6562385559082 64.920654296875 L 16.84461212158203 64.772705078125 L 21.03899955749512 61.47826385498047 L 23.16986465454102 59.80459976196289 L 25.5145320892334 61.16262435913086 C 27.45033264160156 62.28384017944336 29.5214786529541 63.15165328979492 31.67043876647949 63.74195861816406 L 34.30934524536133 64.46685028076172 L 34.58983993530273 67.18909454345703 L 35.13578414916992 72.48757171630859 L 35.15685272216797 72.69202423095703 L 35.15685272216797 72.89756011962891 C 35.15685272216797 72.98414611816406 35.23281097412109 73.06010437011719 35.31939697265625 73.06010437011719 L 41.56182479858398 73.06010437011719 M 38.61948013305664 22.01290512084961 C 47.70977401733398 22.01290512084961 55.10526657104492 29.40839958190918 55.10526657104492 38.49868011474609 C 55.10526657104492 47.58897399902344 47.70977401733398 54.98446655273438 38.61948013305664 54.98446655273438 C 29.52866554260254 54.98446655273438 22.13275909423828 47.58897399902344 22.13275909423828 38.49868011474609 C 22.13275909423828 29.40839958190918 29.52866554260254 22.01290512084961 38.61948013305664 22.01290512084961 M 41.56182479858398 77.06010437011719 L 35.31939697265625 77.06010437011719 C 33.02417373657227 77.06010437011719 31.15685272216797 75.19278717041016 31.15685272216797 72.89756011962891 L 30.61090469360352 67.59907531738281 C 28.13091850280762 66.91783905029297 25.74147796630859 65.91657257080078 23.50974464416504 64.62396240234375 L 19.31535911560059 67.91839599609375 C 18.52914619445801 68.70463562011719 17.48386573791504 69.13768005371094 16.37218475341797 69.13768005371094 C 15.26051902770996 69.13768005371094 14.21553230285645 68.70468139648438 13.42973232269287 67.91839599609375 L 9.015265464782715 63.50395965576172 C 8.229012489318848 62.71814727783203 7.795999050140381 61.67317199707031 7.795999050140381 60.56149291992188 C 7.795999050140381 59.44981384277344 8.229012489318848 58.40457153320313 9.015265464782715 57.61832046508789 L 12.40337181091309 53.45109176635742 C 11.12885189056396 51.22141265869141 10.14493179321289 48.83625030517578 9.478825569152832 46.363037109375 L 4.161612033843994 45.72438430786133 C 1.866958856582642 45.72438430786133 -1.148274691331608e-06 43.8570671081543 -1.148274691331608e-06 41.56182479858398 L -1.148274691331608e-06 35.31939697265625 C -1.148274691331608e-06 33.02417373657227 1.866892218589783 31.15685272216797 4.161612033843994 31.15685272216797 L 9.486305236816406 30.60809135437012 C 10.20245265960693 27.9560661315918 11.28217220306396 25.41194534301758 12.69461250305176 23.04714584350586 L 9.480691909790039 18.80498504638672 C 8.708478927612305 18.0055980682373 8.293851852416992 16.95313262939453 8.313279151916504 15.84157180786133 C 8.332705497741699 14.72995853424072 8.783879280090332 13.69249248504639 9.583705902099609 12.92029190063477 L 14.07401180267334 8.583572387695313 C 14.85425186157227 7.830265522003174 15.88114547729492 7.415411949157715 16.96549224853516 7.415411949157715 C 18.10502624511719 7.415411949157715 19.16837310791016 7.866518974304199 19.95963859558105 8.685638427734375 L 24.00419807434082 12.09339904785156 C 26.12062644958496 10.91929244995117 28.37691879272461 10.00342559814453 30.70922470092773 9.371131896972656 L 31.33571815490723 4.161612033843994 C 31.33571815490723 1.866958856582642 33.20261383056641 -1.148274691331608e-06 35.49733352661133 -1.148274691331608e-06 L 41.74070739746094 -1.148274691331608e-06 C 44.0354118347168 -1.148274691331608e-06 45.90230560302734 1.866892218589783 45.90230560302734 4.161612033843994 L 46.43609237670898 9.346772193908691 C 48.96650695800781 10.02378559112549 51.40099716186523 11.03135871887207 53.67114639282227 12.34062576293945 L 57.74474716186523 9.140758514404297 C 58.5305061340332 8.354985237121582 59.57551956176758 7.92219877243042 60.68719863891602 7.92219877243042 C 61.79889297485352 7.92219877243042 62.84413146972656 8.354958534240723 63.63037109375 9.140758514404297 L 68.04483795166016 13.55521202087402 C 69.66775512695313 15.17814540863037 69.66775512695313 17.81885147094727 68.04483795166016 19.44178581237793 L 64.78221130371094 23.45450592041016 C 66.09762573242188 25.73818588256836 67.10674285888672 28.18319892883301 67.78169250488281 30.7204647064209 L 72.89756011962891 31.33571815490723 C 75.1927490234375 31.33571815490723 77.06010437011719 33.20261383056641 77.06010437011719 35.49733352661133 L 77.06010437011719 41.74070739746094 C 77.06010437011719 44.0354118347168 75.19278717041016 45.90230560302734 72.89756011962891 45.90230560302734 L 67.73954772949219 46.43421173095703 C 67.00537109375 49.13423919677734 65.89602661132813 51.71869277954102 64.44321441650391 54.11502456665039 L 67.57941436767578 58.25418472290039 C 68.35162353515625 59.05401229858398 68.76625061035156 60.10677337646484 68.74684143066406 61.21842575073242 C 68.72740173339844 62.33010482788086 68.27621459960938 63.36761093139648 67.47640228271484 64.13980865478516 L 62.98515701293945 68.47653198242188 C 62.20546722412109 69.22972869873047 61.17902374267578 69.64454650878906 60.09491729736328 69.64459991455078 C 58.95530700683594 69.64462280273438 57.89185333251953 69.1932373046875 57.1004638671875 68.37353515625 L 53.08211898803711 64.98823547363281 C 50.95485305786133 66.15174865722656 48.69006729125977 67.05501556396484 46.35181045532227 67.67306518554688 L 45.72438430786133 72.89756011962891 C 45.72438430786133 75.1927490234375 43.8570671081543 77.06010437011719 41.56182479858398 77.06010437011719 Z M 38.61948013305664 26.01290512084961 C 31.73429298400879 26.01290512084961 26.13275909423828 31.61398506164551 26.13275909423828 38.49868011474609 C 26.13275909423828 45.38337326049805 31.73429298400879 50.98446655273438 38.61948013305664 50.98446655273438 C 45.50417327880859 50.98446655273438 51.10526657104492 45.38337326049805 51.10526657104492 38.49868011474609 C 51.10526657104492 31.61398506164551 45.50417327880859 26.01290512084961 38.61948013305664 26.01290512084961 Z" stroke="none" fill="#343434"/>
    </g>
  </g>
</svg>
