<svg xmlns="http://www.w3.org/2000/svg" width="129.53" height="129.53" viewBox="0 0 129.53 129.53">
  <g id="EngrenageUPLEFT3" transform="translate(34.565) rotate(20)">
    <g id="Exclusion_2" data-name="Exclusion 2" transform="translate(0 0)" fill="#707070">
      <path d="M 54.5067024230957 99.06011199951172 L 46.31940078735352 99.06011199951172 C 44.41237258911133 99.06011199951172 42.86090087890625 97.50863647460938 42.86090087890625 95.60160827636719 L 42.86090087890625 95.498779296875 L 42.85036087036133 95.39650726318359 L 42.13396072387695 88.44760894775391 L 41.99365997314453 87.08669281005859 L 40.67443084716797 86.72419738769531 C 37.58577346801758 85.87546539306641 34.61168670654297 84.62940979003906 31.83478736877441 83.02065277099609 L 30.66233062744141 82.34140777587891 L 29.59675979614258 83.17840576171875 L 24.0959587097168 87.49930572509766 L 24.00200271606445 87.5731201171875 L 23.91748809814453 87.6575927734375 C 23.26401710510254 88.31078338623047 22.39531707763672 88.67050933837891 21.47141647338867 88.67050933837891 C 20.54767417907715 88.67050933837891 19.6793155670166 88.31088256835938 19.02630233764648 87.65788269042969 L 13.23661613464355 81.86819458007813 C 11.88848781585693 80.52006530761719 11.88861656188965 78.32588195800781 13.23691654205322 76.97702026367188 L 13.30944538116455 76.90446472167969 L 13.37417316436768 76.82486724853516 L 17.81837272644043 71.35916900634766 L 18.68364524841309 70.29499816894531 L 18.00268745422363 69.10442352294922 C 16.41817283630371 66.33412170410156 15.19355964660645 63.36582183837891 14.36285877227783 60.2819938659668 L 14.01151657104492 58.97763824462891 L 12.67030239105225 58.81648254394531 L 5.697102069854736 57.97859573364258 L 5.578230857849121 57.96430969238281 L 5.458501815795898 57.96430969238281 C 3.551473379135132 57.96430969238281 2.000002145767212 56.41323852539063 2.000002145767212 54.50671005249023 L 2.000002145767212 46.31939315795898 C 2.000002145767212 44.4123649597168 3.551473379135132 42.86089324951172 5.458501815795898 42.86089324951172 L 5.561216354370117 42.86089324951172 L 5.663402080535889 42.85036468505859 L 12.64560222625732 42.13127899169922 L 14.01270198822021 41.99049377441406 L 14.37138748168945 40.66379547119141 C 15.26464462280273 37.35983657836914 16.6086311340332 34.19303894042969 18.36604499816895 31.2513370513916 L 19.05797386169434 30.09312438964844 L 18.24320220947266 29.01778030395508 L 14.02760219573975 23.45398139953613 L 13.95524501800537 23.35848045349121 L 13.87198734283447 23.27229499816895 C 13.23031616210938 22.60800933837891 12.88581657409668 21.7335376739502 12.90195941925049 20.80998039245605 C 12.9181022644043 19.88646697998047 13.29293060302734 19.02469444274902 13.95740222930908 18.38339424133301 L 19.84747314453125 12.69492340087891 C 20.49525833129883 12.0694522857666 21.34803009033203 11.72490978240967 22.24853134155273 11.72490978240967 C 23.19555854797363 11.72490978240967 24.07937431335449 12.09990978240967 24.73713111877441 12.78083801269531 L 24.80844497680664 12.85468101501465 L 24.88695907592773 12.92080974578857 L 30.19065856933594 17.38930892944336 L 31.24447441101074 18.27718162536621 L 32.44945907592773 17.60875129699707 C 35.08452987670898 16.14703750610352 37.89311599731445 15.00685214996338 40.79721450805664 14.21988105773926 L 42.09891510009766 13.86713790893555 L 42.25981521606445 12.52810955047607 L 43.08061599731445 5.697109222412109 L 43.09490203857422 5.578238010406494 L 43.09490203857422 5.45850944519043 C 43.09490203857422 3.551480770111084 44.6463737487793 2.000009298324585 46.55340194702148 2.000009298324585 L 54.74070358276367 2.000009298324585 C 56.64773178100586 2.000009298324585 58.19920349121094 3.551480770111084 58.19920349121094 5.45850944519043 L 58.19920349121094 5.56122350692749 L 58.20973205566406 5.663409233093262 L 58.90993118286133 12.46200942993164 L 59.05111694335938 13.83286666870117 L 60.38237380981445 14.18912315368652 C 63.53046035766602 15.03159523010254 66.56040191650391 16.28559494018555 69.38803100585938 17.91632270812988 L 70.55933380126953 18.59182357788086 L 71.62264251708984 17.75659561157227 L 76.96414184570313 13.56080913543701 L 77.05844116210938 13.48672389984131 L 77.14321899414063 13.40192317962646 C 77.79617309570313 12.74868106842041 78.6644287109375 12.38892364501953 79.5880126953125 12.38892364501953 C 80.51177215576172 12.38892364501953 81.38035583496094 12.74878120422363 82.03377532958984 13.40220928192139 L 87.82360076904297 19.19113731384277 C 89.17148590087891 20.53958129882813 89.17161560058594 22.73376655578613 87.823486328125 24.08189582824707 L 87.75084686279297 24.15453720092773 L 87.68602752685547 24.23423767089844 L 83.40653228759766 29.49653816223145 L 82.53821563720703 30.56425285339355 L 83.22520446777344 31.75675201416016 C 84.86299133300781 34.59973907470703 86.11930084228516 37.64313888549805 86.95924377441406 40.80239486694336 L 87.30755615234375 42.11245346069336 L 88.6534423828125 42.27422332763672 L 95.36294555664063 43.08062362670898 L 95.48184204101563 43.09490966796875 L 95.60160064697266 43.09490966796875 C 97.50813293457031 43.09490966796875 99.0592041015625 44.64638137817383 99.0592041015625 46.55339431762695 L 99.0592041015625 54.7407112121582 C 99.0592041015625 56.64773941040039 97.50813293457031 58.19921112060547 95.60160064697266 58.19921112060547 L 95.4989013671875 58.19921112060547 L 95.396728515625 58.20972442626953 L 88.63233184814453 58.90631103515625 L 87.26747131347656 59.04686737060547 L 86.90733337402344 60.37082290649414 C 85.99325561523438 63.73109436035156 84.61271667480469 66.94828033447266 82.80404663085938 69.93300628662109 L 82.10014343261719 71.09461212158203 L 82.92033386230469 72.17723846435547 L 87.03243255615234 77.60512542724609 L 87.10456085205078 77.70034027099609 L 87.18753051757813 77.78629302978516 C 88.51185607910156 79.15847015380859 88.47353363037109 81.35256958007813 87.10208892822266 82.67730712890625 L 81.21273040771484 88.36418151855469 C 80.56449890136719 88.99034118652344 79.71151733398438 89.33506774902344 78.81064605712891 89.3350830078125 C 77.86355590820313 89.33509826660156 76.97977447509766 88.96013641357422 76.32209014892578 88.27928161621094 L 76.25083160400391 88.20551300048828 L 76.17240142822266 88.13942718505859 L 70.90290069580078 83.69883728027344 L 69.85575866699219 82.81640625 L 68.65435791015625 83.47354125976563 C 66.00485992431641 84.92270660400391 63.18650054931641 86.04739379882813 60.277587890625 86.81632232666016 L 58.96500015258789 87.16328430175781 L 58.80298614501953 88.51125335693359 L 57.97948837280273 95.36295318603516 L 57.96520233154297 95.48184967041016 L 57.96520233154297 95.60160827636719 C 57.96520233154297 97.50863647460938 56.41373062133789 99.06011199951172 54.5067024230957 99.06011199951172 Z M 50.64660263061523 32.11450958251953 C 40.51481628417969 32.11450958251953 32.27200317382813 40.35730743408203 32.27200317382813 50.48909378051758 C 32.27200317382813 60.62088012695313 40.51481628417969 68.86369323730469 50.64660263061523 68.86369323730469 C 60.77888870239258 68.86369323730469 69.02210235595703 60.62088012695313 69.02210235595703 50.48909378051758 C 69.02210235595703 40.35730743408203 60.77888870239258 32.11450958251953 50.64660263061523 32.11450958251953 Z" stroke="none"/>
      <path d="M 54.5067024230957 97.06010437011719 C 55.31091690063477 97.06010437011719 55.96520233154297 96.40581512451172 55.96520233154297 95.60160064697266 L 55.96520233154297 95.36208343505859 L 55.9937858581543 95.12428283691406 L 56.81728363037109 88.2725830078125 L 57.14130020141602 85.57665252685547 L 59.7664680480957 84.88272094726563 C 62.51936721801758 84.15503692626953 65.186767578125 83.09056854248047 67.69458770751953 81.71884918212891 L 70.09740447998047 80.40458679199219 L 72.19170379638672 82.16944885253906 L 77.46120452880859 86.61005401611328 L 77.61804962158203 86.74221801757813 L 77.76055145263672 86.88975524902344 C 78.0460205078125 87.18527221679688 78.39929962158203 87.33510589599609 78.81058502197266 87.3350830078125 C 79.19580078125 87.33506774902344 79.54586791992188 87.193603515625 79.82347106933594 86.92543792724609 L 85.71257019042969 81.23883819580078 C 86.29115295410156 80.67993927001953 86.30726623535156 79.75420379638672 85.74846649169922 79.17523193359375 L 85.58253479003906 79.00330352783203 L 85.43825531005859 78.81285095214844 L 81.32614898681641 73.38494873046875 L 79.68578338623047 71.21970367431641 L 81.09356689453125 68.89652252197266 C 82.80564880371094 66.07118225097656 84.11236572265625 63.02611923217773 84.97745513916016 59.84588623046875 L 85.69773864746094 57.19795227050781 L 88.42745208740234 56.91685104370117 L 95.19184875488281 56.22025299072266 L 95.39618682861328 56.19920349121094 L 95.60160064697266 56.19920349121094 C 96.40531921386719 56.19920349121094 97.0592041015625 55.54491806030273 97.0592041015625 54.74070358276367 L 97.0592041015625 46.55340194702148 C 97.0592041015625 45.74918365478516 96.40531921386719 45.09490203857422 95.60160064697266 45.09490203857422 L 95.36208343505859 45.09490203857422 L 95.12428283691406 45.06631851196289 L 88.41478729248047 44.25991821289063 L 85.72299957275391 43.9364013671875 L 85.02640533447266 41.31626892089844 C 84.23149871826172 38.32646942138672 83.04241943359375 35.44606781005859 81.49220275878906 32.75510406494141 L 80.11823272705078 30.37010192871094 L 81.85486602783203 28.23465156555176 L 86.13436889648438 22.97235298156738 L 86.26399993896484 22.81295204162598 L 86.40928649902344 22.66766929626465 C 86.977783203125 22.09916877746582 86.97750091552734 21.17370223999023 86.40950012207031 20.6054515838623 L 80.61959838867188 14.81645202636719 C 80.33990478515625 14.53676891326904 79.98320007324219 14.38893508911133 79.58802032470703 14.38893508911133 C 79.19315338134766 14.38893508911133 78.83688354492188 14.53655242919922 78.55771636962891 14.81583595275879 L 78.38818359375 14.98545265197754 L 78.1995849609375 15.13358592987061 L 72.85808563232422 19.32938575744629 L 70.73146820068359 20.99986839294434 L 68.38885498046875 19.64885139465332 C 65.71248626708984 18.10536956787109 62.84476852416992 16.9184684753418 59.86533355712891 16.12113571166992 L 57.20281982421875 15.40860176086426 L 56.92045211791992 12.66690254211426 L 56.22025299072266 5.868302345275879 L 56.19920349121094 5.663935661315918 L 56.19920349121094 5.458502292633057 C 56.19920349121094 4.654285430908203 55.54491806030273 4.000002384185791 54.74070358276367 4.000002384185791 L 46.55340194702148 4.000002384185791 C 45.74918365478516 4.000002384185791 45.09490203857422 4.654285430908203 45.09490203857422 5.458502292633057 L 45.09490203857422 5.697952270507813 L 45.06633377075195 5.935702323913574 L 44.24553680419922 12.76670265197754 L 43.92375183105469 15.44476890563965 L 41.32032012939453 16.1502513885498 C 38.57185363769531 16.89505195617676 35.91366958618164 17.97418594360352 33.41963577270508 19.35766792297363 L 31.00963592529297 20.69453620910645 L 28.90200233459473 18.91881942749023 L 23.59830284118652 14.45031929016113 L 23.44128608703613 14.31801891326904 L 23.29865264892578 14.1703519821167 C 23.01311874389648 13.87476921081543 22.65981864929199 13.72490215301514 22.24853515625 13.72490215301514 C 21.86356925964355 13.72490215301514 21.51361846923828 13.86631870269775 21.23685264587402 14.13355255126953 L 15.3463020324707 19.82246971130371 C 15.06230163574219 20.0965518951416 14.9085521697998 20.45010185241699 14.90165233612061 20.84495162963867 C 14.89475250244141 21.2398681640625 15.03611850738525 21.59873580932617 15.31045246124268 21.88275146484375 L 15.47696876525879 22.05513572692871 L 15.62170219421387 22.24615287780762 L 19.83730125427246 27.80995178222656 L 21.46683502197266 29.96061897277832 L 20.0830020904541 32.27703475952148 C 18.41956901550293 35.06143569946289 17.14748573303223 38.05876922607422 16.30206871032715 41.18576812744141 L 15.58468532562256 43.83915328979492 L 12.85050201416016 44.12075042724609 L 5.868301868438721 44.83985137939453 L 5.66393518447876 44.86090087890625 L 5.458501815795898 44.86090087890625 C 4.654285430908203 44.86090087890625 4.000001907348633 45.51518630981445 4.000001907348633 46.31940078735352 L 4.000001907348633 54.5067024230957 C 4.000001907348633 55.31041717529297 4.654285430908203 55.96430206298828 5.458501815795898 55.96430206298828 L 5.697968482971191 55.96430206298828 L 5.935701847076416 55.99287033081055 L 12.90890216827393 56.83076858520508 L 15.59131908416748 57.15308380126953 L 16.29403495788574 59.76181793212891 C 17.08020210266113 62.68037033081055 18.23918533325195 65.48960113525391 19.73878479003906 68.1114501953125 L 21.10068511962891 70.49258422851563 L 19.37013626098633 72.62090301513672 L 14.92593574523926 78.08660125732422 L 14.79648494720459 78.24580383300781 L 14.65143585205078 78.39092254638672 C 14.08260250091553 78.95999908447266 14.08233547210693 79.88548278808594 14.65083503723145 80.45397186279297 L 20.4405345916748 86.24366760253906 C 20.71976852416992 86.52290344238281 21.07623481750488 86.67050170898438 21.4714183807373 86.67050170898438 C 21.86691856384277 86.67050170898438 22.22383499145508 86.522705078125 22.50356864929199 86.24308776855469 L 22.67258453369141 86.07413482666016 L 22.86051940917969 85.92649841308594 L 28.36131858825684 81.60559844970703 L 30.49246788024902 79.93158721923828 L 32.83736801147461 81.29008483886719 C 35.46591949462891 82.81291961669922 38.28096771240234 83.99237060546875 41.20436859130859 84.79566955566406 L 43.84280395507813 85.52068328857422 L 44.12341690063477 88.24250030517578 L 44.83981704711914 95.19139862060547 L 44.86090087890625 95.39595031738281 L 44.86090087890625 95.60160064697266 C 44.86090087890625 96.40581512451172 45.51518630981445 97.06010437011719 46.31940078735352 97.06010437011719 L 54.5067024230957 97.06010437011719 M 50.64660263061523 30.114501953125 C 61.88168716430664 30.114501953125 71.02210235595703 39.25450134277344 71.02210235595703 50.48910140991211 C 71.02210235595703 61.72370147705078 61.88168716430664 70.86370086669922 50.64660263061523 70.86370086669922 C 39.41200256347656 70.86370086669922 30.27200126647949 61.72370147705078 30.27200126647949 50.48910140991211 C 30.27200126647949 39.25450134277344 39.41200256347656 30.114501953125 50.64660263061523 30.114501953125 M 54.5067024230957 101.0601043701172 L 46.31940078735352 101.0601043701172 C 43.30958557128906 101.0601043701172 40.86090087890625 98.61143493652344 40.86090087890625 95.60160064697266 L 40.14450073242188 88.65270233154297 C 36.89003372192383 87.75841522216797 33.75666809082031 86.44546508789063 30.83220291137695 84.75120544433594 L 25.33140182495117 89.07210540771484 C 24.30025291442871 90.10282135009766 22.92938613891602 90.67050170898438 21.4714183807373 90.67050170898438 C 20.01343536376953 90.67050170898438 18.64283561706543 90.10283660888672 17.61210250854492 89.07210540771484 L 11.82240200042725 83.28240203857422 C 9.694635391235352 81.15461730957031 9.694635391235352 77.69178771972656 11.82240200042725 75.56310272216797 L 16.2666015625 70.09740447998047 C 14.59686851501465 67.17808532714844 13.3066520690918 64.05035400390625 12.43170166015625 60.80220031738281 L 5.458501815795898 59.96430206298828 C 2.448735475540161 59.96430206298828 2.050781176876626e-06 57.51601791381836 2.050781176876626e-06 54.5067024230957 L 2.050781176876626e-06 46.31940078735352 C 2.050781176876626e-06 43.30958557128906 2.44868540763855 40.86090087890625 5.458501815795898 40.86090087890625 L 12.44070243835449 40.14180374145508 C 13.38191890716553 36.66046905517578 14.79813575744629 33.32393646240234 16.64910125732422 30.2256031036377 L 12.43350219726563 24.66180229187012 C 11.42061901092529 23.61323547363281 10.87678527832031 22.23283576965332 10.902268409729 20.7750358581543 C 10.92773532867432 19.31718635559082 11.51948547363281 17.95673561096191 12.56850242614746 16.94430160522461 L 18.45810127258301 11.25630187988281 C 19.48088455200195 10.26876926422119 20.82701873779297 9.724902153015137 22.24853515625 9.724902153015137 C 23.74291801452637 9.724902153015137 25.1375846862793 10.31671905517578 26.17560195922852 11.39130210876465 L 31.47930145263672 15.85980224609375 C 34.25585174560547 14.31960201263428 37.21521759033203 13.11841869354248 40.27410125732422 12.28950214385986 L 41.09490203857422 5.458502292633057 C 41.09490203857422 2.448735475540161 43.5435676574707 2.18505851989903e-06 46.55340194702148 2.18505851989903e-06 L 54.74070358276367 2.18505851989903e-06 C 57.75051879882813 2.18505851989903e-06 60.19920349121094 2.44868540763855 60.19920349121094 5.458502292633057 L 60.8994026184082 12.25710201263428 C 64.21663665771484 13.14483547210693 67.40903472900391 14.46625232696533 70.38719940185547 16.18380165100098 L 75.72869873046875 11.98800182342529 C 76.75942230224609 10.95685195922852 78.13005065917969 10.38893508911133 79.58802032470703 10.38893508911133 C 81.04598236083984 10.38893508911133 82.41681671142578 10.95683574676514 83.44800567626953 11.98800182342529 L 89.23770141601563 17.77680206298828 C 91.36548614501953 19.90548515319824 91.36548614501953 23.36833572387695 89.23770141601563 25.49610137939453 L 84.95819854736328 30.75840187072754 C 86.68378448486328 33.75376892089844 88.00730133056641 36.96055221557617 88.89210510253906 40.28850173950195 L 95.60160064697266 41.09490203857422 C 98.61088562011719 41.09490203857422 101.0592041015625 43.5435676574707 101.0592041015625 46.55340194702148 L 101.0592041015625 54.74070358276367 C 101.0592041015625 57.75051879882813 98.61091613769531 60.19920349121094 95.60160064697266 60.19920349121094 L 88.83720397949219 60.89580154418945 C 87.87409973144531 64.43637084960938 86.41943359375 67.82590484619141 84.51450347900391 70.96950531005859 L 88.62660217285156 76.39739990234375 C 90.71641540527344 78.56268310546875 90.6558837890625 82.02518463134766 88.49160003662109 84.11579895019531 L 82.60200500488281 89.80290222167969 C 81.57918548583984 90.79091644287109 80.23273468017578 91.33505249023438 78.81068420410156 91.3350830078125 C 77.31623840332031 91.33512115478516 75.92158508300781 90.74335479736328 74.88359832763672 89.66880035400391 L 69.61410522460938 85.22820281982422 C 66.82248687744141 86.75513458251953 63.85281753540039 87.93994903564453 60.78870391845703 88.74990081787109 L 59.96520233154297 95.60160064697266 C 59.96520233154297 98.61136627197266 57.51651763916016 101.0601043701172 54.5067024230957 101.0601043701172 Z M 50.64660263061523 34.114501953125 C 41.61761856079102 34.114501953125 34.27200317382813 41.46011734008789 34.27200317382813 50.48910140991211 C 34.27200317382813 59.51808547973633 41.61761856079102 66.86370086669922 50.64660263061523 66.86370086669922 C 59.67608642578125 66.86370086669922 67.02210235595703 59.51808547973633 67.02210235595703 50.48910140991211 C 67.02210235595703 41.46011734008789 59.67608642578125 34.114501953125 50.64660263061523 34.114501953125 Z" stroke="none" fill="#343434"/>
    </g>
  </g>
</svg>
