<svg id="EngrenageUPLEFT13" xmlns="http://www.w3.org/2000/svg" width="144.06" height="144.06" viewBox="0 0 144.06 144.06">
  <g id="Exclusion_2" data-name="Exclusion 2" transform="translate(0 0)" fill="#707070">
    <path d="M 77.69783020019531 142.0601196289063 L 66.02791595458984 142.0601196289063 C 62.83989334106445 142.0601196289063 60.24623107910156 139.4664459228516 60.24623107910156 136.2784271240234 L 60.24623107910156 136.1756744384766 L 60.23569107055664 136.0734252929688 L 59.21505355834961 126.1681900024414 L 59.07481384277344 124.8070755004883 L 57.75537109375 124.4446334838867 C 53.28531265258789 123.2167129516602 48.9778938293457 121.4120330810547 44.95273208618164 119.0806884765625 L 43.78039169311523 118.4016723632813 L 42.71495056152344 119.2385101318359 L 34.87375259399414 125.3973159790039 L 34.77959060668945 125.4712753295898 L 34.69491195678711 125.5559539794922 C 33.60279083251953 126.6480941772461 32.1510124206543 127.2495498657227 30.60701179504395 127.2495498657227 C 29.06325149536133 127.2495498657227 27.61209297180176 126.6482315063477 26.52085304260254 125.5563507080078 L 18.26783180236816 117.3033294677734 C 17.17555236816406 116.2117156982422 16.57425308227539 114.7605514526367 16.57425308227539 113.2167739868164 C 16.57425308227539 111.6727523803711 17.17571258544922 110.2209701538086 18.26781272888184 109.1288757324219 L 18.34055137634277 109.05615234375 L 18.40543174743652 108.9763336181641 L 24.73931312561035 101.1858901977539 L 25.60425186157227 100.1220550537109 L 24.92385292053223 98.93169403076172 C 22.62651252746582 94.91265106201172 20.85261154174805 90.61339569091797 19.6513729095459 86.15333557128906 L 19.3000316619873 84.84883117675781 L 17.95869255065918 84.68772888183594 L 8.0184326171875 83.49378967285156 L 7.899611949920654 83.47951507568359 L 7.779932022094727 83.47951507568359 C 4.592872142791748 83.47951507568359 2.000012159347534 80.88584899902344 2.000012159347534 77.69783020019531 L 2.000012159347534 66.02791595458984 C 2.000012159347534 62.83989334106445 4.592872142791748 60.24623107910156 7.779932022094727 60.24623107910156 L 7.882712364196777 60.24623107910156 L 7.98497200012207 60.23569107055664 L 17.93923187255859 59.20979309082031 L 19.3066520690918 59.06887054443359 L 19.66503143310547 57.74173355102539 C 20.95581245422363 52.96175384521484 22.90181159973145 48.375732421875 25.4489917755127 44.11105346679688 L 26.14069175720215 42.95297241210938 L 25.32611274719238 41.87775039672852 L 19.31785202026367 33.94725036621094 L 19.24545288085938 33.85169219970703 L 19.16215133666992 33.76545333862305 C 18.0897331237793 32.65531158447266 17.51399230957031 31.19375228881836 17.54097175598145 29.6500129699707 C 17.56793212890625 28.10609245300293 18.19455146789551 26.66519165039063 19.30541229248047 25.59273147583008 L 27.70007133483887 17.48515129089355 C 28.78365135192871 16.43901252746582 30.21001243591309 15.86275196075439 31.71617126464844 15.86275196075439 C 33.29915237426758 15.86275196075439 34.77615356445313 16.48927307128906 35.8751106262207 17.62693214416504 L 35.9464111328125 17.70073127746582 L 36.0248908996582 17.7668514251709 L 43.58599090576172 24.13751220703125 L 44.63985061645508 25.02545166015625 L 45.84489059448242 24.35693168640137 C 49.65953063964844 22.24073219299316 53.72647094726563 20.58953285217285 57.93273162841797 19.44919204711914 L 59.23411178588867 19.09637260437012 L 59.39511108398438 17.75767135620117 L 60.56629180908203 8.018732070922852 L 60.58059310913086 7.899752140045166 L 60.58059310913086 7.779932022094727 C 60.58059310913086 4.592872142791748 63.1734733581543 2.000012159347534 66.36053466796875 2.000012159347534 L 78.03218841552734 2.000012159347534 C 81.21925354003906 2.000012159347534 83.8121337890625 4.592872142791748 83.8121337890625 7.779932022094727 L 83.8121337890625 7.882612228393555 L 83.82265472412109 7.984732151031494 L 84.82053375244141 17.67815208435059 L 84.961669921875 19.04917144775391 L 86.29311370849609 19.40539169311523 C 90.85397338867188 20.62563133239746 95.24237060546875 22.44155311584473 99.33641052246094 24.80273246765137 L 100.5077285766602 25.478271484375 L 101.5710754394531 24.64299201965332 L 109.1864547729492 18.66097259521484 L 109.2805709838867 18.58703231811523 L 109.3652114868164 18.50239181518555 C 110.4564514160156 17.41115188598633 111.9077529907227 16.81017303466797 113.451774597168 16.81017303466797 C 114.9960327148438 16.81017303466797 116.4479522705078 17.41129302978516 117.5400695800781 18.50279235839844 L 125.7922897338867 26.75503158569336 C 128.0464477539063 29.00921249389648 128.0464477539063 32.67707061767578 125.7922897338867 34.93127059936523 L 125.7195892333984 35.00397109985352 L 125.6547088623047 35.0837516784668 L 119.5553894042969 42.58533096313477 L 118.6873321533203 43.65295028686523 L 119.3741302490234 44.84529113769531 C 121.7452697753906 48.96185302734375 123.5646743774414 53.36907196044922 124.7817916870117 57.94455337524414 L 125.1301956176758 59.2542724609375 L 126.4757690429688 59.41611099243164 L 136.0396270751953 60.56629180908203 L 136.1585845947266 60.58059310913086 L 136.2784271240234 60.58059310913086 C 139.4664459228516 60.58059310913086 142.0601196289063 63.1734733581543 142.0601196289063 66.36053466796875 L 142.0601196289063 78.03218841552734 C 142.0601196289063 81.21925354003906 139.4664459228516 83.8121337890625 136.2784271240234 83.8121337890625 L 136.1755676269531 83.8121337890625 L 136.0732727050781 83.82269287109375 L 126.4306335449219 84.81707000732422 L 125.0658721923828 84.95779418945313 L 124.7058715820313 86.28173065185547 C 123.3825531005859 91.1483154296875 121.3831558227539 95.80705261230469 118.7632141113281 100.1285552978516 L 118.0588531494141 101.2903518676758 L 118.8793487548828 102.3732528686523 L 124.7423095703125 110.1111907958984 L 124.8145294189453 110.2064895629883 L 124.897575378418 110.2925109863281 C 125.9702301025391 111.4035339355469 126.5461349487305 112.8657913208008 126.5191497802734 114.4099502563477 C 126.4921951293945 115.9539489746094 125.8655548095703 117.3949127197266 124.7547149658203 118.467414855957 L 116.3584518432617 126.5748138427734 C 115.2753753662109 127.6210556030273 113.8499526977539 128.1971130371094 112.3444290161133 128.1971740722656 C 110.7615509033203 128.1972045898438 109.2844924926758 127.5702743530273 108.1853713989258 126.4318313598633 L 108.1138687133789 126.3577499389648 L 108.0351104736328 126.2914123535156 L 100.5230102539063 119.9627914428711 L 99.47592926025391 119.0806732177734 L 98.27471160888672 119.7376708984375 C 94.44045257568359 121.8347930908203 90.35821533203125 123.4632949829102 86.14134979248047 124.5778884887695 L 84.82861328125 124.9248886108398 L 84.66670989990234 126.2730102539063 L 83.4937744140625 136.0399475097656 L 83.47951507568359 136.1587677001953 L 83.47951507568359 136.2784271240234 C 83.47951507568359 139.4664459228516 80.88584899902344 142.0601196289063 77.69783020019531 142.0601196289063 Z M 72.19725036621094 46.62985229492188 C 58.22289276123047 46.62985229492188 46.85393142700195 57.99801254272461 46.85393142700195 71.97138977050781 C 46.85393142700195 85.94479370117188 58.22289276123047 97.31297302246094 72.19725036621094 97.31297302246094 C 86.17063140869141 97.31297302246094 97.53879547119141 85.94479370117188 97.53879547119141 71.97138977050781 C 97.53879547119141 57.99801254272461 86.17063140869141 46.62985229492188 72.19725036621094 46.62985229492188 Z" stroke="none"/>
    <path d="M 77.69781494140625 140.0601196289063 C 79.78305053710938 140.0601196289063 81.47950744628906 138.3636627197266 81.47950744628906 136.2784271240234 L 81.47950744628906 136.0390930175781 L 81.50804901123047 135.8014831542969 L 82.68098449707031 126.0345764160156 L 83.00479125976563 123.3383102416992 L 85.6302490234375 122.6443328857422 C 89.69109344482422 121.5709228515625 93.62242126464844 120.0026397705078 97.31498718261719 117.9829864501953 L 99.71742248535156 116.6689682006836 L 101.8116149902344 118.4332504272461 L 109.3237075805664 124.7618789672852 L 109.4811859130859 124.8945541381836 L 109.6242065429688 125.0426788330078 C 110.3534469604492 125.7979888916016 111.2940521240234 126.1972045898438 112.3443374633789 126.1971817016602 C 113.3286819458008 126.197135925293 114.2606582641602 125.8204879760742 114.9691848754883 125.1360549926758 L 123.3655548095703 117.0285720825195 C 124.1025543212891 116.317008972168 124.5015716552734 115.3994216918945 124.5194625854492 114.3750305175781 C 124.537353515625 113.3502883911133 124.1705703735352 112.4189453125 123.4587478637695 111.6816635131836 L 123.2926406860352 111.5096206665039 L 123.1482238769531 111.3190078735352 L 117.285270690918 103.5810775756836 L 115.6442947387695 101.4153137207031 L 117.0529632568359 99.09172821044922 C 119.5761184692383 94.92985534667969 121.5016174316406 90.44339752197266 122.7759399414063 85.75694274902344 L 123.4959411621094 83.10907745361328 L 126.2254867553711 82.82761383056641 L 135.8681182861328 81.83324432373047 L 136.0727233886719 81.81214141845703 L 136.2784271240234 81.81214141845703 C 138.3636627197266 81.81214141845703 140.0601196289063 80.11646270751953 140.0601196289063 78.03220367431641 L 140.0601196289063 66.36052703857422 C 140.0601196289063 64.27626800537109 138.3636627197266 62.58059692382813 136.2784271240234 62.58059692382813 L 136.0387725830078 62.58059692382813 L 135.8008117675781 62.55198669433594 L 126.2369689941406 61.40181350708008 L 123.5457916259766 61.07815933227539 L 122.849006652832 58.45870590209961 C 121.6769409179688 54.05257415771484 119.9247283935547 49.8082275390625 117.6410522460938 45.84355163574219 L 116.2674865722656 43.45887756347656 L 118.0035934448242 41.32361602783203 L 124.1029205322266 33.82202911376953 L 124.2326583862305 33.6624641418457 L 124.3780746459961 33.51705169677734 C 125.8524627685547 32.04264068603516 125.8524627685547 29.64363861083984 124.3780975341797 28.16924858093262 L 116.1262283325195 19.91740036010742 C 115.4014663696289 19.19303131103516 114.4766616821289 18.81016159057617 113.4517669677734 18.81016159057617 C 112.4273529052734 18.81016159057617 111.5032730102539 19.19277000427246 110.7794418334961 19.91661834716797 L 110.6101608276367 20.08589935302734 L 110.421875 20.2337703704834 L 102.806510925293 26.21576881408691 L 100.6798553466797 27.88629150390625 L 98.33722686767578 26.53524780273438 C 94.39450836181641 24.26135635375977 90.16835784912109 22.51255226135254 85.77616119384766 21.33742141723633 L 83.11331176757813 20.62496566772461 L 82.83103179931641 17.88294410705566 L 81.83316040039063 8.189552307128906 L 81.81214141845703 7.985291481018066 L 81.81214141845703 7.779943466186523 C 81.81214141845703 5.695682525634766 80.11646270751953 4.000008583068848 78.03220367431641 4.000008583068848 L 66.36052703857422 4.000008583068848 C 64.27626800537109 4.000008583068848 62.58059692382813 5.695682525634766 62.58059692382813 7.779943466186523 L 62.58059692382813 8.019596099853516 L 62.55198669433594 8.257530212402344 L 61.38079071044922 17.9964427947998 L 61.05879211425781 20.67387771606445 L 58.45605087280273 21.37948608398438 C 54.40539932250977 22.4776611328125 50.48881149291992 24.06783485412598 46.81511688232422 26.1058349609375 L 44.405029296875 27.44285583496094 L 42.29733657836914 25.6669864654541 L 34.73622512817383 19.29633522033691 L 34.57926940917969 19.16409492492676 L 34.43666076660156 19.01646614074707 C 33.70755386352539 18.26170349121094 32.76681137084961 17.86274719238281 31.71616172790527 17.86274719238281 C 30.73100852966309 17.86274719238281 29.79798698425293 18.23972702026367 29.08948707580566 18.92374801635742 L 20.6945743560791 27.03153038024902 C 19.95757484436035 27.74309539794922 19.55855178833008 28.66061782836914 19.5406608581543 29.68492126464844 C 19.52276992797852 30.70905303955078 19.88929176330566 31.63957405090332 20.60059547424316 32.37590026855469 L 20.76718330383301 32.54835510253906 L 20.9119873046875 32.73948669433594 L 26.92026901245117 40.66998672485352 L 28.54946517944336 42.8204231262207 L 27.16605186462402 45.13661575317383 C 24.71290016174316 49.24383544921875 22.83881378173828 53.66022491455078 21.59587860107422 58.26311874389648 L 20.8791389465332 60.91740036010742 L 18.1442699432373 61.19926834106445 L 8.190009117126465 62.22516250610352 L 7.985530376434326 62.2462272644043 L 7.779943466186523 62.2462272644043 C 5.695682525634766 62.2462272644043 4.000008583068848 63.94268417358398 4.000008583068848 66.02790069580078 L 4.000008583068848 77.69781494140625 C 4.000008583068848 79.78305053710938 5.695682525634766 81.47950744628906 7.779943466186523 81.47950744628906 L 8.019312858581543 81.47950744628906 L 8.256965637207031 81.50804901123047 L 18.19720458984375 82.70201110839844 L 20.87987899780273 83.02422332763672 L 21.58255195617676 85.63320159912109 C 22.73933410644531 89.92822265625 24.44770431518555 94.06855010986328 26.66020393371582 97.93916320800781 L 28.02105140686035 100.3198776245117 L 26.29116058349609 102.4475708007813 L 19.9572696685791 110.2380065917969 L 19.82748603820801 110.3976211547852 L 19.68205261230469 110.5430755615234 C 18.95731353759766 111.2677917480469 18.57424736022949 112.1923370361328 18.57424736022949 113.2167663574219 C 18.57424736022949 114.24072265625 18.95703125 115.1645278930664 19.68205261230469 115.8891143798828 L 27.93546485900879 124.1425552368164 C 28.65924835205078 124.8667449951172 29.58305168151855 125.2495498657227 30.60700798034668 125.2495498657227 C 31.63142204284668 125.2495498657227 32.55594253540039 124.8664855957031 33.28066253662109 124.1417465209961 L 33.45000839233398 123.9723968505859 L 33.63835525512695 123.824462890625 L 41.47957229614258 117.665641784668 L 43.61044311523438 115.9919662475586 L 45.95513916015625 117.3500061035156 C 49.83194351196289 119.5954437255859 53.9803581237793 121.3335723876953 58.28511810302734 122.5160522460938 L 60.92403030395508 123.2409439086914 L 61.20452880859375 125.9632034301758 L 62.22516250610352 135.8684387207031 L 62.2462272644043 136.0728759765625 L 62.2462272644043 136.2784271240234 C 62.2462272644043 138.3636627197266 63.94268417358398 140.0601196289063 66.02790069580078 140.0601196289063 L 77.69781494140625 140.0601196289063 M 72.19725036621094 44.62985610961914 C 87.27342224121094 44.62985610961914 99.53878784179688 56.89522552490234 99.53878784179688 71.97139739990234 C 99.53878784179688 87.04759216308594 87.27342224121094 99.31298828125 72.19725036621094 99.31298828125 C 57.12009429931641 99.31298828125 44.85394287109375 87.04759216308594 44.85394287109375 71.97139739990234 C 44.85394287109375 56.89522552490234 57.12009429931641 44.62985610961914 72.19725036621094 44.62985610961914 M 77.69781494140625 144.0601196289063 L 66.02790069580078 144.0601196289063 C 61.73707580566406 144.0601196289063 58.2462272644043 140.5692749023438 58.2462272644043 136.2784271240234 L 57.2255973815918 126.3731842041016 C 52.58937835693359 125.0996398925781 48.12244415283203 123.2278137207031 43.95033645629883 120.8113327026367 L 36.10911560058594 126.9701614379883 C 34.63933563232422 128.4399719238281 32.68524932861328 129.2495574951172 30.60700798034668 129.2495574951172 C 28.5287914276123 129.2495574951172 26.57524871826172 128.4400329589844 25.10622596740723 126.9701614379883 L 16.85361671447754 118.7175521850586 C 15.38374805450439 117.2485275268555 14.57424831390381 115.2949905395508 14.57424831390381 113.2167663574219 C 14.57424831390381 111.1385269165039 15.38374805450439 109.1845092773438 16.85361671447754 107.7146377563477 L 23.18750953674316 99.92420196533203 C 20.80485725402832 95.75592041015625 18.9654426574707 91.29698944091797 17.72018241882324 86.6734619140625 L 7.779943466186523 85.47950744628906 C 3.490182638168335 85.47950744628906 8.706797416380141e-06 81.98863983154297 8.706797416380141e-06 77.69781494140625 L 8.706797416380141e-06 66.02790069580078 C 8.706797416380141e-06 61.73707580566406 3.490052223205566 58.2462272644043 7.779943466186523 58.2462272644043 L 17.73420524597168 57.22033309936523 C 19.0729866027832 52.26250839233398 21.09146499633789 47.50640106201172 23.73196601867676 43.08551025390625 L 17.72368240356445 35.15501022338867 C 16.28007316589355 33.66059494018555 15.50496482849121 31.69307327270508 15.54126930236816 29.61505126953125 C 15.57757377624512 27.53694343566895 16.42105293273926 25.59744262695313 17.91626930236816 24.15385627746582 L 26.31068229675293 16.04655265808105 C 27.76931381225586 14.63831329345703 29.68902969360352 13.86274814605713 31.71616172790527 13.86274814605713 C 33.84644317626953 13.86274814605713 35.83433532714844 14.70607376098633 37.31357574462891 16.23737907409668 L 44.87468338012695 22.60803031921387 C 48.83124923706055 20.41309547424316 53.04927062988281 18.7009220123291 57.40940093994141 17.51885604858398 L 58.58059692382813 7.779943466186523 C 58.58059692382813 3.490182638168335 62.07068252563477 8.706797416380141e-06 66.36052703857422 8.706797416380141e-06 L 78.03220367431641 8.706797416380141e-06 C 82.32207489013672 8.706797416380141e-06 85.81214141845703 3.490052223205566 85.81214141845703 7.779943466186523 L 86.81000518798828 17.47333526611328 C 91.54051208496094 18.73898696899414 96.09165954589844 20.62259483337402 100.3356170654297 23.07020378112793 L 107.9509887695313 17.08820343017578 C 109.419921875 15.61924743652344 111.3735275268555 14.81016063690186 113.4517669677734 14.81016063690186 C 115.5300064086914 14.81016063690186 117.4840545654297 15.61918258666992 118.9538803100586 17.08820343017578 L 127.2065124511719 25.34081268310547 C 130.2404937744141 28.37481307983398 130.2404937744141 33.31146621704102 127.2065124511719 36.34546661376953 L 121.1071853637695 43.84705352783203 C 123.5662689208984 48.11626815795898 125.4528121948242 52.68711853027344 126.7145767211914 57.430419921875 L 136.2784271240234 58.58059692382813 C 140.5691680908203 58.58059692382813 144.0601196289063 62.07068252563477 144.0601196289063 66.36052703857422 L 144.0601196289063 78.03220367431641 C 144.0601196289063 82.32207489013672 140.5692749023438 85.81214141845703 136.2784271240234 85.81214141845703 L 126.6357879638672 86.80651092529297 C 125.2632675170898 91.85404968261719 123.1893997192383 96.68557739257813 120.4734649658203 101.1654205322266 L 126.3364181518555 108.9033584594727 C 127.780029296875 110.3985977172852 128.5551452636719 112.3666839599609 128.5188598632813 114.4448547363281 C 128.4825592041016 116.5230941772461 127.6390762329102 118.4626617431641 126.1438598632813 119.90625 L 117.7476806640625 128.0135498046875 C 116.2900772094727 129.4216003417969 114.3712005615234 130.1970977783203 112.3445053100586 130.1971893310547 C 110.2140731811523 130.1972503662109 108.2260055541992 129.3533782958984 106.7465286254883 127.8209838867188 L 99.23444366455078 121.4923553466797 C 95.25763702392578 123.6674652099609 91.023681640625 125.356071472168 86.65244293212891 126.5115051269531 L 85.47950744628906 136.2784271240234 C 85.47950744628906 140.5691680908203 81.98863983154297 144.0601196289063 77.69781494140625 144.0601196289063 Z M 72.19725036621094 48.62985610961914 C 59.32570266723633 48.62985610961914 48.85394287109375 59.10081481933594 48.85394287109375 71.97139739990234 C 48.85394287109375 84.84198760986328 59.32570266723633 95.31298828125 72.19725036621094 95.31298828125 C 85.06783294677734 95.31298828125 95.53878784179688 84.84198760986328 95.53878784179688 71.97139739990234 C 95.53878784179688 59.10081481933594 85.06783294677734 48.62985610961914 72.19725036621094 48.62985610961914 Z" stroke="none" fill="#343434"/>
  </g>
</svg>
