<svg id="EngrenageUPLEFT16" xmlns="http://www.w3.org/2000/svg" width="132.06" height="132.06" viewBox="0 0 132.06 132.06">
  <g id="Exclusion_2" data-name="Exclusion 2" transform="translate(0 0)" fill="#707070">
    <path d="M 71.22599792480469 130.0597076416016 L 60.5277099609375 130.0597076416016 C 57.69763565063477 130.0597076416016 55.39519882202148 127.7572708129883 55.39519882202148 124.9272003173828 L 55.39519882202148 124.8243789672852 L 55.3846549987793 124.7221298217773 L 54.44865417480469 115.6420364379883 L 54.30834579467773 114.2808685302734 L 52.98881912231445 113.9185104370117 C 48.90136337280273 112.7960357666016 44.96649169921875 111.1471099853516 41.29349136352539 109.0174865722656 L 40.12089157104492 108.3376159667969 L 39.0549430847168 109.1748504638672 L 31.86574554443359 114.8214569091797 L 31.77156257629395 114.8954162597656 L 31.6868896484375 114.9800872802734 C 30.71745300292969 115.9495239257813 29.42852592468262 116.4834136962891 28.05750846862793 116.4834136962891 C 26.68650817871094 116.4834136962891 25.39756202697754 115.9495239257813 24.42810821533203 114.9800872802734 L 16.86272621154785 107.4146881103516 C 14.86245346069336 105.4137954711914 14.86245346069336 102.1577072143555 16.86294555664063 100.1565780639648 L 16.93550872802734 100.0839996337891 L 17.00025367736816 100.0043792724609 L 22.80794525146484 92.86198425292969 L 23.67319869995117 91.79788970947266 L 22.99234390258789 90.60734558105469 C 20.89432716369629 86.93863677978516 19.27394485473633 83.0111083984375 18.17623519897461 78.93385314941406 L 17.82501792907715 77.62931060791016 L 16.48367118835449 77.46809387207031 L 7.371181011199951 76.372802734375 L 7.252272129058838 76.35850524902344 L 7.132508277893066 76.35850524902344 C 4.302435874938965 76.35850524902344 2.000017404556274 74.05606842041016 2.000017404556274 71.22599792480469 L 2.000017404556274 60.5277099609375 C 2.000017404556274 57.6971435546875 4.302435874938965 55.39430999755859 7.132508277893066 55.39430999755859 L 7.235217571258545 55.39430999755859 L 7.337380886077881 55.38378143310547 L 16.46158027648926 54.44417953491211 L 17.82888984680176 54.30338287353516 L 18.18745422363281 52.97643661499023 C 19.36814498901367 48.60716247558594 21.1463451385498 44.417236328125 23.47267150878906 40.52309036254883 L 24.16452598571777 39.36494445800781 L 23.34987258911133 38.28965377807617 L 17.84187126159668 31.01945304870605 L 17.76956367492676 30.92399978637695 L 17.68638038635254 30.83787155151367 C 16.73385429382324 29.85152626037598 16.22245407104492 28.55340003967285 16.24636268615723 27.1826171875 C 16.27027130126953 25.81196212768555 16.82647132873535 24.53269004821777 17.81252670288086 23.58047294616699 L 25.5092716217041 16.1483268737793 C 26.47114562988281 15.21945381164551 27.73698043823242 14.70792675018311 29.07363510131836 14.70792675018311 C 30.47907257080078 14.70792675018311 31.79063606262207 15.26458072662354 32.76672744750977 16.27532577514648 L 32.83810806274414 16.34923553466797 L 32.91669082641602 16.41545295715332 L 39.8466911315918 22.25465393066406 L 40.90056228637695 23.14263534545898 L 42.10563659667969 22.47409057617188 C 45.59256362915039 20.53965377807617 49.30859756469727 19.03098106384277 53.15056228637695 17.98999977111816 L 54.45230865478516 17.63727188110352 L 54.61321640014648 16.2982349395752 L 55.68601608276367 7.371144771575928 L 55.70030975341797 7.252254009246826 L 55.70030975341797 7.132508277893066 C 55.70030975341797 4.302435874938965 58.00314331054688 2.000017404556274 60.83370971679688 2.000017404556274 L 71.53199768066406 2.000017404556274 C 74.36207580566406 2.000017404556274 76.66450500488281 4.302435874938965 76.66450500488281 7.132508277893066 L 76.66450500488281 7.235363006591797 L 76.67505645751953 7.337653636932373 L 77.59125518798828 16.22245407104492 L 77.73262023925781 17.59323501586914 L 79.06383514404297 17.94936370849609 C 83.22552490234375 19.06270790100098 87.23410797119141 20.72188949584961 90.978271484375 22.88079833984375 L 92.1494140625 23.55608940124512 L 93.21260070800781 22.72110748291016 L 100.1938934326172 17.23830795288086 L 100.2881088256836 17.16432571411133 L 100.372802734375 17.07961654663086 C 101.3422546386719 16.11018180847168 102.6312026977539 15.57629013061523 104.002197265625 15.57629013061523 C 105.3731994628906 15.57629013061523 106.6621475219727 16.11018180847168 107.6316146850586 17.07963562011719 L 115.1960144042969 24.64492607116699 C 116.1655960083008 25.61421775817871 116.6994171142578 26.90279960632324 116.6994171142578 28.27361679077148 C 116.6994171142578 29.64454460144043 116.16552734375 30.9334545135498 115.1960906982422 31.90290832519531 L 115.1233444213867 31.97563552856445 L 115.0584716796875 32.05545425415039 L 109.4667663574219 38.93325424194336 L 108.5985794067383 40.0011100769043 L 109.2857437133789 41.19352722167969 C 111.4521789550781 44.95283508300781 113.1145248413086 48.97936248779297 114.2265625 53.16128921508789 L 114.5749053955078 54.47125244140625 L 115.9207077026367 54.63301849365234 L 124.6885070800781 55.68690872192383 L 124.8074340820313 55.70119857788086 L 124.9272003173828 55.70119857788086 C 127.7572708129883 55.70119857788086 130.0597076416016 58.00363540649414 130.0597076416016 60.83370971679688 L 130.0597076416016 71.53199768066406 C 130.0597076416016 74.36207580566406 127.7572708129883 76.66450500488281 124.9272003173828 76.66450500488281 L 124.8244552612305 76.66450500488281 L 124.7222366333008 76.67503356933594 L 115.8815460205078 77.58583831787109 L 114.5163269042969 77.72649383544922 L 114.1564712524414 79.05091094970703 C 112.9491958618164 83.49430847167969 111.122688293457 87.75109100341797 108.7276916503906 91.70303344726563 L 108.0236892700195 92.86469268798828 L 108.8439788818359 93.94738006591797 L 114.2178726196289 101.0402908325195 L 114.2902526855469 101.135856628418 L 114.3735656738281 101.2220687866211 C 115.325927734375 102.2079467773438 115.8372573852539 103.5058746337891 115.813346862793 104.8767623901367 C 115.789436340332 106.2476501464844 115.2332382202148 107.5270156860352 114.247200012207 108.4792327880859 L 106.5504379272461 115.9113845825195 C 105.5886535644531 116.8401641845703 104.3227844238281 117.351692199707 102.9859237670898 117.3517837524414 C 101.5806732177734 117.3518905639648 100.2691650390625 116.7952346801758 99.29298400878906 115.7843780517578 L 99.22161865234375 115.7104873657227 L 99.14305114746094 115.644287109375 L 92.25714111328125 109.8420028686523 L 91.2098388671875 108.9594879150391 L 90.00836181640625 109.6168899536133 C 86.50478363037109 111.5339660644531 82.77538299560547 113.0222702026367 78.92375946044922 114.0404357910156 L 77.61125183105469 114.3873977661133 L 77.44919586181641 115.7352905273438 L 76.372802734375 124.6884689331055 L 76.35850524902344 124.8073959350586 L 76.35850524902344 124.9272003173828 C 76.35850524902344 127.7572708129883 74.05606842041016 130.0597076416016 71.22599792480469 130.0597076416016 Z M 66.18239593505859 42.57880020141602 C 53.28098297119141 42.57880020141602 42.78490829467773 53.07487106323242 42.78490829467773 65.97631072998047 C 42.78490829467773 78.87772369384766 53.28098297119141 89.37380218505859 66.18239593505859 89.37380218505859 C 79.08432769775391 89.37380218505859 89.58080291748047 78.87772369384766 89.58080291748047 65.97631072998047 C 89.58080291748047 53.07487106323242 79.08432769775391 42.57880020141602 66.18239593505859 42.57880020141602 Z" stroke="none"/>
    <path d="M 71.22601318359375 128.0597076416016 C 72.95327758789063 128.0597076416016 74.35851287841797 126.6544723510742 74.35851287841797 124.9271926879883 L 74.35851287841797 124.687614440918 L 74.38711547851563 124.4497375488281 L 75.46351623535156 115.4965515136719 L 75.78761291503906 112.8007736206055 L 78.41263580322266 112.1068572998047 C 82.1080322265625 111.129997253418 85.68641662597656 109.7019348144531 89.04835510253906 107.8623733520508 L 91.45127105712891 106.5475540161133 L 93.54591369628906 108.3125762939453 L 100.4317932128906 114.114875793457 L 100.5889129638672 114.2472763061523 L 100.7316360473633 114.3950500488281 C 101.3361129760742 115.0210113525391 102.1156158447266 115.3518524169922 102.9857711791992 115.3517913818359 C 103.8016128540039 115.3517303466797 104.5741500854492 115.03955078125 105.1611709594727 114.47265625 L 112.8578720092773 107.0405349731445 C 113.4683532714844 106.4510116577148 113.7988510131836 105.6907501220703 113.8136367797852 104.8418731689453 C 113.8284530639648 103.9931106567383 113.5246734619141 103.2219161987305 112.9351348876953 102.6116333007813 L 112.7685317993164 102.4391937255859 L 112.6237564086914 102.2480773925781 L 107.2498550415039 95.1551513671875 L 105.6092758178711 92.98977661132813 L 107.0172729492188 90.66645050048828 C 109.3155136108398 86.87419128417969 111.0681304931641 82.78973388671875 112.2264556884766 78.52651214599609 L 112.9461517333984 75.87765502929688 L 115.6765975952148 75.59635162353516 L 124.5172729492188 74.68557739257813 L 124.7216949462891 74.66451263427734 L 124.9271926879883 74.66451263427734 C 126.6544723510742 74.66451263427734 128.0597076416016 73.25927734375 128.0597076416016 71.53201293945313 L 128.0597076416016 60.83369445800781 C 128.0597076416016 59.1064338684082 126.6544723510742 57.70119476318359 124.9271926879883 57.70119476318359 L 124.6876525878906 57.70119476318359 L 124.449836730957 57.67261505126953 L 115.6820373535156 56.61873245239258 L 112.9904174804688 56.29519271850586 L 112.2937316894531 53.67525482177734 C 111.2267761230469 49.66289520263672 109.6317367553711 45.79943466186523 107.5528945922852 42.19215393066406 L 106.1785354614258 39.80731201171875 L 107.9149169921875 37.67159271240234 L 113.5066375732422 30.79379463195801 L 113.6363906860352 30.63417434692383 L 113.781852722168 30.48873329162598 C 114.3821105957031 29.8884334564209 114.6994171142578 29.1224536895752 114.6994171142578 28.27361297607422 C 114.6994171142578 27.42501449584961 114.3822937011719 26.65945434570313 113.7817153930664 26.05907440185547 L 106.2174301147461 18.49387359619141 C 105.6171112060547 17.89359474182129 104.8511123657227 17.5762939453125 104.0022125244141 17.5762939453125 C 103.1532974243164 17.5762939453125 102.3872909545898 17.89357376098633 101.7870559692383 18.49381446838379 L 101.6176376342773 18.66325378417969 L 101.4291915893555 18.81123352050781 L 94.4478759765625 24.29401397705078 L 92.32149505615234 25.96397399902344 L 89.97921752929688 24.6134147644043 C 86.38629150390625 22.54169464111328 82.53993225097656 20.94963455200195 78.54697418212891 19.88143348693848 L 75.88451385498047 19.16917419433594 L 75.60181427001953 16.42761421203613 L 74.68561553955078 7.542813777923584 L 74.66451263427734 7.338213920593262 L 74.66451263427734 7.132513999938965 C 74.66451263427734 5.405253887176514 73.25927734375 4.000013828277588 71.53201293945313 4.000013828277588 L 60.83369445800781 4.000013828277588 C 59.10593414306641 4.000013828277588 57.70029449462891 5.405253887176514 57.70029449462891 7.132513999938965 L 57.70029449462891 7.371994018554688 L 57.67171478271484 7.609773635864258 L 56.59891510009766 16.53687477111816 L 56.27707290649414 19.21499443054199 L 53.6735725402832 19.92041397094727 C 49.98735427856445 20.91917419433594 46.42179489135742 22.36677360534668 43.07591247558594 24.22299385070801 L 40.66575241088867 25.56009292602539 L 38.5579948425293 23.78411293029785 L 31.62797355651855 17.94491386413574 L 31.4708137512207 17.8124942779541 L 31.32805442810059 17.66465377807617 C 30.72361373901367 17.03875350952148 29.94405364990234 16.70791435241699 29.07363319396973 16.70791435241699 C 28.2580738067627 16.70791435241699 27.48565292358398 17.02009391784668 26.8985538482666 17.58707427978516 L 19.20181465148926 25.01919364929199 C 18.59135437011719 25.60869407653809 18.26087379455566 26.36885452270508 18.24607467651367 27.21749305725098 C 18.23125457763672 28.06627464294434 18.53519439697266 28.83775329589844 19.12505340576172 29.44855308532715 L 19.29141426086426 29.62081336975098 L 19.43601417541504 29.81169319152832 L 24.94401359558105 37.08187484741211 L 26.57335472106934 39.23249435424805 L 25.18963432312012 41.54879379272461 C 22.95733451843262 45.2855339050293 21.25105476379395 49.30589294433594 20.11821365356445 53.49817276000977 L 19.40107345581055 56.15207290649414 L 16.66645431518555 56.43367385864258 L 7.542253971099854 57.37325286865234 L 7.337934017181396 57.39429473876953 L 7.132513999938965 57.39429473876953 C 5.405253887176514 57.39429473876953 4.000013828277588 58.79993438720703 4.000013828277588 60.52769470214844 L 4.000013828277588 71.22601318359375 C 4.000013828277588 72.95327758789063 5.405253887176514 74.35851287841797 7.132513999938965 74.35851287841797 L 7.372053623199463 74.35851287841797 L 7.60987377166748 74.38709259033203 L 16.72237396240234 75.48239135742188 L 19.40505409240723 75.80485534667969 L 20.10747337341309 78.41395568847656 C 21.16067314147949 82.32587432861328 22.71541404724121 86.09427642822266 24.72851371765137 89.61449432373047 L 26.09019470214844 91.99557495117188 L 24.35971450805664 94.12375640869141 L 18.5520133972168 101.2661514282227 L 18.42251396179199 101.4254150390625 L 18.27739334106445 101.5705718994141 C 17.05633354187012 102.7920303344727 17.05633354187012 104.7794952392578 18.27693367004395 106.0004959106445 L 25.84231376647949 113.5658721923828 C 26.44261360168457 114.1661529541016 27.20861434936523 114.4834365844727 28.05751419067383 114.4834365844727 C 28.90641403198242 114.4834365844727 29.67241287231445 114.1661529541016 30.27271461486816 113.5658721923828 L 30.44205474853516 113.3965301513672 L 30.63037300109863 113.2486114501953 L 37.81955337524414 107.6020126342773 L 39.95145416259766 105.9275512695313 L 42.29663467407227 107.2872924804688 C 45.82105255126953 109.3307342529297 49.59661483764648 110.9129104614258 53.51845550537109 111.9899139404297 L 56.15751266479492 112.7146301269531 L 56.43813323974609 115.4369735717773 L 57.37411499023438 124.5170516967773 L 57.39519500732422 124.7215728759766 L 57.39519500732422 124.9271926879883 C 57.39519500732422 126.6544723510742 58.80043411254883 128.0597076416016 60.52769470214844 128.0597076416016 L 71.22601318359375 128.0597076416016 M 66.18239593505859 40.57881546020508 C 80.1871337890625 40.57881546020508 91.580810546875 51.97207260131836 91.580810546875 65.97629547119141 C 91.580810546875 79.98051452636719 80.1871337890625 91.37379455566406 66.18239593505859 91.37379455566406 C 52.17817306518555 91.37379455566406 40.784912109375 79.98051452636719 40.784912109375 65.97629547119141 C 40.784912109375 51.97207260131836 52.17817306518555 40.57881546020508 66.18239593505859 40.57881546020508 M 71.22601318359375 132.0597076416016 L 60.52769470214844 132.0597076416016 C 56.59483337402344 132.0597076416016 53.39519500732422 128.8600769042969 53.39519500732422 124.9271926879883 L 52.45921325683594 115.8471145629883 C 48.20567321777344 114.6790313720703 44.11121368408203 112.9630737304688 40.2902946472168 110.7477111816406 L 33.10111236572266 116.3943176269531 C 31.75393295288086 117.7414703369141 29.96273422241211 118.4834365844727 28.05751419067383 118.4834365844727 C 26.15229415893555 118.4834365844727 24.36111450195313 117.7414932250977 23.01391410827637 116.3943176269531 L 15.44851398468018 108.8289108276367 C 12.66861343383789 106.0481109619141 12.66861343383789 101.5234146118164 15.44851398468018 98.74261474609375 L 21.2562141418457 91.60021209716797 C 19.07293319702148 87.78243255615234 17.38695335388184 83.69541168212891 16.24501419067383 79.45381164550781 L 7.132513999938965 78.35851287841797 C 3.199693918228149 78.35851287841797 1.382080063194735e-05 75.15887451171875 1.382080063194735e-05 71.22601318359375 L 1.382080063194735e-05 60.52769470214844 C 1.382080063194735e-05 56.59433364868164 3.199633836746216 53.39429473876953 7.132513999938965 53.39429473876953 L 16.2567138671875 52.4547119140625 C 17.4853343963623 47.90799331665039 19.33575439453125 43.54827499389648 21.75571441650391 39.49739456176758 L 16.24771308898926 32.22721481323242 C 14.92411422729492 30.85661315917969 14.21343421936035 29.05263328552246 14.24667358398438 27.14771461486816 C 14.27989387512207 25.2429141998291 15.0528736114502 23.46511459350586 16.42321395874023 22.14181327819824 L 24.12001419067383 14.70961380004883 C 25.45667457580566 13.41881370544434 27.21591377258301 12.70791339874268 29.07363319396973 12.70791339874268 C 31.02651405334473 12.70791339874268 32.84901428222656 13.48145389556885 34.20539474487305 14.88601398468018 L 41.13541412353516 20.7252140045166 C 44.76389312744141 18.71221351623535 48.63077545166016 17.14251327514648 52.62749481201172 16.05961418151855 L 53.70029449462891 7.132513999938965 C 53.70029449462891 3.199693918228149 56.90033340454102 1.382080063194735e-05 60.83369445800781 1.382080063194735e-05 L 71.53201293945313 1.382080063194735e-05 C 75.46487426757813 1.382080063194735e-05 78.66451263427734 3.199633836746216 78.66451263427734 7.132513999938965 L 79.58071136474609 16.01731300354004 C 83.91159057617188 17.1759147644043 88.08265686035156 18.90251350402832 91.977294921875 21.148193359375 L 98.95861053466797 15.66541385650635 C 100.3057708740234 14.31823348999023 102.0969924926758 13.5762939453125 104.0022125244141 13.5762939453125 C 105.9074172973633 13.5762939453125 107.6985931396484 14.31823348999023 109.0458145141602 15.66541385650635 L 116.6103134155273 23.23081398010254 C 117.9574966430664 24.57757377624512 118.6994171142578 26.36847305297852 118.6994171142578 28.27361297607422 C 118.6994171142578 30.17877388000488 117.9574966430664 31.96989440917969 116.6103134155273 33.31711196899414 L 111.0185928344727 40.19491195678711 C 113.2728958129883 44.10665512084961 115.0024719238281 48.29661560058594 116.1593933105469 52.64731216430664 L 124.9271926879883 53.70119476318359 C 128.8600158691406 53.70119476318359 132.0597076416016 56.90083312988281 132.0597076416016 60.83369445800781 L 132.0597076416016 71.53201293945313 C 132.0597076416016 75.46487426757813 128.8600769042969 78.66451263427734 124.9271926879883 78.66451263427734 L 116.0865173339844 79.57529449462891 C 114.8301773071289 84.19927215576172 112.9294967651367 88.62863159179688 110.4381103515625 92.73959350585938 L 115.81201171875 99.83251190185547 C 117.135612487793 101.2026748657227 117.8462753295898 103.0065307617188 117.8130340576172 104.9116516113281 C 117.7798309326172 106.8166732788086 117.0068359375 108.594596862793 115.6365127563477 109.9178924560547 L 107.9397125244141 117.3501129150391 C 106.6031951904297 118.6407775878906 104.8439559936523 119.3516540527344 102.9860763549805 119.3517913818359 C 101.0332946777344 119.3519134521484 99.21079254150391 118.5783920288086 97.85429382324219 117.173713684082 L 90.96841430664063 111.3714141845703 C 87.32265472412109 113.3662719726563 83.44185638427734 114.914794921875 79.43491363525391 115.9740142822266 L 78.35851287841797 124.9271926879883 C 78.35851287841797 128.8600158691406 75.15887451171875 132.0597076416016 71.22601318359375 132.0597076416016 Z M 66.18239593505859 44.57881546020508 C 54.38379287719727 44.57881546020508 44.784912109375 54.17769241333008 44.784912109375 65.97629547119141 C 44.784912109375 77.77491760253906 54.38379287719727 87.37379455566406 66.18239593505859 87.37379455566406 C 77.98151397705078 87.37379455566406 87.580810546875 77.77491760253906 87.580810546875 65.97629547119141 C 87.580810546875 54.17769241333008 77.98151397705078 44.57881546020508 66.18239593505859 44.57881546020508 Z" stroke="none" fill="#343434"/>
  </g>
</svg>
