<svg id="EngrenageUP7" xmlns="http://www.w3.org/2000/svg" width="123.06" height="123.06" viewBox="0 0 123.06 123.06">
  <g id="Exclusion_2" data-name="Exclusion 2" transform="translate(0 0)" fill="#707070">
    <path d="M 66.37161254882813 121.0601043701172 L 56.40284729003906 121.0601043701172 C 53.84030151367188 121.0601043701172 51.75551986694336 118.9753189086914 51.75551986694336 116.4127731323242 L 51.75551986694336 116.3100128173828 L 51.7449951171875 116.2077789306641 L 50.87313842773438 107.7464447021484 L 50.73288345336914 106.3853378295898 L 49.41342926025391 106.0228881835938 C 45.61910247802734 104.9805908203125 41.9627571105957 103.4486694335938 38.54597473144531 101.4696884155273 L 37.37363052368164 100.7906875610352 L 36.30819320678711 101.6275024414063 L 29.61001205444336 106.8885192871094 L 29.51583099365234 106.9625015258789 L 29.4311580657959 107.0471954345703 C 28.5533390045166 107.925048828125 27.38641166687012 108.4085006713867 26.14533996582031 108.4085006713867 C 24.90452194213867 108.4085006713867 23.73814010620117 107.9251937866211 22.8610668182373 107.0475769042969 L 15.81103038787842 99.99755859375 C 14.933030128479 99.12008666992188 14.44972133636475 97.95370483398438 14.44972133636475 96.71286773681641 C 14.44972133636475 95.47179412841797 14.93317604064941 94.30486297607422 15.81101226806641 93.42703247070313 L 15.88373947143555 93.35430145263672 L 15.94863033294678 93.27450561523438 L 21.35921287536621 86.61968231201172 L 22.22415733337402 85.55583190917969 L 21.54373931884766 84.36546325683594 C 19.59370231628418 80.95401000976563 18.08792114257813 77.30464935302734 17.0682487487793 73.51872253417969 L 16.71690368652344 72.2142333984375 L 15.37557601928711 72.05312347412109 L 6.884339332580566 71.03321075439453 L 6.765521049499512 71.01893615722656 L 6.645830154418945 71.01893615722656 C 4.084103107452393 71.01893615722656 1.999993801116943 68.93415832519531 1.999993801116943 66.37161254882813 L 1.999993801116943 56.40284729003906 C 1.999993801116943 53.84030151367188 4.084103107452393 51.75551986694336 6.645830154418945 51.75551986694336 L 6.748611927032471 51.75551986694336 L 6.850866317749023 51.74497604370117 L 15.35406684875488 50.86862945556641 L 16.72150230407715 50.72770309448242 L 17.07986640930176 49.40057754516602 C 18.17550277709961 45.34326553344727 19.82733917236328 41.45046615600586 21.98954010009766 37.83035659790039 L 22.68123054504395 36.67226791381836 L 21.86663055419922 35.59704971313477 L 16.73421287536621 28.82261276245117 L 16.66181182861328 28.72704887390137 L 16.57852172851563 28.64083099365234 C 15.71655750274658 27.74852180480957 15.25379371643066 26.57375717163086 15.27548503875732 25.33295822143555 C 15.29715728759766 24.09195709228516 15.80082988739014 22.93377494812012 16.69370269775391 22.07175827026367 L 23.86470222473145 15.14601230621338 C 24.73564910888672 14.30515766143799 25.88215827941895 13.84193897247314 27.09281158447266 13.84193897247314 C 28.36524772644043 13.84193897247314 29.5524845123291 14.34553909301758 30.43584823608398 15.25997543334961 L 30.50713920593262 15.33377552032471 L 30.58561134338379 15.39990329742432 L 37.04450225830078 20.84188461303711 L 38.09835815429688 21.72981262207031 L 39.30339431762695 21.06130218505859 C 42.54144668579102 19.26497650146484 45.99362945556641 17.86337471008301 49.56401062011719 16.89542961120605 L 50.86537551879883 16.54261207580566 L 51.02637481689453 15.20390319824219 L 52.02684783935547 6.88463020324707 L 52.04115676879883 6.765666484832764 L 52.04115676879883 6.645830154418945 C 52.04115676879883 4.084103107452393 54.12526702880859 1.999993801116943 56.68699264526367 1.999993801116943 L 66.65724945068359 1.999993801116943 C 69.21895599365234 1.999993801116943 71.30307006835938 4.084103107452393 71.30307006835938 6.645830154418945 L 71.30307006835938 6.748502731323242 L 71.31357574462891 6.850630283355713 L 72.16599273681641 15.13101196289063 L 72.30713653564453 16.50204849243164 L 73.63857269287109 16.85826683044434 C 77.510009765625 17.8940486907959 81.23506927490234 19.43546676635742 84.71022796630859 21.43972015380859 L 85.88155364990234 22.11526679992676 L 86.94488525390625 21.27999305725098 L 93.45014190673828 16.16999435424805 L 93.54426574707031 16.09604835510254 L 93.62890625 16.01141166687012 C 94.50601196289063 15.13430309295654 95.67253875732422 14.65124797821045 96.91361236572266 14.65124797821045 C 98.15492248535156 14.65124797821045 99.32197570800781 15.13444805145264 100.1998519897461 16.01181221008301 L 107.2490844726563 23.0610294342041 C 109.0609741210938 24.87294006347656 109.0609741210938 27.82117652893066 107.2490844726563 29.63310241699219 L 107.1763763427734 29.70581245422363 L 107.1115188598633 29.78557586669922 L 101.9013061523438 36.19361114501953 L 101.0332336425781 37.26124954223633 L 101.7200317382813 38.45357513427734 C 103.7327575683594 41.94792175292969 105.2771377563477 45.68895721435547 106.3102874755859 49.57277679443359 L 106.6586837768555 50.88250350952148 L 108.004264831543 51.0443229675293 L 116.1739730834961 52.02684783935547 L 116.2929382324219 52.04115676879883 L 116.4127731323242 52.04115676879883 C 118.9753189086914 52.04115676879883 121.0601043701172 54.12526702880859 121.0601043701172 56.68699264526367 L 121.0601043701172 66.65724945068359 C 121.0601043701172 69.21895599365234 118.9753189086914 71.30307006835938 116.4127731323242 71.30307006835938 L 116.3099212646484 71.30307006835938 L 116.2076110839844 71.31361389160156 L 107.9705963134766 72.16304779052734 L 106.605827331543 72.30379486083984 L 106.2458267211914 73.62772369384766 C 105.1225738525391 77.75862884521484 103.4254150390625 81.71314239501953 101.2014846801758 85.38140869140625 L 100.4971237182617 86.543212890625 L 101.317626953125 87.62610626220703 L 106.3259429931641 94.23606872558594 L 106.3981399536133 94.33137512207031 L 106.4811935424805 94.41739654541016 C 107.3434143066406 95.31043243408203 107.8063201904297 96.48580932617188 107.7846298217773 97.72699737548828 C 107.762939453125 98.96806335449219 107.2592697143555 100.1263198852539 106.3663787841797 100.9883728027344 L 99.19404602050781 107.9139404296875 C 98.32346343994141 108.7549209594727 97.17777252197266 109.2179412841797 95.96768188476563 109.2179946899414 C 94.69537353515625 109.2180328369141 93.50811767578125 108.7141036987305 92.62466430664063 107.7990264892578 L 92.55313873291016 107.7249603271484 L 92.47439575195313 107.6586151123047 L 86.05735778808594 102.2525177001953 L 85.01026916503906 101.3703918457031 L 83.80905151367188 102.0273971557617 C 80.55441284179688 103.8075180053711 77.08924865722656 105.1898651123047 73.50981140136719 106.1359939575195 L 72.19706726074219 106.4829940795898 L 72.03517913818359 107.8311233520508 L 71.03321075439453 116.1743011474609 L 71.01893615722656 116.2931060791016 L 71.01893615722656 116.4127731323242 C 71.01893615722656 118.9753189086914 68.93415832519531 121.0601043701172 66.37161254882813 121.0601043701172 Z M 61.67286682128906 39.54093933105469 C 49.5748291015625 39.54093933105469 39.73235702514648 49.38274002075195 39.73235702514648 61.47993850708008 C 39.73235702514648 73.57715606689453 49.5748291015625 83.41896057128906 61.67286682128906 83.41896057128906 C 73.77006530761719 83.41896057128906 83.61184692382813 73.57715606689453 83.61184692382813 61.47993850708008 C 83.61184692382813 49.38274002075195 73.77006530761719 39.54093933105469 61.67286682128906 39.54093933105469 Z" stroke="none"/>
    <path d="M 66.37160491943359 119.0601119995117 C 67.83134460449219 119.0601119995117 69.01892852783203 117.8725051879883 69.01892852783203 116.4127655029297 L 69.01892852783203 116.1734466552734 L 69.04747009277344 115.9358291625977 L 70.04943084716797 107.5926513671875 L 70.37322998046875 104.8963851928711 L 72.99868774414063 104.2024078369141 C 76.42211151123047 103.2975082397461 79.73635101318359 101.9753646850586 82.84931182861328 100.2727279663086 L 85.25174713134766 98.95868682861328 L 87.345947265625 100.7229919433594 L 93.76298522949219 106.1290893554688 L 93.92047119140625 106.2617492675781 L 94.06350708007813 106.409912109375 C 94.57392883300781 106.938591003418 95.23234558105469 107.2180099487305 95.96762847900391 107.2179870605469 C 96.66651153564453 107.2179718017578 97.30158996582031 106.961311340332 97.8048095703125 106.475212097168 L 104.9772109985352 99.54954528808594 C 105.4931106567383 99.05146789550781 105.7724075317383 98.40917205810547 105.7849273681641 97.69210815429688 C 105.7974700927734 96.97470855712891 105.5406875610352 96.32268524169922 105.042366027832 95.80654907226563 L 104.8762512207031 95.63449096679688 L 104.7318267822266 95.44388580322266 L 99.72352600097656 88.83393096923828 L 98.08255004882813 86.66815185546875 L 99.49122619628906 84.34456634521484 C 101.618408203125 80.83586883544922 103.2416458129883 77.05364990234375 104.3158874511719 73.10295104980469 L 105.035888671875 70.45507049560547 L 107.7654266357422 70.17359161376953 L 116.0024490356445 69.32416534423828 L 116.2070693969727 69.30307006835938 L 116.4127655029297 69.30307006835938 C 117.8725051879883 69.30307006835938 119.0601119995117 68.11616516113281 119.0601119995117 66.65724945068359 L 119.0601119995117 56.68698883056641 C 119.0601119995117 55.22806930541992 117.8725051879883 54.0411491394043 116.4127655029297 54.0411491394043 L 116.1731109619141 54.0411491394043 L 115.9351501464844 54.01252746582031 L 107.7654495239258 53.03001022338867 L 105.0743103027344 52.70636749267578 L 104.3775100708008 50.08691024780273 C 103.3894119262695 46.37248992919922 101.9122314453125 42.79432678222656 99.98694610595703 39.45182800292969 L 98.61338806152344 37.0671501159668 L 100.3494873046875 34.93190765380859 L 105.559684753418 28.52384757995605 L 105.6894302368164 28.36428833007813 L 105.834846496582 28.21886825561523 C 106.8669662475586 27.18674850463867 106.8669662475586 25.50734901428223 105.8348693847656 24.47524833679199 L 98.7860107421875 17.4264087677002 C 98.27862548828125 16.91928863525391 97.63114929199219 16.65124893188477 96.91360473632813 16.65124893188477 C 96.19652557373047 16.65124893188477 95.54972839355469 16.91902923583984 95.04310607910156 17.42562866210938 L 94.87384796142578 17.59490776062012 L 94.68558502197266 17.74278831481934 L 88.18032836914063 22.8527889251709 L 86.05366516113281 24.52330780029297 L 83.71105194091797 23.17224884033203 C 80.38714599609375 21.2552490234375 76.82434844970703 19.78094863891602 73.12166595458984 18.79030799865723 L 70.45878601074219 18.07784843444824 L 70.17650604248047 15.33582878112793 L 69.32408905029297 7.055448532104492 L 69.30307006835938 6.851168155670166 L 69.30307006835938 6.645828247070313 C 69.30307006835938 5.18690824508667 68.11616516113281 4.000008583068848 66.65724945068359 4.000008583068848 L 56.68698883056641 4.000008583068848 C 55.22806930541992 4.000008583068848 54.0411491394043 5.18690824508667 54.0411491394043 6.645828247070313 L 54.0411491394043 6.885488510131836 L 54.01252746582031 7.123428344726563 L 53.01206970214844 15.44268798828125 L 52.69009017944336 18.12008857727051 L 50.08734893798828 18.82572746276855 C 46.67247009277344 19.75152778625488 43.37066650390625 21.09210777282715 40.27362823486328 22.81020927429199 L 37.86354827880859 24.14724922180176 L 35.75582885742188 22.37136840820313 L 29.29692840576172 16.92936897277832 L 29.13998794555664 16.79712867736816 L 28.99738883972168 16.64952850341797 C 28.48700904846191 16.12118911743164 27.82842826843262 15.84192848205566 27.09282875061035 15.84192848205566 C 26.39316749572754 15.84192848205566 25.75718879699707 16.09890747070313 25.25410842895508 16.58460807800293 L 18.08284759521484 23.51058769226074 C 17.56698799133301 24.00862884521484 17.2877082824707 24.65084838867188 17.27516746520996 25.36786842346191 C 17.26264762878418 26.08466911315918 17.51916885375977 26.73592758178711 18.0169677734375 27.25126838684082 L 18.18356895446777 27.42372894287109 L 18.32838821411133 27.6148681640625 L 23.46080780029297 34.38932800292969 L 25.08998870849609 36.53974914550781 L 23.70658874511719 38.85592651367188 C 21.63844871520996 42.31852722167969 20.05852890014648 46.04168701171875 19.01070785522461 49.92198944091797 L 18.29394912719727 52.57626724243164 L 15.55908870697021 52.85810852050781 L 7.055888175964355 53.73444747924805 L 6.8514084815979 53.75552749633789 L 6.645828247070313 53.75552749633789 C 5.18690824508667 53.75552749633789 4.000008583068848 54.94310760498047 4.000008583068848 56.40284729003906 L 4.000008583068848 66.37160491943359 C 4.000008583068848 67.83134460449219 5.18690824508667 69.01892852783203 6.645828247070313 69.01892852783203 L 6.885188579559326 69.01892852783203 L 7.122848510742188 69.04747009277344 L 15.61408805847168 70.06739044189453 L 18.29674911499023 70.38962554931641 L 18.99942779541016 72.99858856201172 C 19.97464752197266 76.61940765380859 21.41486930847168 80.10987091064453 23.28008842468262 83.37297058105469 L 24.64092826843262 85.75366973876953 L 22.9110279083252 87.88137054443359 L 17.50046920776367 94.53617095947266 L 17.37068748474121 94.69580841064453 L 17.2252082824707 94.84128570556641 C 16.71788787841797 95.34858703613281 16.44972801208496 95.99576568603516 16.44972801208496 96.71286773681641 C 16.44972801208496 97.42951202392578 16.71760749816895 98.07601165771484 17.22524833679199 98.58336639404297 L 24.27566909790039 105.6337661743164 C 24.78220748901367 106.1405868530273 25.4287281036377 106.4084854125977 26.14534759521484 106.4084854125977 C 26.86242866516113 106.4084854125977 27.50962829589844 106.1403274536133 28.0169677734375 105.6329879760742 L 28.18630790710449 105.4636306762695 L 28.37464904785156 105.3157119750977 L 35.07280731201172 100.0546875 L 37.20366668701172 98.38101196289063 L 39.54834747314453 99.73902893066406 C 42.81684875488281 101.6321105957031 46.31418991088867 103.0974502563477 49.94320678710938 104.0943298339844 L 52.58210754394531 104.8192291259766 L 52.86260986328125 107.5414505004883 L 53.73446655273438 116.0027694702148 L 53.75552749633789 116.2072296142578 L 53.75552749633789 116.4127655029297 C 53.75552749633789 117.8725051879883 54.94310760498047 119.0601119995117 56.40284729003906 119.0601119995117 L 66.37160491943359 119.0601119995117 M 61.67286682128906 37.54094696044922 C 74.87287139892578 37.54094696044922 85.61184692382813 48.27994918823242 85.61184692382813 61.47994995117188 C 85.61184692382813 74.67996978759766 74.87287139892578 85.41896820068359 61.67286682128906 85.41896820068359 C 48.47202682495117 85.41896820068359 37.73236846923828 74.67996978759766 37.73236846923828 61.47994995117188 C 37.73236846923828 48.27994918823242 48.47202682495117 37.54094696044922 61.67286682128906 37.54094696044922 M 66.37160491943359 123.0601119995117 L 56.40284729003906 123.0601119995117 C 52.73750686645508 123.0601119995117 49.75552749633789 120.0781097412109 49.75552749633789 116.4127655029297 L 48.8836669921875 107.9514465332031 C 44.92329025268555 106.8635482788086 41.10750961303711 105.2645721435547 37.5435676574707 103.2003707885742 L 30.84540748596191 108.4613876342773 C 29.58986854553223 109.7169494628906 27.92062759399414 110.4084854125977 26.14534759521484 110.4084854125977 C 24.37006759643555 110.4084854125977 22.70130920410156 109.7169876098633 21.4464282989502 108.4613876342773 L 14.39682865142822 101.4117889404297 C 13.14120864868164 100.1569061279297 12.44972801208496 98.48812866210938 12.44972801208496 96.71286773681641 C 12.44972801208496 94.93756866455078 13.14120864868164 93.26838684082031 14.39682865142822 92.01280975341797 L 19.80738830566406 85.35800933837891 C 17.77206802368164 81.79732513427734 16.20080757141113 77.98838806152344 15.13706874847412 74.03884887695313 L 6.645828247070313 73.01892852783203 C 2.981408357620239 73.01892852783203 8.370361683773808e-06 70.03694915771484 8.370361683773808e-06 66.37160491943359 L 8.370361683773808e-06 56.40284729003906 C 8.370361683773808e-06 52.73750686645508 2.981308460235596 49.75552749633789 6.645828247070313 49.75552749633789 L 15.14902877807617 48.87918853759766 C 16.29266929626465 44.64406967163086 18.01690864562988 40.58126831054688 20.27248764038086 36.80482864379883 L 15.14006805419922 30.03036880493164 C 13.90688800811768 28.75378799438477 13.2447681427002 27.07308769226074 13.27578830718994 25.29798889160156 C 13.30678844451904 23.52280807495117 14.02730846405029 21.86602783203125 15.30456829071045 20.63288879394531 L 22.47530746459961 13.70740795135498 C 23.7213077545166 12.50444793701172 25.36116790771484 11.84192848205566 27.09282875061035 11.84192848205566 C 28.91256904602051 11.84192848205566 30.61066818237305 12.56232833862305 31.87428855895996 13.8704080581665 L 38.33318710327148 19.31240844726563 C 41.71298980712891 17.43742752075195 45.31614685058594 15.97484874725342 49.04068756103516 14.96508884429932 L 50.0411491394043 6.645828247070313 C 50.0411491394043 2.981408357620239 53.02248764038086 8.370361683773808e-06 56.68698883056641 8.370361683773808e-06 L 66.65724945068359 8.370361683773808e-06 C 70.32176971435547 8.370361683773808e-06 73.30307006835938 2.981308460235596 73.30307006835938 6.645828247070313 L 74.15548706054688 14.92620849609375 C 78.1964111328125 16.00734901428223 82.08412933349609 17.61638832092285 85.70942687988281 19.70720863342285 L 92.21469116210938 14.59720802307129 C 93.46950531005859 13.34238815307617 95.13832855224609 12.65124797821045 96.91360473632813 12.65124797821045 C 98.68891143798828 12.65124797821045 100.3581085205078 13.34232807159424 101.6136703491211 14.59720802307129 L 108.6632919311523 21.64680862426758 C 111.2549896240234 24.23852920532227 111.2549896240234 28.45556831359863 108.6632919311523 31.04728889465332 L 103.4530868530273 37.45534896850586 C 105.5536880493164 41.10224914550781 107.1652297973633 45.00679016113281 108.2430648803711 49.05862808227539 L 116.4127655029297 50.0411491394043 C 120.0780487060547 50.0411491394043 123.0601119995117 53.02248764038086 123.0601119995117 56.68698883056641 L 123.0601119995117 66.65724945068359 C 123.0601119995117 70.32176971435547 120.0781097412109 73.30307006835938 116.4127655029297 73.30307006835938 L 108.1757507324219 74.15248870849609 C 107.0033264160156 78.46424865722656 105.2317504882813 82.59146881103516 102.9117279052734 86.41826629638672 L 107.9200286865234 93.02822875976563 C 109.153205871582 94.30551147460938 109.8153305053711 95.98670959472656 109.7843246459961 97.76194763183594 C 109.7533111572266 99.5372314453125 109.0327911376953 101.1940460205078 107.7555313110352 102.4272079467773 L 100.5833053588867 109.3526916503906 C 99.33816528320313 110.5554885864258 97.69900512695313 111.2179260253906 95.96776580810547 111.2179870605469 C 94.14786529541016 111.2180480957031 92.44960784912109 110.4972076416016 91.18580627441406 109.1881866455078 L 84.76876831054688 103.7820892333984 C 81.37166595458984 105.6401519775391 77.75492858886719 107.0825881958008 74.02088928222656 108.0695877075195 L 73.01892852783203 116.4127655029297 C 73.01892852783203 120.0780487060547 70.03694915771484 123.0601119995117 66.37160491943359 123.0601119995117 Z M 61.67286682128906 41.54094696044922 C 50.67764663696289 41.54094696044922 41.73236846923828 50.48552703857422 41.73236846923828 61.47994995117188 C 41.73236846923828 72.47434997558594 50.67764663696289 81.41896820068359 61.67286682128906 81.41896820068359 C 72.66726684570313 81.41896820068359 81.61184692382813 72.47434997558594 81.61184692382813 61.47994995117188 C 81.61184692382813 50.48552703857422 72.66726684570313 41.54094696044922 61.67286682128906 41.54094696044922 Z" stroke="none" fill="#343434"/>
  </g>
</svg>
