<svg id="EngrenageUP4" xmlns="http://www.w3.org/2000/svg" width="97.06" height="97.06" viewBox="0 0 97.06 97.06">
  <g id="Exclusion_2" data-name="Exclusion 2" fill="#707070">
    <path d="M 52.34869003295898 95.06010437011719 L 44.48611831665039 95.06010437011719 C 42.69799041748047 95.06010437011719 41.24323272705078 93.6053466796875 41.24323272705078 91.81720733642578 L 41.24323272705078 91.71443176269531 L 41.23270416259766 91.61220550537109 L 40.54504776000977 84.93857574462891 L 40.40479278564453 83.57746124267578 L 39.08535003662109 83.21501922607422 C 36.12760543823242 82.40254974365234 33.27737808227539 81.20836639404297 30.61381912231445 79.66563415527344 L 29.44147682189941 78.98661804199219 L 28.37604904174805 79.82346343994141 L 23.09304809570313 83.97294616699219 L 22.99887657165527 84.04692077636719 L 22.9141902923584 84.131591796875 C 22.30163383483887 84.74416351318359 21.48736190795898 85.08152008056641 20.62139129638672 85.08152008056641 C 19.75564765930176 85.08152008056641 18.94183349609375 84.74430847167969 18.32987785339355 84.13198852539063 L 12.76929092407227 78.57140350341797 C 12.15657711029053 77.95904541015625 11.81936264038086 77.14524841308594 11.81936264038086 76.27947998046875 C 11.81936264038086 75.41349029541016 12.15672016143799 74.59922027587891 12.76927661895752 73.98667907714844 L 12.84200572967529 73.91394805908203 L 12.90690517425537 73.83413696289063 L 17.1743335723877 68.58533477783203 L 18.03927612304688 67.52147674560547 L 17.35884857177734 66.33113098144531 C 15.83871936798096 63.67174911499023 14.6649341583252 60.82699203491211 13.87012004852295 57.87586212158203 L 13.51877689361572 56.57137680053711 L 12.17744827270508 56.41026306152344 L 5.480219841003418 55.60585021972656 L 5.361391067504883 55.59157562255859 L 5.241705417633057 55.59157562255859 C 3.454219818115234 55.59157562255859 2.000005483627319 54.13681793212891 2.000005483627319 52.34869003295898 L 2.000005483627319 44.48611831665039 C 2.000005483627319 42.69799041748047 3.454219818115234 41.24323272705078 5.241705417633057 41.24323272705078 L 5.344491004943848 41.24323272705078 L 5.446733951568604 41.23269271850586 L 12.15339088439941 40.54150390625 L 13.52081966400146 40.40059280395508 L 13.87920570373535 39.07344818115234 C 14.73324871063232 35.91073226928711 16.02090644836426 32.87624740600586 17.70637702941895 30.05427742004395 L 18.3980770111084 28.89619064331055 L 17.5834903717041 27.82097625732422 L 13.53544807434082 22.47783470153809 L 13.46304798126221 22.38227653503418 L 13.37974834442139 22.29603385925293 C 12.77833366394043 21.6734619140625 12.45544815063477 20.85379028320313 12.47059154510498 19.9880199432373 C 12.48570537567139 19.12209129333496 12.83714866638184 18.3139476776123 13.46017646789551 17.71244812011719 L 19.11614799499512 12.24991989135742 C 19.72381973266602 11.66323375701904 20.52387619018555 11.33999156951904 21.36867713928223 11.33999156951904 C 22.25663375854492 11.33999156951904 23.08510589599609 11.69139099121094 23.70146179199219 12.32944869995117 L 23.77276229858398 12.40324878692627 L 23.85124778747559 12.46937656402588 L 28.94552040100098 16.7615909576416 L 29.99937629699707 17.6495189666748 L 31.20442008972168 16.98100471496582 C 33.72849273681641 15.58074855804443 36.41952133178711 14.48816299438477 39.20276260375977 13.73360538482666 L 40.50413513183594 13.38079166412354 L 40.66513442993164 12.04209136962891 L 41.45421981811523 5.480505466461182 L 41.46852111816406 5.361534118652344 L 41.46852111816406 5.241705417633057 C 41.46852111816406 3.454219818115234 42.92273330688477 2.000005483627319 44.71022033691406 2.000005483627319 L 52.57397842407227 2.000005483627319 C 54.3614616394043 2.000005483627319 55.81567764282227 3.454219818115234 55.81567764282227 5.241705417633057 L 55.81567764282227 5.344377040863037 L 55.82619094848633 5.44651985168457 L 56.49851989746094 11.9774341583252 L 56.63966369628906 13.34844875335693 L 57.97109222412109 13.70466232299805 C 60.98894882202148 14.51209163665771 63.89269256591797 15.71366310119629 66.60163116455078 17.27600479125977 L 67.77294921875 17.95154762268066 L 68.83627319335938 17.11627769470215 L 73.96711730957031 13.08591938018799 L 74.06126403808594 13.01197719573975 L 74.14590454101563 12.92733383178711 C 74.75787353515625 12.31534862518311 75.57183074951172 11.97830581665039 76.43782043457031 11.97830581665039 C 77.30403137207031 11.97830581665039 78.11844635009766 12.31547737121582 78.73100280761719 12.92772006988525 L 84.29081726074219 18.48752021789551 C 85.55514526367188 19.75186347961426 85.55514526367188 21.80910491943359 84.29080200195313 23.07346343994141 L 84.21810913085938 23.14616203308105 L 84.15325164794922 23.22594833374023 L 80.04384613037109 28.28010559082031 L 79.17577362060547 29.34771919250488 L 79.86257934570313 30.54006195068359 C 81.43157958984375 33.26401901245117 82.63545989990234 36.18023300170898 83.44078826904297 39.20771789550781 L 83.78919219970703 40.51744842529297 L 85.134765625 40.67926406860352 L 91.57839202880859 41.45420455932617 L 91.69738006591797 41.46852111816406 L 91.81720733642578 41.46852111816406 C 93.6053466796875 41.46852111816406 95.06010437011719 42.92273330688477 95.06010437011719 44.71022033691406 L 95.06010437011719 52.57397842407227 C 95.06010437011719 54.3614616394043 93.6053466796875 55.81567764282227 91.81720733642578 55.81567764282227 L 91.71436309814453 55.81567764282227 L 91.61204528808594 55.82623291015625 L 85.11534881591797 56.49619293212891 L 83.75057983398438 56.63692092895508 L 83.39057922363281 57.96086120605469 C 82.51502227783203 61.18087768554688 81.19204711914063 64.26348876953125 79.45840454101563 67.12307739257813 L 78.75407409667969 68.28486633300781 L 79.57456207275391 69.36775207519531 L 83.52470397949219 74.58116149902344 L 83.59691619873047 74.67646026611328 L 83.67996215820313 74.76248931884766 C 84.28163146972656 75.38567352294922 84.60464477539063 76.20586395263672 84.58950805664063 77.07196044921875 C 84.57439422607422 77.93796539306641 84.22293090820313 78.74614715576172 83.59990692138672 79.34766387939453 L 77.94293212890625 84.81002044677734 C 77.33541870117188 85.39688873291016 76.53603363037109 85.71994781494141 75.69171905517578 85.71997833251953 C 74.80390930175781 85.72000885009766 73.9754638671875 85.36837768554688 73.35901641845703 84.72988891601563 L 73.28750610351563 84.65582275390625 L 73.20876312255859 84.5894775390625 L 68.14750671386719 80.32557678222656 L 67.10040283203125 79.44345092773438 L 65.89919281005859 80.10044860839844 C 63.36209106445313 81.48812103271484 60.66093444824219 82.56566619873047 57.87076187133789 83.30316162109375 L 56.55802154541016 83.650146484375 L 56.3961181640625 84.998291015625 L 55.60585021972656 91.5787353515625 L 55.59157562255859 91.69754791259766 L 55.59157562255859 91.81720733642578 C 55.59157562255859 93.6053466796875 54.13681793212891 95.06010437011719 52.34869003295898 95.06010437011719 Z M 48.64269256591797 30.76421928405762 C 38.86772155761719 30.76421928405762 30.91520500183105 38.71620559692383 30.91520500183105 48.49053573608398 C 30.91520500183105 58.26486206054688 38.86772155761719 66.21685028076172 48.64269256591797 66.21685028076172 C 58.4170036315918 66.21685028076172 66.36898803710938 58.26486206054688 66.36898803710938 48.49053573608398 C 66.36898803710938 38.71620559692383 58.4170036315918 30.76421928405762 48.64269256591797 30.76421928405762 Z" stroke="none"/>
    <path d="M 52.34868240356445 93.06009674072266 C 53.03401565551758 93.06009674072266 53.59158325195313 92.50254821777344 53.59158325195313 91.81721496582031 L 53.59158325195313 91.577880859375 L 53.62011337280273 91.34026336669922 L 54.41038131713867 84.75981140136719 L 54.73418045043945 82.06354522705078 L 57.35964965820313 81.36958312988281 C 59.99376678466797 80.67331695556641 62.54399871826172 79.65594482421875 64.93949890136719 78.34574890136719 L 67.34191131591797 77.03174591064453 L 69.43611145019531 78.79601287841797 L 74.49736785888672 83.05991363525391 L 74.65484619140625 83.19259643554688 L 74.79788208007813 83.34075164794922 C 75.04083251953125 83.59239959716797 75.34154510498047 83.72000122070313 75.691650390625 83.71997833251953 C 76.01946258544922 83.71996307373047 76.31732940673828 83.59960174560547 76.55368041992188 83.37126159667969 L 82.21074676513672 77.90882873535156 C 82.45631408691406 77.67173004150391 82.5838623046875 77.37841796875 82.58982849121094 77.03706359863281 C 82.59579467773438 76.69536590576172 82.47848510742188 76.39746856689453 82.24114990234375 76.15164947509766 L 82.07505035400391 75.97959899902344 L 81.93063354492188 75.78900146484375 L 77.98046875 70.57558441162109 L 76.33946228027344 68.40979766845703 L 77.74814605712891 66.08621215820313 C 79.38500213623047 63.38628005981445 80.63406372070313 60.4759635925293 81.46064758300781 57.43608093261719 L 82.18063354492188 54.7881965637207 L 84.91017913818359 54.50673294067383 L 91.40689849853516 53.8367805480957 L 91.61151123046875 53.81568145751953 L 91.81721496582031 53.81568145751953 C 92.50254821777344 53.81568145751953 93.06009674072266 53.25866317749023 93.06009674072266 52.57398223876953 L 93.06009674072266 44.71023178100586 C 93.06009674072266 44.02554702758789 92.50254821777344 43.46851348876953 91.81721496582031 43.46851348876953 L 91.57754516601563 43.46851348876953 L 91.339599609375 43.43989944458008 L 84.89596557617188 42.66496658325195 L 82.20479583740234 42.34131622314453 L 81.50801849365234 39.72184753417969 C 80.74773406982422 36.86374664306641 79.61104583740234 34.11041641235352 78.1295166015625 31.53833198547363 L 76.75592803955078 29.15364837646484 L 78.49205017089844 27.01839828491211 L 82.60144805908203 21.96421432495117 L 82.73117828369141 21.80464744567871 L 82.87660217285156 21.65921592712402 C 83.36114501953125 21.1746826171875 83.36114501953125 20.38626480102539 82.87661743164063 19.90173149108887 L 77.31718444824219 14.34231472015381 C 77.07551574707031 14.10078144073486 76.77964782714844 13.97831535339355 76.43781280517578 13.97831535339355 C 76.09642791748047 13.97831535339355 75.8011474609375 14.10051536560059 75.56015014648438 14.34151458740234 L 75.39086151123047 14.51081466674805 L 75.20258331298828 14.65871524810791 L 70.07173156738281 18.68906593322754 L 67.94508361816406 20.35958099365234 L 65.60244750976563 19.00851440429688 C 63.04475021362305 17.53341484069824 60.30326461791992 16.39898109436035 57.45416641235352 15.63669872283936 L 54.79129791259766 14.92426490783691 L 54.509033203125 12.18223190307617 L 53.83671569824219 5.651331901550293 L 53.81568145751953 5.447064876556396 L 53.81568145751953 5.241714954376221 C 53.81568145751953 4.557031631469727 53.25866317749023 3.999998331069946 52.57398223876953 3.999998331069946 L 44.71023178100586 3.999998331069946 C 44.02554702758789 3.999998331069946 43.46851348876953 4.557031631469727 43.46851348876953 5.241714954376221 L 43.46851348876953 5.481365203857422 L 43.43989944458008 5.719315052032471 L 42.65081405639648 12.28088188171387 L 42.32883071899414 14.9582986831665 L 39.72608184814453 15.66391468048096 C 37.09844970703125 16.37629890441895 34.55778121948242 17.4078311920166 32.17464828491211 18.72991561889648 L 29.76456451416016 20.06693077087402 L 27.6568489074707 18.29106521606445 L 22.56256484985352 13.99884796142578 L 22.40561485290527 13.86659812927246 L 22.26301574707031 13.71899795532227 C 22.02006530761719 13.46749877929688 21.71918106079102 13.33998203277588 21.36868095397949 13.33998203277588 C 21.04018211364746 13.33998203277588 20.74154853820801 13.4606819152832 20.50554847717285 13.68851470947266 L 14.84931468963623 19.15129852294922 C 14.6037654876709 19.38834762573242 14.4762487411499 19.68161582946777 14.47028160095215 20.02294921875 C 14.46433162689209 20.36408233642578 14.58138179779053 20.66134834289551 14.81821537017822 20.90653228759766 L 14.98479843139648 21.07896423339844 L 15.12958145141602 21.27008247375488 L 19.17763137817383 26.61321449279785 L 20.80683135986328 28.76363182067871 L 19.42343139648438 31.07983207702637 C 17.83198165893555 33.74434661865234 16.61626434326172 36.60921478271484 15.81004810333252 39.59483337402344 L 15.09329795837402 42.24911499023438 L 12.35843181610107 42.53098297119141 L 5.651781558990479 43.22216415405273 L 5.447281837463379 43.24323272705078 L 5.241714954376221 43.24323272705078 C 4.557031631469727 43.24323272705078 3.999998331069946 43.80078125 3.999998331069946 44.48611450195313 L 3.999998331069946 52.34868240356445 C 3.999998331069946 53.03401565551758 4.557031631469727 53.59158325195313 5.241714954376221 53.59158325195313 L 5.481081485748291 53.59158325195313 L 5.718731880187988 53.62013244628906 L 12.41594791412354 54.4245491027832 L 15.09861469268799 54.74676513671875 L 15.80129814147949 57.35574722290039 C 16.55166435241699 60.14179992675781 17.65989875793457 62.82761383056641 19.09521484375 65.33861541748047 L 20.4560489654541 67.71931457519531 L 18.72616577148438 69.84701538085938 L 14.45873165130615 75.09581756591797 L 14.32894802093506 75.25544738769531 L 14.18346500396729 75.40091705322266 C 13.94186496734619 75.64251708984375 13.81936550140381 75.93809509277344 13.81936550140381 76.27947998046875 C 13.81936550140381 76.62039947509766 13.9415979385376 76.91541290283203 14.18351459503174 77.15718078613281 L 19.74451446533203 82.71818542480469 C 19.98544883728027 82.95928192138672 20.28048133850098 83.08151245117188 20.62138175964355 83.08151245117188 C 20.96274757385254 83.08151245117188 21.25834846496582 82.95901489257813 21.49994850158691 82.71739959716797 L 21.66929817199707 82.54803466796875 L 21.85766410827637 82.40010070800781 L 27.14066505432129 78.25061798095703 L 29.27153205871582 76.57693481445313 L 31.61621475219727 77.93496704101563 C 34.13141632080078 79.39176177978516 36.8226318359375 80.51937866210938 39.61511611938477 81.28646850585938 L 42.2540168762207 82.01134490966797 L 42.53451538085938 84.73359680175781 L 43.22216415405273 91.40723419189453 L 43.24323272705078 91.61167907714844 L 43.24323272705078 91.81721496582031 C 43.24323272705078 92.50254821777344 43.80078125 93.06009674072266 44.48611450195313 93.06009674072266 L 52.34868240356445 93.06009674072266 M 48.64268112182617 28.76423263549805 C 59.51981353759766 28.76423263549805 68.36899566650391 37.6134147644043 68.36899566650391 48.49053192138672 C 68.36899566650391 59.3676643371582 59.51981353759766 68.21685028076172 48.64268112182617 68.21685028076172 C 37.76491546630859 68.21685028076172 28.91519927978516 59.3676643371582 28.91519927978516 48.49053192138672 C 28.91519927978516 37.6134147644043 37.76491546630859 28.76423263549805 48.64268112182617 28.76423263549805 M 52.34868240356445 97.06009674072266 L 44.48611450195313 97.06009674072266 C 41.59518051147461 97.06009674072266 39.24323272705078 94.7081298828125 39.24323272705078 91.81721496582031 L 38.55558013916016 85.14358520507813 C 35.43194961547852 84.28553009033203 32.42236328125 83.02439880371094 29.61141586303711 81.39630126953125 L 24.32841491699219 85.54578399658203 C 23.33814811706543 86.53607940673828 22.02158164978027 87.08151245117188 20.62138175964355 87.08151245117188 C 19.22119903564453 87.08151245117188 17.90499877929688 86.53611755371094 16.91524887084961 85.54578399658203 L 11.35508155822754 79.98561859130859 C 10.36474800109863 78.99588012695313 9.819365501403809 77.67966461181641 9.819365501403809 76.27947998046875 C 9.819365501403809 74.87926483154297 10.36474800109863 73.56275177001953 11.35508155822754 72.57244873046875 L 15.62251472473145 67.32364654541016 C 14.01721477508545 64.51528167724609 12.77791500091553 61.51108169555664 11.93893146514893 58.39599990844727 L 5.241714954376221 57.59158325195313 C 2.351498365402222 57.59158325195313 -1.629638632039132e-06 55.23961639404297 -1.629638632039132e-06 52.34868240356445 L -1.629638632039132e-06 44.48611450195313 C -1.629638632039132e-06 41.59518051147461 2.351414918899536 39.24323272705078 5.241714954376221 39.24323272705078 L 11.94836521148682 38.55204772949219 C 12.85036468505859 35.21171569824219 14.21031475067139 32.00729751586914 15.98933124542236 29.02873229980469 L 11.94128131866455 23.68559837341309 C 10.96866512298584 22.67873191833496 10.44643211364746 21.35311508178711 10.47089862823486 19.95306587219238 C 10.49534797668457 18.55293083190918 11.06363201141357 17.2461986541748 12.07103157043457 16.27359771728516 L 17.72674751281738 10.81131458282471 C 18.70949745178223 9.862515449523926 20.00289916992188 9.339982032775879 21.36868095397949 9.339982032775879 C 22.80394744873047 9.339982032775879 24.14328193664551 9.908182144165039 25.13991546630859 10.93988132476807 L 30.23419761657715 15.23209857940674 C 32.8999137878418 13.75326538085938 35.74179840087891 12.59969806671143 38.6794319152832 11.80328178405762 L 39.46851348876953 5.241714954376221 C 39.46851348876953 2.351498365402222 41.81995010375977 -1.629638632039132e-06 44.71023178100586 -1.629638632039132e-06 L 52.57398223876953 -1.629638632039132e-06 C 55.46426391601563 -1.629638632039132e-06 57.81568145751953 2.351414918899536 57.81568145751953 5.241714954376221 L 58.48799896240234 11.77261543273926 C 61.67514801025391 12.62533187866211 64.74147796630859 13.8944149017334 67.600830078125 15.54348182678223 L 72.73168182373047 11.51313209533691 C 73.72136688232422 10.52341461181641 75.03759765625 9.978315353393555 76.43781280517578 9.978315353393555 C 77.83802795410156 9.978315353393555 79.15456390380859 10.52338123321533 80.14485168457031 11.51313209533691 L 85.70503234863281 17.07329750061035 C 87.74916839599609 19.1174488067627 87.74916839599609 22.44351577758789 85.70503234863281 24.48764801025391 L 81.59563446044922 29.54183197021484 C 83.25243377685547 32.41819763183594 84.52348327636719 35.49779891967773 85.37358093261719 38.69358062744141 L 91.81721496582031 39.46851348876953 C 94.70808410644531 39.46851348876953 97.06009674072266 41.81995010375977 97.06009674072266 44.71023178100586 L 97.06009674072266 52.57398223876953 C 97.06009674072266 55.46426391601563 94.7081298828125 57.81568145751953 91.81721496582031 57.81568145751953 L 85.32049560546875 58.48563003540039 C 84.39578247070313 61.88641357421875 82.99849700927734 65.14163208007813 81.16864776611328 68.159912109375 L 85.11881256103516 73.37332916259766 C 86.09144592285156 74.38074493408203 86.61366271972656 75.70674896240234 86.58921813964844 77.10689544677734 C 86.56475067138672 78.50711822509766 85.99646759033203 79.81388092041016 84.98906707763672 80.7864990234375 L 79.33218383789063 86.24876403808594 C 78.35011291503906 87.19744873046875 77.05728149414063 87.71993255615234 75.69179534912109 87.71997833251953 C 74.25641632080078 87.72003173828125 72.91696166992188 87.15148162841797 71.92018127441406 86.11903381347656 L 66.85893249511719 81.85513305664063 C 64.1795654296875 83.32059478759766 61.32696533203125 84.45829772949219 58.3818473815918 85.23676300048828 L 57.59158325195313 91.81721496582031 C 57.59158325195313 94.70808410644531 55.23961639404297 97.06009674072266 52.34868240356445 97.06009674072266 Z M 48.64268112182617 32.76423263549805 C 39.97053146362305 32.76423263549805 32.91519927978516 39.81901550292969 32.91519927978516 48.49053192138672 C 32.91519927978516 57.16204833984375 39.97053146362305 64.21685028076172 48.64268112182617 64.21685028076172 C 57.31421661376953 64.21685028076172 64.36899566650391 57.16204833984375 64.36899566650391 48.49053192138672 C 64.36899566650391 39.81901550292969 57.31421661376953 32.76423263549805 48.64268112182617 32.76423263549805 Z" stroke="none" fill="#343434"/>
  </g>
</svg>
