<svg id="EngrenageUPLEFT11" xmlns="http://www.w3.org/2000/svg" width="132.06" height="132.06" viewBox="0 0 132.06 132.06">
  <g id="Exclusion_2" data-name="Exclusion 2" fill="#707070">
    <path d="M 71.2257080078125 130.0601043701172 L 60.52787017822266 130.0601043701172 C 57.69726943969727 130.0601043701172 55.3943977355957 127.7572326660156 55.3943977355957 124.9266357421875 L 55.3943977355957 124.8238677978516 L 55.38386917114258 124.7216339111328 L 54.4482536315918 115.641471862793 L 54.30799865722656 114.2803649902344 L 52.98854446411133 113.9179077148438 C 48.90461730957031 112.7960739135742 44.96923446655273 111.1472702026367 41.29172515869141 109.0172500610352 L 40.11938095092773 108.338249206543 L 39.0539436340332 109.1750869750977 L 31.86590766906738 114.8208923339844 L 31.77174377441406 114.8948516845703 L 31.68707084655762 114.9795227050781 C 30.71739768981934 115.9491958618164 29.42837905883789 116.4832305908203 28.0574893951416 116.4832305908203 C 26.68683433532715 116.4832305908203 25.39839744567871 115.9493408203125 24.42952537536621 114.9799270629883 L 16.86394309997559 107.4143218994141 C 15.8941068649292 106.445068359375 15.36023426055908 105.1566543579102 15.36023426055908 103.7859649658203 C 15.36023426055908 102.4150543212891 15.89425182342529 101.1260528564453 16.86392402648926 100.156379699707 L 16.93665313720703 100.0836486816406 L 17.00154304504395 100.0038528442383 L 22.80783462524414 92.86235809326172 L 23.67277908325195 91.79850769042969 L 22.99236106872559 90.60816192626953 C 20.89347076416016 86.93627166748047 19.27277946472168 83.00836181640625 18.17530632019043 78.93354034423828 L 17.82396125793457 77.62905120849609 L 16.48263359069824 77.46794128417969 L 7.370397567749023 76.37345123291016 L 7.251579284667969 76.35917663574219 L 7.131888389587402 76.35917663574219 C 4.30216121673584 76.35917663574219 1.999997615814209 74.05630493164063 1.999997615814209 71.2257080078125 L 1.999997615814209 60.52787017822266 C 1.999997615814209 57.69726943969727 4.30216121673584 55.3943977355957 7.131888389587402 55.3943977355957 L 7.234670162200928 55.3943977355957 L 7.336925029754639 55.38385391235352 L 16.46199798583984 54.44341659545898 L 17.82943344116211 54.302490234375 L 18.18779754638672 52.97536087036133 C 19.36705207824707 48.60832595825195 21.14497947692871 44.41843414306641 23.47216033935547 40.52208709716797 L 24.16386985778809 39.36399841308594 L 23.34926986694336 38.28878021240234 L 17.84147071838379 31.01888847351074 L 17.76906967163086 30.92332458496094 L 17.6857795715332 30.83710670471191 C 16.73363494873047 29.8514347076416 16.22245216369629 28.55376052856445 16.24639701843262 27.18310737609863 C 16.27034378051758 25.81230735778809 16.82670593261719 24.53296089172363 17.81301498413086 23.58072471618652 L 25.5084342956543 16.14850616455078 C 26.47050666809082 15.21967029571533 27.73696136474609 14.70799732208252 29.07425308227539 14.70799732208252 C 30.47976112365723 14.70799732208252 31.79119682312012 15.26428890228271 32.76696014404297 16.2743968963623 L 32.83827209472656 16.34819793701172 L 32.91674423217773 16.41432571411133 L 39.84801483154297 22.25430679321289 L 40.90187072753906 23.14223480224609 L 42.10690689086914 22.47372436523438 C 45.59203338623047 20.54030609130859 49.30767059326172 19.03172492980957 53.15061569213867 17.98988914489746 L 54.45199584960938 17.63706970214844 L 54.61297988891602 16.29836082458496 L 55.68661499023438 7.370688438415527 L 55.70092391967773 7.251724720001221 L 55.70092391967773 7.131888389587402 C 55.70092391967773 4.30216121673584 58.00307083129883 1.999997615814209 60.83279800415039 1.999997615814209 L 71.53223419189453 1.999997615814209 C 74.36196136474609 1.999997615814209 76.66410827636719 4.30216121673584 76.66410827636719 7.131888389587402 L 76.66410827636719 7.234561443328857 L 76.67461395263672 7.33668851852417 L 77.58936309814453 16.22263336181641 L 77.73050689697266 17.59365272521973 L 79.06192779541016 17.94987106323242 C 83.22885131835938 19.06474304199219 87.23821258544922 20.72381591796875 90.97859954833984 22.88099670410156 L 92.14992523193359 23.55654335021973 L 93.21324920654297 22.72126960754395 L 100.1942901611328 17.23756217956543 L 100.2884140014648 17.16361618041992 L 100.3730697631836 17.0789794921875 C 101.341926574707 16.11008834838867 102.630485534668 15.57650661468506 104.0013961791992 15.57650661468506 C 105.3725433349609 15.57650661468506 106.6616897583008 16.11023330688477 107.6313781738281 17.07938003540039 L 115.1961822509766 24.64418029785156 C 117.1976165771484 26.64563369750977 117.1976165771484 29.90227127075195 115.1961822509766 31.90374374389648 L 115.1234741210938 31.9764518737793 L 115.0586013793945 32.05621719360352 L 109.4673233032227 38.93292617797852 L 108.5992736816406 40.00056076049805 L 109.2860717773438 41.19290542602539 C 111.4524002075195 44.95385360717773 113.114631652832 48.98039627075195 114.2266311645508 53.16069030761719 L 114.5750350952148 54.47041702270508 L 115.9206161499023 54.63223266601563 L 124.6878356933594 55.68661499023438 L 124.8068008422852 55.70092391967773 L 124.9266357421875 55.70092391967773 C 127.7572326660156 55.70092391967773 130.0601043701172 58.00307083129883 130.0601043701172 60.83279800415039 L 130.0601043701172 71.53223419189453 C 130.0601043701172 74.36196136474609 127.7572326660156 76.66410827636719 124.9266357421875 76.66410827636719 L 124.8237762451172 76.66410827636719 L 124.7214736938477 76.67465209960938 L 115.8820343017578 77.58619689941406 L 114.5172729492188 77.72694396972656 L 114.1572723388672 79.05087280273438 C 112.9482879638672 83.49703216552734 111.1215972900391 87.75336456298828 108.7279434204102 91.70165252685547 L 108.0236129760742 92.86343383789063 L 108.844108581543 93.94632720947266 L 114.2186737060547 101.0397033691406 L 114.2908706665039 101.1350173950195 L 114.3739395141602 101.2210311889648 C 115.3263397216797 102.2074890136719 115.8376693725586 103.5058135986328 115.8137283325195 104.8768310546875 C 115.7897644042969 106.2477264404297 115.2333831787109 107.5271453857422 114.2470703125 108.4794006347656 L 106.5502166748047 115.9114532470703 C 105.5886001586914 116.8404159545898 104.3230133056641 117.3518676757813 102.9863052368164 117.3519287109375 C 101.5808868408203 117.3519821166992 100.2694320678711 116.7953262329102 99.29356384277344 115.7845230102539 L 99.22203063964844 115.71044921875 L 99.14328765869141 115.6441040039063 L 92.25692749023438 109.8426513671875 L 91.20983123779297 108.9605255126953 L 90.00861358642578 109.6175231933594 C 86.50559997558594 111.5335083007813 82.77596282958984 113.0213241577148 78.92332458496094 114.0396728515625 L 77.61058044433594 114.3866729736328 L 77.44869232177734 115.7347946166992 L 76.37345123291016 124.6881637573242 L 76.35917663574219 124.8069763183594 L 76.35917663574219 124.9266357421875 C 76.35917663574219 127.7572326660156 74.05630493164063 130.0601043701172 71.2257080078125 130.0601043701172 Z M 66.18330383300781 42.57905197143555 C 53.28114318847656 42.57905197143555 42.78446960449219 53.07501602172852 42.78446960449219 65.97628784179688 C 42.78446960449219 78.87757873535156 53.28114318847656 89.37354278564453 66.18330383300781 89.37354278564453 C 79.08457946777344 89.37354278564453 89.58054351806641 78.87757873535156 89.58054351806641 65.97628784179688 C 89.58054351806641 53.07501602172852 79.08457946777344 42.57905197143555 66.18330383300781 42.57905197143555 Z" stroke="none"/>
    <path d="M 71.22569274902344 128.0601196289063 C 72.95351409912109 128.0601196289063 74.35919189453125 126.6544342041016 74.35919189453125 124.9266357421875 L 74.35919189453125 124.6873092651367 L 74.38773345947266 124.4496917724609 L 75.46295166015625 115.4963302612305 L 75.78675079345703 112.800048828125 L 78.4122314453125 112.1060943603516 C 82.10873413085938 111.1290130615234 85.68743133544922 109.7013702392578 89.04891204833984 107.8628311157227 L 91.45135498046875 106.5488357543945 L 93.5455322265625 108.3130950927734 L 100.4318695068359 114.1145553588867 L 100.58935546875 114.2472305297852 L 100.7323684692383 114.3953704833984 C 101.3365707397461 115.0211944580078 102.1159515380859 115.3519515991211 102.9861907958984 115.3519287109375 C 103.8017349243164 115.3518905639648 104.5738754272461 115.0398559570313 105.1609725952148 114.4726943969727 L 112.8579330444336 107.0405502319336 C 113.4685897827148 106.4509887695313 113.7991943359375 105.6907119750977 113.8140335083008 104.841911315918 C 113.8288497924805 103.9928131103516 113.5249328613281 103.2211151123047 112.9351119995117 102.6101913452148 L 112.7689895629883 102.4381484985352 L 112.6245727539063 102.2475357055664 L 107.2499923706055 95.15412902832031 L 105.6090087890625 92.98834991455078 L 107.017692565918 90.66477203369141 C 109.3145751953125 86.87617492675781 111.0673522949219 82.79212951660156 112.2273559570313 78.52609252929688 L 112.9473342895508 75.87823486328125 L 115.676872253418 75.59675598144531 L 124.5163116455078 74.68519592285156 L 124.7209320068359 74.66409301757813 L 124.9266357421875 74.66409301757813 C 126.6544342041016 74.66409301757813 128.0601196289063 73.2591552734375 128.0601196289063 71.53223419189453 L 128.0601196289063 60.83279037475586 C 128.0601196289063 59.10587310791016 126.6544342041016 57.70091247558594 124.9266357421875 57.70091247558594 L 124.6869735717773 57.70091247558594 L 124.4490356445313 57.67229080200195 L 115.6818084716797 56.6179313659668 L 112.9906311035156 56.29429244995117 L 112.293830871582 53.67481231689453 C 111.2269287109375 49.66397094726563 109.6318893432617 45.80029296875 107.5530090332031 42.1911506652832 L 106.1794357299805 39.80647277832031 L 107.9155502319336 37.67121124267578 L 113.5068130493164 30.79449272155762 L 113.6365356445313 30.63493156433105 L 113.7819519042969 30.48951148986816 C 115.0036087036133 29.26785278320313 115.0036087036133 27.28003311157227 113.7819747924805 26.05839157104492 L 106.2175750732422 18.49399185180664 C 105.6169891357422 17.89375305175781 104.8506546020508 17.57649230957031 104.0013885498047 17.57649230957031 C 103.1525955200195 17.57649230957031 102.3869705200195 17.89347267150879 101.7872695922852 18.49317169189453 L 101.6179885864258 18.66247177124023 L 101.4297332763672 18.81035232543945 L 94.44869232177734 24.2940731048584 L 92.32202911376953 25.96459197998047 L 89.97939300537109 24.61351203918457 C 86.39035034179688 22.54359245300293 82.54327392578125 20.95165252685547 78.54501342773438 19.88191223144531 L 75.88214874267578 19.16947174072266 L 75.59986877441406 16.42745208740234 L 74.68511199951172 7.541491985321045 L 74.66409301757813 7.337212085723877 L 74.66409301757813 7.131872177124023 C 74.66409301757813 5.404952049255371 73.2591552734375 4.000012397766113 71.53223419189453 4.000012397766113 L 60.83279037475586 4.000012397766113 C 59.10587310791016 4.000012397766113 57.70091247558594 5.404952049255371 57.70091247558594 7.131872177124023 L 57.70091247558594 7.371531963348389 L 57.67229080200195 7.609452247619629 L 56.59867095947266 16.53715133666992 L 56.27669143676758 19.21459197998047 L 53.67393112182617 19.92021179199219 C 49.98659133911133 20.91987228393555 46.42131042480469 22.36741256713867 43.07711029052734 24.22263145446777 L 40.66703033447266 25.55963134765625 L 38.55931091308594 23.78377151489258 L 31.6280517578125 17.94379234313965 L 31.47111129760742 17.81155204772949 L 31.32851219177246 17.66393280029297 C 30.72439193725586 17.03855133056641 29.94487190246582 16.70799255371094 29.07425308227539 16.70799255371094 C 28.2579517364502 16.70799255371094 27.48483276367188 17.02037239074707 26.8978328704834 17.58711242675781 L 19.20215225219727 25.01959228515625 C 18.59153175354004 25.60913276672363 18.26093292236328 26.36933135986328 18.24609184265137 27.21807289123535 C 18.23127174377441 28.06655311584473 18.53493309020996 28.83749198913574 19.12425231933594 29.44755172729492 L 19.29083251953125 29.6200122833252 L 19.43563270568848 29.81113243103027 L 24.94341278076172 37.08101272583008 L 26.57261276245117 39.2314338684082 L 25.18921279907227 41.54763031005859 C 22.9560718536377 45.28649139404297 21.25009155273438 49.30677032470703 20.11863136291504 53.49677276611328 L 19.4018726348877 56.15105056762695 L 16.66701126098633 56.43289184570313 L 7.541932106018066 57.37331390380859 L 7.337452411651611 57.39439392089844 L 7.131872177124023 57.39439392089844 C 5.404952049255371 57.39439392089844 4.000012397766113 58.80007171630859 4.000012397766113 60.52787399291992 L 4.000012397766113 71.22569274902344 C 4.000012397766113 72.95351409912109 5.404952049255371 74.35919189453125 7.131872177124023 74.35919189453125 L 7.371232032775879 74.35919189453125 L 7.60889196395874 74.38773345947266 L 16.72115135192871 75.48221588134766 L 19.40383148193359 75.80443572998047 L 20.10649299621582 78.41342926025391 C 21.15951156616211 82.32318878173828 22.71465301513672 86.09217071533203 24.72871208190918 89.61563110351563 L 26.08955192565918 91.99633026123047 L 24.35965156555176 94.12403106689453 L 18.55337142944336 101.2655334472656 L 18.42361259460449 101.4251556396484 L 18.27813148498535 101.5706100463867 C 17.67763137817383 102.1711120605469 17.36023139953613 102.9371719360352 17.36023139953613 103.7859725952148 C 17.36023139953613 104.6343154907227 17.67735290527344 105.3996505737305 18.27815246582031 106.000114440918 L 25.84417152404785 113.5661315917969 C 26.44379234313965 114.1660919189453 27.20915222167969 114.4832305908203 28.05749130249023 114.4832305908203 C 28.90629196166992 114.4832305908203 29.6723518371582 114.1658325195313 30.2728328704834 113.5653305053711 L 30.44217300415039 113.3959732055664 L 30.63053131103516 113.2480087280273 L 37.81857299804688 107.6022338867188 L 39.9494514465332 105.9285736083984 L 42.29411315917969 107.2865905761719 C 45.82329177856445 109.3306884765625 49.59965133666992 110.9129104614258 53.518310546875 111.9893493652344 L 56.15721130371094 112.7142486572266 L 56.43771362304688 115.4364929199219 L 57.37333297729492 124.5166549682617 L 57.39439392089844 124.7210922241211 L 57.39439392089844 124.9266357421875 C 57.39439392089844 126.6544342041016 58.80007171630859 128.0601196289063 60.52787399291992 128.0601196289063 L 71.22569274902344 128.0601196289063 M 66.18331146240234 40.57905197143555 C 80.18739318847656 40.57905197143555 91.58055114746094 51.97219085693359 91.58055114746094 65.97627258300781 C 91.58055114746094 79.98036956787109 80.18739318847656 91.37355041503906 66.18331146240234 91.37355041503906 C 52.17835235595703 91.37355041503906 40.78447341918945 79.98036956787109 40.78447341918945 65.97627258300781 C 40.78447341918945 51.97219085693359 52.17835235595703 40.57905197143555 66.18331146240234 40.57905197143555 M 71.22569274902344 132.0601196289063 L 60.52787399291992 132.0601196289063 C 56.5944709777832 132.0601196289063 53.39439392089844 128.8600311279297 53.39439392089844 124.9266357421875 L 52.45877075195313 115.8464736938477 C 48.2087516784668 114.6790084838867 44.11391067504883 112.9631118774414 40.28933334350586 110.747932434082 L 33.10129165649414 116.3937149047852 C 31.75393295288086 117.7411117553711 29.96259307861328 118.4832305908203 28.05749130249023 118.4832305908203 C 26.15237236022949 118.4832305908203 24.36155128479004 117.7411499023438 23.01491165161133 116.3937149047852 L 15.44973182678223 108.8285293579102 C 14.10229206085205 107.4818954467773 13.36023235321045 105.6910705566406 13.36023235321045 103.7859725952148 C 13.36023235321045 101.8808288574219 14.10229206085205 100.0895919799805 15.44973182678223 98.74217224121094 L 21.25601196289063 91.60066986083984 C 19.07183265686035 87.77959442138672 17.38565254211426 83.69207000732422 16.24413299560547 79.45367431640625 L 7.131872177124023 78.35919189453125 C 3.19945216178894 78.35919189453125 1.218505894939881e-05 75.15911102294922 1.218505894939881e-05 71.22569274902344 L 1.218505894939881e-05 60.52787399291992 C 1.218505894939881e-05 56.5944709777832 3.199352264404297 53.39439392089844 7.131872177124023 53.39439392089844 L 16.2569522857666 52.45397186279297 C 17.48423194885254 47.90911102294922 19.33457183837891 43.54917144775391 21.75511169433594 39.49653244018555 L 16.2473316192627 32.22665405273438 C 14.92397212982178 30.85671234130859 14.21341228485107 29.05307197570801 14.24671173095703 27.14815139770508 C 14.27999210357666 25.2431526184082 15.05319213867188 23.46521186828613 16.42387199401855 22.14189147949219 L 24.11903190612793 14.70991230010986 C 25.45617294311523 13.41895198822021 27.21597290039063 12.70799255371094 29.07425308227539 12.70799255371094 C 31.02709197998047 12.70799255371094 32.84937286376953 13.48107242584229 34.20541381835938 14.88483238220215 L 41.13667297363281 20.72481155395508 C 44.763671875 18.71271133422852 48.63033294677734 17.1431713104248 52.62729263305664 16.05957221984863 L 53.70091247558594 7.131872177124023 C 53.70091247558594 3.19945216178894 56.90029144287109 1.218505894939881e-05 60.83279037475586 1.218505894939881e-05 L 71.53223419189453 1.218505894939881e-05 C 75.46475219726563 1.218505894939881e-05 78.66409301757813 3.199352264404297 78.66409301757813 7.131872177124023 L 79.57884979248047 16.01783180236816 C 83.91531372070313 17.17805290222168 88.08737182617188 18.90475273132324 91.97779083251953 21.14849281311035 L 98.95883178710938 15.66477203369141 C 100.3054122924805 14.31817245483398 102.0962753295898 13.57649230957031 104.0013885498047 13.57649230957031 C 105.9065322875977 13.57649230957031 107.6977920532227 14.3181324005127 109.0451889038086 15.66477203369141 L 116.6103897094727 23.22995185852051 C 119.3916320800781 26.01123237609863 119.3916320800781 30.53667259216309 116.6103897094727 33.31793212890625 L 111.0191345214844 40.19465255737305 C 113.2733688354492 44.10825347900391 115.0027694702148 48.2983512878418 116.1594085693359 52.64655303955078 L 124.9266357421875 53.70091247558594 C 128.8599548339844 53.70091247558594 132.0601196289063 56.90029144287109 132.0601196289063 60.83279037475586 L 132.0601196289063 71.53223419189453 C 132.0601196289063 75.46475219726563 128.8600311279297 78.66409301757813 124.9266357421875 78.66409301757813 L 116.0871887207031 79.57565307617188 C 114.8290100097656 84.20275115966797 112.9278945922852 88.63179016113281 110.4381942749023 92.73847198486328 L 115.8127746582031 99.83187103271484 C 117.1361312866211 101.2025527954102 117.8466949462891 103.0066909790039 117.8134155273438 104.9117736816406 C 117.7801284790039 106.81689453125 117.0069122314453 108.5948944091797 115.63623046875 109.9182357788086 L 107.9394683837891 117.3501892089844 C 106.603271484375 118.6409759521484 104.8442306518555 119.3518524169922 102.9863739013672 119.3519287109375 C 101.0333938598633 119.3519897460938 99.21092987060547 118.5784301757813 97.85469055175781 117.1736755371094 L 90.96835327148438 111.3722152709961 C 87.32279205322266 113.3661346435547 83.44155120849609 114.9140930175781 79.43441009521484 115.973274230957 L 78.35919189453125 124.9266357421875 C 78.35919189453125 128.8599548339844 75.15911102294922 132.0601196289063 71.22569274902344 132.0601196289063 Z M 66.18331146240234 44.57905197143555 C 54.38395309448242 44.57905197143555 44.78447341918945 54.17779159545898 44.78447341918945 65.97627258300781 C 44.78447341918945 77.77477264404297 54.38395309448242 87.37355041503906 66.18331146240234 87.37355041503906 C 77.9818115234375 87.37355041503906 87.58055114746094 77.77477264404297 87.58055114746094 65.97627258300781 C 87.58055114746094 54.17779159545898 77.9818115234375 44.57905197143555 66.18331146240234 44.57905197143555 Z" stroke="none" fill="#343434"/>
  </g>
</svg>
