<svg id="EngrenageUP3" xmlns="http://www.w3.org/2000/svg" width="110.06" height="110.06" viewBox="0 0 110.06 110.06">
  <g id="Exclusion_2" data-name="Exclusion 2" fill="#707070">
    <path d="M 59.36014175415039 108.0600967407227 L 50.44448089599609 108.0600967407227 C 48.26914215087891 108.0600967407227 46.49937057495117 106.2903289794922 46.49937057495117 104.114990234375 L 46.49937057495117 104.0122146606445 L 46.48883438110352 103.9100036621094 L 45.7090950012207 96.34252166748047 L 45.56884765625 94.98138427734375 L 44.2494010925293 94.61894226074219 C 40.87337112426758 93.69157409667969 37.62007904052734 92.32852172851563 34.57989501953125 90.56766510009766 L 33.40753936767578 89.88864898681641 L 32.34210968017578 90.72547912597656 L 26.35152435302734 95.43074035644531 L 26.25735664367676 95.50470733642578 L 26.17267990112305 95.58938598632813 C 25.4274787902832 96.33460235595703 24.4368782043457 96.74500274658203 23.38337135314941 96.74500274658203 C 22.33008003234863 96.74500274658203 21.3399715423584 96.33473968505859 20.5954647064209 95.58979034423828 L 14.29015636444092 89.28447723388672 C 13.54480266571045 88.53955841064453 13.13454055786133 87.54946136474609 13.13454055786133 86.49617004394531 C 13.13454055786133 85.44264984130859 13.54494094848633 84.45204925537109 14.29014110565186 83.70686340332031 L 14.36287879943848 83.63412475585938 L 14.42775630950928 83.55431365966797 L 19.26677131652832 77.60250854492188 L 20.1317253112793 76.53866577148438 L 19.45130920410156 75.34831237792969 C 17.71621704101563 72.3128662109375 16.37643241882324 69.06578826904297 15.46918678283691 65.69729614257813 L 15.11784839630127 64.39279937744141 L 13.77651023864746 64.23169708251953 L 6.182279109954834 63.31954193115234 L 6.063448429107666 63.30526351928711 L 5.943771362304688 63.30526351928711 C 3.769171476364136 63.30526351928711 2.000002145767212 61.53549575805664 2.000002145767212 59.36014175415039 L 2.000002145767212 50.44448089599609 C 2.000002145767212 48.26914215087891 3.769171476364136 46.49937057495117 5.943771362304688 46.49937057495117 L 6.046555995941162 46.49937057495117 L 6.148802280426025 46.48883438110352 L 13.75372505187988 45.705078125 L 15.12115573883057 45.56415557861328 L 15.47954082489014 44.23701858520508 C 16.45435523986816 40.62700271606445 17.92411041259766 37.16337203979492 19.84795570373535 33.94234085083008 L 20.53966331481934 32.78424835205078 L 19.72506332397461 31.70903205871582 L 15.13483333587646 25.65023231506348 L 15.06243324279785 25.55466461181641 L 14.97914028167725 25.46843338012695 C 14.2474479675293 24.71098709106445 13.85461807250977 23.71377182006836 13.87303256988525 22.66047859191895 C 13.891432762146 21.60701751708984 14.3189868927002 20.62386322021484 15.07694053649902 19.89209365844727 L 21.49043273925781 13.69797134399414 C 22.22974014282227 12.98418712615967 23.20303344726563 12.59095573425293 24.23075675964355 12.59095573425293 C 25.3109245300293 12.59095573425293 26.31877136230469 13.01846408843994 27.06864929199219 13.79471015930176 L 27.13994026184082 13.86852550506592 L 27.21841812133789 13.93464851379395 L 32.99501800537109 18.8017406463623 L 34.04887771606445 19.68966293334961 L 35.25391006469727 19.02115631103516 C 38.13495635986328 17.42287826538086 41.20653915405273 16.17577171325684 44.38338851928711 15.31451034545898 L 45.68477249145508 14.96169471740723 L 45.84575653076172 13.62298679351807 L 46.74052429199219 6.182571411132813 L 46.75483322143555 6.063602447509766 L 46.75483322143555 5.943771362304688 C 46.75483322143555 3.769171476364136 48.52400207519531 2.000002145767212 50.69860076904297 2.000002145767212 L 59.6156005859375 2.000002145767212 C 61.79021835327148 2.000002145767212 63.55938720703125 3.769171476364136 63.55938720703125 5.943771362304688 L 63.55938720703125 6.046448230743408 L 63.56989288330078 6.148571491241455 L 64.33224487304688 13.55421733856201 L 64.473388671875 14.92524814605713 L 65.80483245849609 15.28146362304688 C 69.24945068359375 16.20306396484375 72.56385040283203 17.57455635070801 75.65595245361328 19.35786437988281 L 76.82726287841797 20.03338623046875 L 77.89058685302734 19.1981258392334 L 83.70863342285156 14.62795639038086 L 83.80277252197266 14.55401802062988 L 83.88742065429688 14.4693717956543 C 84.63194274902344 13.72481727600098 85.62216949462891 13.31478691101074 86.67571258544922 13.31478691101074 C 87.72946166992188 13.31478691101074 88.72021484375 13.72497177124023 89.46544647216797 14.46978664398193 L 95.76994323730469 20.77427864074707 C 97.30806732177734 22.31240272521973 97.30806732177734 24.81512451171875 95.76994323730469 26.35326385498047 L 95.69723510742188 26.42597198486328 L 95.63235473632813 26.50575637817383 L 90.97255706787109 32.23686218261719 L 90.10450744628906 33.30449295043945 L 90.79129791259766 34.49683380126953 C 92.58216857910156 37.60600280761719 93.95630645751953 40.93463134765625 94.87552642822266 44.3902473449707 L 95.22392272949219 45.69997024536133 L 96.56951141357422 45.86180114746094 L 103.8761901855469 46.74052429199219 L 103.9951553344727 46.75483322143555 L 104.114990234375 46.75483322143555 C 106.2903289794922 46.75483322143555 108.0600967407227 48.52400207519531 108.0600967407227 50.69860076904297 L 108.0600967407227 59.6156005859375 C 108.0600967407227 61.79021835327148 106.2903289794922 63.55938720703125 104.114990234375 63.55938720703125 L 104.0121383666992 63.55938720703125 L 103.9098358154297 63.56994247436523 L 96.54296875 64.32962036132813 L 95.17819976806641 64.47035980224609 L 94.81819915771484 65.79429626464844 C 93.81878662109375 69.46974182128906 92.30872344970703 72.98831176757813 90.3299560546875 76.25225067138672 L 89.62561798095703 77.41403198242188 L 90.44611358642578 78.49692535400391 L 94.92533874511719 84.40859985351563 L 94.99754333496094 84.50389099121094 L 95.08058929443359 84.58991241455078 C 95.81252288818359 85.34804534912109 96.20548248291016 86.34583282470703 96.18708038330078 87.39948272705078 C 96.16866302490234 88.45301818847656 95.74111175537109 89.43623352050781 94.983154296875 90.16798400878906 L 88.56849670410156 96.36198425292969 C 87.82942962646484 97.075927734375 86.85689544677734 97.46895599365234 85.82972717285156 97.46898651123047 C 84.74964904785156 97.46903228759766 83.74180603027344 97.04125213623047 82.99185180664063 96.26446533203125 L 82.92032623291016 96.19039916992188 L 82.84158325195313 96.12406158447266 L 77.10244750976563 91.2890625 L 76.05535888671875 90.40692901611328 L 74.85414123535156 91.06392669677734 C 71.958251953125 92.64783477783203 68.87507629394531 93.87776947021484 65.69027709960938 94.71957397460938 L 64.37754058837891 95.06657409667969 L 64.21562957763672 96.41469573974609 L 63.31952667236328 103.8765106201172 L 63.30526351928711 103.9953231811523 L 63.30526351928711 104.114990234375 C 63.30526351928711 106.2903289794922 61.53549575805664 108.0600967407227 59.36014175415039 108.0600967407227 Z M 55.15777206420898 35.152587890625 C 44.22127914428711 35.152587890625 35.32378768920898 44.04948043823242 35.32378768920898 54.98523330688477 C 35.32378768920898 65.92100524902344 44.22127914428711 74.81790924072266 55.15777206420898 74.81790924072266 C 66.09354400634766 74.81790924072266 74.99043273925781 65.92100524902344 74.99043273925781 54.98523330688477 C 74.99043273925781 44.04948043823242 66.09354400634766 35.152587890625 55.15777206420898 35.152587890625 Z" stroke="none"/>
    <path d="M 59.36013793945313 106.0601043701172 C 60.43268585205078 106.0601043701172 61.30526733398438 105.1875381469727 61.30526733398438 104.114990234375 L 61.30526733398438 103.8756637573242 L 61.33379364013672 103.6380462646484 L 62.22990417480469 96.17623138427734 L 62.5537223815918 93.47995758056641 L 65.17919158935547 92.78599548339844 C 68.20792388916016 91.98541259765625 71.14015960693359 90.81566619873047 73.89443206787109 89.30922698974609 L 76.29686737060547 87.99523162841797 L 78.39104461669922 89.75950622558594 L 84.13017272949219 94.59450531005859 L 84.28765106201172 94.7271728515625 L 84.43068695068359 94.87532043457031 C 84.8056640625 95.26371765136719 85.2894287109375 95.46900939941406 85.82965087890625 95.468994140625 C 86.34297943115234 95.46897888183594 86.8094482421875 95.28046417236328 87.17924499511719 94.92323303222656 L 93.59400939941406 88.72915649414063 C 93.97299194335938 88.36326599121094 94.17817687988281 87.89137268066406 94.18739318847656 87.36457824707031 C 94.19659423828125 86.83744812011719 94.00790405273438 86.35833740234375 93.6417236328125 85.97904968261719 L 93.47564697265625 85.80702972412109 L 93.33124542236328 85.61644744873047 L 88.85201263427734 79.70477294921875 L 87.21101379394531 77.53899383544922 L 88.61970520019531 75.21540832519531 C 90.50170135498047 72.11109924316406 91.9378662109375 68.76480865478516 92.88828277587891 65.26952362060547 L 93.60828399658203 62.62164688110352 L 96.33782958984375 62.34017562866211 L 103.7046813964844 61.58048629760742 L 103.9092864990234 61.55937576293945 L 104.114990234375 61.55937576293945 C 105.1875381469727 61.55937576293945 106.0601043701172 60.68741226196289 106.0601043701172 59.6156120300293 L 106.0601043701172 50.69861221313477 C 106.0601043701172 49.62681198120117 105.1875381469727 48.75482940673828 104.114990234375 48.75482940673828 L 103.8753204345703 48.75482940673828 L 103.6373748779297 48.72621154785156 L 96.33070373535156 47.84748458862305 L 93.63954162597656 47.52383041381836 L 92.94274139404297 44.90437698364258 C 92.06857299804688 41.61812210083008 90.76165008544922 38.45237731933594 89.0582275390625 35.49508285522461 L 87.68464660644531 33.11041259765625 L 89.42076110839844 30.97515678405762 L 94.08055877685547 25.2440299987793 L 94.21030426025391 25.0844669342041 L 94.35573577880859 24.93904876708984 C 95.11406707763672 24.18070220947266 95.11406707763672 22.94683074951172 94.35573577880859 22.18848419189453 L 88.05165100097656 15.88441181182861 C 87.67877197265625 15.51175785064697 87.20299530029297 15.31477546691895 86.67572021484375 15.31477546691895 C 86.14888763427734 15.31477546691895 85.67373657226563 15.51146697998047 85.30162811279297 15.88357543945313 L 85.13233947753906 16.05286598205566 L 84.94408416748047 16.20075798034668 L 79.12604522705078 20.77092170715332 L 76.99939727783203 22.44143104553223 L 74.65676116943359 21.09037590026855 C 71.71597290039063 19.39433860778809 68.56382751464844 18.08997535705566 65.28790283203125 17.21350288391113 L 62.62504959106445 16.50106620788574 L 62.34277725219727 13.75903034210205 L 61.58041381835938 6.353394031524658 L 61.55937576293945 6.149121284484863 L 61.55937576293945 5.943775653839111 C 61.55937576293945 4.871975421905518 60.68741226196289 3.999993801116943 59.6156120300293 3.999993801116943 L 50.69861221313477 3.999993801116943 C 49.62681198120117 3.999993801116943 48.75482940673828 4.871975421905518 48.75482940673828 5.943775653839111 L 48.75482940673828 6.183430194854736 L 48.72621154785156 6.42135763168335 L 47.83144760131836 13.86177539825439 L 47.50946807861328 16.53921127319336 L 44.90670394897461 17.24483108520508 C 41.88550186157227 18.06390380859375 38.96424865722656 19.24995803833008 36.22412109375 20.77006721496582 L 33.81404876708984 22.1070671081543 L 31.70633888244629 20.33121109008789 L 25.92975807189941 15.46412086486816 L 25.77279472351074 15.33188438415527 L 25.63021278381348 15.18426609039307 C 25.2552490234375 14.79612064361572 24.77132034301758 14.59095764160156 24.23075675964355 14.59095764160156 C 23.71668434143066 14.59095764160156 23.24937629699707 14.77979373931885 22.87982940673828 15.13657569885254 L 16.46608543395996 21.3309383392334 C 16.08710289001465 21.69683074951172 15.88192081451416 22.16863059997559 15.87272071838379 22.69541168212891 C 15.86352062225342 23.22197532653809 16.05193901062012 23.70037651062012 16.41759300231934 24.07892036437988 L 16.58417510986328 24.25137519836426 L 16.72897529602051 24.44248390197754 L 21.31921195983887 30.50126647949219 L 22.94839477539063 32.65166473388672 L 21.56499290466309 34.96786499023438 C 19.7352123260498 38.03142929077148 18.33739471435547 41.32544708251953 17.4103946685791 44.75839233398438 L 16.69363021850586 47.41268539428711 L 13.95877552032471 47.69453811645508 L 6.353848457336426 48.47830200195313 L 6.149357318878174 48.49937438964844 L 5.943775653839111 48.49937438964844 C 4.871975421905518 48.49937438964844 3.999993801116943 49.37194061279297 3.999993801116943 50.44448471069336 L 3.999993801116943 59.36013793945313 C 3.999993801116943 60.43268585205078 4.871975421905518 61.30526733398438 5.943775653839111 61.30526733398438 L 6.183139324188232 61.30526733398438 L 6.420794010162354 61.33381271362305 L 14.01501178741455 62.24597549438477 L 16.69766616821289 62.56819534301758 L 17.40035820007324 65.17715454101563 C 18.26317596435547 68.38063049316406 19.53739356994629 71.46877288818359 21.18766593933105 74.35579681396484 L 22.54848480224609 76.73650360107422 L 20.81859397888184 78.86419677734375 L 15.97957611083984 84.81599426269531 L 15.84981155395508 84.97560882568359 L 15.70433902740479 85.12108612060547 C 15.33157539367676 85.49385070800781 15.13453960418701 85.96933746337891 15.13453960418701 86.49617767333984 C 15.13453960418701 87.02256011962891 15.33130264282227 87.49742889404297 15.7043571472168 87.87028503417969 L 22.01008415222168 94.17599487304688 C 22.38212203979492 94.54824829101563 22.85699462890625 94.74501037597656 23.38337516784668 94.74501037597656 C 23.91019439697266 94.74501037597656 24.38570213317871 94.5479736328125 24.75846672058105 94.17519378662109 L 24.92781257629395 94.00585174560547 L 25.11615753173828 93.85790252685547 L 31.10673904418945 89.15263366699219 L 33.23761367797852 87.47895812988281 L 35.58230209350586 88.83699035644531 C 38.47414016723633 90.51194000244141 41.56841278076172 91.80841064453125 44.77915573120117 92.69037628173828 L 47.41806793212891 93.41526794433594 L 47.69855880737305 96.13751983642578 L 48.47830200195313 103.7050094604492 L 48.49937438964844 103.9094696044922 L 48.49937438964844 104.114990234375 C 48.49937438964844 105.1875381469727 49.37194061279297 106.0601043701172 50.44448471069336 106.0601043701172 L 59.36013793945313 106.0601043701172 M 55.15777587890625 33.15259552001953 C 67.19634246826172 33.15259552001953 76.99043273925781 42.9466667175293 76.99043273925781 54.9852294921875 C 76.99043273925781 67.02381134033203 67.19634246826172 76.81790161132813 55.15777587890625 76.81790161132813 C 43.11846542358398 76.81790161132813 33.32377624511719 67.02381134033203 33.32377624511719 54.9852294921875 C 33.32377624511719 42.9466667175293 43.11846542358398 33.15259552001953 55.15777587890625 33.15259552001953 M 59.36013793945313 110.0601043701172 L 50.44448471069336 110.0601043701172 C 47.16633987426758 110.0601043701172 44.49937438964844 107.3931198120117 44.49937438964844 104.114990234375 L 43.71963119506836 96.54750061035156 C 40.1776123046875 95.57453918457031 36.76493835449219 94.14448547363281 33.5775032043457 92.29832458496094 L 27.58692169189453 97.00359344482422 C 26.46401214599609 98.12651824951172 24.97110366821289 98.74501037597656 23.38337516784668 98.74501037597656 C 21.79562950134277 98.74501037597656 20.30313873291016 98.12655639648438 19.18083000183105 97.00359344482422 L 12.87593936920166 90.69869995117188 C 11.75297546386719 89.57639312744141 11.13453960418701 88.08390045166016 11.13453960418701 86.49617767333984 C 11.13453960418701 84.90843200683594 11.75297546386719 83.41557312011719 12.87593936920166 82.29263305664063 L 17.71495819091797 76.34082794189453 C 15.89464855194092 73.15630340576172 14.48937606811523 69.74974060058594 13.53799343109131 66.21743011474609 L 5.943775653839111 65.30526733398438 C 2.666448354721069 65.30526733398438 -6.175093403726351e-06 62.63828659057617 -6.175093403726351e-06 59.36013793945313 L -6.175093403726351e-06 50.44448471069336 C -6.175093403726351e-06 47.16633987426758 2.666357517242432 44.49937438964844 5.943775653839111 44.49937438964844 L 13.54870319366455 43.71561050415039 C 14.57152080535889 39.92788314819336 16.11361122131348 36.29428482055664 18.13090324401855 32.91677474975586 L 13.5406665802002 26.85799407958984 C 12.43777561187744 25.71626663208008 11.84559345245361 24.21310234069824 11.87333965301514 22.62552070617676 C 11.90106678009033 21.03786659240723 12.54546642303467 19.55612182617188 13.68779373168945 18.45324897766113 L 20.10103034973145 12.25937557220459 C 21.21539306640625 11.18348503112793 22.68202972412109 10.59095764160156 24.23075675964355 10.59095764160156 C 25.85826683044434 10.59095764160156 27.37697601318359 11.23526668548584 28.50710296630859 12.4051570892334 L 34.28368377685547 17.27224922180176 C 37.30646514892578 15.59533882141113 40.52897644042969 14.28726673126221 43.86006546020508 13.38419342041016 L 44.75482940673828 5.943775653839111 C 44.75482940673828 2.666448354721069 47.42121124267578 -6.175093403726351e-06 50.69861221313477 -6.175093403726351e-06 L 59.6156120300293 -6.175093403726351e-06 C 62.89301300048828 -6.175093403726351e-06 65.55937194824219 2.666357517242432 65.55937194824219 5.943775653839111 L 66.32173919677734 13.3494119644165 C 69.93577575683594 14.31633949279785 73.41281127929688 15.75539398193359 76.65513610839844 17.62533950805664 L 82.47317504882813 13.05517578125 C 83.59542846679688 11.93290328979492 85.08797454833984 11.31477546691895 86.67572021484375 11.31477546691895 C 88.26346588134766 11.31477546691895 89.75632476806641 11.93286609649658 90.87926483154297 13.05517578125 L 97.18415832519531 19.36006736755371 C 99.50208282470703 21.67799377441406 99.50208282470703 25.44953918457031 97.18415832519531 27.7674674987793 L 92.52436065673828 33.49859237670898 C 94.40306854248047 36.76023101806641 95.8443603515625 40.25228500366211 96.80831909179688 43.87610244750977 L 104.114990234375 44.75482940673828 C 107.39306640625 44.75482940673828 110.0601043701172 47.42121124267578 110.0601043701172 50.69861221313477 L 110.0601043701172 59.6156120300293 C 110.0601043701172 62.89301300048828 107.3931198120117 65.55937194824219 104.114990234375 65.55937194824219 L 96.74813842773438 66.31906890869141 C 95.69955444335938 70.17533874511719 94.11514282226563 73.86653900146484 92.04019165039063 77.28910064697266 L 96.51943206787109 83.20077514648438 C 97.62232208251953 84.3431396484375 98.21450042724609 85.84671783447266 98.18677520751953 87.43441009521484 C 98.15902709960938 89.02217864990234 97.51463317871094 90.50397491455078 96.37229919433594 91.60684967041016 L 89.95774078369141 97.80072021484375 C 88.84413909912109 98.87646484375 87.37815856933594 99.46894073486328 85.82979583740234 99.468994140625 C 84.20215606689453 99.46904754638672 82.68328094482422 98.8243408203125 81.55299377441406 97.65361022949219 L 75.81386566162109 92.81861114501953 C 72.77561187744141 94.48037719726563 69.54093933105469 95.77044677734375 66.20137786865234 96.65317535400391 L 65.30526733398438 104.114990234375 C 65.30526733398438 107.39306640625 62.63828659057617 110.0601043701172 59.36013793945313 110.0601043701172 Z M 55.15777587890625 37.15259552001953 C 45.3240852355957 37.15259552001953 37.32377624511719 45.15228652954102 37.32377624511719 54.9852294921875 C 37.32377624511719 64.81821441650391 45.3240852355957 72.81790161132813 55.15777587890625 72.81790161132813 C 64.99073791503906 72.81790161132813 72.99043273925781 64.81821441650391 72.99043273925781 54.9852294921875 C 72.99043273925781 45.15228652954102 64.99073791503906 37.15259552001953 55.15777587890625 37.15259552001953 Z" stroke="none" fill="#343434"/>
  </g>
</svg>
