<svg id="EngrenageMIDDLE2" xmlns="http://www.w3.org/2000/svg" width="522.06" height="522.06" viewBox="0 0 522.06 522.06">
  <g id="Exclusion_2" data-name="Exclusion 2" transform="translate(0 0)" fill="#343434">
    <path d="M 281.5694885253906 520.0601196289063 L 239.2788238525391 520.0601196289063 C 224.8320922851563 520.0601196289063 213.0787658691406 508.3067626953125 213.0787658691406 493.8600158691406 L 213.0787658691406 493.7572326660156 L 213.0682220458984 493.655029296875 L 209.3695678710938 457.7593688964844 L 209.2292938232422 456.3982238769531 L 207.9098358154297 456.0358276367188 C 191.2771606445313 451.4668884277344 175.2502288818359 444.7521667480469 160.2742309570313 436.0780944824219 L 159.1018981933594 435.3991088867188 L 158.0364227294922 436.2359008789063 L 129.6206359863281 458.5548400878906 L 129.5264892578125 458.6288146972656 L 129.4418334960938 458.7135009765625 C 124.4929656982422 463.6624145507813 117.9140319824219 466.3879699707031 110.9168930053711 466.3879699707031 C 103.920166015625 466.3879699707031 97.34303283691406 463.6625671386719 92.39716339111328 458.7138977050781 L 62.49009704589844 428.8067626953125 C 57.54103088378906 423.8606872558594 54.81569671630859 417.2836303710938 54.81569671630859 410.2866821289063 C 54.81569671630859 403.28955078125 57.54116439819336 396.7106323242188 62.49009704589844 391.7618408203125 L 62.56282806396484 391.6890869140625 L 62.6276969909668 391.6092834472656 L 85.58109283447266 363.3775024414063 L 86.44609832763672 362.3136901855469 L 85.76563262939453 361.123291015625 C 77.21769714355469 346.1691589355469 70.61722564697266 330.1719665527344 66.14749908447266 313.576171875 L 65.79616546630859 312.2716979980469 L 64.45482635498047 312.1105651855469 L 28.43229675292969 307.7838439941406 L 28.31342887878418 307.7695617675781 L 28.19376182556152 307.7695617675781 C 13.75049591064453 307.7695617675781 2.000029325485229 296.0162353515625 2.000029325485229 281.5694885253906 L 2.000029325485229 239.2788238525391 C 2.000029325485229 224.8320922851563 13.75049591064453 213.0787658691406 28.19376182556152 213.0787658691406 L 28.29656219482422 213.0787658691406 L 28.39882850646973 213.0682220458984 L 64.47209930419922 209.3504943847656 L 65.83949279785156 209.2095642089844 L 66.19789886474609 207.8824310302734 C 71.00076293945313 190.0959625244141 78.24169921875 173.0315551757813 87.71942901611328 157.1632995605469 L 88.41109466552734 156.0052337646484 L 87.59649658203125 154.9300231933594 L 65.82309722900391 126.1906967163086 L 65.75069427490234 126.0950927734375 L 65.66742706298828 126.0088958740234 C 60.80696105957031 120.9773635864258 58.19749450683594 114.3533630371094 58.31976318359375 107.3570327758789 C 58.44196319580078 100.3604278564453 61.28176116943359 93.83049774169922 66.31596374511719 88.97016143798828 L 96.73676300048828 59.58976364135742 C 101.6476974487305 54.84856414794922 108.1111602783203 52.23729705810547 114.9363632202148 52.23729705810547 C 122.1090316772461 52.23729705810547 128.8019561767578 55.07662963867188 133.7823638916016 60.23223114013672 L 133.8536987304688 60.3060302734375 L 133.9321594238281 60.37216186523438 L 161.3329010009766 83.45883178710938 L 162.3867645263672 84.34676361083984 L 163.5917663574219 83.67829895019531 C 177.7854919433594 75.80416107177734 192.9182281494141 69.66016387939453 208.5695648193359 65.41703033447266 L 209.8709564208984 65.06423187255859 L 210.0318908691406 63.72549438476563 L 214.2761688232422 28.43256187438965 L 214.2904968261719 28.31356239318848 L 214.2904968261719 28.19376182556152 C 214.2904968261719 13.75049591064453 226.0409698486328 2.000029325485229 240.4842224121094 2.000029325485229 L 282.7812194824219 2.000029325485229 C 297.2244873046875 2.000029325485229 308.9749755859375 13.75049591064453 308.9749755859375 28.19376182556152 L 308.9749755859375 28.29642868041992 L 308.9855041503906 28.39856338500977 L 312.6016845703125 63.52656173706055 L 312.7428283691406 64.89756011962891 L 314.07421875 65.25382995605469 C 331.0450439453125 69.79422760009766 347.3739013671875 76.55109405517578 362.607421875 85.33676147460938 L 363.7787475585938 86.01229858398438 L 364.8421020507813 85.17703247070313 L 392.4395751953125 63.49882888793945 L 392.53369140625 63.42489624023438 L 392.6182861328125 63.34022903442383 C 397.5640258789063 58.39442825317383 404.1412353515625 55.67062759399414 411.1383666992188 55.67062759399414 C 418.1358947753906 55.67062759399414 424.7149047851563 58.39456176757813 429.66357421875 63.34062957763672 L 459.5700988769531 93.24689483642578 C 469.7850952148438 103.4619598388672 469.7850952148438 120.0831604003906 459.5700988769531 130.2982940673828 L 459.4973754882813 130.3710327148438 L 459.4324951171875 130.4507598876953 L 437.3291015625 157.6357574462891 L 436.4610290527344 158.7034301757813 L 437.1478271484375 159.8957672119141 C 445.9700317382813 175.2118988037109 452.7396240234375 191.6106262207031 457.2686157226563 208.6364288330078 L 457.6170349121094 209.9461669921875 L 458.9626159667969 210.1079559326172 L 493.6212158203125 214.2761688232422 L 493.740234375 214.2904968261719 L 493.8600158691406 214.2904968261719 C 508.3067626953125 214.2904968261719 520.0601196289063 226.0409698486328 520.0601196289063 240.4842224121094 L 520.0601196289063 282.7812194824219 C 520.0601196289063 297.2244873046875 508.3067626953125 308.9749755859375 493.8600158691406 308.9749755859375 L 493.7571716308594 308.9749755859375 L 493.6549072265625 308.9855041503906 L 458.7108154296875 312.5890197753906 L 457.3460388183594 312.7297668457031 L 456.9860229492188 314.0537109375 C 452.0621032714844 332.162109375 444.62255859375 349.4970397949219 434.8740234375 365.5769653320313 L 434.1697082519531 366.73876953125 L 434.990234375 367.8216247558594 L 456.2370300292969 395.8631591796875 L 456.3092346191406 395.95849609375 L 456.3923034667969 396.0444946289063 C 461.2529602050781 401.0790405273438 463.862548828125 407.7051696777344 463.7403564453125 414.7023620605469 C 463.6181030273438 421.6994323730469 460.7782897949219 428.2295532226563 455.7441101074219 433.0900268554688 L 425.3171081542969 462.4700927734375 C 420.4095764160156 467.2109069824219 413.9491577148438 469.82177734375 407.1257629394531 469.8220825195313 C 399.9526977539063 469.8223571777344 393.2591552734375 466.9811706542969 388.2781066894531 461.8218994140625 L 388.2065734863281 461.7478332519531 L 388.1278381347656 461.6814880371094 L 360.9046936035156 438.7471618652344 L 359.8575744628906 437.8650207519531 L 358.6563720703125 438.5220336914063 C 344.3897705078125 446.3251037597656 329.2000427246094 452.3844909667969 313.5090942382813 456.5319519042969 L 312.1963500976563 456.8789672851563 L 312.034423828125 458.2270812988281 L 307.7838439941406 493.6215515136719 L 307.7695617675781 493.7403564453125 L 307.7695617675781 493.8600158691406 C 307.7695617675781 508.3067626953125 296.0162353515625 520.0601196289063 281.5694885253906 520.0601196289063 Z M 261.6358947753906 174.2299652099609 C 213.8878326416016 174.2299652099609 175.0419616699219 213.0729675292969 175.0419616699219 260.8175048828125 C 175.0419616699219 308.5621032714844 213.8878326416016 347.4051513671875 261.6358947753906 347.4051513671875 C 309.3804321289063 347.4051513671875 348.2234191894531 308.5621032714844 348.2234191894531 260.8175048828125 C 348.2234191894531 213.0729675292969 309.3804321289063 174.2299652099609 261.6358947753906 174.2299652099609 Z" stroke="none"/>
    <path d="M 281.5694580078125 518.0601196289063 C 294.9134521484375 518.0601196289063 305.76953125 507.2040405273438 305.76953125 493.8600158691406 L 305.76953125 493.6206665039063 L 305.798095703125 493.3830871582031 L 310.0487365722656 457.9886779785156 L 310.3725280761719 455.2923889160156 L 312.9979553222656 454.598388671875 C 328.5327453613281 450.4922485351563 343.5715942382813 444.4929504394531 357.6966857910156 436.7673034667969 L 360.0990905761719 435.4533081054688 L 362.1932373046875 437.217529296875 L 389.4163818359375 460.1518859863281 L 389.5738830566406 460.2846069335938 L 389.7169494628906 460.4327392578125 C 394.3175964355469 465.1980285644531 400.5001831054688 467.8223266601563 407.1256713867188 467.8221130371094 C 413.4278259277344 467.8218994140625 419.3947448730469 465.410400390625 423.9278869628906 461.0313720703125 L 454.3549499511719 431.6511840820313 C 459.0047302246094 427.1618041992188 461.6277465820313 421.1302490234375 461.7406616210938 414.6674499511719 C 461.853515625 408.2043151855469 459.4431762695313 402.0839538574219 454.9534606933594 397.4336853027344 L 454.7873229980469 397.2616577148438 L 454.6428833007813 397.0710144042969 L 433.3960876464844 369.0294494628906 L 431.7551574707031 366.8636779785156 L 433.163818359375 364.5401000976563 C 442.8155212402344 348.6199645996094 450.1811828613281 331.4573059082031 455.0561828613281 313.5289001464844 L 455.7761840820313 310.8810424804688 L 458.5057373046875 310.5995178222656 L 493.4497375488281 306.9960327148438 L 493.6543273925781 306.9749450683594 L 493.8600158691406 306.9749450683594 C 507.2040405273438 306.9749450683594 518.0601196289063 296.1216735839844 518.0601196289063 282.78125 L 518.0601196289063 240.4842376708984 C 518.0601196289063 227.1438140869141 507.2040405273438 216.29052734375 493.8600158691406 216.29052734375 L 493.6203918457031 216.29052734375 L 493.3823852539063 216.2618865966797 L 458.7238159179688 212.0936737060547 L 456.0326843261719 211.7700347900391 L 455.3358764648438 209.1506042480469 C 450.8518981933594 192.2939605712891 444.1494445800781 176.05810546875 435.4147338867188 160.8940277099609 L 434.0411682128906 158.5093841552734 L 435.7773132324219 156.3740997314453 L 457.8807373046875 129.1891021728516 L 458.0104675292969 129.0295257568359 L 458.1558837890625 128.8840942382813 C 467.5910949707031 119.4488143920898 467.5910949707031 104.0963897705078 458.1558837890625 94.66110229492188 L 428.2498168945313 64.75524139404297 C 423.6787414550781 60.18659973144531 417.601806640625 57.67060089111328 411.1383972167969 57.67060089111328 C 404.675537109375 57.67060089111328 398.6005859375 60.18638610839844 394.0325317382813 64.75445556640625 L 393.8632507324219 64.92374420166016 L 393.6750183105469 65.07160186767578 L 366.0775146484375 86.74981689453125 L 363.9508056640625 88.42031860351563 L 361.6081848144531 87.06924438476563 C 346.5261840820313 78.37095642089844 330.3595275878906 71.68117523193359 313.5573120117188 67.18581390380859 L 310.8944702148438 66.473388671875 L 310.6121826171875 63.73138809204102 L 306.9959716796875 28.60338592529297 L 306.9749450683594 28.39910125732422 L 306.9749450683594 28.1937427520752 C 306.9749450683594 14.85331535339355 296.1216735839844 4.00002908706665 282.78125 4.00002908706665 L 240.4842376708984 4.00002908706665 C 227.1438140869141 4.00002908706665 216.29052734375 14.85331535339355 216.29052734375 28.1937427520752 L 216.29052734375 28.43338584899902 L 216.2618865966797 28.67131423950195 L 212.0175323486328 63.9642448425293 L 211.6956024169922 66.64167022705078 L 209.0928192138672 67.34731292724609 C 193.5971069335938 71.54831695556641 178.6148223876953 77.63131713867188 164.5619506835938 85.42710113525391 L 162.1518859863281 86.76409912109375 L 160.0441741943359 84.98831176757813 L 132.6434631347656 61.90167236328125 L 132.4865264892578 61.76938629150391 L 132.3438873291016 61.62174224853516 C 127.7438125610352 56.85981369018555 121.5616683959961 54.23724365234375 114.9363861083984 54.23724365234375 C 108.6321716308594 54.23724365234375 102.6620330810547 56.64924240112305 98.12617492675781 61.02838516235352 L 67.70510101318359 90.40902709960938 C 63.05531311035156 94.89817047119141 60.43238830566406 100.9295272827148 60.3194580078125 107.3920288085938 C 60.20652770996094 113.8539581298828 62.61667251586914 119.9720993041992 67.10588836669922 124.619384765625 L 67.2724609375 124.7918167114258 L 67.41724395751953 124.9829559326172 L 89.19059753417969 153.7222442626953 L 90.81981658935547 155.8726654052734 L 89.43638610839844 158.1888122558594 C 80.05288696289063 173.8993835449219 72.88395690917969 190.7941741943359 68.12874603271484 208.40380859375 L 67.41195678710938 211.05810546875 L 64.67710113525391 211.3399505615234 L 28.60381507873535 215.0576782226563 L 28.39931488037109 215.0787506103516 L 28.1937427520752 215.0787506103516 C 14.85331535339355 215.0787506103516 4.00002908706665 225.934814453125 4.00002908706665 239.27880859375 L 4.00002908706665 281.5694580078125 C 4.00002908706665 294.9134521484375 14.85331535339355 305.76953125 28.1937427520752 305.76953125 L 28.43310165405273 305.76953125 L 28.67074394226074 305.798095703125 L 64.69331359863281 310.1248779296875 L 67.37602996826172 310.4471130371094 L 68.07867431640625 313.0560913085938 C 72.50395965576172 329.48681640625 79.03888702392578 345.3251037597656 87.50196075439453 360.1308288574219 L 88.86274719238281 362.5114440917969 L 87.13288879394531 364.63916015625 L 64.17952728271484 392.8709716796875 L 64.04974365234375 393.0306091308594 L 63.90424346923828 393.1760864257813 C 59.33309936523438 397.7471008300781 56.815673828125 403.82373046875 56.815673828125 410.2866821289063 C 56.815673828125 416.7491760253906 59.33281326293945 422.8238830566406 63.90431594848633 427.3925170898438 L 93.81174468994141 457.3001098632813 C 98.37981414794922 461.8708190917969 104.4545288085938 464.3879699707031 110.9168853759766 464.3879699707031 C 117.3797454833984 464.3879699707031 123.4564590454102 461.8705444335938 128.0276031494141 457.29931640625 L 128.1969604492188 457.1299438476563 L 128.3852386474609 456.9820251464844 L 156.801025390625 434.6630859375 L 158.931884765625 432.9894714355469 L 161.2765960693359 434.3474426269531 C 176.104248046875 442.9355163574219 191.9722442626953 449.5836791992188 208.4396057128906 454.107177734375 L 211.0785217285156 454.8320922851563 L 211.3590240478516 457.5543212890625 L 215.0576782226563 493.4500427246094 L 215.0787506103516 493.654541015625 L 215.0787506103516 493.8600158691406 C 215.0787506103516 507.2040405273438 225.934814453125 518.0601196289063 239.27880859375 518.0601196289063 L 281.5694580078125 518.0601196289063 M 261.6358947753906 172.2299652099609 C 310.4832458496094 172.2299652099609 350.2234497070313 211.9701690673828 350.2234497070313 260.8174438476563 C 350.2234497070313 309.6648864746094 310.4832458496094 349.4051818847656 261.6358947753906 349.4051818847656 C 212.7850341796875 349.4051818847656 173.0419616699219 309.6648864746094 173.0419616699219 260.8174438476563 C 173.0419616699219 211.9701690673828 212.7850341796875 172.2299652099609 261.6358947753906 172.2299652099609 M 281.5694580078125 522.0601196289063 L 239.27880859375 522.0601196289063 C 223.7293090820313 522.0601196289063 211.0787506103516 509.4095153808594 211.0787506103516 493.8600158691406 L 207.3800964355469 457.9643249511719 C 190.5788879394531 453.3490905761719 174.3911743164063 446.5658264160156 159.2718200683594 437.8088073730469 L 130.8560333251953 460.1277465820313 C 125.5296020507813 465.4541625976563 118.4481735229492 468.3879699707031 110.9168853759766 468.3879699707031 C 103.3855972290039 468.3879699707031 96.30609893798828 465.4543762207031 90.98252868652344 460.1277465820313 L 61.07588577270508 430.220947265625 C 55.74917221069336 424.8975219726563 52.815673828125 417.8180236816406 52.815673828125 410.2866821289063 C 52.815673828125 402.7554016113281 55.74917221069336 395.6741638183594 61.07588577270508 390.3475952148438 L 84.02924346923828 362.1158142089844 C 75.39481353759766 347.0103149414063 68.72895812988281 330.8515319824219 64.21631622314453 314.0963134765625 L 28.1937427520752 309.76953125 C 12.64802932739258 309.76953125 2.929687434516381e-05 297.1190185546875 2.929687434516381e-05 281.5694580078125 L 2.929687434516381e-05 239.27880859375 C 2.929687434516381e-05 223.7293090820313 12.64767169952393 211.0787506103516 28.1937427520752 211.0787506103516 L 64.26702880859375 207.3610229492188 C 69.11867523193359 189.3943176269531 76.43345642089844 172.1585998535156 86.00231170654297 156.1377410888672 L 64.22895812988281 127.3984603881836 C 58.99745941162109 121.9827423095703 56.18845748901367 114.8526000976563 56.32009887695313 107.3220977783203 C 56.4516716003418 99.79124450683594 59.50831604003906 92.76267242431641 64.92681121826172 87.53131866455078 L 95.34738922119141 58.15117263793945 C 100.6333160400391 53.04781341552734 107.5901718139648 50.23724365234375 114.9363861083984 50.23724365234375 C 122.6563186645508 50.23724365234375 129.8601684570313 53.29338455200195 135.2208099365234 58.84267044067383 L 162.6215362548828 81.92931365966797 C 176.9598083496094 73.97509765625 192.2455291748047 67.7703857421875 208.0461730957031 63.48667144775391 L 212.29052734375 28.1937427520752 C 212.29052734375 12.64802932739258 224.9382476806641 2.929687434516381e-05 240.4842376708984 2.929687434516381e-05 L 282.78125 2.929687434516381e-05 C 298.3273010253906 2.929687434516381e-05 310.9749450683594 12.64767169952393 310.9749450683594 28.1937427520752 L 314.5911865234375 63.32174301147461 C 331.7340393066406 67.90824127197266 348.2270202636719 74.73431396484375 363.6065979003906 83.60424041748047 L 391.2041015625 61.92602920532227 C 396.5273742675781 56.6026725769043 403.6070251464844 53.67060089111328 411.1383972167969 53.67060089111328 C 418.6697387695313 53.67060089111328 425.7510375976563 56.60245895385742 431.0774536132813 61.92602920532227 L 460.9843139648438 91.83267211914063 C 471.9790954589844 102.8275985717773 471.9790954589844 120.7175979614258 460.9843139648438 131.7125244140625 L 438.8808898925781 158.8975219726563 C 447.7924499511719 174.3687438964844 454.6289672851563 190.93310546875 459.2014465332031 208.122314453125 L 493.8600158691406 212.29052734375 C 509.4093017578125 212.29052734375 522.0601196289063 224.9382476806641 522.0601196289063 240.4842376708984 L 522.0601196289063 282.78125 C 522.0601196289063 298.3273010253906 509.4095153808594 310.9749450683594 493.8600158691406 310.9749450683594 L 458.916015625 314.5784606933594 C 453.9421691894531 332.8703002929688 446.4266052246094 350.3792419433594 436.5843200683594 366.6138000488281 L 457.8311157226563 394.6553955078125 C 463.0625915527344 400.0739440917969 465.8716125488281 407.2061767578125 465.7400207519531 414.7373046875 C 465.6084594726563 422.2686157226563 462.5517578125 429.2973937988281 457.1332397460938 434.52880859375 L 426.7063903808594 463.9088745117188 C 421.4241638183594 469.0115356445313 414.4703063964844 471.8218078613281 407.1258239746094 471.8221130371094 C 399.4052429199219 471.8223266601563 392.20068359375 468.7643127441406 386.8392333984375 463.2110290527344 L 359.6160888671875 440.2766723632813 C 345.2045288085938 448.1590270996094 329.8611755371094 454.2784729003906 314.0201721191406 458.4656066894531 L 309.76953125 493.8600158691406 C 309.76953125 509.4093017578125 297.1190185546875 522.0601196289063 281.5694580078125 522.0601196289063 Z M 261.6358947753906 176.2299652099609 C 214.9906768798828 176.2299652099609 177.0419616699219 214.1756744384766 177.0419616699219 260.8174438476563 C 177.0419616699219 307.4593200683594 214.9906768798828 345.4051818847656 261.6358947753906 345.4051818847656 C 308.2777404785156 345.4051818847656 346.2234497070313 307.4593200683594 346.2234497070313 260.8174438476563 C 346.2234497070313 214.1756744384766 308.2777404785156 176.2299652099609 261.6358947753906 176.2299652099609 Z" stroke="none" fill="#343434"/>
  </g>
</svg>
