<svg xmlns="http://www.w3.org/2000/svg" width="117.913" height="117.913" viewBox="0 0 117.913 117.913">
  <g id="EngrenageUPLEFT7" transform="translate(16.122) rotate(9)">
    <g id="Exclusion_2" data-name="Exclusion 2" transform="translate(0 0)" fill="#707070">
      <path d="M 55.58474349975586 101.0601119995117 L 47.23614501953125 101.0601119995117 C 45.2692985534668 101.0601119995117 43.66914367675781 99.4599609375 43.66914367675781 97.49311065673828 L 43.66914367675781 97.39034271240234 L 43.65860748291016 97.28811645507813 L 42.92845153808594 90.20194244384766 L 42.78820419311523 88.84083557128906 L 41.4687614440918 88.4783935546875 C 38.31789779663086 87.61283874511719 35.28163528442383 86.34071350097656 32.44431304931641 84.69735717773438 L 31.27197456359863 84.01834106445313 L 30.20652961730957 84.85517883300781 L 24.59696006774902 89.26116180419922 L 24.5027904510498 89.33512878417969 L 24.41811370849609 89.41980743408203 C 23.74434471130371 90.09358978271484 22.84868240356445 90.46466827392578 21.89614486694336 90.46466827392578 C 20.9438362121582 90.46466827392578 20.04866790771484 90.09374237060547 19.37554359436035 89.42021942138672 L 13.47123718261719 83.51591491699219 C 12.79729843139648 82.84237670898438 12.42637538909912 81.94720458984375 12.42637538909912 80.99488067626953 C 12.42637538909912 80.04232788085938 12.79743671417236 79.14668273925781 13.47122097015381 78.47291564941406 L 13.54395961761475 78.40017700195313 L 13.60885238647461 78.32035827636719 L 18.14008331298828 72.74711608886719 L 19.0050220489502 71.68326568603516 L 18.32460594177246 70.49291229248047 C 16.70525169372559 67.65997314453125 15.45486736297607 64.62953186035156 14.60814476013184 61.48575973510742 L 14.25680637359619 60.18126678466797 L 12.91546726226807 60.02016067504883 L 5.804252147674561 59.16602325439453 L 5.685421466827393 59.1517448425293 L 5.565744400024414 59.1517448425293 C 3.599590539932251 59.1517448425293 2.000005960464478 57.55158996582031 2.000005960464478 55.58474349975586 L 2.000005960464478 47.23614501953125 C 2.000005960464478 45.2692985534668 3.599590539932251 43.66914367675781 5.565744400024414 43.66914367675781 L 5.668529033660889 43.66914367675781 L 5.770775318145752 43.65860748291016 L 12.89202117919922 42.92469787597656 L 14.25946712493896 42.78377532958984 L 14.61783695220947 41.45662307739258 C 15.52760601043701 38.08746719360352 16.8992977142334 34.85491561889648 18.69480514526367 31.84877586364746 L 19.38651466369629 30.6906681060791 L 18.57191467285156 29.6154670715332 L 14.27362155914307 23.9420223236084 L 14.20122146606445 23.8464527130127 L 14.11792945861816 23.7602367401123 C 13.45639038085938 23.07540512084961 13.10122108459473 22.17377471923828 13.1178674697876 21.2214527130127 C 13.13451385498047 20.26897621154785 13.52108287811279 19.38006782531738 14.20637512207031 18.71843719482422 L 20.21197509765625 12.91825199127197 C 20.88040542602539 12.27289867401123 21.76040649414063 11.91736030578613 22.68963623046875 11.91736030578613 C 23.66631317138672 11.91736030578613 24.57757568359375 12.30388259887695 25.25555992126465 13.00571346282959 L 25.32685279846191 13.07952880859375 L 25.40532875061035 13.14563655853271 L 30.81451416015625 17.70318984985352 L 31.86837577819824 18.59112930297852 L 33.07342147827148 17.92262077331543 C 35.76225280761719 16.43095970153809 38.62892913818359 15.26705265045166 41.59382247924805 14.46325206756592 L 42.89520645141602 14.11043643951416 L 43.05619049072266 12.77172946929932 L 43.89405059814453 5.804544448852539 L 43.90835952758789 5.685575485229492 L 43.90835952758789 5.565744400024414 C 43.90835952758789 3.599590539932251 45.5079460144043 2.000005960464478 47.47409820556641 2.000005960464478 L 55.82395935058594 2.000005960464478 C 57.79011535644531 2.000005960464478 59.38969802856445 3.599590539932251 59.38969802856445 5.565744400024414 L 59.38969802856445 5.668421268463135 L 59.40020751953125 5.770544528961182 L 60.11408233642578 12.70517539978027 L 60.25522232055664 14.07620620727539 L 61.58666610717773 14.43242168426514 C 64.80148315429688 15.29252910614014 67.89474487304688 16.57251358032227 70.78054809570313 18.23685264587402 L 71.95186614990234 18.91238975524902 L 73.01519012451172 18.07712936401367 L 78.46321868896484 13.79762172698975 L 78.55735778808594 13.72368335723877 L 78.64200592041016 13.63903713226318 C 79.31514739990234 12.96586799621582 80.21044921875 12.59514427185059 81.16300964355469 12.59514427185059 C 82.11579132080078 12.59514427185059 83.01158905029297 12.96602153778076 83.68539428710938 13.63943672180176 L 89.58888244628906 19.54294395446777 C 90.97957611083984 20.93365287780762 90.97957611083984 23.19649887084961 89.58888244628906 24.58720588684082 L 89.51617431640625 24.65991401672363 L 89.45130157470703 24.73969841003418 L 85.08786773681641 30.10629844665527 L 84.21981811523438 31.17392921447754 L 84.90660858154297 32.36626815795898 C 86.57803344726563 35.26806640625 87.86049652099609 38.3746223449707 88.71837615966797 41.59965133666992 L 89.06675720214844 42.90938949584961 L 90.41236114501953 43.07122039794922 L 97.25431060791016 43.89405059814453 L 97.37328338623047 43.90835952758789 L 97.49311065673828 43.90835952758789 C 99.4599609375 43.90835952758789 101.0601119995117 45.5079460144043 101.0601119995117 47.47409820556641 L 101.0601119995117 55.82395935058594 C 101.0601119995117 57.79011535644531 99.4599609375 59.38969802856445 97.49311065673828 59.38969802856445 L 97.39026641845703 59.38969802856445 L 97.28795623779297 59.40025329589844 L 90.38963317871094 60.11162185668945 L 89.02486419677734 60.25236129760742 L 88.66487121582031 61.57629776000977 C 87.73214721679688 65.00651550292969 86.32282257080078 68.29034423828125 84.47605133056641 71.3365478515625 L 83.77171325683594 72.49832916259766 L 84.59220886230469 73.58122253417969 L 88.78654479980469 79.11691284179688 L 88.85874176025391 79.21221923828125 L 88.94180297851563 79.29823303222656 C 89.60359191894531 79.98369598388672 89.95888519287109 80.88584899902344 89.94225311279297 81.83853149414063 C 89.92560577392578 82.79105377197266 89.53902435302734 83.68003845214844 88.85371398925781 84.34166717529297 L 82.84705352783203 90.14171600341797 C 82.17881774902344 90.78720855712891 81.29951477050781 91.14256286621094 80.37078857421875 91.14260864257813 C 79.39424896240234 91.14263916015625 78.48300933837891 90.75586700439453 77.80494689941406 90.05354309082031 L 77.73343658447266 89.97946929931641 L 77.65468597412109 89.91313171386719 L 72.28056335449219 85.38565063476563 L 71.23346710205078 84.50351715087891 L 70.03224945068359 85.16051483154297 C 67.32960510253906 86.63873291015625 64.45212554931641 87.78662109375 61.47975921630859 88.57231140136719 L 60.16703796386719 88.91929626464844 L 60.00513076782227 90.26741790771484 L 59.1660041809082 97.254638671875 L 59.1517448425293 97.37345123291016 L 59.1517448425293 97.49311065673828 C 59.1517448425293 99.4599609375 57.55158996582031 101.0601119995117 55.58474349975586 101.0601119995117 Z M 51.64965057373047 32.78962326049805 C 41.33859252929688 32.78962326049805 32.94992828369141 41.17771530151367 32.94992828369141 51.48808288574219 C 32.94992828369141 61.79846572875977 41.33859252929688 70.18657684326172 51.64965057373047 70.18657684326172 C 61.96002197265625 70.18657684326172 70.34812927246094 61.79846572875977 70.34812927246094 51.48808288574219 C 70.34812927246094 41.17771530151367 61.96002197265625 32.78962326049805 51.64965057373047 32.78962326049805 Z" stroke="none"/>
      <path d="M 55.58475112915039 99.06010437011719 C 56.44880294799805 99.06010437011719 57.15175247192383 98.35715484619141 57.15175247192383 97.49311828613281 L 57.15175247192383 97.25379943847656 L 57.1802864074707 97.01618194580078 L 58.01938629150391 90.02895355224609 L 58.34318542480469 87.33267211914063 L 60.96866989135742 86.63870239257813 C 63.78495407104492 85.894287109375 66.51146697998047 84.80660247802734 69.07250213623047 83.40583801269531 L 71.47493743896484 82.09181976318359 L 73.56913757324219 83.85608673095703 L 78.94326782226563 88.38356781005859 L 79.10076904296875 88.51625061035156 L 79.24378204345703 88.66440582275391 C 79.5501708984375 88.98173522949219 79.92935180664063 89.14263916015625 80.37070465087891 89.14261627197266 C 80.78414916992188 89.14260101318359 81.15985107421875 88.99076843261719 81.45778656005859 88.70294952392578 L 87.46455383300781 82.90285491943359 C 87.76985168457031 82.60810089111328 87.93513488769531 82.22798919677734 87.94255065917969 81.80355072021484 C 87.94996643066406 81.37889862060547 87.79796600341797 80.99295043945313 87.50296783447266 80.68740081787109 L 87.33686828613281 80.51535034179688 L 87.19243621826172 80.32473754882813 L 82.99810028076172 74.78903198242188 L 81.35711669921875 72.62326812744141 L 82.76580047607422 70.2996826171875 C 84.51578521728516 67.41313171386719 85.85120391845703 64.30160522460938 86.73495483398438 61.05151748657227 L 87.45494842529297 58.40365219116211 L 90.18448638916016 58.12216949462891 L 97.08280181884766 57.41080093383789 L 97.28742218017578 57.38970184326172 L 97.49311828613281 57.38970184326172 C 98.35715484619141 57.38970184326172 99.06010437011719 56.68732070922852 99.06010437011719 55.82396697998047 L 99.06010437011719 47.47410202026367 C 99.06010437011719 46.61075210571289 98.35715484619141 45.90835189819336 97.49311828613281 45.90835189819336 L 97.25344848632813 45.90835189819336 L 97.0155029296875 45.87973403930664 L 90.17355346679688 45.05690383911133 L 87.48239898681641 44.73325347900391 L 86.78559875488281 42.11380386352539 C 85.97273254394531 39.05806732177734 84.75746917724609 36.11438369750977 83.17353820800781 33.364501953125 L 81.79997253417969 30.97983551025391 L 83.53608703613281 28.84458541870117 L 87.89952087402344 23.47798538208008 L 88.02925109863281 23.31841850280762 L 88.17466735839844 23.17300224304199 C 88.78556823730469 22.56208610534668 88.78556823730469 21.56806945800781 88.17466735839844 20.95716857910156 L 82.27155303955078 15.05405235290527 C 81.97116851806641 14.75381851196289 81.58783721923828 14.59513568878174 81.16300201416016 14.59513568878174 C 80.73863220214844 14.59513568878174 80.35590362548828 14.75355243682861 80.05622100830078 15.05323505401611 L 79.88693237304688 15.22251892089844 L 79.69866943359375 15.37041854858398 L 74.25064849853516 19.6499195098877 L 72.12400054931641 21.3204345703125 L 69.7813720703125 19.96936798095703 C 67.04686737060547 18.39231872558594 64.11585235595703 17.17943572998047 61.06975173950195 16.36445236206055 L 58.40688705444336 15.65200233459473 L 58.12461853027344 12.90998554229736 L 57.41073608398438 5.97535228729248 L 57.38970184326172 5.771085739135742 L 57.38970184326172 5.565735340118408 C 57.38970184326172 4.702385425567627 56.68732070922852 4.000002384185791 55.82396697998047 4.000002384185791 L 47.47410202026367 4.000002384185791 C 46.61075210571289 4.000002384185791 45.90835189819336 4.702385425567627 45.90835189819336 5.565735340118408 L 45.90835189819336 5.805385589599609 L 45.87973403930664 6.043335437774658 L 45.0418701171875 13.01053524017334 L 44.71988677978516 15.6879358291626 L 42.11713409423828 16.39356803894043 C 39.30781936645508 17.15520286560059 36.59148406982422 18.2580680847168 34.04361724853516 19.67151832580566 L 31.63353538513184 21.00851821899414 L 29.52583503723145 19.23266792297363 L 24.11665153503418 14.67513561248779 L 23.95970153808594 14.54290199279785 L 23.81710243225098 14.39528560638428 C 23.51075172424316 14.07815265655518 23.13141822814941 13.91735172271729 22.68963623046875 13.91735172271729 C 22.27548599243164 13.91735172271729 21.89900207519531 14.06948566436768 21.60136795043945 14.35685253143311 L 15.59555244445801 20.15725135803223 C 15.29026889801025 20.45200157165527 15.12498569488525 20.83205223083496 15.11756896972656 21.25640296936035 C 15.11016845703125 21.68051910400391 15.26190185546875 22.06581878662109 15.55638599395752 22.37066841125488 L 15.72296905517578 22.54313468933105 L 15.86776924133301 22.7342529296875 L 20.16606903076172 28.40770149230957 L 21.79526901245117 30.55813598632813 L 20.41185188293457 32.87431716918945 C 18.71041870117188 35.72298431396484 17.41065216064453 38.78591918945313 16.54866790771484 41.97801971435547 L 15.83191871643066 44.63230133056641 L 13.09705257415771 44.91415405273438 L 5.975802421569824 45.64806747436523 L 5.771318912506104 45.66915130615234 L 5.565735340118408 45.66915130615234 C 4.702385425567627 45.66915130615234 4.000002384185791 46.37210083007813 4.000002384185791 47.23613739013672 L 4.000002384185791 55.58475112915039 C 4.000002384185791 56.44880294799805 4.702385425567627 57.15175247192383 5.565735340118408 57.15175247192383 L 5.805102348327637 57.15175247192383 L 6.042752265930176 57.18030166625977 L 13.15398597717285 58.0344352722168 L 15.83665180206299 58.35665130615234 L 16.53933525085449 60.96563720703125 C 17.34158515930176 63.9443359375 18.52641868591309 66.81583404541016 20.06095123291016 69.50040435791016 L 21.42178535461426 71.881103515625 L 19.69190216064453 74.00880432128906 L 15.16066932678223 79.58205413818359 L 15.03088569641113 79.74166870117188 L 14.88541889190674 79.88713836669922 C 14.58510208129883 80.18745422363281 14.42636871337891 80.57050323486328 14.42636871337891 80.99488830566406 C 14.42636871337891 81.41881561279297 14.58481884002686 81.80125427246094 14.88545227050781 82.1016845703125 L 20.79015159606934 88.00640106201172 C 21.08978462219238 88.30620574951172 21.47223472595215 88.46466827392578 21.89615249633789 88.46466827392578 C 22.32051849365234 88.46466827392578 22.70356941223145 88.30593872070313 23.00386810302734 88.005615234375 L 23.17321968078613 87.83625030517578 L 23.36158561706543 87.68830108642578 L 28.97116851806641 83.28231811523438 L 31.10203552246094 81.60866546630859 L 33.44670104980469 82.96668243408203 C 36.13576889038086 84.52418518066406 39.01301956176758 85.72972106933594 41.99850082397461 86.54981994628906 L 44.63742065429688 87.27470397949219 L 44.91791915893555 89.99693298339844 L 45.64808654785156 97.08312225341797 L 45.66915130615234 97.28758239746094 L 45.66915130615234 97.49311828613281 C 45.66915130615234 98.35715484619141 46.37210083007813 99.06010437011719 47.23613739013672 99.06010437011719 L 55.58475112915039 99.06010437011719 M 51.64965057373047 30.78961944580078 C 63.06282043457031 30.78961944580078 72.34812164306641 40.07492065429688 72.34812164306641 51.48808670043945 C 72.34812164306641 62.90126800537109 63.06282043457031 72.18658447265625 51.64965057373047 72.18658447265625 C 40.23578643798828 72.18658447265625 30.94993591308594 62.90126800537109 30.94993591308594 51.48808670043945 C 30.94993591308594 40.07492065429688 40.23578643798828 30.78961944580078 51.64965057373047 30.78961944580078 M 55.58475112915039 103.0601043701172 L 47.23613739013672 103.0601043701172 C 44.16648483276367 103.0601043701172 41.66915130615234 100.5627670288086 41.66915130615234 97.49311828613281 L 40.93898391723633 90.40693664550781 C 37.62225341796875 89.495849609375 34.4266357421875 88.15675354003906 31.44191932678223 86.42801666259766 L 25.83233642578125 90.83399963378906 C 24.78085136413574 91.88552093505859 23.38290214538574 92.46466827392578 21.89615249633789 92.46466827392578 C 20.40940284729004 92.46466827392578 19.0118350982666 91.88555145263672 17.96090126037598 90.83399963378906 L 12.05701923370361 84.93012237548828 C 11.00546932220459 83.87920379638672 10.42636871337891 82.48163604736328 10.42636871337891 80.99488830566406 C 10.42636871337891 79.50811767578125 11.00546932220459 78.11022186279297 12.05701923370361 77.05868530273438 L 16.58825302124023 71.48543548583984 C 14.88371849060059 68.50344848632813 13.5678186416626 65.31355285644531 12.67696857452393 62.00588607788086 L 5.565735340118408 61.15175247192383 C 2.496868848800659 61.15175247192383 2.18505851989903e-06 58.65440368652344 2.18505851989903e-06 55.58475112915039 L 2.18505851989903e-06 47.23613739013672 C 2.18505851989903e-06 44.16648483276367 2.496785402297974 41.66915130615234 5.565735340118408 41.66915130615234 L 12.68698596954346 40.93523406982422 C 13.64475250244141 37.38842010498047 15.08876895904541 33.98590087890625 16.97776794433594 30.82321929931641 L 12.67946910858154 25.1497688293457 C 11.64671897888184 24.08066940307617 11.09220218658447 22.6731014251709 11.11818504333496 21.18650245666504 C 11.14415264129639 19.6998348236084 11.74756908416748 18.31231880187988 12.81723594665527 17.27958488464355 L 18.82256889343262 11.47965240478516 C 19.86606979370117 10.4721851348877 21.23941802978516 9.917351722717285 22.68963623046875 9.917351722717285 C 24.21363639831543 9.917351722717285 25.63575172424316 10.52068519592285 26.69400215148926 11.61616897583008 L 32.10318374633789 16.17370223999023 C 34.93370056152344 14.6034517288208 37.95126724243164 13.37858581542969 41.07048416137695 12.53293514251709 L 41.90835189819336 5.565735340118408 C 41.90835189819336 2.496868848800659 44.4051513671875 2.18505851989903e-06 47.47410202026367 2.18505851989903e-06 L 55.82396697998047 2.18505851989903e-06 C 58.89291763305664 2.18505851989903e-06 61.38970184326172 2.496785402297974 61.38970184326172 5.565735340118408 L 62.10358428955078 12.50036907196045 C 65.48775482177734 13.40580177307129 68.74365234375 14.75333595275879 71.77975463867188 16.50433540344238 L 77.22776794433594 12.22483539581299 C 78.27863311767578 11.17395210266113 79.67623901367188 10.59513568878174 81.16300201416016 10.59513568878174 C 82.64977264404297 10.59513568878174 84.04768371582031 11.17390251159668 85.09920501708984 12.22483539581299 L 91.00310516357422 18.12873458862305 C 93.173583984375 20.29923629760742 93.173583984375 23.83091926574707 91.00310516357422 26.00141906738281 L 86.63967132568359 31.36801910400391 C 88.39888763427734 34.42221832275391 89.74850463867188 37.69218444824219 90.65116882324219 41.08551788330078 L 97.49311828613281 41.90835189819336 C 100.5627059936523 41.90835189819336 103.0601043701172 44.4051513671875 103.0601043701172 47.47410202026367 L 103.0601043701172 55.82396697998047 C 103.0601043701172 58.89291763305664 100.5627670288086 61.38970184326172 97.49311828613281 61.38970184326172 L 90.59480285644531 62.10107040405273 C 89.6129150390625 65.71206665039063 88.1292724609375 69.16851806640625 86.18630218505859 72.37338256835938 L 90.38063812255859 77.90908813476563 C 91.41338348388672 78.97876739501953 91.96791839599609 80.38673400878906 91.94193267822266 81.87345123291016 C 91.91596984863281 83.36022186279297 91.31253814697266 84.74778747558594 90.24286651611328 85.780517578125 L 84.23628234863281 91.58045196533203 C 83.19351959228516 92.5877685546875 81.82077026367188 93.14255523681641 80.37088775634766 93.14261627197266 C 78.84675598144531 93.14265441894531 77.42449951171875 92.53895568847656 76.36610412597656 91.44268798828125 L 70.99196624755859 86.91519927978516 C 68.14697265625 88.47128295898438 65.11803436279297 89.67929840087891 61.99085235595703 90.50588226318359 L 61.15175247192383 97.49311828613281 C 61.15175247192383 100.5627059936523 58.65440368652344 103.0601043701172 55.58475112915039 103.0601043701172 Z M 51.64965057373047 34.78961944580078 C 42.44140243530273 34.78961944580078 34.94993591308594 42.280517578125 34.94993591308594 51.48808670043945 C 34.94993591308594 60.6956672668457 42.44140243530273 68.18658447265625 51.64965057373047 68.18658447265625 C 60.85723495483398 68.18658447265625 68.34812164306641 60.6956672668457 68.34812164306641 51.48808670043945 C 68.34812164306641 42.280517578125 60.85723495483398 34.78961944580078 51.64965057373047 34.78961944580078 Z" stroke="none" fill="#343434"/>
    </g>
  </g>
</svg>
