<svg xmlns="http://www.w3.org/2000/svg" width="137.364" height="137.363" viewBox="0 0 137.364 137.363">
  <g id="EngrenageUPLEFT8" transform="translate(18.782) rotate(9)">
    <g id="Exclusion_2" data-name="Exclusion 2" transform="translate(0 0)" fill="#707070">
      <path d="M 64.75358581542969 118.0601043701172 L 55.02783584594727 118.0601043701172 C 52.55465316772461 118.0601043701172 50.54256820678711 116.0480194091797 50.54256820678711 113.574821472168 L 50.54256820678711 113.472053527832 L 50.53203582763672 113.3698196411133 L 49.68143463134766 105.1147689819336 L 49.54118728637695 103.7536544799805 L 48.22173690795898 103.3912048339844 C 44.5239372253418 102.3754348754883 40.96060180664063 100.8824844360352 37.63071823120117 98.95384979248047 L 36.4583854675293 98.27483367919922 L 35.39295196533203 99.11167144775391 L 28.85806846618652 104.2444381713867 L 28.76390266418457 104.3184051513672 L 28.67923545837402 104.4030838012695 C 27.83198547363281 105.2503356933594 26.70575141906738 105.7169342041016 25.50796890258789 105.7169342041016 C 24.3104362487793 105.7169342041016 23.18473625183105 105.2504653930664 22.33821868896484 104.4034652709961 L 15.46006870269775 97.52532196044922 C 14.61266899108887 96.67842102050781 14.14621925354004 95.55271911621094 14.14621925354004 94.35517120361328 C 14.14621925354004 93.15738677978516 14.61281871795654 92.03113555908203 15.46005249023438 91.18389892578125 L 15.53278541564941 91.11118316650391 L 15.59766864776611 91.0313720703125 L 20.87633514404297 84.53880310058594 L 21.74128532409668 83.47495269775391 L 21.06086921691895 82.28459930419922 C 19.16043472290039 78.95989990234375 17.69296836853027 75.40335083007813 16.6992359161377 71.71376800537109 L 16.34788513183594 70.40928649902344 L 15.00656890869141 70.2481689453125 L 6.722335338592529 69.25313568115234 L 6.60350227355957 69.23886871337891 L 6.483819007873535 69.23886871337891 C 4.011435508728027 69.23886871337891 2.000002145767212 67.22678375244141 2.000002145767212 64.75358581542969 L 2.000002145767212 55.02783584594727 C 2.000002145767212 52.55465316772461 4.011435508728027 50.54256820678711 6.483819007873535 50.54256820678711 L 6.586602210998535 50.54256820678711 L 6.688852310180664 50.53203582763672 L 14.9847526550293 49.67705154418945 L 16.35218620300293 49.53611755371094 L 16.71055221557617 48.208984375 C 17.77833557128906 44.25483703613281 19.38816833496094 40.46108627319336 21.49533462524414 36.93313598632813 L 22.18703460693359 35.7750358581543 L 21.37243461608887 34.69983673095703 L 16.3651180267334 28.09053611755371 L 16.2927188873291 27.99496841430664 L 16.20943641662598 27.90873527526855 C 15.37751865386963 27.04755210876465 14.9309024810791 25.91376876831055 14.9518518447876 24.71623611450195 C 14.97275257110596 23.51850128173828 15.45885181427002 22.40073585510254 16.32060241699219 21.56875228881836 L 23.31678581237793 14.81185245513916 C 24.15735244750977 14.00031852722168 25.26390266418457 13.55325222015381 26.43233489990234 13.55325222015381 C 27.66040229797363 13.55325222015381 28.80625152587891 14.03928565979004 29.65878486633301 14.92181873321533 L 29.7300853729248 14.99563598632813 L 29.80855178833008 15.06175231933594 L 36.11000061035156 20.37108612060547 L 37.16386795043945 21.25901794433594 L 38.36890029907227 20.59050178527832 C 41.52457046508789 18.83986854553223 44.88891983032227 17.47391891479492 48.36848449707031 16.53058624267578 L 49.66986846923828 16.17776870727539 L 49.83086776733398 14.83906841278076 L 50.80693435668945 6.72261905670166 L 50.82123565673828 6.603652000427246 L 50.82123565673828 6.483819007873535 C 50.82123565673828 4.011435508728027 52.83266830444336 2.000002145767212 55.3050537109375 2.000002145767212 L 65.03224945068359 2.000002145767212 C 67.504638671875 2.000002145767212 69.51606750488281 4.011435508728027 69.51606750488281 6.483819007873535 L 69.51606750488281 6.586485385894775 L 69.52658843994141 6.688618659973145 L 70.35821533203125 14.76713562011719 L 70.49935150146484 16.13815307617188 L 71.83078765869141 16.494384765625 C 75.60378265380859 17.50383567810059 79.23405456542969 19.00605201721191 82.62076568603516 20.95928573608398 L 83.79208374023438 21.63481903076172 L 84.85541534423828 20.79955291748047 L 91.20211791992188 15.81413555145264 L 91.29624938964844 15.74020195007324 L 91.38090515136719 15.65555191040039 C 92.22738647460938 14.8090353012085 93.35323333740234 14.34283542633057 94.55101776123047 14.34283542633057 C 95.74905395507813 14.34283542633057 96.87543487548828 14.80916881561279 97.72267150878906 15.65595245361328 L 104.6000518798828 22.5333194732666 C 106.3487701416016 24.28205299377441 106.3487701416016 27.12746810913086 104.6000518798828 28.87621879577637 L 104.5273361206055 28.94891929626465 L 104.4624710083008 29.02870178222656 L 99.37928771972656 35.28053665161133 L 98.51123809814453 36.34815216064453 L 99.19802093505859 37.54050064086914 C 101.159538269043 40.94590377807617 102.6646347045898 44.59177017211914 103.671501159668 48.3768196105957 L 104.019905090332 49.6865348815918 L 105.3654861450195 49.84835052490234 L 113.3360214233398 50.80691909790039 L 113.4549865722656 50.82123565673828 L 113.574821472168 50.82123565673828 C 116.0480194091797 50.82123565673828 118.0601043701172 52.83266830444336 118.0601043701172 55.3050537109375 L 118.0601043701172 65.03224945068359 C 118.0601043701172 67.504638671875 116.0480194091797 69.51606750488281 113.574821472168 69.51606750488281 L 113.4719696044922 69.51606750488281 L 113.3696670532227 69.52661895751953 L 105.3334655761719 70.35533905029297 L 103.9686889648438 70.49607086181641 L 103.6086883544922 71.81999969482422 C 102.5140380859375 75.84577178955078 100.8600387573242 79.69968414306641 98.69266510009766 83.27468872070313 L 97.98833465576172 84.43647003173828 L 98.80882263183594 85.51937103271484 L 103.6950225830078 91.96820068359375 L 103.7672348022461 92.06349945068359 L 103.8502883911133 92.1495361328125 C 104.6824340820313 93.01143646240234 105.1292037963867 94.14583587646484 105.108268737793 95.34375 C 105.0873336791992 96.54151916503906 104.6012191772461 97.65937042236328 103.7394485473633 98.49138641357422 L 96.74200439453125 105.2481002807617 C 95.90177154541016 106.0597686767578 94.7960205078125 106.5066375732422 93.62815093994141 106.5066833496094 C 92.40018463134766 106.5067367553711 91.25434875488281 106.0203857421875 90.40171813964844 105.1372375488281 L 90.3302001953125 105.0631484985352 L 90.25144958496094 104.9968185424805 L 83.99085235595703 99.72251892089844 L 82.94377136230469 98.84038543701172 L 81.7425537109375 99.49738311767578 C 78.57068634033203 101.2322158813477 75.19367218017578 102.5793838500977 71.70528411865234 103.5014343261719 L 70.39255523681641 103.8484344482422 L 70.23065185546875 105.1965713500977 L 69.25313568115234 113.3363494873047 L 69.23886871337891 113.4551544189453 L 69.23886871337891 113.574821472168 C 69.23886871337891 116.0480194091797 67.22678375244141 118.0601043701172 64.75358581542969 118.0601043701172 Z M 60.16938400268555 38.52825164794922 C 48.33940124511719 38.52825164794922 38.71500396728516 48.15198516845703 38.71500396728516 59.98117065429688 C 38.71500396728516 71.81034851074219 48.33940124511719 81.43410491943359 60.16938400268555 81.43410491943359 C 71.99856567382813 81.43410491943359 81.62229919433594 71.81034851074219 81.62229919433594 59.98117065429688 C 81.62229919433594 48.15198516845703 71.99856567382813 38.52825164794922 60.16938400268555 38.52825164794922 Z" stroke="none"/>
      <path d="M 64.75357055664063 116.0601119995117 C 66.12395477294922 116.0601119995117 67.23885345458984 114.9452133178711 67.23885345458984 113.5748291015625 L 67.23885345458984 113.3355102539063 L 67.26739501953125 113.0978927612305 L 68.24493408203125 104.9580917358398 L 68.56873321533203 102.261833190918 L 71.19419097900391 101.5678558349609 C 74.52655029296875 100.68701171875 77.75260925292969 99.40005493164063 80.78281402587891 97.74267578125 L 83.18524932861328 96.42867279052734 L 85.27944946289063 98.19295501708984 L 91.54003143310547 103.4672546386719 L 91.69753265380859 103.5999298095703 L 91.84056854248047 103.7480926513672 C 92.31973266601563 104.2443923950195 92.93785095214844 104.5067138671875 93.62811279296875 104.5066909790039 C 94.28414916992188 104.5066757202148 94.88031005859375 104.2657318115234 95.35275268554688 103.8093490600586 L 102.3503112792969 97.05255126953125 C 102.8346099853516 96.58496856689453 103.096809387207 95.98199462890625 103.1085891723633 95.30879211425781 C 103.1203536987305 94.63533020019531 102.8792953491211 94.02320861816406 102.4114532470703 93.53865051269531 L 102.2453536987305 93.36661529541016 L 102.1009292602539 93.17601013183594 L 97.21471405029297 86.72719573974609 L 95.57373046875 84.56140899658203 L 96.98241424560547 82.23783111572266 C 99.05300903320313 78.82249450683594 100.6330947875977 75.140869140625 101.6787948608398 71.29523468017578 L 102.3987884521484 68.64736938476563 L 105.1283111572266 68.36589050292969 L 113.1645126342773 67.53717041015625 L 113.3691329956055 67.51607513427734 L 113.5748291015625 67.51607513427734 C 114.9452133178711 67.51607513427734 116.0601119995117 66.40183258056641 116.0601119995117 65.03224945068359 L 116.0601119995117 55.3050537109375 C 116.0601119995117 53.93547058105469 114.9452133178711 52.82123184204102 113.5748291015625 52.82123184204102 L 113.3351745605469 52.82123184204102 L 113.0972290039063 52.7926139831543 L 105.1266708374023 51.83405303955078 L 102.4355087280273 51.51041030883789 L 101.7386932373047 48.89095306396484 C 100.7768936157227 45.27525329589844 99.3389892578125 41.79227066040039 97.46495056152344 38.53875350952148 L 96.09136962890625 36.15407180786133 L 97.82746887207031 34.01881408691406 L 102.9106521606445 27.76697158813477 L 103.040412902832 27.60741233825684 L 103.1858291625977 27.46199226379395 C 103.6532287597656 26.99457168579102 103.9106521606445 26.37051200866699 103.9106521606445 25.70475196838379 C 103.9106521606445 25.03901290893555 103.6532516479492 24.41495132446289 103.1858139038086 23.94753265380859 L 96.30886840820313 17.07057189941406 C 95.83251190185547 16.59447288513184 95.22467041015625 16.34283256530762 94.55103302001953 16.34283256530762 C 93.87785339355469 16.34283256530762 93.27065277099609 16.59419250488281 92.79511260986328 17.06975173950195 L 92.62580871582031 17.23903274536133 L 92.43755340576172 17.38693237304688 L 86.09087371826172 22.37235260009766 L 83.96421051025391 24.04287147521973 L 81.62158966064453 22.69181251525879 C 78.38607025146484 20.82579231262207 74.91805267333984 19.39071273803711 71.31388854980469 18.42643165588379 L 68.65100860595703 17.7139720916748 L 68.36872863769531 14.97195243835449 L 67.53709411621094 6.893432140350342 L 67.51607513427734 6.689152240753174 L 67.51607513427734 6.48381233215332 C 67.51607513427734 5.114232063293457 66.40183258056641 4.000012397766113 65.03224945068359 4.000012397766113 L 55.3050537109375 4.000012397766113 C 53.93547058105469 4.000012397766113 52.82123184204102 5.114232063293457 52.82123184204102 6.48381233215332 L 52.82123184204102 6.723472118377686 L 52.7926139831543 6.961411952972412 L 51.81653213500977 15.07787227630615 L 51.49455261230469 17.75527191162109 L 48.89181137084961 18.46091270446777 C 45.56777191162109 19.36209297180176 42.35379028320313 20.6669921875 39.33913040161133 22.33941268920898 L 36.92905044555664 23.67641258239746 L 34.82135391235352 21.90055274963379 L 28.5198917388916 16.59123229980469 L 28.3629322052002 16.45899200439453 L 28.22033309936523 16.31137275695801 C 27.74121284484863 15.8154125213623 27.12295150756836 15.55325222015381 26.43235206604004 15.55325222015381 C 25.7755126953125 15.55325222015381 25.17845153808594 15.79451179504395 24.70619201660156 16.25045204162598 L 17.70977210998535 23.00757217407227 C 17.22549247741699 23.47513198852539 16.96329307556152 24.07803153991699 16.9515323638916 24.75119209289551 C 16.93977165222168 25.424072265625 17.18057250976563 26.03543281555176 17.64787292480469 26.51919174194336 L 17.81447219848633 26.69165229797363 L 17.95927238464355 26.88277244567871 L 22.96657180786133 33.4920539855957 L 24.59577178955078 35.64247131347656 L 23.21237182617188 37.95867156982422 C 21.19923210144043 41.32923126220703 19.66133308410645 44.95335388183594 18.64141273498535 48.73037338256836 L 17.92467308044434 51.38465118408203 L 15.18979263305664 51.66651153564453 L 6.893872261047363 52.52149200439453 L 6.68939208984375 52.54257202148438 L 6.48381233215332 52.54257202148438 C 5.114232063293457 52.54257202148438 4.000012397766113 53.657470703125 4.000012397766113 55.02785110473633 L 4.000012397766113 64.75357055664063 C 4.000012397766113 66.12395477294922 5.114232063293457 67.23885345458984 6.48381233215332 67.23885345458984 L 6.723172187805176 67.23885345458984 L 6.960832118988037 67.26739501953125 L 15.24507236480713 68.26243591308594 L 17.9277515411377 68.58465576171875 L 18.63041305541992 71.19364929199219 C 19.57965278625488 74.71809387207031 20.9815731048584 78.11569213867188 22.79723167419434 81.29206848144531 L 24.15807151794434 83.67277526855469 L 22.42817306518555 85.80046844482422 L 17.14949226379395 92.29305267333984 L 17.01973152160645 92.45267486572266 L 16.87425231933594 92.59815216064453 C 16.39797210693359 93.07443237304688 16.14621162414551 93.68199157714844 16.14621162414551 94.35517120361328 C 16.14621162414551 95.02789306640625 16.39769172668457 95.63478851318359 16.87427139282227 96.11111450195313 L 23.75285148620605 102.9896697998047 C 24.22835159301758 103.4654541015625 24.83525276184082 103.7169342041016 25.50797271728516 103.7169342041016 C 26.18113136291504 103.7169342041016 26.78871154785156 103.4651718139648 27.26499176025391 102.9888687133789 L 27.43435287475586 102.8195114135742 L 27.6226921081543 102.6715698242188 L 34.15757369995117 97.53881072998047 L 36.2884521484375 95.86515045166016 L 38.63313293457031 97.22319030761719 C 41.81463241577148 99.06591033935547 45.21895217895508 100.4922714233398 48.75151062011719 101.4626541137695 L 51.39041137695313 102.1875534057617 L 51.67091369628906 104.9097900390625 L 52.52151107788086 113.1648559570313 L 52.54257202148438 113.3692932128906 L 52.54257202148438 113.5748291015625 C 52.54257202148438 114.9452133178711 53.657470703125 116.0601119995117 55.02785110473633 116.0601119995117 L 64.75357055664063 116.0601119995117 M 60.16937255859375 36.52825164794922 C 73.10134887695313 36.52825164794922 83.62229156494141 47.04919052124023 83.62229156494141 59.98117065429688 C 83.62229156494141 72.91316986083984 73.10134887695313 83.43411254882813 60.16937255859375 83.43411254882813 C 47.23659133911133 83.43411254882813 36.71499252319336 72.91316986083984 36.71499252319336 59.98117065429688 C 36.71499252319336 47.04919052124023 47.23659133911133 36.52825164794922 60.16937255859375 36.52825164794922 M 64.75357055664063 120.0601119995117 L 55.02785110473633 120.0601119995117 C 51.45185089111328 120.0601119995117 48.54257202148438 117.1508102416992 48.54257202148438 113.5748291015625 L 47.69197082519531 105.3197708129883 C 43.82813262939453 104.2583923339844 40.10537338256836 102.6984100341797 36.62833404541016 100.6845092773438 L 30.09345245361328 105.817268371582 C 28.8685131072998 107.0422286987305 27.2399730682373 107.7169342041016 25.50797271728516 107.7169342041016 C 23.77597236633301 107.7169342041016 22.14787292480469 107.0422744750977 20.92359161376953 105.817268371582 L 14.04585266113281 98.93952941894531 C 12.82085227966309 97.71525573730469 12.14621257781982 96.08717346191406 12.14621257781982 94.35517120361328 C 12.14621257781982 92.62315368652344 12.82085227966309 90.99467468261719 14.04585266113281 89.76969146728516 L 19.32453155517578 83.27711486816406 C 17.33883285522461 79.80325317382813 15.80585193634033 76.08717346191406 14.76805210113525 72.23389434814453 L 6.48381233215332 71.23885345458984 C 2.908732175827026 71.23885345458984 1.218505894939881e-05 68.32957458496094 1.218505894939881e-05 64.75357055664063 L 1.218505894939881e-05 55.02785110473633 C 1.218505894939881e-05 51.45185089111328 2.908632278442383 48.54257202148438 6.48381233215332 48.54257202148438 L 14.77973175048828 47.68759155273438 C 15.89547252655029 43.55571365356445 17.57769203186035 39.59195327758789 19.77827262878418 35.90757369995117 L 14.77097225189209 29.29829216003418 C 13.56785202026367 28.05283164978027 12.92187213897705 26.4130916595459 12.95215225219727 24.68127250671387 C 12.98239231109619 22.94937133789063 13.68535232543945 21.33297157287598 14.931471824646 20.12989234924316 L 21.92739295959473 13.37325191497803 C 23.14301300048828 12.19961261749268 24.74291229248047 11.55325222015381 26.43235206604004 11.55325222015381 C 28.20773124694824 11.55325222015381 29.86443138122559 12.2560920715332 31.09723281860352 13.53227233886719 L 37.3986930847168 18.84159278869629 C 40.69609069824219 17.01233291625977 44.21141052246094 15.58541202545166 47.84515380859375 14.6002721786499 L 48.82123184204102 6.48381233215332 C 48.82123184204102 2.908732175827026 51.72987365722656 1.218505894939881e-05 55.3050537109375 1.218505894939881e-05 L 65.03224945068359 1.218505894939881e-05 C 68.60742950439453 1.218505894939881e-05 71.51607513427734 2.908632278442383 71.51607513427734 6.48381233215332 L 72.34770965576172 14.56233215332031 C 76.29011535644531 15.617112159729 80.08305358886719 17.18693161010742 83.61997222900391 19.22677230834961 L 89.96665191650391 14.24135208129883 C 91.19087219238281 13.01711177825928 92.81901550292969 12.34283256530762 94.55103302001953 12.34283256530762 C 96.28303527832031 12.34283256530762 97.91155242919922 13.01707172393799 99.13651275634766 14.24135208129883 L 106.0142517089844 21.11911201477051 C 108.5427932739258 23.64763259887695 108.5427932739258 27.76187133789063 106.0142517089844 30.29041290283203 L 100.9310684204102 36.54225158691406 C 102.9804916381836 40.10025405883789 104.5527114868164 43.90959167480469 105.6042709350586 47.8626708984375 L 113.5748291015625 48.82123184204102 C 117.150749206543 48.82123184204102 120.0601119995117 51.72987365722656 120.0601119995117 55.3050537109375 L 120.0601119995117 65.03224945068359 C 120.0601119995117 68.60742950439453 117.1508102416992 71.51607513427734 113.5748291015625 71.51607513427734 L 105.5386352539063 72.34479522705078 C 104.394775390625 76.55142974853516 102.666389465332 80.57801055908203 100.4029159545898 84.31153106689453 L 105.2891311645508 90.76035308837891 C 106.4922332763672 92.00649261474609 107.1382293701172 93.64671325683594 107.1079711914063 95.37866973876953 C 107.0777130126953 97.11067199707031 106.374755859375 98.72711181640625 105.1286315917969 99.93021392822266 L 98.13124847412109 106.6868515014648 C 96.91647338867188 107.8603286743164 95.31726837158203 108.5066299438477 93.62825012207031 108.5066909790039 C 91.85271453857422 108.5067520141602 90.19583129882813 107.8034744262695 88.96285247802734 106.5263519287109 L 82.7022705078125 101.2520523071289 C 79.38796997070313 103.064811706543 75.85939025878906 104.4720916748047 72.21639251708984 105.4350357055664 L 71.23885345458984 113.5748291015625 C 71.23885345458984 117.150749206543 68.32957458496094 120.0601119995117 64.75357055664063 120.0601119995117 Z M 60.16937255859375 40.52825164794922 C 49.44221115112305 40.52825164794922 40.71499252319336 49.2547721862793 40.71499252319336 59.98117065429688 C 40.71499252319336 70.70755004882813 49.44221115112305 79.43411254882813 60.16937255859375 79.43411254882813 C 70.89577484130859 79.43411254882813 79.62229156494141 70.70755004882813 79.62229156494141 59.98117065429688 C 79.62229156494141 49.2547721862793 70.89577484130859 40.52825164794922 60.16937255859375 40.52825164794922 Z" stroke="none" fill="#343434"/>
    </g>
  </g>
</svg>
