<svg xmlns="http://www.w3.org/2000/svg" width="146.192" height="146.192" viewBox="0 0 146.192 146.192">
  <g id="EngrenageUPLEFT5" transform="translate(39.011) rotate(20)">
    <g id="Exclusion_2" data-name="Exclusion 2" transform="translate(0 0)" fill="#707070">
      <path d="M 61.51751708984375 112.0601043701172 L 52.27783584594727 112.0601043701172 C 49.98335266113281 112.0601043701172 48.11665344238281 110.1934204101563 48.11665344238281 107.8989334106445 L 48.11665344238281 107.7961654663086 L 48.10611724853516 107.6939392089844 L 47.29803466796875 99.85141754150391 L 47.15778732299805 98.49030303955078 L 45.83833694458008 98.12785339355469 C 42.33356857299805 97.16510009765625 38.95626831054688 95.75009918212891 35.80022048950195 93.92214965820313 L 34.62788391113281 93.24313354492188 L 33.56246948242188 94.07997131347656 L 27.35415267944336 98.95622253417969 L 27.25996971130371 99.03018188476563 L 27.17528533935547 99.1148681640625 C 26.38928604125977 99.90088653564453 25.34443473815918 100.3337707519531 24.23320198059082 100.3337707519531 C 23.12220191955566 100.3337707519531 22.0778694152832 99.90103912353516 21.29256820678711 99.11527252197266 L 14.75811862945557 92.58081817626953 C 13.97195243835449 91.79512023925781 13.53921890258789 90.75077056884766 13.53921890258789 89.6397705078125 C 13.53921890258789 88.52853393554688 13.97210216522217 87.48368835449219 14.75811862945557 86.69766998291016 L 14.83083534240723 86.62493896484375 L 14.89571857452393 86.54513549804688 L 19.91060256958008 80.37703704833984 L 20.77555274963379 79.31318664550781 L 20.09513473510742 78.12283325195313 C 18.29390144348145 74.97168731689453 16.90305137634277 71.60083770751953 15.96120262145996 68.10386657714844 L 15.6098518371582 66.79938507080078 L 14.26851844787598 66.63826751708984 L 6.398285388946533 65.69297027587891 L 6.279469013214111 65.67870330810547 L 6.159785747528076 65.67870330810547 C 3.866068840026855 65.67870330810547 2.000002145767212 63.81200408935547 2.000002145767212 61.51751708984375 L 2.000002145767212 52.27783584594727 C 2.000002145767212 49.98335266113281 3.866068840026855 48.11665344238281 6.159785747528076 48.11665344238281 L 6.262568950653076 48.11665344238281 L 6.364819049835205 48.10611724853516 L 14.24613571166992 47.29386901855469 L 15.61356925964355 47.15293502807617 L 15.9719352722168 45.82580184936523 C 16.98395156860352 42.0781364440918 18.50973510742188 38.48246765136719 20.50691795349121 35.13865280151367 L 21.19861793518066 33.98055267333984 L 20.38401794433594 32.90535354614258 L 15.6269359588623 26.62635231018066 L 15.55453586578369 26.53078460693359 L 15.47123527526855 26.44455146789551 C 14.6994686126709 25.6456184387207 14.28513526916504 24.59376907348633 14.30456924438477 23.48278617858887 C 14.3239688873291 22.37161827087402 14.77493572235107 21.33461952209473 15.57440185546875 20.56276893615723 L 22.22096824645996 14.14351844787598 C 23.00078582763672 13.39065265655518 24.02736854553223 12.97588539123535 25.11138534545898 12.97588539123535 C 26.25073623657227 12.97588539123535 27.31376838684082 13.42680263519287 28.10470199584961 14.24555206298828 L 28.17600250244141 14.31936931610107 L 28.25448608398438 14.38548564910889 L 34.24102020263672 19.42946815490723 L 35.29486846923828 20.31740188598633 L 36.49990081787109 19.64888572692871 C 39.49081802368164 17.98965263366699 42.67951965332031 16.69501876831055 45.9774169921875 15.80093574523926 L 47.27880096435547 15.44811916351318 L 47.43980407714844 14.10941886901855 L 48.36710357666016 6.398585319519043 L 48.38140106201172 6.279618740081787 L 48.38140106201172 6.159785747528076 C 48.38140106201172 3.866068840026855 50.24746704101563 2.000002145767212 52.54118728637695 2.000002145767212 L 61.78226852416992 2.000002145767212 C 64.07598876953125 2.000002145767212 65.94205474853516 3.866068840026855 65.94205474853516 6.159785747528076 L 65.94205474853516 6.262452125549316 L 65.95256805419922 6.364585399627686 L 66.74265289306641 14.03938579559326 L 66.8837890625 15.41040229797363 L 68.21521759033203 15.76663589477539 C 71.79122161865234 16.72338485717773 75.23197174072266 18.14716911315918 78.44187164306641 19.99843597412109 L 79.61318206787109 20.67396926879883 L 80.67652130126953 19.83870124816895 L 86.70603179931641 15.10241889953613 L 86.8001708984375 15.02848529815674 L 86.88480377197266 14.94383525848389 C 87.67013549804688 14.15850257873535 88.714599609375 13.72600173950195 89.82583618164063 13.72600173950195 C 90.93731689453125 13.72600173950195 91.98231506347656 14.15865230560303 92.76834869384766 14.94425201416016 L 99.30198669433594 21.47788619995117 C 100.9243545532227 23.10025215148926 100.9243545532227 25.74006843566895 99.30198669433594 27.36243629455566 L 99.22927093505859 27.43515205383301 L 99.16440582275391 27.51493644714355 L 94.33525085449219 33.4543342590332 L 93.46720123291016 34.52195358276367 L 94.15398406982422 35.71430206298828 C 96.01313781738281 38.94196701049805 97.43965148925781 42.39750289916992 98.3939208984375 45.98486709594727 L 98.74231719970703 47.29460144042969 L 100.0879058837891 47.45641708374023 L 107.6601333618164 48.36708450317383 L 107.7790985107422 48.38140106201172 L 107.8989334106445 48.38140106201172 C 110.1934204101563 48.38140106201172 112.0601043701172 50.24746704101563 112.0601043701172 52.54118728637695 L 112.0601043701172 61.78226852416992 C 112.0601043701172 64.07598876953125 110.1934204101563 65.94205474853516 107.8989334106445 65.94205474853516 L 107.7960891723633 65.94205474853516 L 107.6937866210938 65.95259857177734 L 100.0591659545898 66.73989868164063 L 98.69438171386719 66.88063812255859 L 98.33438873291016 68.20458221435547 C 97.29692077636719 72.02011871337891 95.72928619384766 75.67282104492188 93.67503356933594 79.06121826171875 L 92.970703125 80.2230224609375 L 93.79118347167969 81.30590057373047 L 98.43320465087891 87.43244934082031 L 98.50541687011719 87.52775573730469 L 98.58847045898438 87.61376953125 C 99.36048889160156 88.41342163085938 99.77497100830078 89.46583557128906 99.75555419921875 90.57718658447266 C 99.73613739013672 91.68841552734375 99.28514862060547 92.72548675537109 98.48567199707031 93.49736785888672 L 91.83790588378906 99.91641998291016 C 91.05838775634766 100.6694488525391 90.03255462646484 101.0840377807617 88.94906616210938 101.0840835571289 C 87.80985260009766 101.084098815918 86.74681854248047 100.6329040527344 85.95581817626953 99.81358337402344 L 85.88430023193359 99.73948669433594 L 85.80553436279297 99.67313385009766 L 79.85780334472656 94.66243743896484 L 78.81069946289063 93.78031921386719 L 77.60950469970703 94.43731689453125 C 74.60317230224609 96.08160400390625 71.4024658203125 97.35843658447266 68.09630584716797 98.23231506347656 L 66.78355407714844 98.57929992675781 L 66.62165069580078 99.92745208740234 L 65.69297027587891 107.6604690551758 L 65.67870330810547 107.7792663574219 L 65.67870330810547 107.8989334106445 C 65.67870330810547 110.1934204101563 63.81200408935547 112.0601043701172 61.51751708984375 112.0601043701172 Z M 57.16241836547852 36.50285339355469 C 45.8685188293457 36.50285339355469 36.68026733398438 45.69048690795898 36.68026733398438 56.98360061645508 C 36.68026733398438 68.27674865722656 45.8685188293457 77.46438598632813 57.16241836547852 77.46438598632813 C 68.45553588867188 77.46438598632813 77.64316558837891 68.27674865722656 77.64316558837891 56.98360061645508 C 77.64316558837891 45.69048690795898 68.45553588867188 36.50285339355469 57.16241836547852 36.50285339355469 Z" stroke="none"/>
      <path d="M 61.51752471923828 110.0601043701172 C 62.70919799804688 110.0601043701172 63.67870712280273 109.0905990600586 63.67870712280273 107.89892578125 L 63.67870712280273 107.6595993041992 L 63.70723342895508 107.4219818115234 L 64.63591003417969 99.68898010253906 L 64.95972442626953 96.99270629882813 L 67.58519744873047 96.29874420166016 C 70.73535919189453 95.46608734130859 73.78512573242188 94.24945068359375 76.64976501464844 92.68263244628906 L 79.05220031738281 91.36861419677734 L 81.14640045166016 93.13288879394531 L 87.09412384033203 98.14360046386719 L 87.25161743164063 98.27626800537109 L 87.3946533203125 98.42443084716797 C 87.81128692626953 98.85599517822266 88.34880065917969 99.08409118652344 88.94905090332031 99.08406829833984 C 89.51945495605469 99.08405303955078 90.03779602050781 98.87458038330078 90.44865417480469 98.47769165039063 L 97.09652709960938 92.05852508544922 C 97.51763153076172 91.65193939208984 97.74563598632813 91.12763214111328 97.75586700439453 90.54225158691406 C 97.76609039306641 89.95659637451172 97.55647277832031 89.42432403564453 97.14967346191406 89.00298309326172 L 96.98354339599609 88.83090972900391 L 96.83910369873047 88.64028930664063 L 92.19709014892578 82.51372528076172 L 90.55610656738281 80.34794616699219 L 91.96479797363281 78.02437591552734 C 93.92223358154297 74.79561614990234 95.41596221923828 71.31521606445313 96.40447235107422 67.67981719970703 L 97.12445068359375 65.03194427490234 L 99.85399627685547 64.75047302246094 L 107.4885940551758 63.96316146850586 L 107.6932144165039 63.94205093383789 L 107.89892578125 63.94205093383789 C 109.0905990600586 63.94205093383789 110.0601043701172 62.97317886352539 110.0601043701172 61.78226852416992 L 110.0601043701172 52.54117965698242 C 110.0601043701172 51.35026931762695 109.0905990600586 50.38139724731445 107.89892578125 50.38139724731445 L 107.6592712402344 50.38139724731445 L 107.4213256835938 50.35277938842773 L 99.84910583496094 49.44212341308594 L 97.15792846679688 49.11848831176758 L 96.46112823486328 46.49901580810547 C 95.55191040039063 43.08099746704102 94.19259643554688 39.78836059570313 92.42092132568359 36.71254348754883 L 91.04736328125 34.3278694152832 L 92.78347015380859 32.1926155090332 L 97.61261749267578 26.25321578979492 L 97.74234008789063 26.09365272521973 L 97.88776397705078 25.94823455810547 C 98.7303466796875 25.10565185546875 98.7303466796875 23.73467063903809 97.88777923583984 22.89208793640137 L 91.35452270507813 16.35885238647461 C 90.94026947021484 15.94483375549316 90.41166687011719 15.72599792480469 89.82583618164063 15.72599792480469 C 89.24047088623047 15.72599792480469 88.71250915527344 15.94456100463867 88.29903411865234 16.35803413391113 L 88.12974548339844 16.52732467651367 L 87.94149017333984 16.67519760131836 L 81.91197967529297 21.41148948669434 L 79.78530883789063 23.08203315734863 L 77.44267272949219 21.73094367980957 C 74.384033203125 19.96694374084473 71.10556030273438 18.61026954650879 67.69828796386719 17.69866943359375 L 65.03543090820313 16.98621559143066 L 64.75315856933594 14.24419784545898 L 63.96308898925781 6.569416046142578 L 63.94205093383789 6.365143299102783 L 63.94205093383789 6.159797668457031 C 63.94205093383789 4.968888759613037 62.97317886352539 3.999997615814209 61.78226852416992 3.999997615814209 L 52.54117965698242 3.999997615814209 C 51.35026931762695 3.999997615814209 50.38139724731445 4.968888759613037 50.38139724731445 6.159797668457031 L 50.38139724731445 6.399452209472656 L 50.35277938842773 6.637397766113281 L 49.42548751831055 14.34821605682373 L 49.10350799560547 17.025634765625 L 46.50076293945313 17.73125267028809 C 43.35841751098633 18.58316040039063 40.32007217407227 19.8167610168457 37.47012329101563 21.39779853820801 L 35.06003570556641 22.73479843139648 L 32.95234298706055 20.95894241333008 L 26.96581649780273 15.91496086120605 L 26.80885124206543 15.78272533416748 L 26.66625213623047 15.63510704040527 C 26.24965286254883 15.20383358001709 25.71197891235352 14.97587013244629 25.11137962341309 14.97587013244629 C 24.54021644592285 14.97587013244629 24.02101516723633 15.18566989898682 23.61038017272949 15.58212471008301 L 16.96356201171875 22.0015983581543 C 16.54247093200684 22.40814399719238 16.3144702911377 22.93239784240723 16.30425262451172 23.51774215698242 C 16.29403305053711 24.10281562805176 16.50339698791504 24.63439750671387 16.90972518920898 25.05501556396484 L 17.07630729675293 25.22747039794922 L 17.22110748291016 25.41859817504883 L 21.97817993164063 31.69759750366211 L 23.60736083984375 33.84801483154297 L 22.22396087646484 36.16421508789063 C 20.32083320617676 39.35054397583008 18.86697959899902 42.77659606933594 17.90277862548828 46.34719848632813 L 17.18603324890137 49.00146865844727 L 14.45117950439453 49.2833251953125 L 6.569870471954346 50.0955810546875 L 6.365379333496094 50.11665344238281 L 6.159797668457031 50.11665344238281 C 4.968888759613037 50.11665344238281 3.999997615814209 51.08616256713867 3.999997615814209 52.27783584594727 L 3.999997615814209 61.51752471923828 C 3.999997615814209 62.70919799804688 4.968888759613037 63.67870712280273 6.159797668457031 63.67870712280273 L 6.399161338806152 63.67870712280273 L 6.636816024780273 63.70725250244141 L 14.50703430175781 64.65256500244141 L 17.18968772888184 64.97477722167969 L 17.89237976074219 67.58376312255859 C 18.78977966308594 70.9156494140625 20.11507034301758 74.12757873535156 21.83147048950195 77.13031005859375 L 23.19232559204102 79.51099395751953 L 21.46243476867676 81.63871002197266 L 16.44756126403809 87.80681610107422 L 16.31777954101563 87.9664306640625 L 16.17230606079102 88.11190795898438 C 15.75814342498779 88.52606964111328 15.53921604156494 89.05439758300781 15.53921604156494 89.63977813720703 C 15.53921604156494 90.22468566894531 15.75785255432129 90.75238037109375 16.17232513427734 91.16661834716797 L 22.70721626281738 97.70149230957031 C 23.12061500549316 98.11514282226563 23.64830589294434 98.33377838134766 24.23321533203125 98.33377838134766 C 24.81856155395508 98.33377838134766 25.34688949584961 98.11485290527344 25.76107025146484 97.70066833496094 L 25.93043327331543 97.53130340576172 L 26.1187801361084 97.38337707519531 L 32.32708740234375 92.50712585449219 L 34.45794296264648 90.83347320556641 L 36.80261611938477 92.19146728515625 C 39.81032562255859 93.93352508544922 43.02863311767578 95.28194427490234 46.36810684204102 96.19931030273438 L 49.00699615478516 96.9241943359375 L 49.2874870300293 99.64643096923828 L 50.0955810546875 107.4889450073242 L 50.11665344238281 107.6933975219727 L 50.11665344238281 107.89892578125 C 50.11665344238281 109.0905990600586 51.08616256713867 110.0601043701172 52.27783584594727 110.0601043701172 L 61.51752471923828 110.0601043701172 M 57.16241455078125 34.50285339355469 C 69.55834197998047 34.50285339355469 79.64318084716797 44.58766937255859 79.64318084716797 56.98359680175781 C 79.64318084716797 69.37953948974609 69.55834197998047 79.46437835693359 57.16241455078125 79.46437835693359 C 44.76572418212891 79.46437835693359 34.68027114868164 69.37953948974609 34.68027114868164 56.98359680175781 C 34.68027114868164 44.58766937255859 44.76572418212891 34.50285339355469 57.16241455078125 34.50285339355469 M 61.51752471923828 114.0601043701172 L 52.27783584594727 114.0601043701172 C 48.88054275512695 114.0601043701172 46.11665344238281 111.2961959838867 46.11665344238281 107.89892578125 L 45.30855941772461 100.0564193725586 C 41.63783264160156 99.04807281494141 38.10112380981445 97.56605529785156 34.79783248901367 95.65281677246094 L 28.58952522277832 100.5290679931641 C 27.42581558227539 101.6927947998047 25.87865257263184 102.3337783813477 24.23321533203125 102.3337783813477 C 22.58776092529297 102.3337783813477 21.04103469848633 101.6928558349609 19.87794303894043 100.5290679931641 L 13.34390640258789 93.99503326416016 C 12.18012523651123 92.83193969726563 11.53921604156494 91.28521728515625 11.53921604156494 89.63977813720703 C 11.53921604156494 87.99432373046875 12.18012523651123 86.44721221923828 13.34390640258789 85.28345489501953 L 18.35877990722656 79.11534118652344 C 16.4723072052002 75.81508636474609 15.01596164703369 72.28470611572266 14.03001594543457 68.62401580810547 L 6.159797668457031 67.67870330810547 C 2.763361215591431 67.67870330810547 -2.360395910727675e-06 64.914794921875 -2.360395910727675e-06 61.51752471923828 L -2.360395910727675e-06 52.27783584594727 C -2.360395910727675e-06 48.88054275512695 2.763270378112793 46.11665344238281 6.159797668457031 46.11665344238281 L 14.04110717773438 45.30439758300781 C 15.10110664367676 41.37903213500977 16.69925308227539 37.61336135864258 18.78987121582031 34.11310577392578 L 14.03279781341553 27.8341064453125 C 12.88981628417969 26.65088844299316 12.27610683441162 25.09308815002441 12.30487060546875 23.44781494140625 C 12.33359718322754 21.80247116088867 13.00141620635986 20.26687049865723 14.18527030944824 19.1239070892334 L 20.83157920837402 12.70492458343506 C 21.98645210266113 11.58992481231689 23.50638008117676 10.97587013244629 25.11137962341309 10.97587013244629 C 26.79805183410645 10.97587013244629 28.37196159362793 11.64357948303223 29.54316139221191 12.85599803924561 L 35.52968978881836 17.89997863769531 C 38.66230773925781 16.16214370727539 42.0019416809082 14.80652523040771 45.45410537719727 13.87061595916748 L 46.38139724731445 6.159797668457031 C 46.38139724731445 2.763361215591431 49.14468765258789 -2.360395910727675e-06 52.54117965698242 -2.360395910727675e-06 L 61.78226852416992 -2.360395910727675e-06 C 65.17877960205078 -2.360395910727675e-06 67.94205474853516 2.763270378112793 67.94205474853516 6.159797668457031 L 68.73212432861328 13.83457946777344 C 72.47750854492188 14.83665180206299 76.08092498779297 16.32801628112793 79.44107055664063 18.26592445373535 L 85.4705810546875 13.52963447570801 C 86.63361358642578 12.36657905578613 88.18039703369141 11.72599792480469 89.82583618164063 11.72599792480469 C 91.47130584716797 11.72599792480469 93.01841735839844 12.36654281616211 94.18215942382813 13.52963447570801 L 100.716194152832 20.06367111206055 C 103.1183624267578 22.46585273742676 103.1183624267578 26.37446975708008 100.716194152832 28.77665138244629 L 95.88705444335938 34.7160530090332 C 97.83403778076172 38.09623336791992 99.32770538330078 41.71521759033203 100.3267059326172 45.47074127197266 L 107.89892578125 46.38139724731445 C 111.296142578125 46.38139724731445 114.0601043701172 49.14468765258789 114.0601043701172 52.54117965698242 L 114.0601043701172 61.78226852416992 C 114.0601043701172 65.17877960205078 111.2961959838867 67.94205474853516 107.89892578125 67.94205474853516 L 100.2643280029297 68.72936248779297 C 99.17765045166016 72.72577667236328 97.53563690185547 76.55113983154297 95.38529205322266 80.09806823730469 L 100.0273056030273 86.22463226318359 C 101.1702880859375 87.40847015380859 101.7839965820313 88.96672821044922 101.7552490234375 90.61212158203125 C 101.7265090942383 92.25757598876953 101.0586700439453 93.79323577880859 99.87483215332031 94.93619537353516 L 93.22714233398438 101.3551788330078 C 92.07308959960938 102.4700164794922 90.55379486083984 103.0840148925781 88.94918060302734 103.0840682983398 C 87.26235961914063 103.0841217041016 85.68830871582031 102.4160003662109 84.51694488525391 101.2027053833008 L 78.5692138671875 96.19200134277344 C 75.42056274414063 97.91416168212891 72.06832122802734 99.25112152099609 68.60737609863281 100.1659240722656 L 67.67870330810547 107.89892578125 C 67.67870330810547 111.296142578125 64.914794921875 114.0601043701172 61.51752471923828 114.0601043701172 Z M 57.16241455078125 38.50285339355469 C 46.97134399414063 38.50285339355469 38.68027114868164 46.79327011108398 38.68027114868164 56.98359680175781 C 38.68027114868164 67.17394256591797 46.97134399414063 75.46437835693359 57.16241455078125 75.46437835693359 C 67.35276031494141 75.46437835693359 75.64318084716797 67.17394256591797 75.64318084716797 56.98359680175781 C 75.64318084716797 46.79327011108398 67.35276031494141 38.50285339355469 57.16241455078125 38.50285339355469 Z" stroke="none" fill="#343434"/>
    </g>
  </g>
</svg>
