<svg xmlns="http://www.w3.org/2000/svg" width="132.234" height="132.234" viewBox="0 0 132.234 132.234">
  <g id="EngrenageUP5" transform="matrix(0.996, 0.087, -0.087, 0.996, 10.638, 0)">
    <g id="Exclusion_2" data-name="Exclusion 2" fill="#707070">
      <path d="M 65.83226776123047 120.0600967407227 L 55.94451522827148 120.0600967407227 C 53.41174697875977 120.0600967407227 51.35120010375977 117.9995498657227 51.35120010375977 115.4667816162109 L 51.35120010375977 115.364013671875 L 51.34066390991211 115.2617797851563 L 50.47589874267578 106.8692169189453 L 50.33564758300781 105.5080947875977 L 49.01619720458984 105.1456451416016 C 45.25404739379883 104.1122131347656 41.62871551513672 102.5932998657227 38.24089813232422 100.6310653686523 L 37.06855010986328 99.95204925537109 L 36.00311660766602 100.7888793945313 L 29.35936546325684 106.0071640014648 L 29.26519775390625 106.0811309814453 L 29.18053245544434 106.1658172607422 C 28.31288146972656 107.0334625244141 27.15951538085938 107.5112991333008 25.93289756774902 107.5112991333008 C 24.70648193359375 107.5112991333008 23.55364799499512 107.0335998535156 22.68678092956543 106.1662139892578 L 15.69404792785645 99.17348480224609 C 14.82624816894531 98.30621337890625 14.34856510162354 97.15339660644531 14.34856510162354 95.92696380615234 C 14.34856510162354 94.7003173828125 14.82639789581299 93.54695129394531 15.69403171539307 92.67932891845703 L 15.76676464080811 92.60659790039063 L 15.83164882659912 92.52677917480469 L 21.19826507568359 85.92604827880859 L 22.0632152557373 84.86219787597656 L 21.38279914855957 83.67185211181641 C 19.44926452636719 80.28926849365234 17.95626449584961 76.67082977294922 16.94524765014648 72.91706848144531 L 16.59389877319336 71.61257934570313 L 15.25258159637451 71.45146179199219 L 6.830348491668701 70.43984985351563 L 6.711514949798584 70.42558288574219 L 6.591831684112549 70.42558288574219 C 4.059881687164307 70.42558288574219 1.999998331069946 68.36502838134766 1.999998331069946 65.83226776123047 L 1.999998331069946 55.94451522827148 C 1.999998331069946 53.41174697875977 4.059881687164307 51.35120010375977 6.591831684112549 51.35120010375977 L 6.694614887237549 51.35120010375977 L 6.796864986419678 51.34066390991211 L 15.23096466064453 50.4714469909668 L 16.59839820861816 50.33051681518555 L 16.95676422119141 49.00337982177734 C 18.04309844970703 44.98044967651367 19.68094825744629 41.12068176269531 21.82479858398438 37.53128051757813 L 22.51649856567383 36.3731803894043 L 21.7018985748291 35.29798126220703 L 16.61118125915527 28.57859802246094 L 16.53878211975098 28.4830322265625 L 16.45548248291016 28.39679908752441 C 15.60354804992676 27.51486587524414 15.146164894104 26.3537654876709 15.16759872436523 25.12736511230469 C 15.18903160095215 23.90079879760742 15.68684864044189 22.7560977935791 16.56933212280273 21.90408134460449 L 23.68206596374512 15.03461456298828 C 24.54288101196289 14.20354843139648 25.67608261108398 13.74571514129639 26.87266540527344 13.74571514129639 C 28.13029861450195 13.74571514129639 29.30373191833496 14.24346542358398 30.17681503295898 15.14724826812744 L 30.24811553955078 15.22106456756592 L 30.32658195495605 15.28718185424805 L 36.73299789428711 20.6849479675293 L 37.786865234375 21.5728816986084 L 38.99189758300781 20.90438079833984 C 42.20248031616211 19.12328147888184 45.62538146972656 17.73354911804199 49.1655158996582 16.7737979888916 L 50.46688079833984 16.42098236083984 L 50.62788009643555 15.08228206634521 L 51.62021636962891 6.830631732940674 L 51.63451385498047 6.711665153503418 L 51.63451385498047 6.591831684112549 C 51.63451385498047 4.059881687164307 53.69439697265625 1.999998331069946 56.22634887695313 1.999998331069946 L 66.11558532714844 1.999998331069946 C 68.64751434326172 1.999998331069946 70.7073974609375 4.059881687164307 70.7073974609375 6.591831684112549 L 70.7073974609375 6.694498538970947 L 70.71791839599609 6.796648502349854 L 71.56341552734375 15.00973129272461 L 71.70455169677734 16.3807487487793 L 73.03598022460938 16.73696517944336 C 76.87458038330078 17.76396560668945 80.56803131103516 19.29231452941895 84.01374816894531 21.27958106994629 L 85.18506622314453 21.95511436462402 L 86.24839782714844 21.11984825134277 L 92.70079803466797 16.05138206481934 L 92.79492950439453 15.97743129730225 L 92.87958526611328 15.89279842376709 C 93.74646759033203 15.02588176727295 94.89942932128906 14.54844856262207 96.12608337402344 14.54844856262207 C 97.35296630859375 14.54844856262207 98.50646209716797 15.02603149414063 99.37411499023438 15.89319801330566 L 106.3660659790039 22.8851318359375 C 108.1569137573242 24.67598152160645 108.1569137573242 27.58991432189941 106.3660659790039 29.38078117370605 L 106.2933502197266 29.45349884033203 L 106.2284851074219 29.53328132629395 L 101.0606155395508 35.88926315307617 L 100.1925659179688 36.95688247680664 L 100.8793487548828 38.14923095703125 C 102.8750152587891 41.61389923095703 104.4062957763672 45.32321548461914 105.4306640625 49.17411422729492 L 105.7790679931641 50.48384857177734 L 107.1246490478516 50.64568328857422 L 115.2279815673828 51.62021636962891 L 115.3469467163086 51.63451385498047 L 115.4667816162109 51.63451385498047 C 117.9995498657227 51.63451385498047 120.0600967407227 53.69439697265625 120.0600967407227 56.22634887695313 L 120.0600967407227 66.11558532714844 C 120.0600967407227 68.64751434326172 117.9995498657227 70.7073974609375 115.4667816162109 70.7073974609375 L 115.3639297485352 70.7073974609375 L 115.2616119384766 70.71794891357422 L 107.0915451049805 71.56047821044922 L 105.7267990112305 71.70121765136719 L 105.3667984008789 73.025146484375 C 104.2530517578125 77.12101745605469 102.5702819824219 81.04199981689453 100.3652114868164 84.67918395996094 L 99.66088104248047 85.84098052978516 L 100.4813613891602 86.92386627197266 L 105.4489669799805 93.48009490966797 L 105.5211791992188 93.57540130615234 L 105.6042175292969 93.66141510009766 C 106.456413269043 94.54409790039063 106.913932800293 95.70581817626953 106.8925018310547 96.93257904052734 C 106.8710784912109 98.15923309326172 106.3732681274414 99.30400085449219 105.4907684326172 100.1560134887695 L 98.37670135498047 107.0253295898438 C 97.5162353515625 107.8565521240234 96.38385009765625 108.3141784667969 95.18782806396484 108.3142318725586 C 93.93031311035156 108.3142623901367 92.75686645507813 107.8162002563477 91.8836669921875 106.9117660522461 L 91.81216430664063 106.8376998901367 L 91.73341369628906 106.7713623046875 L 85.3685302734375 101.4091949462891 L 84.32144927978516 100.5270462036133 L 83.12021636962891 101.1840667724609 C 79.89318084716797 102.9490966796875 76.4573974609375 104.3197021484375 72.90829467773438 105.2577972412109 L 71.59556579589844 105.6047973632813 L 71.43366241455078 106.9529342651367 L 70.43984985351563 115.2283172607422 L 70.42558288574219 115.3471145629883 L 70.42558288574219 115.4667816162109 C 70.42558288574219 117.9995498657227 68.36502838134766 120.0600967407227 65.83226776123047 120.0600967407227 Z M 61.17169952392578 39.2033805847168 C 49.16301345825195 39.2033805847168 39.39324951171875 48.97248077392578 39.39324951171875 60.9803466796875 C 39.39324951171875 72.98821258544922 49.16301345825195 82.75733184814453 61.17169952392578 82.75733184814453 C 73.1795654296875 82.75733184814453 82.94868469238281 72.98821258544922 82.94868469238281 60.9803466796875 C 82.94868469238281 48.97248077392578 73.1795654296875 39.2033805847168 61.17169952392578 39.2033805847168 Z" stroke="none"/>
      <path d="M 65.83226776123047 118.0601119995117 C 67.26222991943359 118.0601119995117 68.42556762695313 116.8967514038086 68.42556762695313 115.4667663574219 L 68.42556762695313 115.2274475097656 L 68.45410919189453 114.9898300170898 L 69.44792938232422 106.714469909668 L 69.771728515625 104.0182113647461 L 72.39718627929688 103.3242263793945 C 75.79020690917969 102.4273681640625 79.07505035400391 101.1169509887695 82.16050720214844 99.42936706542969 L 84.56292724609375 98.11537170410156 L 86.65712738037109 99.87964630126953 L 93.02201080322266 105.2418060302734 L 93.17951202392578 105.3744888305664 L 93.32252502441406 105.5226287841797 C 93.82252502441406 106.04052734375 94.467529296875 106.3142471313477 95.18778991699219 106.3142318725586 C 95.87239074707031 106.314208984375 96.49449157714844 106.0628051757813 96.98744964599609 105.5865707397461 L 104.1015853881836 98.71720886230469 C 104.6069488525391 98.22928619384766 104.8805465698242 97.60010528564453 104.8928298950195 96.89765167236328 C 104.9050903320313 96.19490814208984 104.6535491943359 95.55619049072266 104.1653900146484 95.05056762695313 L 103.9992904663086 94.87852478027344 L 103.854866027832 94.68792724609375 L 98.88726806640625 88.13169097900391 L 97.24629211425781 85.96592712402344 L 98.65496826171875 83.64234924316406 C 100.7632675170898 80.16474914550781 102.3721313476563 76.41604614257813 103.4368667602539 72.5003662109375 L 104.1568450927734 69.85250854492188 L 106.8863906860352 69.57102966308594 L 115.0564498901367 68.72850799560547 L 115.2610702514648 68.70740509033203 L 115.4667663574219 68.70740509033203 C 116.8967514038086 68.70740509033203 118.0601119995117 67.54470825195313 118.0601119995117 66.11557006835938 L 118.0601119995117 56.22634887695313 C 118.0601119995117 54.79720687866211 116.8967514038086 53.6345100402832 115.4667663574219 53.6345100402832 L 115.2271118164063 53.6345100402832 L 114.9891662597656 53.60588836669922 L 106.8858489990234 52.63136672973633 L 104.1946716308594 52.3077278137207 L 103.4978713989258 49.68824768066406 C 102.5185699462891 46.00671005249023 101.0544891357422 42.46028900146484 99.14628601074219 39.14748764038086 L 97.772705078125 36.76280975341797 L 99.50882720947266 34.62754821777344 L 104.6766891479492 28.27156829833984 L 104.8064270019531 28.11200904846191 L 104.9518508911133 27.96658897399902 C 105.9629058837891 26.95550918579102 105.9629058837891 25.3104076385498 104.9518508911133 24.2993278503418 L 97.96031188964844 17.30780792236328 C 97.46324920654297 16.81102752685547 96.82898712158203 16.54844856262207 96.12609100341797 16.54844856262207 C 95.42362976074219 16.54844856262207 94.79003143310547 16.81074905395508 94.29378509521484 17.30698776245117 L 94.12451171875 17.47626876831055 L 93.93624877929688 17.62416839599609 L 87.48384857177734 22.69264793395996 L 85.35718536376953 24.36316871643066 L 83.01454925537109 23.01208877563477 C 79.72014617919922 21.11210823059082 76.18894958496094 19.65088844299316 72.51906585693359 18.66902923583984 L 69.85618591308594 17.95658874511719 L 69.57390594482422 15.21452808380127 L 68.72843170166016 7.001428604125977 L 68.70740509033203 6.797168254852295 L 68.70740509033203 6.591828346252441 C 68.70740509033203 5.162688255310059 67.54470825195313 4.000008583068848 66.11557006835938 4.000008583068848 L 56.22634887695313 4.000008583068848 C 54.79720687866211 4.000008583068848 53.6345100402832 5.162688255310059 53.6345100402832 6.591828346252441 L 53.6345100402832 6.831488132476807 L 53.60588836669922 7.069408416748047 L 52.61356735229492 15.32106876373291 L 52.29158782958984 17.99850845336914 L 49.68882751464844 18.70412826538086 C 46.30426788330078 19.62170791625977 43.0317497253418 20.95038795471191 39.96212768554688 22.65328788757324 L 37.55204772949219 23.99028778076172 L 35.4443473815918 22.21442794799805 L 29.03792762756348 16.8166675567627 L 28.88094902038574 16.68442916870117 L 28.73834800720215 16.53678894042969 C 28.2384090423584 16.01926803588867 27.5932674407959 15.74570846557617 26.8726692199707 15.74570846557617 C 26.18728828430176 15.74570846557617 25.56426811218262 15.9974479675293 25.07146835327148 16.47322845458984 L 17.95848846435547 23.34292793273926 C 17.45314788818359 23.83078765869141 17.17956924438477 24.45990753173828 17.16728782653809 25.16232872009277 C 17.155029296875 25.86446762084961 17.40628814697266 26.50244903564453 17.89394760131836 27.00726890563965 L 18.06054878234863 27.17970848083496 L 18.2053279876709 27.37082862854004 L 23.29604911804199 34.09022903442383 L 24.92524909973145 36.24065017700195 L 23.54184913635254 38.55684661865234 C 21.4920482635498 41.98874664306641 19.92612838745117 45.67890930175781 18.88760757446289 49.52478790283203 L 18.17086791992188 52.17904663085938 L 15.4359884262085 52.46090698242188 L 7.001888275146484 53.33012771606445 L 6.797408580780029 53.3512077331543 L 6.591828346252441 53.3512077331543 C 5.162688255310059 53.3512077331543 4.000008583068848 54.51454925537109 4.000008583068848 55.94450759887695 L 4.000008583068848 65.83226776123047 C 4.000008583068848 67.26222991943359 5.162688255310059 68.42556762695313 6.591828346252441 68.42556762695313 L 6.831188201904297 68.42556762695313 L 7.068848133087158 68.45410919189453 L 15.49108791351318 69.46572875976563 L 18.17374801635742 69.78794860839844 L 18.87642860412598 72.39692687988281 C 19.84300804138184 75.98568725585938 21.27044868469238 79.4451904296875 23.11914825439453 82.67932891845703 L 24.47998809814453 85.06002807617188 L 22.75008773803711 87.18772888183594 L 17.38346862792969 93.78846740722656 L 17.25370788574219 93.94808959960938 L 17.10822868347168 94.09355163574219 C 16.61124801635742 94.59053039550781 16.34856796264648 95.22451019287109 16.34856796264648 95.92697143554688 C 16.34856796264648 96.62896728515625 16.61098861694336 97.26229095458984 17.10824775695801 97.75928497314453 L 24.10138893127441 104.7524261474609 C 24.59756851196289 105.2488861083984 25.23088836669922 105.5113067626953 25.93288803100586 105.5113067626953 C 26.63532829284668 105.5113067626953 27.26930809020996 105.2486114501953 27.76632881164551 104.7516098022461 L 27.93564796447754 104.5822677612305 L 28.12398910522461 104.4343490600586 L 34.76772689819336 99.21604919433594 L 36.89859008789063 97.54236602783203 L 39.24326705932617 98.900390625 C 42.4827880859375 100.7767105102539 45.9491081237793 102.2290496826172 49.54596710205078 103.2170867919922 L 52.18486785888672 103.9419860839844 L 52.46537017822266 106.6642074584961 L 53.33014678955078 115.056770324707 L 53.3512077331543 115.26123046875 L 53.3512077331543 115.4667663574219 C 53.3512077331543 116.8967514038086 54.51454925537109 118.0601119995117 55.94450759887695 118.0601119995117 L 65.83226776123047 118.0601119995117 M 61.17170715332031 37.20338821411133 C 74.28237152099609 37.20338821411133 84.94866943359375 47.86968994140625 84.94866943359375 60.9803466796875 C 84.94866943359375 74.09102630615234 74.28237152099609 84.75733184814453 61.17170715332031 84.75733184814453 C 48.06023025512695 84.75733184814453 37.39324951171875 74.09102630615234 37.39324951171875 60.9803466796875 C 37.39324951171875 47.86968994140625 48.06023025512695 37.20338821411133 61.17170715332031 37.20338821411133 M 65.83226776123047 122.0601119995117 L 55.94450759887695 122.0601119995117 C 52.3089485168457 122.0601119995117 49.3512077331543 119.1023483276367 49.3512077331543 115.4667663574219 L 48.48642730712891 107.0742111206055 C 44.5582275390625 105.9951477050781 40.77346801757813 104.4091720581055 37.23848724365234 102.3617248535156 L 30.59474754333496 107.5800247192383 C 29.34940910339355 108.8253707885742 27.69374847412109 109.5113067626953 25.93288803100586 109.5113067626953 C 24.17202758789063 109.5113067626953 22.5168285369873 108.8254318237305 21.27214813232422 107.5800247192383 L 14.27982807159424 100.5877075195313 C 13.03442859649658 99.34302520751953 12.34856796264648 97.68780517578125 12.34856796264648 95.92697143554688 C 12.34856796264648 94.16610717773438 13.03442859649658 92.51049041748047 14.27982807159424 91.26510620117188 L 19.64644813537598 84.66436767578125 C 17.62764930725098 81.13262939453125 16.06916809082031 77.35464477539063 15.01406860351563 73.43718719482422 L 6.591828346252441 72.42556762695313 C 2.957188367843628 72.42556762695313 8.370361683773808e-06 69.46782684326172 8.370361683773808e-06 65.83226776123047 L 8.370361683773808e-06 55.94450759887695 C 8.370361683773808e-06 52.3089485168457 2.957088470458984 49.3512077331543 6.591828346252441 49.3512077331543 L 15.02592849731445 48.48198699951172 C 16.16026878356934 44.28128814697266 17.87050819396973 40.25148773193359 20.10774803161621 36.5057487487793 L 15.01702880859375 29.78634834289551 C 13.79388809204102 28.52014923095703 13.13712882995605 26.85308837890625 13.16790866851807 25.09240913391113 C 13.19866847991943 23.33166885375977 13.91330814361572 21.6883487701416 15.18018817901611 20.46522903442383 L 22.29266929626465 13.59602832794189 C 23.52854919433594 12.40282821655273 25.15508842468262 11.74570846557617 26.8726692199707 11.74570846557617 C 28.67762756347656 11.74570846557617 30.36192893981934 12.46024799346924 31.61526870727539 13.75770854949951 L 38.02168655395508 19.15546798706055 C 41.37402725219727 17.29572868347168 44.94790649414063 15.84502792358398 48.64218902587891 14.8434886932373 L 49.6345100402832 6.591828346252441 C 49.6345100402832 2.957188367843628 52.59160995483398 8.370361683773808e-06 56.22634887695313 8.370361683773808e-06 L 66.11557006835938 8.370361683773808e-06 C 69.75032806396484 8.370361683773808e-06 72.70740509033203 2.957088470458984 72.70740509033203 6.591828346252441 L 73.55288696289063 14.80492877960205 C 77.56096649169922 15.87726879119873 81.41710662841797 17.47322845458984 85.01294708251953 19.54706764221191 L 91.46534729003906 14.47858810424805 C 92.70994567871094 13.23396873474121 94.36522674560547 12.54844856262207 96.12609100341797 12.54844856262207 C 97.88694763183594 12.54844856262207 99.54257202148438 13.23390865325928 100.7879486083984 14.47858810424805 L 107.7802658081055 21.47090911865234 C 110.3509292602539 24.04156875610352 110.3509292602539 28.2243480682373 107.7802658081055 30.79500770568848 L 102.6124114990234 37.1509895324707 C 104.6959686279297 40.76824951171875 106.2943878173828 44.64104843139648 107.3634490966797 48.65998840332031 L 115.4667663574219 49.6345100402832 C 119.1022720336914 49.6345100402832 122.0601119995117 52.59160995483398 122.0601119995117 56.22634887695313 L 122.0601119995117 66.11557006835938 C 122.0601119995117 69.75032806396484 119.1023483276367 72.70740509033203 115.4667663574219 72.70740509033203 L 107.2967071533203 73.5499267578125 C 106.1338119506836 77.82662963867188 104.3766250610352 81.92031097412109 102.0754699707031 85.71602630615234 L 107.0430679321289 92.27227020263672 C 108.2662048339844 93.53916931152344 108.922966003418 95.20668792724609 108.8922119140625 96.96750640869141 C 108.8614501953125 98.72838592529297 108.1467666625977 100.3717498779297 106.8799057006836 101.5948715209961 L 99.76594543457031 108.4640655517578 C 98.53094482421875 109.657112121582 96.90510559082031 110.3141708374023 95.18792724609375 110.3142318725586 C 93.38282775878906 110.3142852783203 91.69834899902344 109.5992889404297 90.44483184814453 108.300910949707 L 84.07994842529297 102.9387512207031 C 80.71044921875 104.7816848754883 77.12308502197266 106.2124252319336 73.41938781738281 107.19140625 L 72.42556762695313 115.4667663574219 C 72.42556762695313 119.1022720336914 69.46782684326172 122.0601119995117 65.83226776123047 122.0601119995117 Z M 61.17170715332031 41.20338821411133 C 50.26582717895508 41.20338821411133 41.39324951171875 50.07528686523438 41.39324951171875 60.9803466796875 C 41.39324951171875 71.88542938232422 50.26582717895508 80.75733184814453 61.17170715332031 80.75733184814453 C 72.07676696777344 80.75733184814453 80.94866943359375 71.88542938232422 80.94866943359375 60.9803466796875 C 80.94866943359375 50.07528686523438 72.07676696777344 41.20338821411133 61.17170715332031 41.20338821411133 Z" stroke="none" fill="#343434"/>
    </g>
  </g>
</svg>
