<svg id="EngrenageUP10" xmlns="http://www.w3.org/2000/svg" width="116.06" height="116.06" viewBox="0 0 116.06 116.06">
  <g id="Exclusion_2" data-name="Exclusion 2" transform="translate(0 0)" fill="#707070">
    <path d="M 62.59621810913086 114.0601043701172 L 53.19450378417969 114.0601043701172 C 50.84045028686523 114.0601043701172 48.92528533935547 112.1449508666992 48.92528533935547 109.790901184082 L 48.92528533935547 109.6881332397461 L 48.91475296020508 109.5859222412109 L 48.09250259399414 101.6058883666992 L 47.95225143432617 100.2447509765625 L 46.6328010559082 99.88230133056641 C 43.06365203857422 98.90187072753906 39.62433624267578 97.46089935302734 36.410400390625 95.59938812255859 L 35.23805236816406 94.92037200927734 L 34.1726188659668 95.7572021484375 L 27.8554515838623 100.7189712524414 L 27.76128578186035 100.7929382324219 L 27.6766185760498 100.8776168823242 C 26.87018585205078 101.6840515136719 25.79820251464844 102.1281661987305 24.65813636779785 102.1281661987305 C 23.51828575134277 102.1281661987305 22.44681930541992 101.6841888427734 21.64113616943359 100.8780212402344 L 14.99210262298584 94.22898864746094 C 14.18551921844482 93.42288208007813 13.74155235290527 92.35143280029297 13.74155235290527 91.21158599853516 C 13.74155235290527 90.07148742675781 14.1856689453125 88.99950408935547 14.99208545684814 88.19308471679688 L 15.06481838226318 88.12036895751953 L 15.1297025680542 88.04055023193359 L 20.23251914978027 81.7642822265625 L 21.09746932983398 80.70043182373047 L 20.41705131530762 79.51008605957031 C 18.5827522277832 76.30110168457031 17.16635131835938 72.86833190917969 16.20721817016602 69.30716705322266 L 15.85588550567627 68.002685546875 L 14.51455211639404 67.84156799316406 L 6.506319046020508 66.87968444824219 L 6.387485504150391 66.86541748046875 L 6.267802238464355 66.86541748046875 C 3.914535522460938 66.86541748046875 2.000002145767212 64.95027160644531 2.000002145767212 62.59621810913086 L 2.000002145767212 53.19450378417969 C 2.000002145767212 50.84045028686523 3.914535522460938 48.92528533935547 6.267802238464355 48.92528533935547 L 6.370585441589355 48.92528533935547 L 6.472835540771484 48.91475296020508 L 14.49235248565674 48.0882682800293 L 15.85978507995605 47.94733428955078 L 16.21816825866699 46.62018585205078 C 17.24871826171875 42.80375289916992 18.80251884460449 39.14205169677734 20.83638572692871 35.73682022094727 L 21.52808570861816 34.57872009277344 L 20.71348571777344 33.50351715087891 L 15.87300205230713 27.11441802978516 L 15.80060195922852 27.01885223388672 L 15.71731853485107 26.93263626098633 C 14.92550182342529 26.11293601989746 14.50040245056152 25.03376960754395 14.52031898498535 23.89390182495117 C 14.54023551940918 22.75391960144043 15.00291919708252 21.68998527526855 15.82315254211426 20.89806938171387 L 22.58625221252441 14.36630249023438 C 23.38630294799805 13.59386920928955 24.43955230712891 13.16833591461182 25.55170249938965 13.16833591461182 C 26.72061920166016 13.16833591461182 27.81126976013184 13.63095188140869 28.62273597717285 14.47096920013428 L 28.69403457641602 14.54478549957275 L 28.77250289916992 14.61090183258057 L 34.8640022277832 19.74335289001465 L 35.91786956787109 20.63128471374512 L 37.12290191650391 19.9627685546875 C 40.16872024536133 18.27308464050293 43.41596984863281 16.95466804504395 46.77443695068359 16.04415130615234 L 48.0758171081543 15.69133567810059 L 48.23682022094727 14.35263538360596 L 49.18038558959961 6.50660228729248 L 49.19468688964844 6.387635707855225 L 49.19468688964844 6.267802238464355 C 49.19468688964844 3.914535522460938 51.10921859741211 2.000002145767212 53.46248626708984 2.000002145767212 L 62.8656005859375 2.000002145767212 C 65.2188720703125 2.000002145767212 67.13339996337891 3.914535522460938 67.13339996337891 6.267802238464355 L 67.13339996337891 6.370468616485596 L 67.1439208984375 6.472602367401123 L 67.94783782958984 14.28196907043457 L 68.08896636962891 15.65300178527832 L 69.42040252685547 16.00921821594238 C 73.06200408935547 16.98350143432617 76.56593322753906 18.43343544006348 79.83485412597656 20.31871795654297 L 81.00617218017578 20.9942512512207 L 82.06950378417969 20.15898513793945 L 88.20473480224609 15.3396692276001 L 88.29886627197266 15.2657356262207 L 88.38349914550781 15.18108558654785 C 89.18923187255859 14.37535190582275 90.26083374023438 13.93161869049072 91.40090179443359 13.93161869049072 C 92.54123687744141 13.93161869049072 93.61336517333984 14.37550258636475 94.41978454589844 15.18148517608643 L 101.0680160522461 21.82970237731934 C 102.7324829101563 23.49418640136719 102.7324829101563 26.20253562927246 101.0680160522461 27.86703491210938 L 100.9953002929688 27.93973541259766 L 100.9304351806641 28.01951789855957 L 96.01658630371094 34.06306838989258 L 95.14853668212891 35.13068389892578 L 95.83531951904297 36.32303619384766 C 97.72859954833984 39.60997009277344 99.18132019042969 43.12893676757813 100.1531219482422 46.78218460083008 L 100.5015182495117 48.0919189453125 L 101.8470993041992 48.25373458862305 L 109.5521011352539 49.18037033081055 L 109.6710662841797 49.19468688964844 L 109.790901184082 49.19468688964844 C 112.1449508666992 49.19468688964844 114.0601043701172 51.10921859741211 114.0601043701172 53.46248626708984 L 114.0601043701172 62.8656005859375 C 114.0601043701172 65.2188720703125 112.1449508666992 67.13339996337891 109.790901184082 67.13339996337891 L 109.6880493164063 67.13339996337891 L 109.5857543945313 67.14395141601563 L 101.8172836303711 67.94505310058594 L 100.452522277832 68.08578491210938 L 100.0925216674805 69.40972137451172 C 99.03593444824219 73.29534912109375 97.43952178955078 77.01513671875 95.34758758544922 80.46572113037109 L 94.64324951171875 81.62751770019531 L 95.46373748779297 82.71040344238281 L 100.1871490478516 88.94436645507813 L 100.2593688964844 89.03966522216797 L 100.3424224853516 89.12568664550781 C 101.1344680786133 89.94608306884766 101.5597152709961 91.02583312988281 101.5398025512695 92.16606903076172 C 101.5198822021484 93.30612182617188 101.0571823120117 94.3701171875 100.2369384765625 95.16205596923828 L 93.47260284423828 101.6936492919922 C 92.6728515625 102.4662322998047 91.62038421630859 102.8915710449219 90.50876617431641 102.8916168212891 C 89.33998870849609 102.8916549682617 88.24933624267578 102.4287338256836 87.43775177001953 101.5881195068359 L 87.36624908447266 101.5140533447266 L 87.28749847412109 101.4477157592773 L 81.23548889160156 96.34915161132813 L 80.18838500976563 95.46701812744141 L 78.9871826171875 96.12401580810547 C 75.92572021484375 97.79846954345703 72.66625213623047 99.0987548828125 69.29928588867188 99.98870086669922 L 67.98654937744141 100.3357009887695 L 67.82465362548828 101.683837890625 L 66.87968444824219 109.5524368286133 L 66.86541748046875 109.6712341308594 L 66.86541748046875 109.790901184082 C 66.86541748046875 112.1449508666992 64.95027160644531 114.0601043701172 62.59621810913086 114.0601043701172 Z M 58.16475296020508 37.17798614501953 C 46.69215393066406 37.17798614501953 37.3585205078125 46.510986328125 37.3585205078125 57.98280334472656 C 37.3585205078125 69.45462036132813 46.69215393066406 78.78763580322266 58.16475296020508 78.78763580322266 C 69.63655090332031 78.78763580322266 78.96955108642578 69.45462036132813 78.96955108642578 57.98280334472656 C 78.96955108642578 46.510986328125 69.63655090332031 37.17798614501953 58.16475296020508 37.17798614501953 Z" stroke="none"/>
    <path d="M 62.59621429443359 112.0601043701172 C 63.84746932983398 112.0601043701172 64.86543273925781 111.0421447753906 64.86543273925781 109.7909088134766 L 64.86543273925781 109.5515823364258 L 64.89395904541016 109.3139801025391 L 65.83890533447266 101.4453811645508 L 66.16270446777344 98.74910736083984 L 68.78817749023438 98.05512237548828 C 71.99909210205078 97.20639801025391 75.10763549804688 95.96632385253906 78.02745056152344 94.36932373046875 L 80.42988586425781 93.05530548095703 L 82.52408599853516 94.819580078125 L 88.57610321044922 99.91815948486328 L 88.73358154296875 100.0508346557617 L 88.87661743164063 100.1989822387695 C 89.31410980224609 100.6521224975586 89.87848663330078 100.8916320800781 90.5086669921875 100.8916168212891 C 91.10768890380859 100.8915939331055 91.6519775390625 100.671630859375 92.08335876464844 100.2549285888672 L 98.84780120849609 93.72319793701172 C 99.28997802734375 93.29628753662109 99.52938079833984 92.74574279785156 99.54012298583984 92.13114166259766 C 99.55084991455078 91.51619720458984 99.33074188232422 90.95729064941406 98.90357971191406 90.51485443115234 L 98.73747253417969 90.34281921386719 L 98.59305572509766 90.15221405029297 L 93.86963653564453 83.91825103759766 L 92.22865295410156 81.75247192382813 L 93.63734436035156 79.42888641357422 C 95.63249206542969 76.13792419433594 97.15499877929688 72.59043121337891 98.16258239746094 68.88494110107422 L 98.88257598876953 66.23709106445313 L 101.6121215820313 65.95561218261719 L 109.3805999755859 65.15451049804688 L 109.5851974487305 65.13339996337891 L 109.7909088134766 65.13339996337891 C 111.0421447753906 65.13339996337891 112.0601043701172 64.11607360839844 112.0601043701172 62.86559677124023 L 112.0601043701172 53.46249008178711 C 112.0601043701172 52.21201705932617 111.0421447753906 51.19468688964844 109.7909088134766 51.19468688964844 L 109.5512313842773 51.19468688964844 L 109.3132858276367 51.16606903076172 L 101.6082916259766 50.23943328857422 L 98.91714477539063 49.91577911376953 L 98.22034454345703 47.29634475708008 C 97.2935791015625 43.81241607666016 95.90805053710938 40.45630645751953 94.10227203369141 37.32126998901367 L 92.72869110107422 34.93659591674805 L 94.46481323242188 32.80134201049805 L 99.37865447998047 26.75779724121094 L 99.50837707519531 26.59823417663574 L 99.65380096435547 26.45281600952148 C 100.5384902954102 25.56812477111816 100.5384902954102 24.12859725952148 99.65381622314453 23.24392509460449 L 93.00594329833984 16.59607124328613 C 92.57101440429688 16.16137886047363 92.01601409912109 15.93161582946777 91.40090942382813 15.93161582946777 C 90.78627014160156 15.93161582946777 90.23188781738281 16.16110610961914 89.79772186279297 16.59528923034668 L 89.62843322753906 16.76457977294922 L 89.44016265869141 16.9124698638916 L 83.30494689941406 21.73177909851074 L 81.17829132080078 23.40230751037598 L 78.83565521240234 22.05123329162598 C 75.7181396484375 20.25325202941895 72.37647247314453 18.87045288085938 68.90348815917969 17.94125175476074 L 66.24063110351563 17.22879791259766 L 65.95835876464844 14.48677921295166 L 65.15443420410156 6.67741584777832 L 65.13339996337891 6.473143100738525 L 65.13339996337891 6.267797470092773 C 65.13339996337891 5.017324924468994 64.11607360839844 3.999997615814209 62.86559677124023 3.999997615814209 L 53.46249008178711 3.999997615814209 C 52.21201705932617 3.999997615814209 51.19468688964844 5.017324924468994 51.19468688964844 6.267797470092773 L 51.19468688964844 6.507452011108398 L 51.16606903076172 6.745397567749023 L 50.22250747680664 14.59143447875977 L 49.9005241394043 17.26883316040039 L 47.29777908325195 17.9744701385498 C 44.09487152099609 18.84281539916992 40.99797821044922 20.10019683837891 38.09312438964844 21.71168899536133 L 35.68305206298828 23.0486888885498 L 33.57534408569336 21.27283477783203 L 27.48383331298828 16.1403980255127 L 27.32686996459961 16.00814247131348 L 27.18427085876465 15.86052513122559 C 26.74683380126953 15.40768814086914 26.18230628967285 15.16834354400635 25.55170631408691 15.16834354400635 C 24.95197868347168 15.16834354400635 24.40679740905762 15.38863372802734 23.97565269470215 15.80488872528076 L 17.21230697631836 22.33690643310547 C 16.77014350891113 22.76381492614746 16.53074264526367 23.31428909301758 16.51999855041504 23.92887115478516 C 16.50926971435547 24.54321670532227 16.72912406921387 25.10139846801758 17.1557788848877 25.54306983947754 L 17.32236099243164 25.71552467346191 L 17.46716117858887 25.90665245056152 L 22.3076343536377 32.29576110839844 L 23.93681526184082 34.4461784362793 L 22.55341529846191 36.76235961914063 C 20.61361503601074 40.0101432800293 19.13176155090332 43.50221633911133 18.14901542663574 47.14157867431641 L 17.43227005004883 49.79587173461914 L 14.69739723205566 50.07772445678711 L 6.677870273590088 50.90421676635742 L 6.473379611968994 50.92528915405273 L 6.267797470092773 50.92528915405273 C 5.017324924468994 50.92528915405273 3.999997615814209 51.94325256347656 3.999997615814209 53.19450759887695 L 3.999997615814209 62.59621429443359 C 3.999997615814209 63.84746932983398 5.017324924468994 64.86543273925781 6.267797470092773 64.86543273925781 L 6.507161140441895 64.86543273925781 L 6.744815826416016 64.89398193359375 L 14.7530517578125 65.85585021972656 L 17.43570709228516 66.17807006835938 L 18.13839721679688 68.78705596923828 C 19.05307006835938 72.18310546875 20.40390586853027 75.45692443847656 22.15339851379395 78.51760101318359 L 23.51421546936035 80.89828491210938 L 21.78434371948242 83.02597808837891 L 16.68154335021973 89.30223083496094 L 16.55176162719727 89.46185302734375 L 16.40628814697266 89.60732269287109 C 15.97141551971436 90.04218292236328 15.74156093597412 90.596923828125 15.74156093597412 91.21157836914063 C 15.74156093597412 91.82575988769531 15.97114276885986 92.37985229492188 16.40632438659668 92.81478118896484 L 23.05572509765625 99.46419525146484 C 23.48985290527344 99.8985595703125 24.04394340515137 100.1281585693359 24.65812492370605 100.1281585693359 C 25.27276039123535 100.1281585693359 25.82750701904297 99.89828491210938 26.26237869262695 99.46341705322266 L 26.43172454833984 99.29405212402344 L 26.62006950378418 99.14612579345703 L 32.93723297119141 94.18436431884766 L 35.06810760498047 92.51068878173828 L 37.41278076171875 93.86872863769531 C 40.47843551635742 95.64432525634766 43.75874328613281 97.01872253417969 47.16255950927734 97.95374298095703 L 49.80147171020508 98.67864990234375 L 50.08196258544922 101.4008865356445 L 50.90421676635742 109.3809280395508 L 50.92528915405273 109.5853805541992 L 50.92528915405273 109.7909088134766 C 50.92528915405273 111.0421447753906 51.94325256347656 112.0601043701172 53.19450759887695 112.0601043701172 L 62.59621429443359 112.0601043701172 M 58.16474151611328 35.177978515625 C 70.73936462402344 35.177978515625 80.96954345703125 45.40818023681641 80.96954345703125 57.9827995300293 C 80.96954345703125 70.55743408203125 70.73936462402344 80.78763580322266 58.16474151611328 80.78763580322266 C 45.5893440246582 80.78763580322266 35.35852432250977 70.55743408203125 35.35852432250977 57.9827995300293 C 35.35852432250977 45.40818023681641 45.5893440246582 35.177978515625 58.16474151611328 35.177978515625 M 62.59621429443359 116.0601043701172 L 53.19450759887695 116.0601043701172 C 49.73765182495117 116.0601043701172 46.92528915405273 113.2477416992188 46.92528915405273 109.7909088134766 L 46.10303497314453 101.8108673095703 C 42.36792373657227 100.7848510742188 38.76921463012695 99.27685546875 35.40799713134766 97.33005523681641 L 29.09083366394043 102.2918167114258 C 27.90670585632324 103.475959777832 26.33243370056152 104.1281585693359 24.65812492370605 104.1281585693359 C 22.98383331298828 104.1281585693359 21.40999794006348 103.4759979248047 20.22648811340332 102.2918167114258 L 13.57788848876953 95.64319610595703 C 12.39370632171631 94.45972442626953 11.74156093597412 92.88587188720703 11.74156093597412 91.21157836914063 C 11.74156093597412 89.53726959228516 12.39370632171631 87.96303558349609 13.57788848876953 86.77886962890625 L 18.68068885803223 80.50261688232422 C 16.76116180419922 77.14447021484375 15.27927017211914 73.55220031738281 14.27603435516357 69.82730865478516 L 6.267797470092773 68.86543273925781 C 2.811815738677979 68.86543273925781 -2.360395910727675e-06 66.05307006835938 -2.360395910727675e-06 62.59621429443359 L -2.360395910727675e-06 53.19450759887695 C -2.360395910727675e-06 49.73765182495117 2.811724901199341 46.92528915405273 6.267797470092773 46.92528915405273 L 14.28732490539551 46.09879684448242 C 15.36588859558105 42.10459899902344 16.9920711517334 38.27288818359375 19.11932563781738 34.71126937866211 L 14.27885246276855 28.3221607208252 C 13.11583423614502 27.11819839477539 12.49136161804199 25.53308868408203 12.52061557769775 23.85898017883301 C 12.54987049102783 22.18476104736328 13.22939777374268 20.62223434448242 14.43399810791016 19.4592342376709 L 21.19685173034668 12.92768859863281 C 22.37197875976563 11.79316139221191 23.9185619354248 11.16834354400635 25.55170631408691 11.16834354400635 C 27.26794242858887 11.16834354400635 28.86945152282715 11.8477611541748 30.06118011474609 13.08143424987793 L 36.15268707275391 18.21387100219727 C 39.34025192260742 16.44554328918457 42.73843383789063 15.06616115570068 46.25112533569336 14.11383438110352 L 47.19468688964844 6.267797470092773 C 47.19468688964844 2.811815738677979 50.00641632080078 -2.360395910727675e-06 53.46249008178711 -2.360395910727675e-06 L 62.86559677124023 -2.360395910727675e-06 C 66.32167053222656 -2.360395910727675e-06 69.13339996337891 2.811724901199341 69.13339996337891 6.267797470092773 L 69.93732452392578 14.07716083526611 C 73.74838256835938 15.09681606292725 77.41497802734375 16.61430740356445 80.83405303955078 18.58619689941406 L 86.96926879882813 13.76688861846924 C 88.1527099609375 12.58343410491943 89.72660064697266 11.93161582946777 91.40090942382813 11.93161582946777 C 93.07521820068359 11.93161582946777 94.64946746826172 12.5833797454834 95.8336181640625 13.76688861846924 L 102.4822311401367 20.41548919677734 C 104.9265060424805 22.85977935791016 104.9265060424805 26.83694267272949 102.4822311401367 29.28123474121094 L 97.56839752197266 35.32477951049805 C 99.54952239990234 38.76423263549805 101.0693817138672 42.44667053222656 102.0859069824219 46.26805114746094 L 109.7909088134766 47.19468688964844 C 113.247688293457 47.19468688964844 116.0601043701172 50.00641632080078 116.0601043701172 53.46249008178711 L 116.0601043701172 62.86559677124023 C 116.0601043701172 66.32167053222656 113.2477416992188 69.13339996337891 109.7909088134766 69.13339996337891 L 102.0224304199219 69.93450927734375 C 100.9166870117188 74.00099945068359 99.24588775634766 77.8934326171875 97.05783081054688 81.50257873535156 L 101.78125 87.73654174804688 C 102.9442672729492 88.941162109375 103.5687408447266 90.52672576904297 103.5395050048828 92.20098114013672 C 103.51025390625 93.87528991699219 102.8307037353516 95.43787384033203 101.626106262207 96.60086822509766 L 94.86185455322266 103.1324157714844 C 93.68756103515625 104.2667999267578 92.14163208007813 104.8915405273438 90.50885009765625 104.8916168212891 C 88.79248809814453 104.8916702270508 87.19083404541016 104.2118148803711 85.99892425537109 102.9772720336914 L 79.94690704345703 97.87868499755859 C 76.74303436279297 99.63105010986328 73.33201599121094 100.991455078125 69.81037902832031 101.9223098754883 L 68.86543273925781 109.7909088134766 C 68.86543273925781 113.247688293457 66.05307006835938 116.0601043701172 62.59621429443359 116.0601043701172 Z M 58.16474151611328 39.177978515625 C 47.79496002197266 39.177978515625 39.35852432250977 47.6137809753418 39.35852432250977 57.9827995300293 C 39.35852432250977 68.35181427001953 47.79496002197266 76.78763580322266 58.16474151611328 76.78763580322266 C 68.53376007080078 76.78763580322266 76.96954345703125 68.35181427001953 76.96954345703125 57.9827995300293 C 76.96954345703125 47.6137809753418 68.53376007080078 39.177978515625 58.16474151611328 39.177978515625 Z" stroke="none" fill="#343434"/>
  </g>
</svg>
