<svg xmlns="http://www.w3.org/2000/svg" width="126.689" height="126.689" viewBox="0 0 126.689 126.689">
  <g id="EngrenageUP2" transform="translate(35.142) rotate(21)">
    <g id="Exclusion_2" data-name="Exclusion 2" transform="translate(0 0)" fill="#707070">
      <path d="M 52.88803482055664 96.06010437011719 L 44.9444465637207 96.06010437011719 C 43.12653350830078 96.06010437011719 41.64754867553711 94.58112335205078 41.64754867553711 92.76319122314453 L 41.64754867553711 92.66042327880859 L 41.63702011108398 92.55820465087891 L 40.94229125976563 85.81581878662109 L 40.80203247070313 84.45468902587891 L 39.48257827758789 84.09224700927734 C 36.49264907836914 83.27093505859375 33.61140441894531 82.06375122070313 30.91889190673828 80.50424957275391 L 29.74654769897461 79.82523345947266 L 28.68110466003418 80.66207885742188 L 23.34369087219238 84.85431671142578 L 23.24951934814453 84.92829132080078 L 23.16484832763672 85.01296234130859 C 22.54209136962891 85.63573455810547 21.71426200866699 85.97870635986328 20.83384895324707 85.97870635986328 C 19.95366287231445 85.97870635986328 19.12629127502441 85.63587951660156 18.50414848327637 85.01335906982422 L 12.8862771987915 79.39549255371094 C 12.26336288452148 78.77293395996094 11.92053413391113 77.94557952880859 11.92053413391113 77.06537628173828 C 11.92053413391113 76.18495941162109 12.26350593566895 75.35711669921875 12.88626289367676 74.734375 L 12.95899105072021 74.66165161132813 L 13.02387714385986 74.58183288574219 L 17.33529090881348 69.27897644042969 L 18.20024871826172 68.21511840820313 L 17.51981925964355 67.02476501464844 C 15.98316287994385 64.33649444580078 14.79660511016846 61.46077728271484 13.99312019348145 58.47751998901367 L 13.64177703857422 57.17303466796875 L 12.30044841766357 57.01192092895508 L 5.534234046936035 56.1992073059082 L 5.415405750274658 56.18493270874023 L 5.295719623565674 56.18493270874023 C 3.478462696075439 56.18493270874023 2.000005483627319 54.70594787597656 2.000005483627319 52.88803482055664 L 2.000005483627319 44.9444465637207 C 2.000005483627319 43.12653350830078 3.478462696075439 41.64754867553711 5.295719623565674 41.64754867553711 L 5.398505687713623 41.64754867553711 L 5.500748157501221 41.63700485229492 L 12.27649116516113 40.93870544433594 L 13.64393424987793 40.79779052734375 L 14.00230598449707 39.47064971923828 C 14.86563396453857 36.27353286743164 16.16729164123535 33.20604705810547 17.87112045288086 30.35336303710938 L 18.56282043457031 29.19527626037598 L 17.74823379516602 28.12006187438965 L 13.65847682952881 22.72186279296875 L 13.58606243133545 22.62629127502441 L 13.50276279449463 22.54006195068359 C 12.89133453369141 21.90711975097656 12.56307697296143 21.07379150390625 12.57847690582275 20.1935920715332 C 12.59384822845459 19.31323432922363 12.95113372802734 18.49163436889648 13.584547996521 17.88010597229004 L 19.29877662658691 12.36130523681641 C 19.91659164428711 11.76484870910645 20.72997665405273 11.43622016906738 21.58884811401367 11.43622016906738 C 22.4915771484375 11.43622016906738 23.33384895324707 11.79347705841064 23.96049118041992 12.44216251373291 L 24.03177642822266 12.51596260070801 L 24.11026191711426 12.58209133148193 L 29.25701904296875 16.91851997375488 L 30.31086349487305 17.80644798278809 L 31.51590538024902 17.13794898986816 C 34.06746292114258 15.72244834899902 36.78777694702148 14.61797714233398 39.60127639770508 13.85520553588867 L 40.90264892578125 13.50239086151123 L 41.06364822387695 12.16369152069092 L 41.86086273193359 5.534519672393799 L 41.87516403198242 5.415548324584961 L 41.87516403198242 5.295719623565674 C 41.87516403198242 3.478462696075439 43.35361862182617 2.000005483627319 45.17087554931641 2.000005483627319 L 53.11563491821289 2.000005483627319 C 54.93289184570313 2.000005483627319 56.41135025024414 3.478462696075439 56.41135025024414 5.295719623565674 L 56.41135025024414 5.398391246795654 L 56.4218635559082 5.500534057617188 L 57.10111999511719 12.09871959686279 L 57.24226379394531 13.46973419189453 L 58.57369232177734 13.82594871520996 C 61.62436294555664 14.6421480178833 64.5596923828125 15.85679149627686 67.29811859130859 17.43614768981934 L 68.46943664550781 18.11169052124023 L 69.53277587890625 17.27642059326172 L 74.71647644042969 13.20453453063965 L 74.81059265136719 13.13059139251709 L 74.89523315429688 13.0459623336792 C 75.51741790771484 12.42377662658691 76.34493255615234 12.08111953735352 77.22534942626953 12.08111953735352 C 78.10598754882813 12.08111953735352 78.9339599609375 12.42391967773438 79.5567626953125 13.04636287689209 L 85.17383575439453 18.66341972351074 C 86.45923614501953 19.94882011413574 86.45923614501953 22.04033470153809 85.17383575439453 23.32573318481445 L 85.10111999511719 23.3984489440918 L 85.03624725341797 23.47823333740234 L 80.88450622558594 28.58447647094727 L 80.01646423339844 29.65209197998047 L 80.7032470703125 30.84443473815918 C 82.28932189941406 33.59804916381836 83.50630187988281 36.54598999023438 84.32038879394531 39.60636138916016 L 84.66879272460938 40.91610717773438 L 86.01436614990234 41.07791900634766 L 92.52437591552734 41.86084747314453 L 92.64336395263672 41.87516403198242 L 92.76319122314453 41.87516403198242 C 94.58112335205078 41.87516403198242 96.06010437011719 43.35361862182617 96.06010437011719 45.17087554931641 L 96.06010437011719 53.11563491821289 C 96.06010437011719 54.93289184570313 94.58112335205078 56.41135025024414 92.76319122314453 56.41135025024414 L 92.66033172607422 56.41135025024414 L 92.55803680419922 56.42190551757813 L 85.99440765380859 57.09877777099609 L 84.62963104248047 57.23950576782227 L 84.26963043212891 58.56343460083008 C 83.384521484375 61.81850433349609 82.04716491699219 64.93466186523438 80.29469299316406 67.8253173828125 L 79.59034729003906 68.98710632324219 L 80.41083526611328 70.06999206542969 L 84.40167999267578 75.33712005615234 L 84.47389221191406 75.43241882324219 L 84.55694580078125 75.51844787597656 C 85.16861724853516 76.15200805664063 85.49701690673828 76.98586273193359 85.48163604736328 77.86639404296875 C 85.46626281738281 78.74681854248047 85.10896301269531 79.56846618652344 84.47556304931641 80.17999267578125 L 78.76029205322266 85.69864654541016 C 78.14264678955078 86.29528045654297 77.32994842529297 86.62371826171875 76.47160339355469 86.62374877929688 C 75.56897735595703 86.623779296875 74.72673034667969 86.26630401611328 74.10000610351563 85.61716461181641 L 74.02848815917969 85.5430908203125 L 73.94974517822266 85.47674560546875 L 68.83636474609375 81.16892242431641 L 67.78927612304688 80.28678894042969 L 66.58806610107422 80.94379425048828 C 64.02329254150391 82.34656524658203 61.29274749755859 83.43585205078125 58.47226333618164 84.18135070800781 L 57.15951919555664 84.52833557128906 L 56.99761962890625 85.87648010253906 L 56.1992073059082 92.52471923828125 L 56.18493270874023 92.64353179931641 L 56.18493270874023 92.76319122314453 C 56.18493270874023 94.58112335205078 54.70594787597656 96.06010437011719 52.88803482055664 96.06010437011719 Z M 49.14384841918945 31.10179138183594 C 39.27953338623047 31.10179138183594 31.25432014465332 39.12646102905273 31.25432014465332 48.99011993408203 C 31.25432014465332 58.85379028320313 39.27953338623047 66.87847900390625 49.14384841918945 66.87847900390625 C 59.00751876831055 66.87847900390625 67.03218841552734 58.85379028320313 67.03218841552734 48.99011993408203 C 67.03218841552734 39.12646102905273 59.00751876831055 31.10179138183594 49.14384841918945 31.10179138183594 Z" stroke="none"/>
      <path d="M 52.88803100585938 94.06009674072266 C 53.6031494140625 94.06009674072266 54.1849479675293 93.47831726074219 54.1849479675293 92.76319885253906 L 54.1849479675293 92.52388000488281 L 54.21348190307617 92.28626251220703 L 55.01188278198242 85.63801574707031 L 55.3356819152832 82.94173431396484 L 57.96116638183594 82.24776458740234 C 60.62564849853516 81.54347991943359 63.20524978637695 80.51439666748047 65.62834930419922 79.18910217285156 L 68.03078460693359 77.87509918212891 L 70.12496185302734 79.63938140869141 L 75.23834991455078 83.94721221923828 L 75.39581298828125 84.07987976074219 L 75.53883361816406 84.22801208496094 C 75.79238128662109 84.49061584472656 76.10616302490234 84.62376403808594 76.47151184082031 84.62374877929688 C 76.81358337402344 84.62373352050781 77.12443542480469 84.49811553955078 77.37103271484375 84.25989532470703 L 83.08643341064453 78.74113464355469 C 83.34266662597656 78.49375152587891 83.47573089599609 78.18768310546875 83.48196411132813 77.83149719238281 C 83.48809814453125 77.47998046875 83.36228179931641 77.16049957275391 83.11809539794922 76.90758514404297 L 82.95199584960938 76.73554992675781 L 82.80760192871094 76.54494476318359 L 78.81674957275391 71.27783203125 L 77.17575073242188 69.11206817626953 L 78.58443450927734 66.78848266601563 C 80.2401123046875 64.05746459960938 81.50356292724609 61.11359786987305 82.33969879150391 58.03866577148438 L 83.05970001220703 55.39079666137695 L 85.78923034667969 55.10931396484375 L 92.35288238525391 54.43244934082031 L 92.5574951171875 54.41135025024414 L 92.76319885253906 54.41135025024414 C 93.47831726074219 54.41135025024414 94.06009674072266 53.83009719848633 94.06009674072266 53.11563110351563 L 94.06009674072266 45.17086410522461 C 94.06009674072266 44.45641326904297 93.47831726074219 43.87516403198242 92.76319885253906 43.87516403198242 L 92.52352905273438 43.87516403198242 L 92.28558349609375 43.84654998779297 L 85.77556610107422 43.06361389160156 L 83.08441162109375 42.73996353149414 L 82.38761138916016 40.12051391601563 C 81.61856842041016 37.22946548461914 80.46878051757813 34.44439697265625 78.97018432617188 31.84268188476563 L 77.59661865234375 29.45801544189453 L 79.33273315429688 27.3227653503418 L 83.48446655273438 22.21651458740234 L 83.61419677734375 22.05694770812988 L 83.75961303710938 21.91153144836426 C 84.26521301269531 21.40591430664063 84.26521301269531 20.58323097229004 83.75962829589844 20.0776309967041 L 78.14292907714844 14.46094799041748 C 77.8907470703125 14.2089147567749 77.58203125 14.08111476898193 77.22534942626953 14.08111476898193 C 76.86913299560547 14.08111476898193 76.56098175048828 14.20864868164063 76.30947875976563 14.46014881134033 L 76.14019775390625 14.62943172454834 L 75.95193481445313 14.77733135223389 L 70.76823425292969 18.84921455383301 L 68.64157867431641 20.51973152160645 L 66.2989501953125 19.16866493225098 C 63.7117805480957 17.67656517028809 60.93871688842773 16.5290641784668 58.05678176879883 15.75801467895508 L 55.39389801025391 15.04556465148926 L 55.11163330078125 12.30353164672852 L 54.43238067626953 5.705331802368164 L 54.41135025024414 5.501065254211426 L 54.41135025024414 5.295714855194092 C 54.41135025024414 4.58124828338623 53.83009719848633 3.999998331069946 53.11563110351563 3.999998331069946 L 45.17086410522461 3.999998331069946 C 44.45641326904297 3.999998331069946 43.87516403198242 4.58124828338623 43.87516403198242 5.295714855194092 L 43.87516403198242 5.535365104675293 L 43.84654998779297 5.773314952850342 L 43.04933166503906 12.40249824523926 L 42.72734832763672 15.07991504669189 L 40.12459945678711 15.78553199768066 C 37.46668243408203 16.5061149597168 34.89673233032227 17.5495491027832 32.48613357543945 18.88684844970703 L 30.07606506347656 20.2238655090332 L 27.96834754943848 18.447998046875 L 22.82158088684082 14.11156463623047 L 22.66463088989258 13.97931480407715 L 22.52203178405762 13.83169841766357 C 22.26851463317871 13.56928157806396 21.95454788208008 13.4362154006958 21.58884811401367 13.4362154006958 C 21.2460823059082 13.4362154006958 20.9344482421875 13.56214809417725 20.68818092346191 13.7999153137207 L 14.97369861602783 19.31894874572754 C 14.7174654006958 19.56633186340332 14.58438205718994 19.87236595153809 14.57814884185791 20.228515625 C 14.57193183898926 20.58448219299316 14.69409847259521 20.89469909667969 14.94124794006348 21.15054893493652 L 15.10783195495605 21.322998046875 L 15.25261497497559 21.51411437988281 L 19.34236526489258 26.91229820251465 L 20.97154808044434 29.06271553039551 L 19.58816528320313 31.37889862060547 C 17.9783821105957 34.07413101196289 16.74866485595703 36.97201538085938 15.93314838409424 39.99203109741211 L 15.21639823913574 42.64631652832031 L 12.48153209686279 42.92818069458008 L 5.705781936645508 43.62648010253906 L 5.50128173828125 43.64754867553711 L 5.295714855194092 43.64754867553711 C 4.58124828338623 43.64754867553711 3.999998331069946 44.22933197021484 3.999998331069946 44.9444465637207 L 3.999998331069946 52.88803100585938 C 3.999998331069946 53.6031494140625 4.58124828338623 54.1849479675293 5.295714855194092 54.1849479675293 L 5.53508186340332 54.1849479675293 L 5.772731781005859 54.21349716186523 L 12.53894805908203 55.02619934082031 L 15.22161483764648 55.34841537475586 L 15.92429828643799 57.9573974609375 C 16.68331527709961 60.77554702758789 17.8043155670166 63.49233245849609 19.25616455078125 66.03224945068359 L 20.61699867248535 68.41294860839844 L 18.88711547851563 70.5406494140625 L 14.57571506500244 75.84351348876953 L 14.44594860076904 76.00311279296875 L 14.30049800872803 76.14858245849609 C 14.04836463928223 76.40069580078125 13.92053127288818 76.70916748046875 13.92053127288818 77.06538391113281 C 13.92053127288818 77.42115020751953 14.04809856414795 77.72901153564453 14.30048179626465 77.98126220703125 L 19.91883087158203 83.59960174560547 C 20.17024803161621 83.85116577148438 20.47809791564941 83.97871398925781 20.83384895324707 83.97871398925781 C 21.19004821777344 83.97871398925781 21.49849891662598 83.85088348388672 21.75063133239746 83.59874725341797 L 21.91998100280762 83.42939758300781 L 22.10833168029785 83.28146362304688 L 27.44574928283691 79.0892333984375 L 29.57659912109375 77.41555023193359 L 31.9212818145752 78.77358245849609 C 34.46553039550781 80.24720001220703 37.18776321411133 81.38780212402344 40.01234817504883 82.1636962890625 L 42.65124893188477 82.88858032226563 L 42.93174743652344 85.61083221435547 L 43.62648010253906 92.35321807861328 L 43.64754867553711 92.55766296386719 L 43.64754867553711 92.76319885253906 C 43.64754867553711 93.47831726074219 44.22933197021484 94.06009674072266 44.9444465637207 94.06009674072266 L 52.88803100585938 94.06009674072266 M 49.14384841918945 29.10179901123047 C 60.11031341552734 29.10179901123047 69.03218078613281 38.02366638183594 69.03218078613281 48.99013137817383 C 69.03218078613281 59.95660018920898 60.11031341552734 68.87846374511719 49.14384841918945 68.87846374511719 C 38.17671585083008 68.87846374511719 29.25431442260742 59.95660018920898 29.25431442260742 48.99013137817383 C 29.25431442260742 38.02366638183594 38.17671585083008 29.10179901123047 49.14384841918945 29.10179901123047 M 52.88803100585938 98.06009674072266 L 44.9444465637207 98.06009674072266 C 42.02373123168945 98.06009674072266 39.64754867553711 95.68391418457031 39.64754867553711 92.76319885253906 L 38.95281600952148 86.02081298828125 C 35.7969970703125 85.1539306640625 32.75641632080078 83.87978363037109 29.9164981842041 82.23491668701172 L 24.57908248901367 86.42714691162109 C 23.57859802246094 87.42765045166016 22.24848175048828 87.97871398925781 20.83384895324707 87.97871398925781 C 19.41923141479492 87.97871398925781 18.08946418762207 87.42769622802734 17.08953094482422 86.42714691162109 L 11.47206497192383 80.80970001220703 C 10.47154808044434 79.80976867675781 9.920531272888184 78.47999572753906 9.920531272888184 77.06538391113281 C 9.920531272888184 75.65074920654297 10.47154808044434 74.32066345214844 11.47206497192383 73.32014465332031 L 15.78346538543701 68.01728057861328 C 14.16163158416748 65.17998504638672 12.90956497192383 62.14483261108398 12.06193161010742 58.99765014648438 L 5.295714855194092 58.1849479675293 C 2.375731706619263 58.1849479675293 -1.629638632039132e-06 55.80875015258789 -1.629638632039132e-06 52.88803100585938 L -1.629638632039132e-06 44.9444465637207 C -1.629638632039132e-06 42.02373123168945 2.375648260116577 39.64754867553711 5.295714855194092 39.64754867553711 L 12.07146549224854 38.94924926757813 C 12.98276519775391 35.57449722290039 14.35673141479492 32.33706665039063 16.1540641784668 29.32781410217285 L 12.06431484222412 23.92963218688965 C 11.0816650390625 22.91238212585449 10.55404853820801 21.5731143951416 10.57876491546631 20.15863227844238 C 10.60348129272461 18.74408149719238 11.17761516571045 17.42389869689941 12.19539833068848 16.44126510620117 L 17.90938186645508 10.92271518707275 C 18.90226554870605 9.964131355285645 20.20898246765137 9.436215400695801 21.58884811401367 9.436215400695801 C 23.03889846801758 9.436215400695801 24.39203262329102 10.0102653503418 25.3989315032959 11.05259799957275 L 30.54569816589355 15.38903141021729 C 33.2388801574707 13.89496517181396 36.11005020141602 12.72951507568359 39.07794952392578 11.92489814758301 L 39.87516403198242 5.295714855194092 C 39.87516403198242 2.375731706619263 42.25081634521484 -1.629638632039132e-06 45.17086410522461 -1.629638632039132e-06 L 53.11563110351563 -1.629638632039132e-06 C 56.03569793701172 -1.629638632039132e-06 58.41135025024414 2.375648260116577 58.41135025024414 5.295714855194092 L 59.09059906005859 11.8939151763916 C 62.31059646606445 12.75541496276855 65.40851593017578 14.03756523132324 68.29733276367188 15.70363140106201 L 73.48103332519531 11.63174819946289 C 74.48091125488281 10.63184833526611 75.81072998046875 10.08111476898193 77.22534942626953 10.08111476898193 C 78.63999938964844 10.08111476898193 79.97008514404297 10.63179874420166 80.9705810546875 11.63174819946289 L 86.58805084228516 17.24919891357422 C 88.65322875976563 19.31441497802734 88.65322875976563 22.67474746704102 86.58805084228516 24.73994827270508 L 82.43631744384766 29.84619903564453 C 84.11018371582031 32.75221633911133 85.39431762695313 35.86353302001953 86.25318145751953 39.09223175048828 L 92.76319885253906 39.87516403198242 C 95.68384552001953 39.87516403198242 98.06009674072266 42.25081634521484 98.06009674072266 45.17086410522461 L 98.06009674072266 53.11563110351563 C 98.06009674072266 56.03569793701172 95.68391418457031 58.41135025024414 92.76319885253906 58.41135025024414 L 86.19954681396484 59.08821487426758 C 85.26529693603516 62.52401351928711 83.85363006591797 65.81278228759766 82.00492858886719 68.86216735839844 L 85.99578094482422 74.12928009033203 C 86.97843170166016 75.14707946777344 87.50605010986328 76.48674774169922 87.48134613037109 77.90132904052734 C 87.45663452148438 79.31596374511719 86.88248443603516 80.63621520996094 85.86470031738281 81.61883544921875 L 80.14952850341797 87.13738250732422 C 79.1573486328125 88.09583282470703 77.8511962890625 88.62369537353516 76.47166442871094 88.62374877929688 C 75.021484375 88.62381744384766 73.668212890625 88.04938507080078 72.66116333007813 87.00631713867188 L 67.54778289794922 82.69847869873047 C 64.84079742431641 84.17904663085938 61.95879745483398 85.32846832275391 58.98334884643555 86.11495208740234 L 58.1849479675293 92.76319885253906 C 58.1849479675293 95.68384552001953 55.80875015258789 98.06009674072266 52.88803100585938 98.06009674072266 Z M 49.14384841918945 33.10179901123047 C 40.38233184814453 33.10179901123047 33.25431442260742 40.22926330566406 33.25431442260742 48.99013137817383 C 33.25431442260742 57.75099945068359 40.38233184814453 64.87846374511719 49.14384841918945 64.87846374511719 C 57.90471649169922 64.87846374511719 65.03218078613281 57.75099945068359 65.03218078613281 48.99013137817383 C 65.03218078613281 40.22926330566406 57.90471649169922 33.10179901123047 49.14384841918945 33.10179901123047 Z" stroke="none" fill="#343434"/>
    </g>
  </g>
</svg>
