<svg xmlns="http://www.w3.org/2000/svg" width="129.53" height="129.53" viewBox="0 0 129.53 129.53">
  <g id="EngrenageUPLEFT2" transform="translate(34.565) rotate(20)">
    <g id="Exclusion_2" data-name="Exclusion 2" transform="translate(0 0)" fill="#707070">
      <path d="M 54.50606536865234 99.06011199951172 L 46.31946563720703 99.06011199951172 C 44.41219329833984 99.06011199951172 42.86050796508789 97.5084228515625 42.86050796508789 95.60115051269531 L 42.86050796508789 95.49838256835938 L 42.84997940063477 95.39614868164063 L 42.13399505615234 88.44747924804688 L 41.99373626708984 87.08636474609375 L 40.67429351806641 86.72392272949219 C 37.58779525756836 85.87606811523438 34.6135368347168 84.62992095947266 31.83415222167969 83.02011108398438 L 30.66180992126465 82.34109497070313 L 29.59638023376465 83.17794036865234 L 24.09566688537598 87.49842071533203 L 24.00149536132813 87.57238006591797 L 23.91680908203125 87.65706634521484 C 23.26343727111816 88.31045532226563 22.3949089050293 88.67028045654297 21.47122383117676 88.67028045654297 C 20.54776573181152 88.67028045654297 19.67972373962402 88.31059265136719 19.02698135375977 87.65746307373047 L 13.2372522354126 81.86773681640625 C 12.58372402191162 81.21459197998047 12.22403812408447 80.34654998779297 12.22403812408447 79.42308044433594 C 12.22403812408447 78.49938201904297 12.58386611938477 77.63085174560547 13.23723793029785 76.97749328613281 L 13.30996608734131 76.90475463867188 L 13.3748664855957 76.824951171875 L 17.81816673278809 71.35986328125 L 18.68310928344727 70.29601287841797 L 18.0026798248291 69.10566711425781 C 16.41642379760742 66.33058166503906 15.19156646728516 63.36202239990234 14.36213779449463 60.28246688842773 L 14.0107946395874 58.97798156738281 L 12.66946601867676 58.81686782836914 L 5.696252346038818 57.97929382324219 L 5.577423572540283 57.96502304077148 L 5.457737922668457 57.96502304077148 C 3.551137924194336 57.96502304077148 1.999994993209839 56.41333770751953 1.999994993209839 54.50606536865234 L 1.999994993209839 46.31946563720703 C 1.999994993209839 44.41219329833984 3.551137924194336 42.86050796508789 5.457737922668457 42.86050796508789 L 5.560523509979248 42.86050796508789 L 5.662766456604004 42.84996795654297 L 12.64580917358398 42.13029479980469 L 14.01325225830078 41.98936462402344 L 14.37162399291992 40.66222381591797 C 15.26280975341797 37.36192321777344 16.60649490356445 34.19539642333984 18.36533737182617 31.25059509277344 L 19.0570240020752 30.09249496459961 L 18.2424373626709 29.01729583740234 L 14.02756690979004 23.45395278930664 L 13.95516681671143 23.35839462280273 L 13.87186622619629 23.27216720581055 C 13.23036670684814 22.60807991027832 12.88596630096436 21.73377990722656 12.90210914611816 20.81029510498047 C 12.91823768615723 19.88668060302734 13.29310894012451 19.02469444274902 13.95763778686523 18.38311004638672 L 19.84669494628906 12.69548034667969 C 20.49488067626953 12.06966686248779 21.34823799133301 11.72489547729492 22.24932289123535 11.72489547729492 C 23.19642448425293 11.72489547729492 24.08008003234863 12.09970951080322 24.7375373840332 12.78029537200928 L 24.80882453918457 12.85409545898438 L 24.88731002807617 12.92022323608398 L 30.19152450561523 17.38932418823242 L 31.24538040161133 18.27725219726563 L 32.45042419433594 17.60873794555664 C 35.0843391418457 16.14755249023438 37.8924674987793 15.00742340087891 40.79679489135742 14.22003746032715 L 42.09816741943359 13.86723804473877 L 42.25915145874023 12.52852344512939 L 43.08076477050781 5.696537971496582 L 43.0950813293457 5.577566623687744 L 43.0950813293457 5.457737922668457 C 43.0950813293457 3.551137924194336 44.64620971679688 1.999994993209839 46.55281066894531 1.999994993209839 L 54.74063873291016 1.999994993209839 C 56.64723968505859 1.999994993209839 58.19836807250977 3.551137924194336 58.19836807250977 5.457737922668457 L 58.19836807250977 5.560409545898438 L 58.20888137817383 5.662538051605225 L 58.90890884399414 12.46258068084717 L 59.05005264282227 13.83360958099365 L 60.3814811706543 14.18982315063477 C 63.5306396484375 15.03238105773926 66.56072235107422 16.2862377166748 69.38756561279297 17.91658020019531 L 70.55888366699219 18.59212303161621 L 71.62222290039063 17.7568531036377 L 76.96452331542969 13.56038093566895 L 77.05863952636719 13.48643779754639 L 77.14328002929688 13.40180969238281 C 77.79606628417969 12.7490234375 78.66425323486328 12.38952350616455 79.58793640136719 12.38952350616455 C 80.51184844970703 12.38952350616455 81.38052368164063 12.74916648864746 82.033935546875 13.40220928192139 L 87.82286834716797 19.19113731384277 C 89.17144012451172 20.53972434997559 89.17144012451172 22.73403739929199 87.82285308837891 24.08263778686523 L 87.75015258789063 24.15533828735352 L 87.68527984619141 24.23512268066406 L 83.40652465820313 29.49758148193359 L 82.53846740722656 30.56520843505859 L 83.22526550292969 31.75755310058594 C 84.86251068115234 34.59996795654297 86.11878204345703 37.64308166503906 86.95918273925781 40.80235290527344 L 87.30757904052734 42.11207962036133 L 88.65316772460938 42.27389526367188 L 95.36235046386719 43.08076477050781 L 95.4813232421875 43.0950813293457 L 95.60115051269531 43.0950813293457 C 97.5084228515625 43.0950813293457 99.06011199951172 44.64620971679688 99.06011199951172 46.55281066894531 L 99.06011199951172 54.74063873291016 C 99.06011199951172 56.64723968505859 97.5084228515625 58.19836807250977 95.60115051269531 58.19836807250977 L 95.49830627441406 58.19836807250977 L 95.39599609375 58.20890808105469 L 88.63153839111328 58.90646743774414 L 87.26676940917969 59.04721069335938 L 86.90676879882813 60.37115097045898 C 85.99309539794922 63.73130798339844 84.61256408691406 66.94805145263672 82.80351257324219 69.93205261230469 L 82.09916687011719 71.09384155273438 L 82.91965484619141 72.17672729492188 L 87.03257751464844 77.60499572753906 L 87.10479736328125 77.70030975341797 L 87.18785095214844 77.78633880615234 C 87.82961273193359 78.45102691650391 88.17414093017578 79.32585144042969 88.15799713134766 80.24966430664063 C 88.14186859130859 81.17336273193359 87.76699829101563 82.03540802001953 87.10243988037109 82.67702484130859 L 81.21234130859375 88.36447906494141 C 80.56433868408203 88.99044036865234 79.71167755126953 89.33502197265625 78.81111145019531 89.33506774902344 C 77.8641357421875 89.33509826660156 76.98049163818359 88.96003723144531 76.32298278808594 88.27899169921875 L 76.25146484375 88.20491027832031 L 76.17270660400391 88.13856506347656 L 70.90287780761719 83.69896697998047 L 69.85578155517578 82.81684112548828 L 68.65457916259766 83.47383880615234 C 66.00703430175781 84.92189788818359 63.18833923339844 86.04634094238281 60.27676773071289 86.81591033935547 L 58.96402359008789 87.16289520263672 L 58.8021240234375 88.51103973388672 L 57.97929382324219 95.36267852783203 L 57.96502304077148 95.48149871826172 L 57.96502304077148 95.60115051269531 C 57.96502304077148 97.5084228515625 56.41333770751953 99.06011199951172 54.50606536865234 99.06011199951172 Z M 50.6473388671875 32.11449432373047 C 40.51496505737305 32.11449432373047 32.27167892456055 40.35722351074219 32.27167892456055 50.48889541625977 C 32.27167892456055 60.6205940246582 40.51496505737305 68.86333465576172 50.6473388671875 68.86333465576172 C 60.77901077270508 68.86333465576172 69.02173614501953 60.6205940246582 69.02173614501953 50.48889541625977 C 69.02173614501953 40.35722351074219 60.77901077270508 32.11449432373047 50.6473388671875 32.11449432373047 Z" stroke="none"/>
      <path d="M 54.50606918334961 97.06010437011719 C 55.3105354309082 97.06010437011719 55.96501922607422 96.40561676025391 55.96501922607422 95.60115051269531 L 55.96501922607422 95.36181640625 L 55.99355316162109 95.12419891357422 L 56.81638717651367 88.27256774902344 L 57.14018630981445 85.57630157470703 L 59.76566696166992 84.88233184814453 C 62.52120208740234 84.15396881103516 65.18897247314453 83.0897216796875 67.69483184814453 81.71913909912109 L 70.09726715087891 80.40513610839844 L 72.19146728515625 82.16940307617188 L 77.4613037109375 86.60901641845703 L 77.61878204345703 86.74169921875 L 77.76181793212891 86.88985443115234 C 78.04705047607422 87.18528747558594 78.40007019042969 87.3350830078125 78.81101989746094 87.33506774902344 C 79.19591522216797 87.33505249023438 79.54568481445313 87.19371795654297 79.82308197021484 86.92572021484375 L 85.71328735351563 81.23818206787109 C 85.99752044677734 80.96376800537109 86.15140533447266 80.60985565185547 86.15831756591797 80.21473693847656 C 86.16522216796875 79.81935119628906 86.02368927001953 79.45996856689453 85.74901580810547 79.17548370361328 L 85.58291625976563 79.00343322753906 L 85.43848419189453 78.81283569335938 L 81.32555389404297 73.38456726074219 L 79.6845703125 71.21878814697266 L 81.09325408935547 68.89520263671875 C 82.80551910400391 66.07088470458984 84.11215209960938 63.02642059326172 84.97685241699219 59.84638595581055 L 85.69685363769531 57.19852066040039 L 88.42638397216797 56.91703414916992 L 95.19083404541016 56.21946716308594 L 95.39545440673828 56.19836807250977 L 95.60115051269531 56.19836807250977 C 96.40561676025391 56.19836807250977 97.06010437011719 55.54443740844727 97.06010437011719 54.74063491821289 L 97.06010437011719 46.55280303955078 C 97.06010437011719 45.74901962280273 96.40561676025391 45.09508514404297 95.60115051269531 45.09508514404297 L 95.36148834228516 45.09508514404297 L 95.12353515625 45.06646728515625 L 88.41435241699219 44.25958633422852 L 85.72318267822266 43.93593597412109 L 85.02640533447266 41.31646728515625 C 84.23108673095703 38.32665252685547 83.04199981689453 35.44641876220703 81.4921875 32.75576782226563 L 80.11862182617188 30.37108612060547 L 81.854736328125 28.23583602905273 L 86.13349914550781 22.97338485717773 L 86.26323699951172 22.81383514404297 L 86.40863800048828 22.66843605041504 C 86.97743225097656 22.09963607788086 86.97743225097656 21.17411804199219 86.40866851806641 20.6053524017334 L 80.6201171875 14.81683540344238 C 80.34043884277344 14.53728580474854 79.98350524902344 14.38953590393066 79.58793640136719 14.38953590393066 C 79.19281768798828 14.38953590393066 78.83651733398438 14.53700256347656 78.55751800537109 14.81600189208984 L 78.38823699951172 14.98530197143555 L 78.19996643066406 15.13318538665771 L 72.857666015625 19.32963562011719 L 70.73100280761719 21.00015258789063 L 68.38836669921875 19.64908599853516 C 65.71283721923828 18.10600280761719 62.84502029418945 16.91928482055664 59.86457061767578 16.12188529968262 L 57.20168685913086 15.4094352722168 L 56.91941833496094 12.66738510131836 L 56.21940231323242 5.867335319519043 L 56.19836807250977 5.663085460662842 L 56.19836807250977 5.457735538482666 C 56.19836807250977 4.653935432434082 55.54443740844727 4.000002384185791 54.74063491821289 4.000002384185791 L 46.55280303955078 4.000002384185791 C 45.74901962280273 4.000002384185791 45.09508514404297 4.653935432434082 45.09508514404297 5.457735538482666 L 45.09508514404297 5.697385311126709 L 45.06646728515625 5.935335636138916 L 44.24485397338867 12.76731872558594 L 43.92287063598633 15.44473552703857 L 41.32011795043945 16.15035247802734 C 38.57136917114258 16.89556884765625 35.9135856628418 17.97465133666992 33.42063522338867 19.35765266418457 L 31.01055145263672 20.69466972351074 L 28.90283584594727 18.91880226135254 L 23.59861946105957 14.44970226287842 L 23.44166946411133 14.3174524307251 L 23.29906845092773 14.16983509063721 C 23.01386833190918 13.87460231781006 22.66066932678223 13.72490215301514 22.24931907653809 13.72490215301514 C 21.86371803283691 13.72490215301514 21.51315307617188 13.86656856536865 21.23608589172363 14.13406848907471 L 15.34678554534912 19.82196807861328 C 15.06258583068848 20.09635162353516 14.90870189666748 20.45018577575684 14.90180206298828 20.84526824951172 C 14.89490222930908 21.24010276794434 15.03616905212402 21.59883499145508 15.31035232543945 21.88265228271484 L 15.47691917419434 22.05510139465332 L 15.62170219421387 22.24620246887207 L 19.83658599853516 27.80953598022461 L 21.46578598022461 29.95995140075684 L 20.0823860168457 32.27615356445313 C 18.4176025390625 35.06345367431641 17.14585304260254 38.06035232543945 16.30245208740234 41.18363571166992 L 15.58570194244385 43.8379020690918 L 12.8508358001709 44.11977005004883 L 5.867802143096924 44.83943557739258 L 5.663302421569824 44.86050033569336 L 5.457735538482666 44.86050033569336 C 4.653935432434082 44.86050033569336 4.000002384185791 45.51498413085938 4.000002384185791 46.3194694519043 L 4.000002384185791 54.50606918334961 C 4.000002384185791 55.3105354309082 4.653935432434082 55.96501922607422 5.457735538482666 55.96501922607422 L 5.697102069854736 55.96501922607422 L 5.934751987457275 55.99356842041016 L 12.90796852111816 56.83113479614258 L 15.59063529968262 57.15335083007813 L 16.29331970214844 59.76233673095703 C 17.07828521728516 62.67681884765625 18.23758506774902 65.48643493652344 19.73903465270996 68.11313629150391 L 21.09986877441406 70.49383544921875 L 19.36998558044434 72.62153625488281 L 14.92668533325195 78.08663177490234 L 14.79690265655518 78.24625396728516 L 14.65143585205078 78.39171600341797 C 14.37183570861816 78.67131805419922 14.22403526306152 79.02796936035156 14.22403526306152 79.42308807373047 C 14.22403526306152 79.81773376464844 14.37155246734619 80.17378234863281 14.65146923065186 80.45352172851563 L 20.44161796569824 86.24368286132813 C 20.72053527832031 86.52276611328125 21.07656860351563 86.6702880859375 21.47123527526855 86.6702880859375 C 21.86633491516113 86.6702880859375 22.22296905517578 86.52248382568359 22.50258636474609 86.24286651611328 L 22.67193603515625 86.07351684570313 L 22.86028480529785 85.92556762695313 L 28.36100196838379 81.60508728027344 L 30.49186897277832 79.93141937255859 L 32.8365364074707 81.28945159912109 C 35.46760177612305 82.8133544921875 38.2828369140625 83.992919921875 41.20405197143555 84.79537200927734 L 43.84295272827148 85.52027130126953 L 44.12345123291016 88.24250030517578 L 44.83943557739258 95.19116973876953 L 44.86050033569336 95.39562225341797 L 44.86050033569336 95.60115051269531 C 44.86050033569336 96.40561676025391 45.51498413085938 97.06010437011719 46.3194694519043 97.06010437011719 L 54.50606918334961 97.06010437011719 M 50.64733505249023 30.1144847869873 C 61.88182067871094 30.1144847869873 71.02175140380859 39.25441741943359 71.02175140380859 50.4889030456543 C 71.02175140380859 61.72340393066406 61.88182067871094 70.86333465576172 50.64733505249023 70.86333465576172 C 39.41217041015625 70.86333465576172 30.27168464660645 61.72340393066406 30.27168464660645 50.4889030456543 C 30.27168464660645 39.25441741943359 39.41217041015625 30.1144847869873 50.64733505249023 30.1144847869873 M 54.50606918334961 101.0601043701172 L 46.3194694519043 101.0601043701172 C 43.30938720703125 101.0601043701172 40.86050033569336 98.61122131347656 40.86050033569336 95.60115051269531 L 40.1445198059082 88.65248870849609 C 36.89215087890625 87.75907135009766 33.75853729248047 86.44596862792969 30.83175277709961 84.75078582763672 L 25.33103561401367 89.07126617431641 C 24.29995155334473 90.10237121582031 22.92913627624512 90.6702880859375 21.47123527526855 90.6702880859375 C 20.01333618164063 90.6702880859375 18.64288520812988 90.1024169921875 17.61235237121582 89.07126617431641 L 11.82303524017334 83.28195190429688 C 10.79190254211426 82.25141906738281 10.22403526306152 80.88098907470703 10.22403526306152 79.42308807373047 C 10.22403526306152 77.96517181396484 10.79190254211426 76.59438323974609 11.82303524017334 75.56327056884766 L 16.26633644104004 70.09816741943359 C 14.59488582611084 67.174072265625 13.304518699646 64.04606628417969 12.43095207214355 60.80258560180664 L 5.457735538482666 59.96501922607422 C 2.448402166366577 59.96501922607422 2.18505851989903e-06 57.51613616943359 2.18505851989903e-06 54.50606918334961 L 2.18505851989903e-06 46.3194694519043 C 2.18505851989903e-06 43.30938720703125 2.448318958282471 40.86050033569336 5.457735538482666 40.86050033569336 L 12.44076919555664 40.14083480834961 C 13.3799524307251 36.6628532409668 14.79595184326172 33.32637023925781 16.64828491210938 30.22505187988281 L 12.4334020614624 24.66171836853027 C 11.42070198059082 23.61335182189941 10.8769359588623 22.23310279846191 10.902419090271 20.77535247802734 C 10.92788505554199 19.31753540039063 11.51958560943604 17.95695304870605 12.56850242614746 16.94426918029785 L 18.45728492736816 11.25686931610107 C 19.48055267333984 10.26896858215332 20.82725143432617 9.724902153015137 22.24931907653809 9.724902153015137 C 23.74373626708984 9.724902153015137 25.13826942443848 10.31651878356934 26.17596817016602 11.3907356262207 L 31.48018646240234 15.85983562469482 C 34.25576782226563 14.32005214691162 37.21476745605469 13.11895179748535 40.27346801757813 12.28971862792969 L 41.09508514404297 5.457735538482666 C 41.09508514404297 2.448402166366577 43.54341888427734 2.18505851989903e-06 46.55280303955078 2.18505851989903e-06 L 54.74063491821289 2.18505851989903e-06 C 57.75003433227539 2.18505851989903e-06 60.19836807250977 2.448318958282471 60.19836807250977 5.457735538482666 L 60.89838409423828 12.25778579711914 C 64.21688842773438 13.1456356048584 67.40959930419922 14.46701908111572 70.38677215576172 16.18405151367188 L 75.72907257080078 11.98760223388672 C 76.75955200195313 10.95710182189941 78.13003540039063 10.38953590393066 79.58793640136719 10.38953590393066 C 81.04586791992188 10.38953590393066 82.41663360595703 10.95706844329834 83.44775390625 11.98760223388672 L 89.23708343505859 17.77691841125488 C 91.36545562744141 19.90530204772949 91.36545562744141 23.36843490600586 89.23708343505859 25.49683570861816 L 84.95832061767578 30.75928497314453 C 86.68340301513672 33.75421905517578 88.0068359375 36.96072006225586 88.8919677734375 40.28820037841797 L 95.60115051269531 41.09508514404297 C 98.61116790771484 41.09508514404297 101.0601043701172 43.54341888427734 101.0601043701172 46.55280303955078 L 101.0601043701172 54.74063491821289 C 101.0601043701172 57.75003433227539 98.61122131347656 60.19836807250977 95.60115051269531 60.19836807250977 L 88.83670043945313 60.89593505859375 C 87.87387084960938 64.43685150146484 86.41902160644531 67.82621765136719 84.51375579833984 70.96890258789063 L 88.62668609619141 76.39717102050781 C 89.639404296875 77.44610595703125 90.18316650390625 78.82673645019531 90.15769958496094 80.28459930419922 C 90.13221740722656 81.74251556396484 89.54051971435547 83.1031494140625 88.49160003662109 84.11585235595703 L 82.60158538818359 89.80322265625 C 81.57905578613281 90.79100036621094 80.23293304443359 91.33499908447266 78.81120300292969 91.33506774902344 C 77.31663513183594 91.33512115478516 75.92198181152344 90.74313354492188 74.88411712646484 89.66813659667969 L 69.61428833007813 85.228515625 C 66.82450103759766 86.75438690185547 63.85435104370117 87.93897247314453 60.7878532409668 88.74951934814453 L 59.96501922607422 95.60115051269531 C 59.96501922607422 98.61116790771484 57.51613616943359 101.0601043701172 54.50606918334961 101.0601043701172 Z M 50.64733505249023 34.11448669433594 C 41.6177864074707 34.11448669433594 34.27168655395508 41.46001815795898 34.27168655395508 50.4889030456543 C 34.27168655395508 59.51780319213867 41.6177864074707 66.86333465576172 50.64733505249023 66.86333465576172 C 59.67623519897461 66.86333465576172 67.02175140380859 59.51780319213867 67.02175140380859 50.4889030456543 C 67.02175140380859 41.46001815795898 59.67623519897461 34.11448669433594 50.64733505249023 34.11448669433594 Z" stroke="none" fill="#343434"/>
    </g>
  </g>
</svg>
