<svg id="EngrenageUPLEFT12" xmlns="http://www.w3.org/2000/svg" width="121.06" height="121.06" viewBox="0 0 121.06 121.06">
  <g id="Exclusion_2" data-name="Exclusion 2" transform="translate(0 0)" fill="#707070">
    <path d="M 65.29293823242188 119.0601043701172 L 55.48618698120117 119.0601043701172 C 52.98320388793945 119.0601043701172 50.94688415527344 117.0237884521484 50.94688415527344 114.5208206176758 L 50.94688415527344 114.4180526733398 L 50.93635177612305 114.3158187866211 L 50.07867050170898 105.9919891357422 L 49.93841934204102 104.6308670043945 L 48.61896896362305 104.2684173583984 C 44.88901901245117 103.2438354492188 41.29468536376953 101.7379150390625 37.93581771850586 99.79246520996094 L 36.76346969604492 99.11344909667969 L 35.69803619384766 99.95028686523438 L 29.10871887207031 105.1258010864258 L 29.01455307006836 105.1997680664063 L 28.92988586425781 105.2844543457031 C 28.07243537902832 106.1418991088867 26.93263626098633 106.6141204833984 25.72043609619141 106.6141204833984 C 24.50845146179199 106.6141204833984 23.36918640136719 106.1420516967773 22.51250267028809 105.2848510742188 L 15.57705211639404 98.34940338134766 C 14.71945190429688 97.49231719970703 14.24738597869873 96.35305023193359 14.24738597869873 95.14106750488281 C 14.24738597869873 93.92885589599609 14.71960258483887 92.78905487060547 15.57703590393066 91.93161773681641 L 15.6497688293457 91.85890197753906 L 15.7146520614624 91.77908325195313 L 21.03730201721191 85.23243713378906 L 21.90225219726563 84.16858673095703 L 21.22183609008789 82.97823333740234 C 19.30483627319336 79.62456512451172 17.8246021270752 76.03708648681641 16.82225227355957 72.31543731689453 L 16.47091865539551 71.01093292236328 L 15.12958526611328 70.84981536865234 L 6.776335716247559 69.84648895263672 L 6.657502174377441 69.83222198486328 L 6.537818908691406 69.83222198486328 C 4.035652160644531 69.83222198486328 2.000002145767212 67.7958984375 2.000002145767212 65.29293823242188 L 2.000002145767212 55.48618698120117 C 2.000002145767212 52.98320388793945 4.035652160644531 50.94688415527344 6.537818908691406 50.94688415527344 L 6.640602111816406 50.94688415527344 L 6.742852210998535 50.93635177612305 L 15.10786914825439 50.07425308227539 L 16.47530174255371 49.93331909179688 L 16.83368492126465 48.60617065429688 C 17.91070175170898 44.6176872253418 19.53453636169434 40.79093551635742 21.66006851196289 37.23221969604492 L 22.35176849365234 36.07411956787109 L 21.53716850280762 34.99892044067383 L 16.48815155029297 28.33456802368164 L 16.41575241088867 28.2390022277832 L 16.33245277404785 28.15276908874512 C 15.49053573608398 27.28121948242188 15.03853511810303 26.13375282287598 15.05971908569336 24.92178535461426 C 15.080885887146 23.70966911315918 15.57285213470459 22.57841873168945 16.44498634338379 21.73641967773438 L 23.49943542480469 14.92323589324951 C 24.35011863708496 14.10193538665771 25.46998596191406 13.64948558807373 26.65250205993652 13.64948558807373 C 27.89535140991211 13.64948558807373 29.05498504638672 14.1413688659668 29.91780281066895 15.03455257415771 L 29.98910140991211 15.10835266113281 L 30.06756973266602 15.17446899414063 L 36.42150115966797 20.52801895141602 L 37.47536849975586 21.41595268249512 L 38.68040084838867 20.74743461608887 C 41.8635368347168 18.98158645629883 45.25715255737305 17.60373497009277 48.76700210571289 16.65218544006348 L 50.06836700439453 16.29936790466309 L 50.2293701171875 14.96066856384277 L 51.21358489990234 6.776618957519531 L 51.22788619995117 6.657652378082275 L 51.22788619995117 6.537818908691406 C 51.22788619995117 4.035652160644531 53.26353454589844 2.000002145767212 55.76570129394531 2.000002145767212 L 65.57392120361328 2.000002145767212 C 68.07608795166016 2.000002145767212 70.11173248291016 4.035652160644531 70.11173248291016 6.537818908691406 L 70.11173248291016 6.640485286712646 L 70.12225341796875 6.742619037628174 L 70.9608154296875 14.88843536376953 L 71.10195159912109 16.25945281982422 L 72.43338775634766 16.61568641662598 C 76.23915100097656 17.63390159606934 79.90101623535156 19.14918518066406 83.31728363037109 21.11943626403809 L 84.48858642578125 21.79496955871582 L 85.55191802978516 20.95970153808594 L 91.95146942138672 15.93275260925293 L 92.04560089111328 15.85880184173584 L 92.1302490234375 15.77416896820068 C 92.9869384765625 14.91745185852051 94.12633514404297 14.44563579559326 95.33855438232422 14.44563579559326 C 96.55100250244141 14.44563579559326 97.69094848632813 14.9176025390625 98.54841613769531 15.77456855773926 L 105.4830703735352 22.70921897888184 C 107.2528533935547 24.47901916503906 107.2528533935547 27.35868644714355 105.4830703735352 29.12848472595215 L 105.4103546142578 29.20120239257813 L 105.3454818725586 29.28098487854004 L 100.2199554443359 35.58490371704102 L 99.35190582275391 36.65253448486328 L 100.038688659668 37.84486770629883 C 102.0173034667969 41.2799186706543 103.5354843139648 44.95750045776367 104.5510864257813 48.77545166015625 L 104.8994827270508 50.08518600463867 L 106.2450485229492 50.24700164794922 L 114.2820053100586 51.21356964111328 L 114.4009857177734 51.22788619995117 L 114.5208206176758 51.22788619995117 C 117.0237884521484 51.22788619995117 119.0601043701172 53.26353454589844 119.0601043701172 55.76570129394531 L 119.0601043701172 65.57392120361328 C 119.0601043701172 68.07608795166016 117.0237884521484 70.11173248291016 114.5208206176758 70.11173248291016 L 114.41796875 70.11173248291016 L 114.3156661987305 70.12228393554688 L 106.212516784668 70.95790100097656 L 104.8477325439453 71.0986328125 L 104.4877548217773 72.42256927490234 C 103.3835372924805 76.4833984375 101.7151718139648 80.370849609375 99.52895355224609 83.97695159912109 L 98.82461547851563 85.13875579833984 L 99.64510345458984 86.22163391113281 L 104.5719985961914 92.72416687011719 L 104.6442184448242 92.81946563720703 L 104.7272720336914 92.90550231933594 C 105.5694351196289 93.77777099609375 106.0215682983398 94.92581939697266 106.0003890991211 96.13815307617188 C 105.9792175292969 97.35038757324219 105.4872512817383 98.48168182373047 104.615119934082 99.32371520996094 L 97.55934906005859 106.13671875 C 96.70899963378906 106.9581680297852 95.58993530273438 107.4104156494141 94.40800476074219 107.4104690551758 C 93.16525268554688 107.4104995727539 92.00559997558594 106.9182891845703 91.1427001953125 106.0245056152344 L 91.07118225097656 105.9504318237305 L 90.99243927001953 105.8841018676758 L 84.6796875 100.5658721923828 L 83.63259887695313 99.68373870849609 L 82.43138885498047 100.3407363891602 C 79.23190307617188 102.0906677246094 75.82550048828125 103.4495544433594 72.30680084228516 104.3796157836914 L 70.99407196044922 104.7266159057617 L 70.83216857910156 106.0747528076172 L 69.84648895263672 114.2823486328125 L 69.83222198486328 114.4011535644531 L 69.83222198486328 114.5208206176758 C 69.83222198486328 117.0237884521484 67.7958984375 119.0601043701172 65.29293823242188 119.0601043701172 Z M 60.67055130004883 38.86581802368164 C 48.751220703125 38.86581802368164 39.05413436889648 48.56223678588867 39.05413436889648 60.48075103759766 C 39.05413436889648 72.39928436279297 48.751220703125 82.09571838378906 60.67055130004883 82.09571838378906 C 72.58906555175781 82.09571838378906 82.28548431396484 72.39928436279297 82.28548431396484 60.48075103759766 C 82.28548431396484 48.56223678588867 72.58906555175781 38.86581802368164 60.67055130004883 38.86581802368164 Z" stroke="none"/>
    <path d="M 65.29293060302734 117.0601119995117 C 66.693115234375 117.0601119995117 67.83222961425781 115.9209899902344 67.83222961425781 114.5208129882813 L 67.83222961425781 114.281494140625 L 67.86077117919922 114.0438690185547 L 68.846435546875 105.8362884521484 L 69.17023468017578 103.1400299072266 L 71.79569244384766 102.4460525512695 C 75.15835571289063 101.5572128295898 78.41381072998047 100.2585144042969 81.47163391113281 98.58602905273438 L 83.87406921386719 97.27203369140625 L 85.96826934814453 99.03629302978516 L 92.28102874755859 104.3545303344727 L 92.43851470947266 104.4872131347656 L 92.58153533935547 104.6353530883789 C 93.07112884521484 105.142448425293 93.70271301269531 105.4104919433594 94.40791320800781 105.4104690551758 C 95.07826995849609 105.4104309082031 95.68740844726563 105.1642684936523 96.17011260986328 104.6979751586914 L 103.2259521484375 97.88489532470703 C 103.7207946777344 97.40713500976563 103.9886932373047 96.79105377197266 104.0007095336914 96.10319519042969 C 104.0127334594727 95.41511535644531 103.7664337158203 94.78973388671875 103.2884521484375 94.29467010498047 L 103.1223297119141 94.12261199951172 L 102.9778900146484 93.93199157714844 L 98.05099487304688 87.42945098876953 L 96.41001129150391 85.263671875 L 97.81869506835938 82.94009399414063 C 99.90813446044922 79.49362945556641 101.5026092529297 75.77845001220703 102.5578308105469 71.89778900146484 L 103.2778091430664 69.24993133544922 L 106.0073547363281 68.96845245361328 L 114.1104888916016 68.13283538818359 L 114.3151092529297 68.11173248291016 L 114.5208129882813 68.11173248291016 C 115.9209899902344 68.11173248291016 117.0601119995117 66.97327423095703 117.0601119995117 65.57391357421875 L 117.0601119995117 55.76571273803711 C 117.0601119995117 54.36635208129883 115.9209899902344 53.22787094116211 114.5208129882813 53.22787094116211 L 114.2811508178711 53.22787094116211 L 114.043212890625 53.19925308227539 L 106.0062713623047 52.23271179199219 L 103.3150939941406 51.90907287597656 L 102.618293762207 49.28959274291992 C 101.6477508544922 45.64105224609375 100.1967697143555 42.1263313293457 98.30563354492188 38.84309387207031 L 96.93205261230469 36.45843124389648 L 98.66817474365234 34.32317352294922 L 103.7936935424805 28.01927185058594 L 103.9234313964844 27.85971260070801 L 104.0688552856445 27.71429252624512 C 105.0588531494141 26.72429275512695 105.0588531494141 25.11343193054199 104.0688552856445 24.12343215942383 L 97.13459014892578 17.18917274475098 C 96.64789581298828 16.7027530670166 96.02683258056641 16.44563293457031 95.33855438232422 16.44563293457031 C 94.65074920654297 16.44563293457031 94.03034973144531 16.70247268676758 93.54447174072266 17.1883716583252 L 93.37517547607422 17.3576717376709 L 93.18691253662109 17.50555229187012 L 86.78736877441406 22.53249168395996 L 84.66071319580078 24.20301246643066 L 82.31809234619141 22.85195159912109 C 79.05313110351563 20.96895217895508 75.55353546142578 19.52081298828125 71.91648864746094 18.54773139953613 L 69.25363159179688 17.83529281616211 L 68.97132873535156 15.09325218200684 L 68.13275146484375 6.947452068328857 L 68.11173248291016 6.743172168731689 L 68.11173248291016 6.537832260131836 C 68.11173248291016 5.138472080230713 66.97327423095703 4.000012397766113 65.57391357421875 4.000012397766113 L 55.76571273803711 4.000012397766113 C 54.36635208129883 4.000012397766113 53.22787094116211 5.138472080230713 53.22787094116211 6.537832260131836 L 53.22787094116211 6.777492046356201 L 53.19925308227539 7.015432357788086 L 52.21505355834961 15.19947242736816 L 51.89307403564453 17.87689208984375 L 49.29031372070313 18.58251190185547 C 45.93607330322266 19.49187278747559 42.69281387329102 20.80867195129395 39.65063095092773 22.49635124206543 L 37.24055099487305 23.83335304260254 L 35.13285064697266 22.05749130249023 L 28.77891159057617 16.70395278930664 L 28.62195205688477 16.57171249389648 L 28.4793529510498 16.42411231994629 C 27.98981285095215 15.91733264923096 27.35809135437012 15.6494722366333 26.65251159667969 15.6494722366333 C 25.98141288757324 15.6494722366333 25.37135124206543 15.89597225189209 24.88883209228516 16.36183166503906 L 17.83413124084473 23.17525291442871 C 17.33931159973145 23.6529712677002 17.07143211364746 24.26897239685059 17.05941200256348 24.95673179626465 C 17.04741287231445 25.64425277709961 17.29343223571777 26.2689323425293 17.77091217041016 26.76319313049316 L 17.9375114440918 26.93567276000977 L 18.08233261108398 27.12681198120117 L 23.13133239746094 33.79117202758789 L 24.76051139831543 35.94159317016602 L 23.37711143493652 38.25777053833008 C 21.34565162658691 41.65897369384766 19.79375267028809 45.31611251831055 18.76451301574707 49.12757110595703 L 18.04777145385742 51.78185272216797 L 15.31289196014404 52.06371307373047 L 6.947892189025879 52.92581176757813 L 6.743412017822266 52.94689178466797 L 6.537832260131836 52.94689178466797 C 5.138472080230713 52.94689178466797 4.000012397766113 54.08601379394531 4.000012397766113 55.48617172241211 L 4.000012397766113 65.29293060302734 C 4.000012397766113 66.693115234375 5.138472080230713 67.83222961425781 6.537832260131836 67.83222961425781 L 6.777192115783691 67.83222961425781 L 7.014852046966553 67.86077117919922 L 15.36809253692627 68.86408996582031 L 18.05077171325684 69.18630981445313 L 18.75343132019043 71.79531097412109 C 19.71135139465332 75.3519287109375 21.12603187561035 78.78047180175781 22.95819282531738 81.98571014404297 L 24.31903266906738 84.36640930175781 L 22.58913230895996 86.49413299560547 L 17.26647186279297 93.040771484375 L 17.13669204711914 93.20037078857422 L 16.99123191833496 93.34585571289063 C 16.50461196899414 93.83245086669922 16.24739265441895 94.45323181152344 16.24739265441895 95.14107513427734 C 16.24739265441895 95.82843017578125 16.50433158874512 96.44853210449219 16.99125289916992 96.93519592285156 L 23.92715263366699 103.8710708618164 C 24.41297149658203 104.3571929931641 25.03307151794434 104.6141357421875 25.72043228149414 104.6141357421875 C 26.40823173522949 104.6141357421875 27.02899169921875 104.3569107055664 27.51561164855957 103.8702697753906 L 27.68497276306152 103.7009124755859 L 27.87333297729492 103.5529556274414 L 34.46265029907227 98.37743377685547 L 36.59353256225586 96.70377349853516 L 38.93821334838867 98.06181335449219 C 42.14867401123047 99.92129516601563 45.58399200439453 101.3606491088867 49.14875030517578 102.3398742675781 L 51.78765106201172 103.0647735595703 L 52.06815338134766 105.7870101928711 L 52.92583084106445 114.1108322143555 L 52.94689178466797 114.3152694702148 L 52.94689178466797 114.5208129882813 C 52.94689178466797 115.9209899902344 54.08601379394531 117.0601119995117 55.48617172241211 117.0601119995117 L 65.29293060302734 117.0601119995117 M 60.67055130004883 36.86581039428711 C 73.69187164306641 36.86581039428711 84.28549194335938 47.45943069458008 84.28549194335938 60.48075103759766 C 84.28549194335938 73.50209045410156 73.69187164306641 84.09573364257813 60.67055130004883 84.09573364257813 C 47.64841079711914 84.09573364257813 37.05413055419922 73.50209045410156 37.05413055419922 60.48075103759766 C 37.05413055419922 47.45943069458008 47.64841079711914 36.86581039428711 60.67055130004883 36.86581039428711 M 65.29293060302734 121.0601119995117 L 55.48617172241211 121.0601119995117 C 51.88041305541992 121.0601119995117 48.94689178466797 118.1265716552734 48.94689178466797 114.5208129882813 L 48.08921051025391 106.1969909667969 C 44.19319152832031 105.1267700195313 40.43943405151367 103.5538101196289 36.93341064453125 101.5231323242188 L 30.34409141540527 106.6986541748047 C 29.10897254943848 107.9338150024414 27.46685218811035 108.6141357421875 25.72043228149414 108.6141357421875 C 23.97401237487793 108.6141357421875 22.33235168457031 107.9338684082031 21.09787178039551 106.6986541748047 L 14.16283226013184 99.76361083984375 C 12.92763233184814 98.52915191650391 12.24739265441895 96.88748931884766 12.24739265441895 95.14107513427734 C 12.24739265441895 93.39463043212891 12.92763233184814 91.75257110595703 14.16283226013184 90.51739501953125 L 19.48549270629883 83.97074890136719 C 17.48323249816895 80.46794891357422 15.93751239776611 76.72090911865234 14.89107227325439 72.83554840087891 L 6.537832260131836 71.83222961425781 C 2.932952165603638 71.83222961425781 1.218505894939881e-05 68.89871215820313 1.218505894939881e-05 65.29293060302734 L 1.218505894939881e-05 55.48617172241211 C 1.218505894939881e-05 51.88041305541992 2.932852268218994 48.94689178466797 6.537832260131836 48.94689178466797 L 14.90283203125 48.08479309082031 C 16.02787208557129 43.91851043701172 17.72409248352051 39.92173385620117 19.94301223754883 36.20667266845703 L 14.89401245117188 29.54231262207031 C 13.68087196350098 28.28649139404297 13.02951240539551 26.63309288024902 13.06003189086914 24.88683128356934 C 13.09053230285645 23.14051246643066 13.79933261871338 21.51067161560059 15.05583190917969 20.29757308959961 L 22.11003303527832 13.48463249206543 C 23.33579254150391 12.30121231079102 24.94901275634766 11.6494722366333 26.65251159667969 11.6494722366333 C 28.44267272949219 11.6494722366333 30.11317253112793 12.35817241668701 31.35625267028809 13.64499187469482 L 37.7101936340332 18.99853134155273 C 41.03507232666016 17.15403175354004 44.57965087890625 15.71521186828613 48.24367141723633 14.72187232971191 L 49.22787094116211 6.537832260131836 C 49.22787094116211 2.932952165603638 52.16075134277344 1.218505894939881e-05 55.76571273803711 1.218505894939881e-05 L 65.57391357421875 1.218505894939881e-05 C 69.17889404296875 1.218505894939881e-05 72.11173248291016 2.932852268218994 72.11173248291016 6.537832260131836 L 72.95030975341797 14.68363189697266 C 76.92555236816406 15.7471923828125 80.75009155273438 17.3300724029541 84.31647491455078 19.38691139221191 L 90.71601104736328 14.35997200012207 C 91.95043182373047 13.12553215026855 93.59210968017578 12.445631980896 95.33855438232422 12.445631980896 C 97.08499145507813 12.445631980896 98.72707366943359 13.12549209594727 99.96223449707031 14.35997200012207 L 106.8972702026367 21.29501152038574 C 109.4468688964844 23.84461212158203 109.4468688964844 27.99311256408691 106.8972702026367 30.54271125793457 L 101.7717514038086 36.84661102294922 C 103.8382339477539 40.43425369262695 105.4235687255859 44.27533340454102 106.4838714599609 48.26133346557617 L 114.5208129882813 49.22787094116211 C 118.1265106201172 49.22787094116211 121.0601119995117 52.16075134277344 121.0601119995117 55.76571273803711 L 121.0601119995117 65.57391357421875 C 121.0601119995117 69.17889404296875 118.1265716552734 72.11173248291016 114.5208129882813 72.11173248291016 L 106.4176712036133 72.94734954833984 C 105.264289855957 77.18903350830078 103.5215148925781 81.24916839599609 101.2391891479492 85.0137939453125 L 106.1660919189453 91.51633453369141 C 107.3792343139648 92.77283477783203 108.0306091308594 94.42671203613281 108.0000915527344 96.173095703125 C 107.9695892333984 97.91953277587891 107.2607727050781 99.54943084716797 106.0042724609375 100.7625503540039 L 98.9486083984375 107.5754699707031 C 97.72370910644531 108.7587356567383 96.11119079589844 109.4103927612305 94.40808868408203 109.4104690551758 C 92.61777496337891 109.410514831543 90.94711303710938 108.7013931274414 89.70384979248047 107.4136505126953 L 83.39109039306641 102.0954132080078 C 80.04920959472656 103.9232559204102 76.49124908447266 105.3422698974609 72.81789398193359 106.313232421875 L 71.83222961425781 114.5208129882813 C 71.83222961425781 118.1265106201172 68.89871215820313 121.0601119995117 65.29293060302734 121.0601119995117 Z M 60.67055130004883 40.86581039428711 C 49.85403060913086 40.86581039428711 41.05413055419922 49.66503143310547 41.05413055419922 60.48075103759766 C 41.05413055419922 71.29649353027344 49.85403060913086 80.09573364257813 60.67055130004883 80.09573364257813 C 71.48627471923828 80.09573364257813 80.28549194335938 71.29649353027344 80.28549194335938 60.48075103759766 C 80.28549194335938 49.66503143310547 71.48627471923828 40.86581039428711 60.67055130004883 40.86581039428711 Z" stroke="none" fill="#343434"/>
  </g>
</svg>
