<svg id="EngrenageUP11" xmlns="http://www.w3.org/2000/svg" width="87.06" height="87.06" viewBox="0 0 87.06 87.06">
  <g id="Exclusion_2" data-name="Exclusion 2" transform="translate(0 0)" fill="#707070">
    <path d="M 46.95570373535156 85.05971527099609 L 39.90240097045898 85.05971527099609 C 38.41223907470703 85.05971527099609 37.19990158081055 83.84737396240234 37.19990158081055 82.35721588134766 L 37.19990158081055 82.25447845458984 L 37.18937683105469 82.15229034423828 L 36.5728759765625 76.16728973388672 L 36.43268966674805 74.80638122558594 L 35.11352920532227 74.44375610351563 C 32.47330093383789 73.71796417236328 29.93327713012695 72.65340423583984 27.56402778625488 71.27962493896484 L 26.39142799377441 70.59971618652344 L 25.32545280456543 71.43695068359375 L 20.58605194091797 75.15933990478516 L 20.49166488647461 75.23346710205078 L 20.40682792663574 75.31835174560547 C 19.89665222167969 75.82878112792969 19.21832847595215 76.10989379882813 18.49680328369141 76.10989379882813 C 17.77527809143066 76.10989379882813 17.09695243835449 75.82878112792969 16.58677864074707 75.31835174560547 L 11.59849071502686 70.33096313476563 C 10.54522800445557 69.27770233154297 10.54539012908936 67.56315612792969 11.598952293396 66.50907897949219 L 11.67141532897949 66.43659210205078 L 11.73607730865479 66.35706329345703 L 15.56467819213867 61.64916610717773 L 16.42984008789063 60.5853157043457 L 15.7493782043457 59.39482879638672 C 14.39551544189453 57.02620315551758 13.349440574646 54.49069213867188 12.64021492004395 51.85872650146484 L 12.28879070281982 50.55453872680664 L 10.94772815704346 50.39339065551758 L 4.941140174865723 49.67158889770508 L 4.822252750396729 49.65730285644531 L 4.702515125274658 49.65730285644531 C 3.212352752685547 49.65730285644531 2.000015258789063 48.44536590576172 2.000015258789063 46.95570373535156 L 2.000015258789063 39.90240097045898 C 2.000015258789063 38.41223907470703 3.212352752685547 37.19990158081055 4.702515125274658 37.19990158081055 L 4.80534029006958 37.19990158081055 L 4.907627582550049 37.18935394287109 L 10.92231559753418 36.56924057006836 L 12.28920269012451 36.42831420898438 L 12.64787769317627 35.10182952880859 C 13.4105281829834 32.2812385559082 14.55831527709961 29.57709121704102 16.05935287475586 27.06451606750488 L 16.75122833251953 25.9063777923584 L 15.93656539916992 24.83105278015137 L 12.3050651550293 20.03765296936035 L 12.23272800445557 19.94217681884766 L 12.14951515197754 19.85601615905762 C 11.64825248718262 19.33699035644531 11.37910270690918 18.65372848510742 11.39165306091309 17.93206596374512 C 11.40420246124268 17.21046447753906 11.69697761535645 16.5371150970459 12.21604061126709 16.03605270385742 L 17.2896785736084 11.13611507415771 C 17.79621505737305 10.6469030380249 18.46275329589844 10.37749004364014 19.16649055480957 10.37749004364014 C 19.90649032592773 10.37749004364014 20.59690284729004 10.67052745819092 21.11055183410645 11.20264053344727 L 21.18205261230469 11.27671527862549 L 21.26078987121582 11.34305286407471 L 25.82919120788574 15.1923656463623 L 26.88272857666016 16.08006477355957 L 28.08761596679688 15.41210269927979 C 30.34197807312012 14.16234016418457 32.74086380004883 13.18865299224854 35.2176513671875 12.51811504364014 L 36.51972961425781 12.165602684021 L 36.68070220947266 10.82630252838135 L 37.38810348510742 4.941202640533447 L 37.40240097045898 4.822290420532227 L 37.40240097045898 4.702515125274658 C 37.40240097045898 3.212352752685547 38.61434173583984 2.000015258789063 40.10400390625 2.000015258789063 L 47.15730285644531 2.000015258789063 C 48.64746475219727 2.000015258789063 49.85980224609375 3.212352752685547 49.85980224609375 4.702515125274658 L 49.85980224609375 4.805190086364746 L 49.87031555175781 4.907327651977539 L 50.47331619262695 10.76452732086182 L 50.61447906494141 12.13574028015137 L 51.94614028930664 12.49182796478271 C 54.63224029541016 13.21010303497314 57.22007751464844 14.28095245361328 59.63777923583984 15.67462730407715 L 60.80891418457031 16.34972763061523 L 61.87197875976563 15.51473999023438 L 66.47369384765625 11.90035247802734 L 66.56806182861328 11.82624053955078 L 66.65289306640625 11.74136543273926 C 67.16305541992188 11.2309398651123 67.84137725830078 10.9498405456543 68.56290435791016 10.9498405456543 C 69.28443908691406 10.9498405456543 69.9627685546875 11.2309398651123 70.47293853759766 11.74136543273926 L 75.46122741699219 16.72874069213867 C 75.97007751464844 17.23760223388672 76.25038909912109 17.91621589660645 76.25038909912109 18.63945198059082 C 76.25038909912109 19.36268997192383 75.97007751464844 20.04130363464355 75.46109008789063 20.55030250549316 L 75.38844299316406 20.62295341491699 L 75.32360076904297 20.70267868041992 L 71.63719177246094 25.23597717285156 L 70.76877593994141 26.30390357971191 L 71.45607757568359 27.4964656829834 C 72.8529052734375 29.92015266418457 73.926025390625 32.51946640014648 74.64563751220703 35.22216415405273 L 74.99425506591797 36.53153991699219 L 76.33955383300781 36.69329071044922 L 82.11846160888672 37.38810348510742 L 82.23741149902344 37.40240097045898 L 82.35721588134766 37.40240097045898 C 83.84737396240234 37.40240097045898 85.05971527099609 38.61434173583984 85.05971527099609 40.10400390625 L 85.05971527099609 47.15730285644531 C 85.05971527099609 48.64746475219727 83.84737396240234 49.85980224609375 82.35721588134766 49.85980224609375 L 82.25447845458984 49.85980224609375 L 82.15227508544922 49.87032699584961 L 76.32476806640625 50.47062683105469 L 74.95961761474609 50.61125183105469 L 74.59970092773438 51.93558883666992 C 73.81981658935547 54.80529022216797 72.64102935791016 57.55257797241211 71.09609985351563 60.10112762451172 L 70.39193725585938 61.26275253295898 L 71.21216583251953 62.34555435180664 L 74.75457763671875 67.02194976806641 L 74.82694244384766 67.11747741699219 L 74.91020202636719 67.20368957519531 C 75.41146850585938 67.72271728515625 75.68061828613281 68.406005859375 75.66807556152344 69.12770080566406 C 75.65552520751953 69.8492431640625 75.36273956298828 70.52257537841797 74.84368133544922 71.02365112304688 L 69.77004241943359 75.92357635498047 C 69.26351165771484 76.41278076171875 68.59695434570313 76.68218994140625 67.89314270019531 76.68221282958984 C 67.15321350097656 76.68224334716797 66.46282958984375 76.38920593261719 65.94914245605469 75.85706329345703 L 65.87763977050781 75.78298950195313 L 65.79890441894531 75.71665191650391 L 61.25930404663086 71.89165496826172 L 60.21202850341797 71.00923919677734 L 59.01062774658203 71.66656494140625 C 56.74891662597656 72.90402984619141 54.34146499633789 73.8648681640625 51.85516357421875 74.52239227294922 L 50.54255294799805 74.86951446533203 L 50.38075256347656 76.21757507324219 L 49.67245101928711 82.11888122558594 L 49.658203125 82.23761749267578 L 49.658203125 82.35721588134766 C 49.658203125 83.84737396240234 48.44586563110352 85.05971527099609 46.95570373535156 85.05971527099609 Z M 43.6310920715332 27.38860321044922 C 34.7498893737793 27.38860321044922 27.52450370788574 34.61359024047852 27.52450370788574 43.49430465698242 C 27.52450370788574 52.37551498413086 34.7498893737793 59.60090255737305 43.6310920715332 59.60090255737305 C 52.51181411743164 59.60090255737305 59.73680114746094 52.37551498413086 59.73680114746094 43.49430465698242 C 59.73680114746094 34.61359024047852 52.51181411743164 27.38860321044922 43.6310920715332 27.38860321044922 Z" stroke="none"/>
    <path d="M 46.95571136474609 83.05970764160156 C 47.34306716918945 83.05970764160156 47.658203125 82.74457550048828 47.658203125 82.35721588134766 L 47.658203125 82.11803436279297 L 47.68671035766602 81.88053894042969 L 48.39500427246094 75.97923278808594 L 48.71860504150391 73.28309631347656 L 51.34383392333984 72.58885192871094 C 53.67406463623047 71.97261810302734 55.93055725097656 71.07200622558594 58.05063629150391 69.91201782226563 L 60.45344924926758 68.59734344482422 L 62.54800415039063 70.36219024658203 L 67.08760070800781 74.18718719482422 L 67.24506378173828 74.31986236572266 L 67.38808441162109 74.46800231933594 C 67.52915954589844 74.61415863037109 67.68962097167969 74.68222045898438 67.89309692382813 74.68222045898438 C 68.08110809326172 74.68222045898438 68.24512481689453 74.61586761474609 68.38068389892578 74.48495483398438 L 73.45463562011719 69.58470916748047 C 73.59506225585938 69.44914245605469 73.66497039794922 69.28826904296875 73.66837310791016 69.09295654296875 C 73.67177581787109 68.897216796875 73.60740661621094 68.73369598388672 73.47157287597656 68.59304809570313 L 73.30506896972656 68.42063140869141 L 73.16033935546875 68.22959136962891 L 69.61792755126953 63.55318832397461 L 67.97747802734375 61.38760375976563 L 69.38581848144531 59.06435775756836 C 70.83392333984375 56.67549514770508 71.93878936767578 54.1005744934082 72.66969299316406 51.41107940673828 L 73.3895263671875 48.76240539550781 L 76.11981964111328 48.48115921020508 L 81.94734191894531 47.88086700439453 L 82.15174102783203 47.85980224609375 L 82.35721588134766 47.85980224609375 C 82.74457550048828 47.85980224609375 83.05970764160156 47.5446662902832 83.05970764160156 47.15729522705078 L 83.05970764160156 40.10400390625 C 83.05970764160156 39.71714401245117 82.74457550048828 39.40240478515625 82.35721588134766 39.40240478515625 L 82.11762237548828 39.40240478515625 L 81.87973022460938 39.37380218505859 L 76.10080718994141 38.67898941040039 L 73.41020202636719 38.3554801940918 L 72.71295928955078 35.73674392700195 C 72.0384521484375 33.20340347290039 71.03256988525391 30.7669734954834 69.7232666015625 28.49512672424316 L 68.34866333007813 26.10998916625977 L 70.08549499511719 23.97415733337402 L 73.77189636230469 19.44084930419922 L 73.90155792236328 19.2813892364502 L 74.04688262939453 19.13606452941895 C 74.18382263183594 18.99912643432617 74.25038909912109 18.83669662475586 74.25038909912109 18.63946533203125 C 74.25038909912109 18.44221878051758 74.18382263183594 18.27975845336914 74.04714202880859 18.14307975769043 L 69.05840301513672 13.15524959564209 C 68.92023468017578 13.01703453063965 68.75815582275391 12.9498348236084 68.56291198730469 12.9498348236084 C 68.36765289306641 12.9498348236084 68.20558929443359 13.01701927185059 68.06745147705078 13.15523433685303 L 67.89780426025391 13.32495784759521 L 67.70906829833984 13.47320365905762 L 63.10735702514648 17.08758926391602 L 60.98122024536133 18.75754165649414 L 58.63895797729492 17.40735816955566 C 56.37251281738281 16.10086441040039 53.94689559936523 15.09709644317627 51.42949676513672 14.42394256591797 L 48.76617431640625 13.71175765991211 L 48.48383331298828 10.96934223175049 L 47.88083267211914 5.112142086029053 L 47.85980224609375 4.907865047454834 L 47.85980224609375 4.702511310577393 C 47.85980224609375 4.315157413482666 47.5446662902832 4.000019073486328 47.15729522705078 4.000019073486328 L 40.10400390625 4.000019073486328 C 39.71714401245117 4.000019073486328 39.40240478515625 4.315157413482666 39.40240478515625 4.702511310577393 L 39.40240478515625 4.942049980163574 L 39.37381744384766 5.179880619049072 L 38.66641998291016 11.0649881362915 L 38.34443283081055 13.74360370635986 L 35.74028015136719 14.44863414764404 C 33.41917419433594 15.07701873779297 31.17069625854492 15.98969650268555 29.05729675292969 17.16129684448242 L 26.64752769470215 18.4972038269043 L 24.54048156738281 16.7218189239502 L 19.97208023071289 12.8725118637085 L 19.81458854675293 12.73981952667236 L 19.67157363891602 12.59165000915527 C 19.53054237365723 12.44554233551025 19.37005043029785 12.37749576568604 19.16649627685547 12.37749576568604 C 18.97857284545898 12.37749576568604 18.81458854675293 12.44384956359863 18.67905044555664 12.57474231719971 L 13.6050500869751 17.47503471374512 C 13.46465015411377 17.61055755615234 13.39474201202393 17.77141952514648 13.391357421875 17.96686553955078 C 13.38794231414795 18.16252708435059 13.45231151580811 18.32598876953125 13.58811187744141 18.46660423278809 L 13.75455760955811 18.63894271850586 L 13.89923477172852 18.82991218566895 L 17.53072738647461 23.62331199645996 L 19.16006469726563 25.77395820617676 L 17.77629661560059 28.09023475646973 C 16.36924934387207 30.44551086425781 15.29335784912109 32.98018646240234 14.57854175567627 35.62385177612305 L 13.86120414733887 38.27685165405273 L 11.12741947174072 38.55869674682617 L 5.11272668838501 39.17880249023438 L 4.908157348632813 39.19989776611328 L 4.702511310577393 39.19989776611328 C 4.315157413482666 39.19989776611328 4.000019073486328 39.51503372192383 4.000019073486328 39.90240478515625 L 4.000019073486328 46.95571136474609 C 4.000019073486328 47.34257125854492 4.315157413482666 47.65729522705078 4.702511310577393 47.65729522705078 L 4.941988468170166 47.65729522705078 L 5.179742336273193 47.68586349487305 L 11.18634223937988 48.40766525268555 L 13.86848068237305 48.72997283935547 L 14.57134246826172 51.33835601806641 C 15.23612689971924 53.80540466308594 16.2166805267334 56.18206405639648 17.48574256896973 58.40232849121094 L 18.84666442871094 60.78330993652344 L 17.11635780334473 62.91101837158203 L 13.28775787353516 67.61892700195313 L 13.15841865539551 67.7779541015625 L 13.01351165771484 67.92294311523438 C 12.74401950836182 68.19257354736328 12.74369621276855 68.64774322509766 13.0125732421875 68.91661834716797 L 18.0013427734375 73.90447998046875 C 18.13949584960938 74.04270935058594 18.30155754089355 74.10989379882813 18.49680328369141 74.10989379882813 C 18.69204902648926 74.10989379882813 18.85411071777344 74.04270935058594 18.99226570129395 73.90447998046875 L 19.16194152832031 73.73472595214844 L 19.35071182250977 73.58646392822266 L 24.09011077880859 69.86408233642578 L 26.22204971313477 68.18962097167969 L 28.5672492980957 69.54944610595703 C 30.78806495666504 70.837158203125 33.16891098022461 71.83500671386719 35.64365005493164 72.51529693603516 L 38.28199005126953 73.24055480957031 L 38.56235885620117 75.96235656738281 L 39.17884826660156 81.94735717773438 L 39.19989776611328 82.15175628662109 L 39.19989776611328 82.35721588134766 C 39.19989776611328 82.74457550048828 39.51503372192383 83.05970764160156 39.90240478515625 83.05970764160156 L 46.95571136474609 83.05970764160156 M 43.63109588623047 25.38860321044922 C 53.61462020874023 25.38860321044922 61.7368049621582 33.51078796386719 61.7368049621582 43.49429702758789 C 61.7368049621582 53.47830963134766 53.61462020874023 61.60089492797852 43.63109588623047 61.60089492797852 C 33.64707946777344 61.60089492797852 25.52449607849121 53.47830963134766 25.52449607849121 43.49429702758789 C 25.52449607849121 33.51078796386719 33.64707946777344 25.38860321044922 43.63109588623047 25.38860321044922 M 46.95571136474609 87.05970764160156 L 39.90240478515625 87.05970764160156 C 37.30943298339844 87.05970764160156 35.19989776611328 84.95018768310547 35.19989776611328 82.35721588134766 L 34.58340454101563 76.37222290039063 C 31.77721977233887 75.60082244873047 29.07778739929199 74.46925354003906 26.56080436706543 73.00981903076172 L 21.82140350341797 76.73220062255859 C 20.9334659576416 77.62059020996094 19.75274276733398 78.10989379882813 18.49680328369141 78.10989379882813 C 17.24086570739746 78.10989379882813 16.06017303466797 77.62062072753906 15.17220401763916 76.73220062255859 L 10.18440341949463 71.74529266357422 C 8.351404190063477 69.91229248046875 8.351404190063477 66.92909240722656 10.18440341949463 65.09520721435547 L 14.0130033493042 60.38729476928711 C 12.57414245605469 57.86997222900391 11.46257305145264 55.17523574829102 10.70911121368408 52.37909698486328 L 4.702511310577393 51.65729522705078 C 2.109603643417358 51.65729522705078 1.911104664031882e-05 49.54817199707031 1.911104664031882e-05 46.95571136474609 L 1.911104664031882e-05 39.90240478515625 C 1.911104664031882e-05 37.30943298339844 2.10954213142395 35.19989776611328 4.702511310577393 35.19989776611328 L 10.71720409393311 34.57978820800781 C 11.52780342102051 31.58189582824707 12.74778842926025 28.70803451538086 14.34240341186523 26.03880310058594 L 10.71091175079346 21.24540328979492 C 9.838541984558105 20.34214210510254 9.370111465454102 19.1530647277832 9.39195728302002 17.89729690551758 C 9.413788795471191 16.64134216308594 9.923449516296387 15.46931171417236 10.82700347900391 14.59711170196533 L 15.90031147003174 9.69749641418457 C 16.78168106079102 8.846281051635742 17.94161987304688 8.377495765686035 19.16649627685547 8.377495765686035 C 20.4540958404541 8.377495765686035 21.65554237365723 8.887511253356934 22.54949569702148 9.813603401184082 L 27.11789512634277 13.6629114151001 C 29.5137882232666 12.33469581604004 32.0634651184082 11.30004978179932 34.69500350952148 10.58761882781982 L 35.40240478515625 4.702511310577393 C 35.40240478515625 2.109603643417358 37.51154327392578 1.911104664031882e-05 40.10400390625 1.911104664031882e-05 L 47.15729522705078 1.911104664031882e-05 C 49.75026702880859 1.911104664031882e-05 51.85980224609375 2.10954213142395 51.85980224609375 4.702511310577393 L 52.46280288696289 10.55971145629883 C 55.31806564331055 11.32321929931641 58.06837463378906 12.46144962310791 60.63660430908203 13.94189643859863 L 65.23831176757813 10.32751178741455 C 66.12623596191406 9.439142227172852 67.30696105957031 8.949834823608398 68.56291198730469 8.949834823608398 C 69.81883239746094 8.949834823608398 70.99954223632813 9.439111709594727 71.88751220703125 10.32751178741455 L 76.87531280517578 15.31440353393555 C 77.76203155517578 16.20114135742188 78.25038909912109 17.38198852539063 78.25038909912109 18.63946533203125 C 78.25038909912109 19.89691162109375 77.76203155517578 21.07777214050293 76.87531280517578 21.96449661254883 L 73.18891143798828 26.49780464172363 C 74.6734619140625 29.07372665405273 75.81380462646484 31.83626556396484 76.57829284667969 34.70758819580078 L 82.35721588134766 35.40240478515625 C 84.95012664794922 35.40240478515625 87.05970764160156 37.51154327392578 87.05970764160156 40.10400390625 L 87.05970764160156 47.15729522705078 C 87.05970764160156 49.75026702880859 84.95018768310547 51.85980224609375 82.35721588134766 51.85980224609375 L 76.52969360351563 52.4600944519043 C 75.70071411132813 55.51043319702148 74.44772338867188 58.43031311035156 72.80640411376953 61.13789749145508 L 76.34881591796875 65.81429290771484 C 77.22116088867188 66.71755981445313 77.68959045410156 67.90664672851563 77.66777038574219 69.16243743896484 C 77.64592742919922 70.41837310791016 77.13626861572266 71.59038543701172 76.23271179199219 72.46260070800781 L 71.15941619873047 77.36220550537109 C 70.27808380126953 78.21340179443359 69.11811065673828 78.68218994140625 67.89320373535156 78.68222045898438 C 66.60566711425781 78.68226623535156 65.40422058105469 78.17223358154297 64.51020050048828 77.24610900878906 L 59.97060394287109 73.42111206054688 C 57.5667724609375 74.73634338378906 55.00800323486328 75.75735473632813 52.36649703979492 76.45590972900391 L 51.658203125 82.35721588134766 C 51.658203125 84.95012664794922 49.54866409301758 87.05970764160156 46.95571136474609 87.05970764160156 Z M 43.63109588623047 29.38860321044922 C 35.85269546508789 29.38860321044922 29.52449607849121 35.71638870239258 29.52449607849121 43.49429702758789 C 29.52449607849121 51.27271270751953 35.85269546508789 57.60089492797852 43.63109588623047 57.60089492797852 C 51.40900421142578 57.60089492797852 57.7368049621582 51.27271270751953 57.7368049621582 43.49429702758789 C 57.7368049621582 35.71638870239258 51.40900421142578 29.38860321044922 43.63109588623047 29.38860321044922 Z" stroke="none" fill="#343434"/>
  </g>
</svg>
