<svg id="EngrenageUP6" xmlns="http://www.w3.org/2000/svg" width="105.06" height="105.06" viewBox="0 0 105.06 105.06">
  <g id="Exclusion_2" data-name="Exclusion 2" transform="translate(0 0)" fill="#707070">
    <path d="M 56.66343688964844 103.0601119995117 L 48.15280532836914 103.0601119995117 C 46.12639236450195 103.0601119995117 44.47779083251953 101.4114990234375 44.47779083251953 99.38508605957031 L 44.47779083251953 99.28231048583984 L 44.46725082397461 99.18008422851563 L 43.7229118347168 91.95639038085938 L 43.58266830444336 90.59528350830078 L 42.26322174072266 90.23283386230469 C 39.04806900024414 89.34963989257813 35.94980621337891 88.05154418945313 33.05448150634766 86.37458801269531 L 31.88214492797852 85.69557189941406 L 30.81669807434082 86.53240966796875 L 25.09826850891113 91.02389526367188 L 25.00409889221191 91.09786987304688 L 24.9194221496582 91.18254089355469 C 24.2252368927002 91.87674713134766 23.30245208740234 92.25904846191406 22.32106781005859 92.25904846191406 C 21.33989906311035 92.25904846191406 20.41760635375977 91.87688446044922 19.72408294677734 91.18294525146484 L 13.7052059173584 85.16407012939453 C 13.01086711883545 84.47013092041016 12.62869834899902 83.54783630371094 12.62869834899902 82.56666564941406 C 12.62869834899902 81.58528137207031 13.01100635528564 80.66251373291016 13.7052059173584 79.96831512451172 L 13.77792930603027 79.89559173583984 L 13.84280586242676 79.81577301025391 L 18.46199035644531 74.13436126708984 L 19.32694435119629 73.07051086425781 L 18.64652824401855 71.88015747070313 C 16.99408340454102 68.98932647705078 15.71814441680908 65.89700317382813 14.85416030883789 62.68906784057617 L 14.50282096862793 61.38457489013672 L 13.16148281097412 61.22346878051758 L 5.912251949310303 60.35272979736328 L 5.793421268463135 60.33845138549805 L 5.673744678497314 60.33845138549805 C 3.64803671836853 60.33845138549805 2.000005960464478 58.68985366821289 2.000005960464478 56.66343688964844 L 2.000005960464478 48.15280532836914 C 2.000005960464478 46.12639236450195 3.64803671836853 44.47779083251953 5.673744678497314 44.47779083251953 L 5.776529312133789 44.47779083251953 L 5.878775119781494 44.46725082397461 L 13.13822174072266 43.71908187866211 L 14.50565242767334 43.57815933227539 L 14.86403656005859 42.25102233886719 C 15.79242134094238 38.81300735473633 17.19212913513184 35.51443862915039 19.02428245544434 32.44692993164063 L 19.71599006652832 31.28883743286133 L 18.90139007568359 30.21362113952637 L 14.51968288421631 24.43008232116699 L 14.4472827911377 24.33451461791992 L 14.36399078369141 24.24829864501953 C 13.68240642547607 23.5427131652832 13.31648254394531 22.6137752532959 13.33362102508545 21.63259124755859 C 13.35077571868896 20.65128326416016 13.74905204772949 19.73543739318848 14.45511341094971 19.05377578735352 L 20.57723617553711 13.14102172851563 C 21.26591300964355 12.47612953186035 22.1725902557373 12.10982131958008 23.12995910644531 12.10982131958008 C 24.13620567321777 12.10982131958008 25.0750675201416 12.50805187225342 25.77359008789063 13.23114490509033 L 25.84488296508789 13.30496025085449 L 25.92336082458496 13.37106800079346 L 31.43751335144043 18.01705169677734 L 32.49137496948242 18.90499114990234 L 33.69640731811523 18.23648262023926 C 36.4401741027832 16.71435928344727 39.36540603637695 15.52668285369873 42.39083862304688 14.706467628479 L 43.69222259521484 14.35365200042725 L 43.85320663452148 13.01494407653809 L 44.70732879638672 5.912544727325439 L 44.72163772583008 5.793575286865234 L 44.72163772583008 5.673744678497314 C 44.72163772583008 3.64803671836853 46.36968231201172 2.000005960464478 48.39538955688477 2.000005960464478 L 56.90729904174805 2.000005960464478 C 58.93300628662109 2.000005960464478 60.58103561401367 3.64803671836853 60.58103561401367 5.673744678497314 L 60.58103561401367 5.776421546936035 L 60.59154510498047 5.878544330596924 L 61.31928253173828 12.9477596282959 L 61.46042251586914 14.31877517700195 L 62.79186630249023 14.67500591278076 C 66.07237243652344 15.55269813537598 69.22882080078125 16.85883712768555 72.17351531982422 18.55714416503906 L 73.34483337402344 19.2326831817627 L 74.40815734863281 18.39742088317871 L 79.96189880371094 14.03486728668213 L 80.05603790283203 13.96092891693115 L 80.14068603515625 13.87628269195557 C 80.83423614501953 13.18272876739502 81.75666809082031 12.80076026916504 82.73806762695313 12.80076026916504 C 83.71969604492188 12.80076026916504 84.64262390136719 13.18285179138184 85.33680725097656 13.87666797637939 L 91.35489654541016 19.89476013183594 C 92.78771209716797 21.32759094238281 92.78771209716797 23.65896034240723 91.35489654541016 25.0917911529541 L 91.28218841552734 25.16449928283691 L 91.21731567382813 25.24428367614746 L 86.76920318603516 30.71503639221191 L 85.90116119384766 31.78266716003418 L 86.58794403076172 32.97500610351563 C 88.29349517822266 35.93601989746094 89.60214233398438 39.10603713989258 90.47756195068359 42.39697647094727 L 90.82595825195313 43.70669937133789 L 92.17154693603516 43.8685302734375 L 99.14628601074219 44.70732879638672 L 99.26525115966797 44.72163772583008 L 99.38508605957031 44.72163772583008 C 101.4114990234375 44.72163772583008 103.0601119995117 46.36968231201172 103.0601119995117 48.39538955688477 L 103.0601119995117 56.90729904174805 C 103.0601119995117 58.93300628662109 101.4114990234375 60.58103561401367 99.38508605957031 60.58103561401367 L 99.28223419189453 60.58103561401367 L 99.179931640625 60.59159088134766 L 92.14774322509766 61.31677627563477 L 90.78297424316406 61.45751190185547 L 90.4229736328125 62.78145217895508 C 89.47119140625 66.28171539306641 88.0330810546875 69.63260650634766 86.14859008789063 72.74103546142578 L 85.44425201416016 73.90282440185547 L 86.26474761962891 74.98571014404297 L 90.54048156738281 80.62883758544922 L 90.61268615722656 80.72414398193359 L 90.69574737548828 80.81015777587891 C 91.37757873535156 81.51637268066406 91.74362182617188 82.44585418701172 91.72648620605469 83.42736053466797 C 91.70932769775391 84.40876007080078 91.31103515625 85.32466888427734 90.60497283935547 86.00636291503906 L 84.48174285888672 91.91891479492188 C 83.79328155517578 92.58399200439453 82.88734436035156 92.95009613037109 81.93048095703125 92.95014190673828 C 80.92436218261719 92.95017242431641 79.98551177978516 92.55168151855469 79.28691101074219 91.82807922363281 L 79.21539306640625 91.75402069091797 L 79.13665008544922 91.68768310546875 L 73.65823364257813 87.07234191894531 L 72.61114501953125 86.19020843505859 L 71.40992736816406 86.84720611572266 C 68.65206909179688 88.35562133789063 65.71583557128906 89.52694702148438 62.68277359008789 90.32865142822266 L 61.37003707885742 90.67565155029297 L 61.2081298828125 92.02377319335938 L 60.35271453857422 99.1466064453125 L 60.33845138549805 99.26541900634766 L 60.33845138549805 99.38508605957031 C 60.33845138549805 101.4114990234375 58.68985366821289 103.0601119995117 56.66343688964844 103.0601119995117 Z M 52.65197372436523 33.46475982666016 C 42.1622200012207 33.46475982666016 33.628173828125 41.99822235107422 33.628173828125 52.48726654052734 C 33.628173828125 62.9763298034668 42.1622200012207 71.50980377197266 52.65197372436523 71.50980377197266 C 63.14103698730469 71.50980377197266 71.67449951171875 62.9763298034668 71.67449951171875 52.48726654052734 C 71.67449951171875 41.99822235107422 63.14103698730469 33.46475982666016 52.65197372436523 33.46475982666016 Z" stroke="none"/>
    <path d="M 56.66343688964844 101.0601043701172 C 57.5870361328125 101.0601043701172 58.33845138549805 100.3086853027344 58.33845138549805 99.38508605957031 L 58.33845138549805 99.145751953125 L 58.36698532104492 98.90813446044922 L 59.2224006652832 91.78530120849609 L 59.54621887207031 89.08905029296875 L 62.17166900634766 88.39506530761719 C 65.04866790771484 87.63460540771484 67.83396911621094 86.52345275878906 70.45020294189453 85.09252166748047 L 72.85263824462891 83.77850341796875 L 74.94683837890625 85.54277038574219 L 80.42525482177734 90.15811920166016 L 80.58273315429688 90.29080200195313 L 80.72575378417969 90.43893432617188 C 81.04865264892578 90.77338409423828 81.46523284912109 90.95017242431641 81.93038177490234 90.95014953613281 C 82.37238311767578 90.95013427734375 82.77401733398438 90.78781890869141 83.09248352050781 90.48017120361328 L 89.2158203125 84.56752014160156 C 89.54216766357422 84.25243377685547 89.71884918212891 83.84609985351563 89.72678375244141 83.39241790771484 C 89.73471832275391 82.93848419189453 89.57223510742188 82.52591705322266 89.25690460205078 82.19931793212891 L 89.09080505371094 82.02726745605469 L 88.94636535644531 81.836669921875 L 84.67063903808594 76.19355010986328 L 83.02965545654297 74.02778625488281 L 84.43833923339844 71.70420074462891 C 86.22605133056641 68.75540161132813 87.59025573730469 65.57680511474609 88.49303436279297 62.25666809082031 L 89.21303558349609 59.60880279541016 L 91.94256591796875 59.32732009887695 L 98.97476959228516 58.60213470458984 L 99.17938232421875 58.58103561401367 L 99.38508605957031 58.58103561401367 C 100.3086853027344 58.58103561401367 101.0601043701172 57.83020401000977 101.0601043701172 56.90728378295898 L 101.0601043701172 48.3953857421875 C 101.0601043701172 47.47246932983398 100.3086853027344 46.72163391113281 99.38508605957031 46.72163391113281 L 99.14541625976563 46.72163391113281 L 98.907470703125 46.69301986694336 L 91.9327392578125 45.85421752929688 L 89.24158477783203 45.53056716918945 L 88.54478454589844 42.91111755371094 C 87.71440124511719 39.78948593139648 86.47293853759766 36.78235244750977 84.85488891601563 33.97325134277344 L 83.48130035400391 31.58856964111328 L 85.21742248535156 29.45331954956055 L 89.66553497314453 23.98256874084473 L 89.79526519775391 23.82300186157227 L 89.94068908691406 23.67758560180664 C 90.59371948242188 23.02455139160156 90.59371948242188 21.96198463439941 89.94070434570313 21.30896949768066 L 83.92298889160156 15.29126930236816 C 83.60190582275391 14.97036838531494 83.19216918945313 14.80075263977051 82.73806762695313 14.80075263977051 C 82.28441619873047 14.80075263977051 81.87526702880859 14.97010231018066 81.55488586425781 15.29050254821777 L 81.38560485839844 15.4597692489624 L 81.19734954833984 15.60763549804688 L 75.64361572265625 19.97020149230957 L 73.5169677734375 21.6407356262207 L 71.17433929443359 20.28966903686523 C 68.38088226318359 18.67860221862793 65.38668823242188 17.43958473205566 62.27493667602539 16.60703468322754 L 59.61206817626953 15.89460182189941 L 59.32980346679688 13.15256881713867 L 58.60206985473633 6.08336877822876 L 58.58103561401367 5.879102230072021 L 58.58103561401367 5.673752307891846 C 58.58103561401367 4.750835418701172 57.83020401000977 4.000002384185791 56.90728378295898 4.000002384185791 L 48.3953857421875 4.000002384185791 C 47.47246932983398 4.000002384185791 46.72163391113281 4.750835418701172 46.72163391113281 5.673752307891846 L 46.72163391113281 5.913402080535889 L 46.69301986694336 6.151335716247559 L 45.83890151977539 13.25373554229736 L 45.51691818237305 15.93116855621338 L 42.91415405273438 16.63678550720215 C 40.04433441162109 17.41481971740723 37.26947021484375 18.54145240783691 34.66661834716797 19.98538589477539 L 32.25653457641602 21.32238578796387 L 30.14883613586426 19.54653549194336 L 24.63468551635742 14.90055179595947 L 24.47773551940918 14.76831912994385 L 24.33515167236328 14.62070178985596 C 24.01228523254395 14.28648567199707 23.59553527832031 14.10981845855713 23.12995147705078 14.10981845855713 C 22.68725204467773 14.10981845855713 22.2848014831543 14.27245235443115 21.96663475036621 14.57961845397949 L 15.84425258636475 20.49261856079102 C 15.51791858673096 20.80766868591309 15.34125232696533 21.21393585205078 15.33331871032715 21.66753578186035 C 15.32540225982666 22.12093544006348 15.4876184463501 22.53285217285156 15.80245208740234 22.85875129699707 L 15.96903514862061 23.03120231628418 L 16.11381912231445 23.22231864929199 L 20.49553489685059 29.00586891174316 L 22.12473487854004 31.15628623962402 L 20.74133491516113 33.47248458862305 C 19.00320243835449 36.38258361816406 17.67541885375977 39.51153564453125 16.79486846923828 42.77241897583008 L 16.0781192779541 45.42668533325195 L 13.34325218200684 45.70853424072266 L 6.083818912506104 46.45670318603516 L 5.879335403442383 46.47778701782227 L 5.673752307891846 46.47778701782227 C 4.750835418701172 46.47778701782227 4.000002384185791 47.22920227050781 4.000002384185791 48.15280151367188 L 4.000002384185791 56.66343688964844 C 4.000002384185791 57.5870361328125 4.750835418701172 58.33845138549805 5.673752307891846 58.33845138549805 L 5.913118839263916 58.33845138549805 L 6.150785446166992 58.36700057983398 L 13.40000247955322 59.23773574829102 L 16.0826530456543 59.55995178222656 L 16.78533554077148 62.16891860961914 C 17.60488510131836 65.21185302734375 18.81528472900391 68.14524841308594 20.38286972045898 70.88764953613281 L 21.74370193481445 73.26834869384766 L 20.01381874084473 75.39604949951172 L 15.39465236663818 81.07745361328125 L 15.26488590240479 81.23705291748047 L 15.11943531036377 81.38252258300781 C 14.79838562011719 81.70355224609375 14.62870216369629 82.11302185058594 14.62870216369629 82.56666564941406 C 14.62870216369629 83.01986694335938 14.79810237884521 83.42871856689453 15.11943531036377 83.74985504150391 L 21.13871955871582 89.76914978027344 C 21.45901870727539 90.08965301513672 21.86788558959961 90.25904846191406 22.32106971740723 90.25904846191406 C 22.77470207214355 90.25904846191406 23.18416976928711 90.08937072753906 23.50520133972168 89.76833343505859 L 23.67455291748047 89.59898376464844 L 23.86290168762207 89.45103454589844 L 29.58133506774902 84.95954895019531 L 31.71220207214355 83.285888671875 L 34.05686950683594 84.6439208984375 C 36.80386734008789 86.23497009277344 39.74311828613281 87.46648406982422 42.79298400878906 88.30426788330078 L 45.431884765625 89.02915191650391 L 45.71238708496094 91.75140380859375 L 46.45671844482422 98.97510528564453 L 46.47778701782227 99.17955017089844 L 46.47778701782227 99.38508605957031 C 46.47778701782227 100.3086853027344 47.22920227050781 101.0601043701172 48.15280151367188 101.0601043701172 L 56.66343688964844 101.0601043701172 M 52.65196990966797 31.46475219726563 C 64.24382019042969 31.46475219726563 73.67448425292969 40.89542007446289 73.67448425292969 52.48727035522461 C 73.67448425292969 64.07913208007813 64.24382019042969 73.50981903076172 52.65196990966797 73.50981903076172 C 41.05940246582031 73.50981903076172 31.6281681060791 64.07913208007813 31.6281681060791 52.48727035522461 C 31.6281681060791 40.89542007446289 41.05940246582031 31.46475219726563 52.65196990966797 31.46475219726563 M 56.66343688964844 105.0601043701172 L 48.15280151367188 105.0601043701172 C 45.02360153198242 105.0601043701172 42.47778701782227 102.5142822265625 42.47778701782227 99.38508605957031 L 41.73345184326172 92.16138458251953 C 38.35235214233398 91.23262023925781 35.09471893310547 89.86753845214844 32.05208587646484 88.10525512695313 L 26.33365249633789 92.59673309326172 C 25.26175308227539 93.66865539550781 23.83668518066406 94.25904846191406 22.32106971740723 94.25904846191406 C 20.80546951293945 94.25904846191406 19.38078498840332 93.668701171875 18.30945205688477 92.59673309326172 L 12.29100227355957 86.57828521728516 C 11.2190523147583 85.50696563720703 10.62870216369629 84.08228302001953 10.62870216369629 82.56666564941406 C 10.62870216369629 81.05105590820313 11.2190523147583 79.62603759765625 12.29100227355957 78.55408477783203 L 16.91016960144043 72.87268829345703 C 15.17255210876465 69.83283233642578 13.8311185836792 66.58103179931641 12.92296886444092 63.20918655395508 L 5.673752307891846 62.33845138549805 C 2.545318841934204 62.33845138549805 2.18505851989903e-06 59.79265213012695 2.18505851989903e-06 56.66343688964844 L 2.18505851989903e-06 48.15280151367188 C 2.18505851989903e-06 45.02360153198242 2.545235633850098 42.47778701782227 5.673752307891846 42.47778701782227 L 12.93318557739258 41.72961807250977 C 13.90953540802002 38.11398696899414 15.38158512115479 34.64545059204102 17.30723571777344 31.42138481140137 L 12.92551898956299 25.63783645629883 C 11.87273597717285 24.5479850769043 11.30745220184326 23.11310195922852 11.33393573760986 21.59765243530273 C 11.36040210723877 20.0821361541748 11.97553539276123 18.66768646240234 13.06596851348877 17.61491966247559 L 19.18783569335938 11.70241928100586 C 20.25158500671387 10.67541885375977 21.65160179138184 10.10981845855713 23.12995147705078 10.10981845855713 C 24.68353462219238 10.10981845855713 26.13323593139648 10.72483539581299 27.2120361328125 11.84158515930176 L 32.7261848449707 16.48756790161133 C 35.61163711547852 14.8868522644043 38.68775177001953 13.63820171356201 41.86751937866211 12.77615261077881 L 42.72163391113281 5.673752307891846 C 42.72163391113281 2.545318841934204 45.26688385009766 2.18505851989903e-06 48.3953857421875 2.18505851989903e-06 L 56.90728378295898 2.18505851989903e-06 C 60.03580093383789 2.18505851989903e-06 62.58103561401367 2.545235633850098 62.58103561401367 5.673752307891846 L 63.30876922607422 12.74295234680176 C 66.75862121582031 13.6659517288208 70.07768249511719 15.03963565826416 73.17272186279297 16.82463645935059 L 78.72645568847656 12.46206855773926 C 79.79772186279297 11.39080238342285 81.22243499755859 10.80075263977051 82.73806762695313 10.80075263977051 C 84.25368499755859 10.80075263977051 85.67873382568359 11.39075183868408 86.75063323974609 12.46206855773926 L 92.76911926269531 18.48053550720215 C 94.98173522949219 20.69316864013672 94.98173522949219 24.29336929321289 92.76911926269531 26.50600242614746 L 88.32099914550781 31.97675132751465 C 90.11437225341797 35.09021759033203 91.49016571044922 38.42363739013672 92.41035461425781 41.88283538818359 L 99.38508605957031 42.72163391113281 C 102.5142364501953 42.72163391113281 105.0601043701172 45.26688385009766 105.0601043701172 48.3953857421875 L 105.0601043701172 56.90728378295898 C 105.0601043701172 60.03580093383789 102.5142822265625 62.58103561401367 99.38508605957031 62.58103561401367 L 92.35288238525391 63.30621719360352 C 91.35195159912109 66.98728179931641 89.83950042724609 70.51081848144531 87.85883331298828 73.77788543701172 L 92.13456726074219 79.42100524902344 C 93.18737030029297 80.51145172119141 93.75265502929688 81.94673919677734 93.72616577148438 83.46230316162109 C 93.69969940185547 84.97792053222656 93.08457183837891 86.39240264892578 91.99413299560547 87.44518280029297 L 85.87098693847656 93.357666015625 C 84.8079833984375 94.38453674316406 83.40858459472656 94.95008850097656 81.93057250976563 94.95014953613281 C 80.37686920166016 94.95018768310547 78.92701721191406 94.33478546142578 77.84806823730469 93.21723175048828 L 72.36965179443359 88.60188293457031 C 69.46945190429688 90.18814849853516 66.38172149658203 91.41961669921875 63.19387054443359 92.26225280761719 L 62.33845138549805 99.38508605957031 C 62.33845138549805 102.5142364501953 59.79265213012695 105.0601043701172 56.66343688964844 105.0601043701172 Z M 52.65196990966797 35.46475219726563 C 43.26501846313477 35.46475219726563 35.62817001342773 43.10101699829102 35.62817001342773 52.48727035522461 C 35.62817001342773 61.87353515625 43.26501846313477 69.50981903076172 52.65196990966797 69.50981903076172 C 62.03823471069336 69.50981903076172 69.67448425292969 61.87353515625 69.67448425292969 52.48727035522461 C 69.67448425292969 43.10101699829102 62.03823471069336 35.46475219726563 52.65196990966797 35.46475219726563 Z" stroke="none" fill="#343434"/>
  </g>
</svg>
