<svg xmlns="http://www.w3.org/2000/svg" width="174.491" height="174.491" viewBox="0 0 174.491 174.491">
  <g id="EngrenageUP1" transform="translate(48.401) rotate(21)">
    <g id="Exclusion_2" data-name="Exclusion 2" transform="translate(0 0)" fill="#707070">
      <path d="M 72.84373474121094 133.0601196289063 L 61.90287399291992 133.0601196289063 C 58.98291397094727 133.0601196289063 56.60735321044922 130.6845550537109 56.60735321044922 127.7645721435547 L 56.60735321044922 127.6618118286133 L 56.5968132019043 127.5595703125 L 55.63995361328125 118.2731552124023 L 55.49971389770508 116.9120330810547 L 54.18025207519531 116.5495910644531 C 49.99979400634766 115.4012298583984 45.97139358520508 113.7134552001953 42.20697402954102 111.5331115722656 L 41.03463363647461 110.8540954589844 L 39.96919250488281 111.6909332275391 L 32.61787033081055 117.464973449707 L 32.5236930847168 117.538932800293 L 32.43901062011719 117.6236114501953 C 31.43875312805176 118.623908996582 30.10905265808105 119.1748123168945 28.69487190246582 119.1748123168945 C 27.28093147277832 119.1748123168945 25.95181274414063 118.6240692138672 24.95237159729004 117.6240158081055 L 17.21491241455078 109.8865737915039 C 16.2144718170166 108.8867340087891 15.66373252868652 107.5576095581055 15.66373252868652 106.143669128418 C 15.66373252868652 104.7294921875 16.21461296081543 103.3997955322266 17.21489143371582 102.3995132446289 L 17.28763198852539 102.326789855957 L 17.35251235961914 102.2469711303711 L 23.29071235656738 94.94322967529297 L 24.15567207336426 93.87939453125 L 23.47523307800293 92.68903350830078 C 21.32677268981934 88.93043518066406 19.66777229309082 84.90969085693359 18.5443115234375 80.73849487304688 L 18.19297218322754 79.43401336669922 L 16.85165214538574 79.27291107177734 L 7.532412052154541 78.15354919433594 L 7.413572311401367 78.13927459716797 L 7.293892383575439 78.13927459716797 C 4.374832153320313 78.13927459716797 2.000012159347534 75.76371002197266 2.000012159347534 72.84373474121094 L 2.000012159347534 61.90287399291992 C 2.000012159347534 58.98291397094727 4.374832153320313 56.60735321044922 7.293892383575439 56.60735321044922 L 7.396672248840332 56.60735321044922 L 7.498932361602783 56.5968132019043 L 16.83131217956543 55.63501358032227 L 18.19873237609863 55.49409103393555 L 18.5571117401123 54.16695404052734 C 19.76421165466309 49.69673156738281 21.58415222167969 45.40781402587891 23.96637153625488 41.4193115234375 L 24.65807151794434 40.26121139526367 L 23.84349250793457 39.18601226806641 L 18.2105712890625 31.75097274780273 L 18.1381721496582 31.6554126739502 L 18.05487251281738 31.56919288635254 C 17.07267189025879 30.55241203308105 16.54533195495605 29.21375274658203 16.57005310058594 27.79983139038086 C 16.5947322845459 26.38575172424316 17.16867256164551 25.06601142883301 18.18611145019531 24.08371162414551 L 26.05635261535645 16.4826717376709 C 27.04879188537598 15.52451229095459 28.35521125793457 14.9966926574707 29.73473167419434 14.9966926574707 C 31.18461227416992 14.9966926574707 32.53743362426758 15.57053184509277 33.54401397705078 16.6125316619873 L 33.61529159545898 16.68633270263672 L 33.69377136230469 16.7524528503418 L 40.78251266479492 22.7250919342041 L 41.83637237548828 23.6130313873291 L 43.04141235351563 22.94451141357422 C 46.60893249511719 20.96541213989258 50.41239166259766 19.42119216918945 54.34613037109375 18.35471153259277 L 55.64751052856445 18.00189208984375 L 55.80851364135742 16.66319274902344 L 56.90653228759766 7.532691955566406 L 56.92083358764648 7.413712024688721 L 56.92083358764648 7.293892383575439 C 56.92083358764648 4.374832153320313 59.29567337036133 2.000012159347534 62.2147331237793 2.000012159347534 L 73.15721130371094 2.000012159347534 C 76.07627105712891 2.000012159347534 78.45111083984375 4.374832153320313 78.45111083984375 7.293892383575439 L 78.45111083984375 7.396572113037109 L 78.46163177490234 7.498692035675049 L 79.39717102050781 16.58651161193848 L 79.53831481933594 17.95753288269043 L 80.86973571777344 18.31375312805176 C 85.13510894775391 19.45495223999023 89.23921203613281 21.15323257446289 93.06805419921875 23.3614330291748 L 94.23937225341797 24.03695297241211 L 95.30268859863281 23.20169258117676 L 102.4423141479492 17.59341239929199 L 102.5364532470703 17.51947212219238 L 102.62109375 17.4348316192627 C 103.6205749511719 16.43535232543945 104.9498138427734 15.88491249084473 106.3639907836914 15.88491249084473 C 107.7784118652344 15.88491249084473 109.1082534790039 16.43549156188965 110.1085510253906 17.43523216247559 L 117.8451919555664 25.1718921661377 C 118.8431549072266 26.16983222961426 119.3927536010742 27.49961280822754 119.3927536010742 28.91625213623047 C 119.3927536010742 30.33287239074707 118.8431549072266 31.66265296936035 117.8451919555664 32.66059112548828 L 117.7724914550781 32.73331069946289 L 117.7076110839844 32.81309127807617 L 111.9893493652344 39.84603118896484 L 111.1213150024414 40.91367340087891 L 111.8080902099609 42.10599136352539 C 114.0256118774414 45.95585250854492 115.7271499633789 50.07757186889648 116.8654098510742 54.35665130615234 L 117.2138137817383 55.6663703918457 L 118.5593948364258 55.82821273803711 L 127.5257720947266 56.90653228759766 L 127.6447296142578 56.92083358764648 L 127.7645721435547 56.92083358764648 C 130.6845550537109 56.92083358764648 133.0601196289063 59.29567337036133 133.0601196289063 62.2147331237793 L 133.0601196289063 73.15721130371094 C 133.0601196289063 76.07627105712891 130.6845550537109 78.45111083984375 127.7645721435547 78.45111083984375 L 127.6617126464844 78.45111083984375 L 127.5594100952148 78.461669921875 L 118.5191955566406 79.39392852783203 L 117.1544342041016 79.53467559814453 L 116.79443359375 80.85858917236328 C 115.5568695068359 85.40981292724609 113.68701171875 89.76675415039063 111.2367553710938 93.80839538574219 L 110.5324325561523 94.97016906738281 L 111.352912902832 96.05307006835938 L 116.8495941162109 103.3075714111328 L 116.9218139648438 103.4028701782227 L 117.0048522949219 103.4888687133789 C 117.9873123168945 104.5064926147461 118.5147933959961 105.8458099365234 118.4900741577148 107.2600936889648 C 118.4653701782227 108.6742935180664 117.8914337158203 109.9940948486328 116.8740158081055 110.9763946533203 L 109.0022888183594 118.5772933959961 C 108.0102691650391 119.5355758666992 106.7047348022461 120.0631942749023 105.3258514404297 120.063232421875 C 103.8760528564453 120.0632934570313 102.5232086181641 119.4890747070313 101.5164947509766 118.4463500976563 L 101.4449691772461 118.3722915649414 L 101.3662490844727 118.3059539794922 L 94.32349395751953 112.3726959228516 L 93.27639007568359 111.4905700683594 L 92.07517242431641 112.1475524902344 C 88.48921203613281 114.1088714599609 84.67140960693359 115.6318511962891 80.72785186767578 116.6742095947266 L 79.41509246826172 117.0211944580078 L 79.25318908691406 118.3693313598633 L 78.15353393554688 127.5260925292969 L 78.13927459716797 127.6449127197266 L 78.13927459716797 127.7645721435547 C 78.13927459716797 130.6845550537109 75.76371002197266 133.0601196289063 72.84373474121094 133.0601196289063 Z M 67.68679046630859 43.59175109863281 C 54.51657104492188 43.59175109863281 43.80183029174805 54.30575180053711 43.80183029174805 67.47505187988281 C 43.80183029174805 80.64437103271484 54.51657104492188 91.35839080810547 67.68679046630859 91.35839080810547 C 80.85609436035156 91.35839080810547 91.57011413574219 80.64437103271484 91.57011413574219 67.47505187988281 C 91.57011413574219 54.30575180053711 80.85609436035156 43.59175109863281 67.68679046630859 43.59175109863281 Z" stroke="none"/>
      <path d="M 72.84371948242188 131.0601196289063 C 74.660888671875 131.0601196289063 76.13925933837891 129.5817413330078 76.13925933837891 127.7645721435547 L 76.13925933837891 127.5252380371094 L 76.16780090332031 127.2876358032227 L 77.26747131347656 118.1308822631836 L 77.59126281738281 115.4346160888672 L 80.21674346923828 114.7406387329102 C 84.00434112548828 113.7394866943359 87.67119598388672 112.2766952514648 91.11542510986328 110.3928680419922 L 93.51786804199219 109.0788421630859 L 95.61207580566406 110.843132019043 L 102.6548461914063 116.7764053344727 L 102.8123016357422 116.9090728759766 L 102.955322265625 117.0571975708008 C 103.5908050537109 117.7153854370117 104.4104690551758 118.0632781982422 105.3258056640625 118.0632400512695 C 106.1834869384766 118.0632171630859 106.9955749511719 117.7350311279297 107.6130294799805 117.1385345458984 L 115.4848403930664 109.5375747680664 C 116.1270751953125 108.9175109863281 116.4748001098633 108.1178817749023 116.4903869628906 107.2251968383789 C 116.505989074707 106.3321990966797 116.1863403320313 105.5205764770508 115.5660095214844 104.8780517578125 L 115.3999099731445 104.7060089111328 L 115.2554931640625 104.5154037475586 L 109.7588195800781 97.26088714599609 L 108.1178436279297 95.09511566162109 L 109.5265121459961 92.77153015136719 C 111.8799896240234 88.88953399658203 113.6759490966797 84.70488739013672 114.8644866943359 80.33382415771484 L 115.5844879150391 77.68595123291016 L 118.3140335083008 77.40447235107422 L 127.3542633056641 76.47222137451172 L 127.5588684082031 76.45111846923828 L 127.7645721435547 76.45111846923828 C 129.5817413330078 76.45111846923828 131.0601196289063 74.97347259521484 131.0601196289063 73.15721893310547 L 131.0601196289063 62.21474075317383 C 131.0601196289063 60.39849090576172 129.5817413330078 58.92084503173828 127.7645721435547 58.92084503173828 L 127.5249099731445 58.92084503173828 L 127.2869491577148 58.89221954345703 L 118.3205718994141 57.81388473510742 L 115.6294097900391 57.49023818969727 L 114.9326171875 54.87078094482422 C 113.8394241333008 50.76107406616211 112.2050933837891 46.80223846435547 110.0750350952148 43.10424041748047 L 108.7014465332031 40.71955108642578 L 110.4375762939453 38.58430099487305 L 116.1558456420898 31.5513858795166 L 116.2855758666992 31.39182281494141 L 116.4309921264648 31.24640655517578 C 117.7158203125 29.96155166625977 117.7158203125 27.87094879150391 116.4310073852539 26.58611488342285 L 108.694694519043 18.84982299804688 C 108.0630950927734 18.21857261657715 107.2571563720703 17.88490676879883 106.3639907836914 17.88490676879883 C 105.4712829589844 17.88490676879883 104.6660537719727 18.21830177307129 104.0353240966797 18.84903144836426 L 103.8660278320313 19.01832389831543 L 103.6777572631836 19.16619873046875 L 96.53815460205078 24.77449035644531 L 94.41151428222656 26.44503211975098 L 92.06886291503906 25.09394836425781 C 88.39136505126953 22.9730110168457 84.44950866699219 21.34186553955078 80.35279846191406 20.24580192565918 L 77.68992614746094 19.53336524963379 L 77.40765380859375 16.79132270812988 L 76.47213745117188 7.703489780426025 L 76.45111846923828 7.499218940734863 L 76.45111846923828 7.293885707855225 C 76.45111846923828 5.477635383605957 74.97347259521484 4.00001049041748 73.15721893310547 4.00001049041748 L 62.21474075317383 4.00001049041748 C 60.39849090576172 4.00001049041748 58.92084503173828 5.477635383605957 58.92084503173828 7.293885707855225 L 58.92084503173828 7.533531188964844 L 58.89223861694336 7.771468639373779 L 57.79421997070313 16.90196800231934 L 57.47221755981445 19.57938575744629 L 54.86949157714844 20.28503227233887 C 51.09125900268555 21.3093433380127 47.43815612792969 22.79253196716309 44.01161575317383 24.69342803955078 L 41.60153198242188 26.03044891357422 L 39.49382400512695 24.25457382202148 L 32.40509414672852 18.28192710876465 L 32.24813461303711 18.14967727661133 L 32.10552978515625 18.00207328796387 C 31.47017669677734 17.3443431854248 30.65036392211914 16.99667739868164 29.73473930358887 16.99667739868164 C 28.87621879577637 16.99667739868164 28.06313514709473 17.32521820068359 27.44573974609375 17.9212818145752 L 19.57523918151855 25.5225944519043 C 18.93303108215332 26.14261436462402 18.58532333374023 26.9421558380127 18.56974029541016 27.83476066589355 C 18.55413627624512 28.72717666625977 18.87351036071777 29.53800964355469 19.49332237243652 30.17963600158691 L 19.65992736816406 30.35209465026855 L 19.80473899841309 30.54323959350586 L 25.43763542175293 37.9782829284668 L 27.06682395935059 40.12867736816406 L 25.68342781066895 42.44486618041992 C 23.3952808380127 46.27584457397461 21.64728164672852 50.39513397216797 20.48794746398926 54.6883659362793 L 19.77117729187012 57.34261322021484 L 17.03632354736328 57.62446975708008 L 7.703948020935059 58.58626174926758 L 7.499468803405762 58.60734558105469 L 7.293885707855225 58.60734558105469 C 5.477635383605957 58.60734558105469 4.00001049041748 60.08572006225586 4.00001049041748 61.90288543701172 L 4.00001049041748 72.84371948242188 C 4.00001049041748 74.660888671875 5.477635383605957 76.13925933837891 7.293885707855225 76.13925933837891 L 7.533260345458984 76.13925933837891 L 7.770906448364258 76.16780090332031 L 17.09015655517578 77.28717803955078 L 19.77282333374023 77.60940551757813 L 20.47550964355469 80.2183837890625 C 21.55444717407227 84.22444915771484 23.14790725708008 88.08624267578125 25.21157264709473 91.69651031494141 L 26.57242774963379 94.07721710205078 L 24.84253120422363 96.20492553710938 L 18.90434455871582 103.508674621582 L 18.77457237243652 103.6682815551758 L 18.62909317016602 103.8137588500977 C 17.9975528717041 104.4452819824219 17.66374015808105 105.2509460449219 17.66374015808105 106.1436538696289 C 17.66374015808105 107.0359039306641 17.99728202819824 107.8408889770508 18.62913513183594 108.4723434448242 L 26.36701011657715 116.2102432250977 C 26.99765586853027 116.8412628173828 27.80261421203613 117.1748046875 28.69486427307129 117.1748046875 C 29.58757209777832 117.1748046875 30.39323997497559 116.8409881591797 31.02476119995117 116.2094497680664 L 31.19413566589355 116.0400695800781 L 31.38249015808105 115.8921356201172 L 38.73382186889648 110.1180953979492 L 40.86467742919922 108.4444274902344 L 43.20934295654297 109.8024444580078 C 46.82551193237305 111.8969039916992 50.69488525390625 113.5180969238281 54.71001052856445 114.6210327148438 L 57.34892654418945 115.3459243774414 L 57.62942886352539 118.0681762695313 L 58.58628082275391 127.3545913696289 L 58.60734558105469 127.5590286254883 L 58.60734558105469 127.7645721435547 C 58.60734558105469 129.5817413330078 60.08572006225586 131.0601196289063 61.90288543701172 131.0601196289063 L 72.84371948242188 131.0601196289063 M 67.68680572509766 41.59173965454102 C 81.95890808105469 41.59173965454102 93.57011413574219 53.20294952392578 93.57011413574219 67.47505187988281 C 93.57011413574219 81.74717712402344 81.95890808105469 93.35840606689453 67.68680572509766 93.35840606689453 C 53.41378021240234 93.35840606689453 41.80184555053711 81.74717712402344 41.80184555053711 67.47505187988281 C 41.80184555053711 53.20294952392578 53.41378021240234 41.59173965454102 67.68680572509766 41.59173965454102 M 72.84371948242188 135.0601196289063 L 61.90288543701172 135.0601196289063 C 57.8801155090332 135.0601196289063 54.60734558105469 131.7873382568359 54.60734558105469 127.7645721435547 L 53.65048980712891 118.478157043457 C 49.30390548706055 117.2841796875 45.11605072021484 115.5292816162109 41.20457458496094 113.2637786865234 L 33.85324096679688 119.0378265380859 C 32.47528076171875 120.4158248901367 30.64326095581055 121.1748046875 28.69486427307129 121.1748046875 C 26.74649047851563 121.1748046875 24.91498947143555 120.415885925293 23.53773880004883 119.0378265380859 L 15.80069828033447 111.30078125 C 14.42265605926514 109.9235534667969 13.66374015808105 108.0920486450195 13.66374015808105 106.1436538696289 C 13.66374015808105 104.1952590942383 14.42265605926514 102.3633193969727 15.80069828033447 100.9853057861328 L 21.7388858795166 93.68154907226563 C 19.50509452819824 89.77367401123047 17.78059387207031 85.59329986572266 16.61313629150391 81.25863647460938 L 7.293885707855225 80.13925933837891 C 3.272135496139526 80.13925933837891 1.051839171850588e-05 76.86649322509766 1.051839171850588e-05 72.84371948242188 L 1.051839171850588e-05 61.90288543701172 C 1.051839171850588e-05 57.8801155090332 3.272031307220459 54.60734558105469 7.293885707855225 54.60734558105469 L 16.62626075744629 53.64555358886719 C 17.88142776489258 48.99746704101563 19.77380180358887 44.53849029541016 22.24932289123535 40.39377975463867 L 16.61642646789551 32.958740234375 C 15.26298999786377 31.55767631530762 14.53630256652832 29.71307373046875 14.57034397125244 27.76488494873047 C 14.60438537597656 25.81659317016602 15.39515590667725 23.99826049804688 16.79696846008301 22.6448860168457 L 24.66694831848145 15.0440731048584 C 26.03444862365723 13.72380256652832 27.8342399597168 12.99667739868164 29.73473930358887 12.99667739868164 C 31.7319278717041 12.99667739868164 33.59561538696289 13.78732299804688 34.98244857788086 15.22296905517578 L 42.0711784362793 21.19561386108398 C 45.78057479858398 19.13780212402344 49.73507308959961 17.53261375427246 53.82282257080078 16.42438507080078 L 54.92084503173828 7.293885707855225 C 54.92084503173828 3.272135496139526 58.19288635253906 1.051839171850588e-05 62.21474075317383 1.051839171850588e-05 L 73.15721893310547 1.051839171850588e-05 C 77.17906951904297 1.051839171850588e-05 80.45111846923828 3.272031307220459 80.45111846923828 7.293885707855225 L 81.38663482666016 16.3817195892334 C 85.82161712646484 17.56828117370605 90.08844757080078 19.33421897888184 94.0672607421875 21.62892723083496 L 101.2068634033203 16.0206356048584 C 102.5840301513672 14.64344787597656 104.4156112670898 13.88490676879883 106.3639907836914 13.88490676879883 C 108.3124084472656 13.88490676879883 110.1443634033203 14.643385887146 111.5223617553711 16.0206356048584 L 119.2594299316406 23.75767707824707 C 122.1038436889648 26.60211563110352 122.1038436889648 31.2303638458252 119.2594299316406 34.07482147216797 L 113.5411529541016 41.10773849487305 C 115.8466110229492 45.11026000976563 117.6152801513672 49.39555358886719 118.7981948852539 53.84251022338867 L 127.7645721435547 54.92084503173828 C 131.7872619628906 54.92084503173828 135.0601196289063 58.19288635253906 135.0601196289063 62.21474075317383 L 135.0601196289063 73.15721893310547 C 135.0601196289063 77.17906951904297 131.7873382568359 80.45111846923828 127.7645721435547 80.45111846923828 L 118.7243423461914 81.38336181640625 C 117.4375915527344 86.11557006835938 115.4932632446289 90.64524078369141 112.9470138549805 94.84522247314453 L 118.4436798095703 102.099739074707 C 119.7971115112305 103.5015716552734 120.5238037109375 105.3466949462891 120.4897842407227 107.2950286865234 C 120.4557418823242 109.2434463500977 119.6649475097656 111.0618438720703 118.2631530761719 112.4152374267578 L 110.3915328979492 120.0160293579102 C 109.0249862670898 121.3361358642578 107.2259902954102 122.0631790161133 105.325927734375 122.0632400512695 C 103.3285522460938 122.0633239746094 101.4646987915039 121.2721557617188 100.0776596069336 119.8355102539063 L 93.03488922119141 113.9022369384766 C 89.30651092529297 115.9414672851563 85.33707427978516 117.5245971679688 81.23892974853516 118.6078262329102 L 80.13925933837891 127.7645721435547 C 80.13925933837891 131.7872619628906 76.86649322509766 135.0601196289063 72.84371948242188 135.0601196289063 Z M 67.68680572509766 45.59173965454102 C 55.619384765625 45.59173965454102 45.80184555053711 55.40855407714844 45.80184555053711 67.47505187988281 C 45.80184555053711 79.54157257080078 55.619384765625 89.35840606689453 67.68680572509766 89.35840606689453 C 79.75330352783203 89.35840606689453 89.57011413574219 79.54157257080078 89.57011413574219 67.47505187988281 C 89.57011413574219 55.40855407714844 79.75330352783203 45.59173965454102 67.68680572509766 45.59173965454102 Z" stroke="none" fill="#343434"/>
    </g>
  </g>
</svg>
